<svg width="54" height="81" viewBox="0 0 54 81" fill="none" xmlns="http://www.w3.org/2000/svg">
<g clip-path="url(#clip0_564_8296)">
<path d="M50.8066 0V2.67403V5.34807V8.0221V10.6961V13.3702V16.0442V18.7182V21.3923V24.0663V26.7403V29.4144V32.0884V34.7624V37.4365V40.1105V42.7845V45.4586V48.1326V50.8066V53.4807H53.4807V50.8066V48.1326V45.4586V42.7845V40.1105V37.4365V34.7624V32.0884V29.4144V26.7403V24.0663V21.3923V18.7182V16.0442V13.3702V10.6961V8.0221V5.34807V2.67403V0H50.8066Z" fill="black"/>
<path d="M45.4589 45.4586V42.7845V40.1105V37.4365V34.7624V32.0884V29.4144V26.7403V24.0663V21.3923V18.7182V16.0442V13.3702V10.6961V8.02209H42.7849H40.1109H37.4368H34.7628H32.0888H29.4147H26.7407H24.0667H21.3926H18.7186H16.0446H13.3705H10.6965H8.02246V10.6961V13.3702V16.0442V18.7182V21.3923V24.0663V26.7403V29.4144V32.0884V34.7624V37.4365V40.1105V42.7845V45.4586V48.1326V50.8066H10.6965V53.4807V56.1547H13.3705V58.8287V61.5028H16.0446H18.7186V58.8287V56.1547H21.3926V53.4807V50.8066H24.0667V48.1326H26.7407H29.4147V50.8066H32.0888V53.4807V56.1547H34.7628V58.8287V61.5028H37.4368H40.1109V58.8287V56.1547H42.7849V53.4807V50.8066H45.4589V48.1326V45.4586Z" fill="#6B91BE"/>
<path d="M48.1322 45.4586V42.7845V40.1105V37.4365V34.7624V32.0884V29.4144V26.7403V24.0663V21.3923V18.7182V16.0442V13.3702V10.6961V8.02212V5.34808H45.4582H42.7841H40.1101H37.4361H34.762H32.088H29.414H26.7399H24.0659H21.3919H18.7178H16.0438H13.3698H10.6957H8.02169H5.34766V8.02212V10.6961V13.3702V16.0442V18.7182V21.3923V24.0663V26.7403V29.4144V32.0884V34.7624V37.4365V40.1105V42.7845V45.4586V48.1326V50.8066H8.02169V48.1326V45.4586V42.7845V40.1105V37.4365V34.7624V32.0884V29.4144V26.7403V24.0663V21.3923V18.7182V16.0442V13.3702V10.6961V8.02212H10.6957H13.3698H16.0438H18.7178H21.3919H24.0659H26.7399H29.414H32.088H34.762H37.4361H40.1101H42.7841H45.4582V10.6961V13.3702V16.0442V18.7182V21.3923V24.0663V26.7403V29.4144V32.0884V34.7624V37.4365V40.1105V42.7845V45.4586V48.1326V50.8066H48.1322V48.1326V45.4586Z" fill="#FFD700"/>
<path d="M2.67403 48.1326V45.4586V42.7845V40.1105V37.4365V34.7624V32.0884V29.4144V26.7403V24.0663V21.3923V18.7182V16.0442V13.3702V10.6961V8.0221V5.34807V2.67403V0H0V2.67403V5.34807V8.0221V10.6961V13.3702V16.0442V18.7182V21.3923V24.0663V26.7403V29.4144V32.0884V34.7624V37.4365V40.1105V42.7845V45.4586V48.1326V50.8066V53.4807H2.67403V50.8066V48.1326Z" fill="black"/>
<path d="M26.7404 48.1326H24.0664V50.8066H26.7404H29.4145V48.1326H26.7404Z" fill="#FFD700"/>
<path d="M50.8064 48.1326V45.4586V42.7845V40.1105V37.4365V34.7624V32.0884V29.4144V26.7403V24.0663V21.3923V18.7182V16.0442V13.3702V10.6961V8.0221V5.34807V2.67403V0H48.1324H45.4584H42.7843H40.1103H37.4363H34.7622H32.0882H29.4142H26.7401H24.0661H21.3921H18.718H16.044H13.37H10.6959H8.02189H5.34786H2.67383V2.67403V5.34807V8.0221V10.6961V13.3702V16.0442V18.7182V21.3923V24.0663V26.7403V29.4144V32.0884V34.7624V37.4365V40.1105V42.7845V45.4586V48.1326V50.8066V53.4807H5.34786V56.1547V58.8287H8.02189V61.5028V64.1768H10.6959V66.8508V69.5249H13.37V72.1989V74.8729H16.044H18.718V72.1989V69.5249H21.3921V66.8508V64.1768H24.0661V61.5028V58.8287H26.7401H29.4142V61.5028V64.1768H32.0882V66.8508V69.5249H34.7622V72.1989V74.8729H37.4363H40.1103V72.1989V69.5249H42.7843V66.8508V64.1768H45.4584V61.5028V58.8287H48.1324V56.1547V53.4807H50.8064V50.8066V48.1326ZM45.4584 50.8066V53.4807V56.1547H42.7843V58.8287V61.5028H40.1103V64.1768V66.8508H37.4363H34.7622V64.1768V61.5028H32.0882V58.8287V56.1547H29.4142V53.4807V50.8066H26.7401H24.0661V53.4807V56.1547H21.3921V58.8287V61.5028H18.718V64.1768V66.8508H16.044H13.37V64.1768V61.5028H10.6959V58.8287V56.1547H8.02189V53.4807V50.8066H5.34786V48.1326V45.4586V42.7845V40.1105V37.4365V34.7624V32.0884V29.4144V26.7403V24.0663V21.3923V18.7182V16.0442V13.3702V10.6961V8.0221V5.34807H8.02189H10.6959H13.37H16.044H18.718H21.3921H24.0661H26.7401H29.4142H32.0882H34.7622H37.4363H40.1103H42.7843H45.4584H48.1324V8.0221V10.6961V13.3702V16.0442V18.7182V21.3923V24.0663V26.7403V29.4144V32.0884V34.7624V37.4365V40.1105V42.7845V45.4586V48.1326V50.8066H45.4584Z" fill="#6B91BE"/>
<path d="M10.6965 50.8066H8.02246V53.4807V56.1547H10.6965V53.4807V50.8066Z" fill="#FFD700"/>
<path d="M21.3926 53.4807V56.1547H24.0666V53.4807V50.8066H21.3926V53.4807Z" fill="#FFD700"/>
<path d="M32.0881 50.8066H29.4141V53.4807V56.1547H32.0881V53.4807V50.8066Z" fill="#FFD700"/>
<path d="M42.7842 53.4807V56.1547H45.4582V53.4807V50.8066H42.7842V53.4807Z" fill="#FFD700"/>
<path d="M5.34786 53.4807H2.67383V56.1547V58.8287H5.34786V56.1547V53.4807Z" fill="black"/>
<path d="M48.1328 56.1547V58.8287H50.8068V56.1547V53.4807H48.1328V56.1547Z" fill="black"/>
<path d="M13.3703 56.1547H10.6963V58.8287V61.5027H13.3703V58.8287V56.1547Z" fill="#FFD700"/>
<path d="M18.7178 58.8287V61.5027H21.3918V58.8287V56.1547H18.7178V58.8287Z" fill="#FFD700"/>
<path d="M34.7629 56.1547H32.0889V58.8287V61.5027H34.7629V58.8287V56.1547Z" fill="#FFD700"/>
<path d="M40.1104 58.8287V61.5027H42.7844V58.8287V56.1547H40.1104V58.8287Z" fill="#FFD700"/>
<path d="M8.02169 58.8287H5.34766V61.5028V64.1768H8.02169V61.5028V58.8287Z" fill="black"/>
<path d="M29.4145 58.8287H26.7404H24.0664V61.5028V64.1768H26.7404H29.4145V61.5028V58.8287Z" fill="black"/>
<path d="M45.459 61.5028V64.1768H48.133V61.5028V58.8287H45.459V61.5028Z" fill="black"/>
<path d="M13.3701 61.5027V64.1768V66.8508H16.0442H18.7182V64.1768V61.5027H16.0442H13.3701Z" fill="#FFD700"/>
<path d="M34.7627 61.5027V64.1768V66.8508H37.4367H40.1108V64.1768V61.5027H37.4367H34.7627Z" fill="#FFD700"/>
<path d="M10.6965 64.1768H8.02246V66.8509V69.5249H10.6965V66.8509V64.1768Z" fill="black"/>
<path d="M21.3926 66.8509V69.5249H24.0666V66.8509V64.1768H21.3926V66.8509Z" fill="black"/>
<path d="M32.0881 64.1768H29.4141V66.8509V69.5249H32.0881V66.8509V64.1768Z" fill="black"/>
<path d="M42.7842 66.8509V69.5249H45.4582V66.8509V64.1768H42.7842V66.8509Z" fill="black"/>
<path d="M13.3703 69.5248H10.6963V72.1989V74.8729H13.3703V72.1989V69.5248Z" fill="black"/>
<path d="M18.7178 72.1989V74.8729H21.3918V72.1989V69.5248H18.7178V72.1989Z" fill="black"/>
<path d="M34.7629 69.5248H32.0889V72.1989V74.8729H34.7629V72.1989V69.5248Z" fill="black"/>
<path d="M40.1104 72.1989V74.8729H42.7844V72.1989V69.5248H40.1104V72.1989Z" fill="black"/>
<path d="M13.3701 74.8729V77.547V80.221H16.0442H18.7182V77.547V74.8729H16.0442H13.3701Z" fill="black"/>
<path d="M34.7627 74.8729V77.547V80.221H37.4367H40.1108V77.547V74.8729H37.4367H34.7627Z" fill="black"/>
<path d="M33.6036 14.4404H32.9796H32.3557H31.7317H31.1078H30.4839H29.8599H29.236H28.612H27.9881H27.3642H26.7402H26.1163H25.4923H24.8684H24.2444H23.6205H22.9966H22.3726H21.7487H21.1247H20.5008H19.8769H19.2529H18.629H18.005H17.3811H16.7572H16.1332H15.5093H14.8853H14.2614H13.6374H13.0135H12.3896V15.0644H11.7656V15.6883V16.3123V16.9362V17.5601V18.1841V18.808V19.432V20.0559V20.6798V21.3038V21.9277V22.5517V23.1756V23.7995V24.4235V25.0474V25.6714V26.2953V26.9192V27.5432V28.1671V28.7911V29.415V30.039V30.6629V31.2868V31.9108V32.5347V33.1587V33.7826V34.4065V35.0305V35.6544V36.2784V36.9023V37.5262V38.1502V38.7741V39.3981V40.022V40.646V41.2699V41.8938V42.5178V43.1417V43.7657H12.3896V44.3896H13.0135H13.6374H14.2614H14.8853H15.5093H16.1332H16.7572H17.3811H18.005H18.629H19.2529H19.8769H20.5008H21.1247H21.7487H22.3726H22.9966H23.6205H24.2444H24.8684H25.4923H26.1163H26.7402H27.3642H27.9881H28.612H29.236H29.8599H30.4839H31.1078H31.7317H32.3557H32.9796H33.6036V43.7657H34.2275V43.1417V42.5178V41.8938V41.2699V40.646V40.022V39.3981V38.7741V38.1502V37.5262V36.9023V36.2784V35.6544V35.0305V34.4065V33.7826V33.1587V32.5347V31.9108V31.2868V30.6629V30.039V29.415V28.7911V28.1671V27.5432V26.9192V26.2953V25.6714V25.0474V24.4235V23.7995V23.1756V22.5517V21.9277V21.3038V20.6798V20.0559V19.432V18.808V18.1841V17.5601V16.9362V16.3123V15.6883V15.0644H33.6036V14.4404ZM29.8599 28.7911V29.415V30.039V30.6629V31.2868V31.9108H29.236V32.5347H28.612V33.1587H27.9881V33.7826H27.3642H26.7402H26.1163H25.4923H24.8684H24.2444V33.1587H23.6205H22.9966H22.3726H21.7487V33.7826H21.1247H20.5008H19.8769H19.2529H18.629H18.005V33.1587H17.3811V32.5347H16.7572V31.9108H16.1332V31.2868V30.6629V30.039V29.415V28.7911V28.1671H16.7572V27.5432V26.9192H17.3811V26.2953H18.005V25.6714H18.629V25.0474V24.4235H19.2529V23.7995H19.8769V23.1756H20.5008V22.5517H21.1247V21.9277H21.7487H22.3726V21.3038H22.9966H23.6205V21.9277H24.2444H24.8684V22.5517H25.4923V23.1756H26.1163V23.7995H26.7402V24.4235V25.0474H27.3642V25.6714H27.9881V26.2953H28.612V26.9192H29.236V27.5432V28.1671H29.8599V28.7911ZM22.3726 33.7826H22.9966H23.6205V34.4065V35.0305H24.2444V35.6544V36.2784H24.8684V36.9023H25.4923H26.1163V37.5262V38.1502H25.4923H24.8684H24.2444H23.6205H22.9966H22.3726H21.7487H21.1247H20.5008H19.8769V37.5262V36.9023H20.5008H21.1247V36.2784H21.7487V35.6544V35.0305H22.3726V34.4065V33.7826Z" fill="white"/>
<path d="M42.3389 16.3123H41.7149V15.6883H41.091H40.467H39.8431H39.2192V15.0644H38.5952H37.9713H37.3473H36.7234H36.0994V15.6883V16.3123V16.9362H36.7234V17.5602V18.1841V18.808V19.432V20.0559V20.6799V21.3038V21.9277V22.5517V23.1756V23.7996V24.4235V25.0474V25.6714V26.2953V26.9193V27.5432V28.1672V28.7911V29.415V30.039V30.6629V31.2869V31.9108V32.5347V33.1587V33.7826V34.4066V35.0305V35.6544V36.2784V36.9023V37.5263V38.1502V38.7742V39.3981V40.022V40.646V41.2699V41.8939H36.0994V42.5178V43.1417V43.7657H35.4755V44.3896V45.0136H34.8516V45.6375H35.4755H36.0994H36.7234H37.3473H37.9713H38.5952V45.0136H39.2192V44.3896V43.7657V43.1417V42.5178H39.8431V41.8939V41.2699V40.646V40.022V39.3981V38.7742H40.467V38.1502V37.5263V36.9023V36.2784V35.6544V35.0305V34.4066H41.091V33.7826V33.1587V32.5347V31.9108V31.2869V30.6629H41.7149V30.039V29.415V28.7911V28.1672V27.5432V26.9193H42.3389V26.2953V25.6714V25.0474V24.4235V23.7996V23.1756V22.5517H42.9628V21.9277V21.3038V20.6799V20.0559V19.432V18.808V18.1841V17.5602V16.9362V16.3123H42.3389Z" fill="white"/>
</g>
<defs>
<clipPath id="clip0_564_8296">
<rect width="53.4807" height="80.221" fill="white"/>
</clipPath>
</defs>
</svg>
