<svg width="54" height="81" viewBox="0 0 54 81" fill="none" xmlns="http://www.w3.org/2000/svg">
<g clip-path="url(#clip0_564_8333)">
<path d="M50.8066 0V53.4807H53.4807V0H50.8066Z" fill="black"/>
<path d="M45.4586 8.0221H8.0221V50.8066H10.6961V56.1547H13.3702V61.5028H18.7182V56.1547H21.3923V50.8066H24.0663V48.1326H29.4144V50.8066H32.0884V56.1547H34.7624V61.5028H40.1105V56.1547H42.7845V50.8066H45.4586V8.0221Z" fill="#6B91BE"/>
<path d="M48.1326 5.34807H5.34807V50.8066H8.0221V8.0221H45.4586V50.8066H48.1326V5.34807Z" fill="#FFD700"/>
<path d="M2.67403 0H0V53.4807H2.67403V0Z" fill="black"/>
<path d="M24.0663 48.1326V50.8066H29.4144V48.1326H24.0663Z" fill="#FFD700"/>
<path d="M50.8066 0H2.67403V53.4807H5.34807V58.8287H8.0221V64.1768H10.6961V69.5249H13.3702V74.8729H18.7182V69.5249H21.3923V64.1768H24.0663V58.8287H29.4144V64.1768H32.0884V69.5249H34.7624V74.8729H40.1105V69.5249H42.7845V64.1768H45.4586V58.8287H48.1326V53.4807H50.8066V0ZM45.4586 50.8066V56.1547H42.7845V61.5028H40.1105V66.8508H34.7624V61.5028H32.0884V56.1547H29.4144V50.8066H24.0663V56.1547H21.3923V61.5028H18.7182V66.8508H13.3702V61.5028H10.6961V56.1547H8.0221V50.8066H5.34807V5.34807H48.1326V50.8066H45.4586Z" fill="#6B91BE"/>
<path d="M10.6961 50.8066H8.0221V56.1547H10.6961V50.8066Z" fill="#FFD700"/>
<path d="M21.3923 56.1547H24.0663V50.8066H21.3923V56.1547Z" fill="#FFD700"/>
<path d="M32.0884 50.8066H29.4144V56.1547H32.0884V50.8066Z" fill="#FFD700"/>
<path d="M42.7845 56.1547H45.4586V50.8066H42.7845V56.1547Z" fill="#FFD700"/>
<path d="M5.34807 53.4807H2.67403V58.8287H5.34807V53.4807Z" fill="black"/>
<path d="M48.1326 58.8287H50.8066V53.4807H48.1326V58.8287Z" fill="black"/>
<path d="M13.3702 56.1547H10.6961V61.5028H13.3702V56.1547Z" fill="#FFD700"/>
<path d="M18.7182 61.5028H21.3923V56.1547H18.7182V61.5028Z" fill="#FFD700"/>
<path d="M34.7624 56.1547H32.0884V61.5028H34.7624V56.1547Z" fill="#FFD700"/>
<path d="M40.1105 61.5028H42.7845V56.1547H40.1105V61.5028Z" fill="#FFD700"/>
<path d="M8.0221 58.8287H5.34807V64.1768H8.0221V58.8287Z" fill="black"/>
<path d="M29.4144 58.8287H24.0663V64.1768H29.4144V58.8287Z" fill="black"/>
<path d="M45.4586 64.1768H48.1326V58.8287H45.4586V64.1768Z" fill="black"/>
<path d="M13.3702 61.5028V66.8508H18.7182V61.5028H13.3702Z" fill="#FFD700"/>
<path d="M34.7624 61.5028V66.8508H40.1105V61.5028H34.7624Z" fill="#FFD700"/>
<path d="M10.6961 64.1768H8.0221V69.5249H10.6961V64.1768Z" fill="black"/>
<path d="M21.3923 69.5249H24.0663V64.1768H21.3923V69.5249Z" fill="black"/>
<path d="M32.0884 64.1768H29.4144V69.5249H32.0884V64.1768Z" fill="black"/>
<path d="M42.7845 69.5249H45.4586V64.1768H42.7845V69.5249Z" fill="black"/>
<path d="M13.3702 69.5249H10.6961V74.8729H13.3702V69.5249Z" fill="black"/>
<path d="M18.7182 74.8729H21.3923V69.5249H18.7182V74.8729Z" fill="black"/>
<path d="M34.7624 69.5249H32.0884V74.8729H34.7624V69.5249Z" fill="black"/>
<path d="M40.1105 74.8729H42.7845V69.5249H40.1105V74.8729Z" fill="black"/>
<path d="M13.3702 74.8729V80.221H18.7182V74.8729H13.3702Z" fill="black"/>
<path d="M34.7624 74.8729V80.221H40.1105V74.8729H34.7624Z" fill="black"/>
<path d="M38.9966 12.7025V12.034H38.3281H37.6596H36.9911H36.3226H35.6541H34.9856H34.3171H33.6486H32.9801H32.3115H31.643H30.9745H30.306H29.6375H28.969H28.3005H27.632H26.9635H26.295H25.6265H24.958H24.2894H23.6209H22.9524H22.2839H21.6154H20.9469H20.2784H19.6099H18.9414H18.2729H17.6044H16.9359H16.2673H15.5988H14.9303H14.2618V12.7025H13.5933V13.371H12.9248V14.0395V14.708V15.3765V16.045V16.7136V17.3821V18.0506V18.7191V19.3876V20.0561V20.7246V21.3931V22.0616V22.7301V23.3986V24.0671V24.7357V25.4042V26.0727V26.7412V27.4097V28.0782V28.7467V29.4152V30.0837V30.7522V31.4207V32.0892V32.7578V33.4263V34.0948V34.7633V35.4318V36.1003V36.7688H13.5933V37.4373H12.9248V38.1058V38.7743V39.4428V40.1113V40.7799V41.4484V42.1169H13.5933V42.7854H14.2618V43.4539H14.9303V44.1224H15.5988H16.2673H16.9359H17.6044H18.2729H18.9414H19.6099H20.2784H20.9469H21.6154H22.2839H22.9524H23.6209H24.2894H24.958H25.6265H26.295H26.9635H27.632H28.3005H28.969H29.6375H30.306H30.9745H31.643H32.3115H32.9801H33.6486H34.3171H34.9856H35.6541H36.3226H36.9911H37.6596H38.3281H38.9966H39.6651V43.4539V42.7854V42.1169V41.4484H38.9966H38.3281H37.6596H36.9911H36.3226H35.6541H34.9856H34.3171H33.6486H32.9801H32.3115H31.643H30.9745H30.306H29.6375H28.969H28.3005H27.632H26.9635H26.295H25.6265H24.958H24.2894H23.6209H22.9524H22.2839H21.6154H20.9469H20.2784H19.6099H18.9414H18.2729H17.6044H16.9359V40.7799H16.2673V40.1113V39.4428H16.9359V38.7743H17.6044H18.2729H18.9414H19.6099H20.2784H20.9469H21.6154H22.2839H22.9524H23.6209H24.2894H24.958H25.6265H26.295H26.9635H27.632H28.3005H28.969H29.6375H30.306H30.9745H31.643H32.3115H32.9801H33.6486H34.3171H34.9856H35.6541H36.3226H36.9911H37.6596H38.3281H38.9966H39.6651V38.1058V37.4373V36.7688V36.1003H38.9966H38.3281H37.6596H36.9911H36.3226H35.6541H34.9856H34.3171H33.6486H32.9801H32.3115H31.643H30.9745H30.306H29.6375H28.969H28.3005H27.632H26.9635H26.295H25.6265H24.958H24.2894H23.6209H22.9524H22.2839H21.6154H20.9469H20.2784H19.6099H18.9414H18.2729H17.6044H16.9359V35.4318H16.2673V34.7633V34.0948H16.9359V33.4263H17.6044H18.2729H18.9414H19.6099H20.2784H20.9469H21.6154H22.2839H22.9524H23.6209H24.2894H24.958H25.6265H26.295H26.9635H27.632H28.3005H28.969H29.6375H30.306H30.9745H31.643H32.3115H32.9801H33.6486H34.3171H34.9856H35.6541H36.3226H36.9911H37.6596H38.3281H38.9966V32.7578H39.6651V32.0892V31.4207V30.7522V30.0837V29.4152V28.7467V28.0782V27.4097V26.7412V26.0727V25.4042V24.7357V24.0671V23.3986V22.7301V22.0616V21.3931V20.7246V20.0561V19.3876V18.7191V18.0506V17.3821V16.7136V16.045V15.3765V14.708V14.0395V13.371V12.7025H38.9966ZM32.3115 18.0506V18.7191V19.3876H31.643V20.0561H30.9745H30.306H29.6375H28.969H28.3005H27.632H26.9635H26.295H25.6265H24.958H24.2894H23.6209H22.9524H22.2839V19.3876H21.6154V18.7191V18.0506H22.2839V17.3821H22.9524H23.6209H24.2894H24.958H25.6265H26.295H26.9635H27.632H28.3005H28.969H29.6375H30.306H30.9745H31.643V18.0506H32.3115Z" fill="white"/>
</g>
<defs>
<clipPath id="clip0_564_8333">
<rect width="53.4807" height="80.221" fill="white"/>
</clipPath>
</defs>
</svg>
