<svg width="60" height="90" viewBox="0 0 60 90" fill="none" xmlns="http://www.w3.org/2000/svg">
<g clip-path="url(#clip0_564_8339)">
<path d="M57 0V60H60V0H57Z" fill="black"/>
<path d="M51 9H9V57H12V63H15V69H21V63H24V57H27V54H33V57H36V63H39V69H45V63H48V57H51V9Z" fill="#6BBE95"/>
<path d="M54 6H6V57H9V9H51V57H54V6Z" fill="#FFD700"/>
<path d="M3 0H0V60H3V0Z" fill="black"/>
<path d="M27 54V57H33V54H27Z" fill="#FFD700"/>
<path d="M57 0H3V60H6V66H9V72H12V78H15V84H21V78H24V72H27V66H33V72H36V78H39V84H45V78H48V72H51V66H54V60H57V0ZM51 57V63H48V69H45V75H39V69H36V63H33V57H27V63H24V69H21V75H15V69H12V63H9V57H6V6H54V57H51Z" fill="#6BBE95"/>
<path d="M12 57H9V63H12V57Z" fill="#FFD700"/>
<path d="M24 63H27V57H24V63Z" fill="#FFD700"/>
<path d="M36 57H33V63H36V57Z" fill="#FFD700"/>
<path d="M48 63H51V57H48V63Z" fill="#FFD700"/>
<path d="M6 60H3V66H6V60Z" fill="black"/>
<path d="M54 66H57V60H54V66Z" fill="black"/>
<path d="M15 63H12V69H15V63Z" fill="#FFD700"/>
<path d="M21 69H24V63H21V69Z" fill="#FFD700"/>
<path d="M39 63H36V69H39V63Z" fill="#FFD700"/>
<path d="M45 69H48V63H45V69Z" fill="#FFD700"/>
<path d="M9 66H6V72H9V66Z" fill="black"/>
<path d="M33 66H27V72H33V66Z" fill="black"/>
<path d="M51 72H54V66H51V72Z" fill="black"/>
<path d="M15 69V75H21V69H15Z" fill="#FFD700"/>
<path d="M39 69V75H45V69H39Z" fill="#FFD700"/>
<path d="M12 72H9V78H12V72Z" fill="black"/>
<path d="M24 78H27V72H24V78Z" fill="black"/>
<path d="M36 72H33V78H36V72Z" fill="black"/>
<path d="M48 78H51V72H48V78Z" fill="black"/>
<path d="M15 78H12V84H15V78Z" fill="black"/>
<path d="M21 84H24V78H21V84Z" fill="black"/>
<path d="M39 78H36V84H39V78Z" fill="black"/>
<path d="M45 84H48V78H45V84Z" fill="black"/>
<path d="M15 84V90H21V84H15Z" fill="black"/>
<path d="M39 84V90H45V84H39Z" fill="black"/>
<path d="M48.1919 22.8492V22H47.4842H46.7765H46.0688H45.3611H44.6535H43.9458H43.2381H42.5304H41.8227H41.115H40.4073H39.6996H38.9919H38.2842H37.5765H36.8688H36.1611H35.4535H34.7458H34.0381H33.3304H32.6227H31.915H31.2073H30.4996H29.7919H29.0842H28.3765H27.6688H26.9611H26.2535H25.5458H24.8381H24.1304H23.4227H22.715H22.0073H21.2996H20.5919H19.8842H19.1765H18.4688H17.7611H17.0535H16.3458H15.6381H14.9304H14.2227H13.515H12.8073V22.8492H12.0996V23.7692V24.6185H12.8073V25.5385H13.515H14.2227H14.9304H15.6381H16.3458H17.0535H17.7611H18.4688H19.1765H19.8842H20.5919H21.2996H22.0073H22.715H23.4227H24.1304H24.8381H25.5458H26.2535H26.9611H27.6688H28.3765H29.0842H29.7919H30.4996H31.2073H31.915H32.6227H33.3304H34.0381H34.7458H35.4535H36.1611H36.8688H37.5765H38.2842H38.9919H39.6996H40.4073H41.115H41.8227H42.5304H43.2381H43.9458H44.6535H45.3611H46.0688H46.7765H47.4842H48.1919V24.6185H48.8996V23.7692V22.8492H48.1919Z" fill="white"/>
<path d="M48.1919 31.5539H47.4842H46.7765H46.0688H45.3611H44.6535H43.9458H43.2381H42.5304H41.8227H41.115H40.4073H39.6996H38.9919H38.2842H37.5765H36.8688H36.1611H35.4535H34.7458H34.0381H33.3304H32.6227H31.915H31.2073H30.4996H29.7919H29.0842H28.3765H27.6688H26.9611H26.2535H25.5458H24.8381H24.1304H23.4227H22.715H22.0073H21.2996H20.5919H19.8842H19.1765H18.4688H17.7611H17.0535H16.3458H15.6381H14.9304H14.2227H13.515H12.8073V32.4739H12.0996V33.3232V34.1724H12.8073V35.0924H13.515H14.2227H14.9304H15.6381H16.3458H17.0535H17.7611H18.4688H19.1765H19.8842H20.5919H21.2996H22.0073H22.715H23.4227H24.1304H24.8381H25.5458H26.2535H26.9611H27.6688H28.3765H29.0842H29.7919H30.4996H31.2073H31.915H32.6227H33.3304H34.0381H34.7458H35.4535H36.1611H36.8688H37.5765H38.2842H38.9919H39.6996H40.4073H41.115H41.8227H42.5304H43.2381H43.9458H44.6535H45.3611H46.0688H46.7765H47.4842H48.1919V34.1724H48.8996V33.3232V32.4739H48.1919V31.5539Z" fill="white"/>
<path d="M48.1919 41.4615H47.4842H46.7765H46.0688H45.3611H44.6535H43.9458H43.2381H42.5304H41.8227H41.115H40.4073H39.6996H38.9919H38.2842H37.5765H36.8688H36.1611H35.4535H34.7458H34.0381H33.3304H32.6227H31.915H31.2073H30.4996H29.7919H29.0842H28.3765H27.6688H26.9611H26.2535H25.5458H24.8381H24.1304H23.4227H22.715H22.0073H21.2996H20.5919H19.8842H19.1765H18.4688H17.7611H17.0535H16.3458H15.6381H14.9304H14.2227H13.515H12.8073V42.3815H12.0996V43.2307V44.08H12.8073V45H13.515H14.2227H14.9304H15.6381H16.3458H17.0535H17.7611H18.4688H19.1765H19.8842H20.5919H21.2996H22.0073H22.715H23.4227H24.1304H24.8381H25.5458H26.2535H26.9611H27.6688H28.3765H29.0842H29.7919H30.4996H31.2073H31.915H32.6227H33.3304H34.0381H34.7458H35.4535H36.1611H36.8688H37.5765H38.2842H38.9919H39.6996H40.4073H41.115H41.8227H42.5304H43.2381H43.9458H44.6535H45.3611H46.0688H46.7765H47.4842H48.1919V44.08H48.8996V43.2307V42.3815H48.1919V41.4615Z" fill="white"/>
</g>
<defs>
<clipPath id="clip0_564_8339">
<rect width="60" height="90" fill="white"/>
</clipPath>
</defs>
</svg>
