<svg width="54" height="81" viewBox="0 0 54 81" fill="none" xmlns="http://www.w3.org/2000/svg">
<g clip-path="url(#clip0_564_8173)">
<path d="M50.8066 0V2.67403V5.34807V8.0221V10.6961V13.3702V16.0442V18.7182V21.3923V24.0663V26.7403V29.4144V32.0884V34.7624V37.4365V40.1105V42.7845V45.4586V48.1326V50.8066V53.4807H53.4807V50.8066V48.1326V45.4586V42.7845V40.1105V37.4365V34.7624V32.0884V29.4144V26.7403V24.0663V21.3923V18.7182V16.0442V13.3702V10.6961V8.0221V5.34807V2.67403V0H50.8066Z" fill="black"/>
<path d="M45.4589 45.4586V42.7845V40.1105V37.4365V34.7624V32.0884V29.4144V26.7403V24.0663V21.3923V18.7182V16.0442V13.3702V10.6961V8.02209H42.7849H40.1109H37.4368H34.7628H32.0888H29.4147H26.7407H24.0667H21.3926H18.7186H16.0446H13.3705H10.6965H8.02246V10.6961V13.3702V16.0442V18.7182V21.3923V24.0663V26.7403V29.4144V32.0884V34.7624V37.4365V40.1105V42.7845V45.4586V48.1326V50.8066H10.6965V53.4807V56.1547H13.3705V58.8287V61.5028H16.0446H18.7186V58.8287V56.1547H21.3926V53.4807V50.8066H24.0667V48.1326H26.7407H29.4147V50.8066H32.0888V53.4807V56.1547H34.7628V58.8287V61.5028H37.4368H40.1109V58.8287V56.1547H42.7849V53.4807V50.8066H45.4589V48.1326V45.4586Z" fill="#6B91BE"/>
<path d="M48.1322 45.4586V42.7845V40.1105V37.4365V34.7624V32.0884V29.4144V26.7403V24.0663V21.3923V18.7182V16.0442V13.3702V10.6961V8.02212V5.34808H45.4582H42.7841H40.1101H37.4361H34.762H32.088H29.414H26.7399H24.0659H21.3919H18.7178H16.0438H13.3698H10.6957H8.02169H5.34766V8.02212V10.6961V13.3702V16.0442V18.7182V21.3923V24.0663V26.7403V29.4144V32.0884V34.7624V37.4365V40.1105V42.7845V45.4586V48.1326V50.8066H8.02169V48.1326V45.4586V42.7845V40.1105V37.4365V34.7624V32.0884V29.4144V26.7403V24.0663V21.3923V18.7182V16.0442V13.3702V10.6961V8.02212H10.6957H13.3698H16.0438H18.7178H21.3919H24.0659H26.7399H29.414H32.088H34.762H37.4361H40.1101H42.7841H45.4582V10.6961V13.3702V16.0442V18.7182V21.3923V24.0663V26.7403V29.4144V32.0884V34.7624V37.4365V40.1105V42.7845V45.4586V48.1326V50.8066H48.1322V48.1326V45.4586Z" fill="#FFD700"/>
<path d="M2.67403 48.1326V45.4586V42.7845V40.1105V37.4365V34.7624V32.0884V29.4144V26.7403V24.0663V21.3923V18.7182V16.0442V13.3702V10.6961V8.0221V5.34807V2.67403V0H0V2.67403V5.34807V8.0221V10.6961V13.3702V16.0442V18.7182V21.3923V24.0663V26.7403V29.4144V32.0884V34.7624V37.4365V40.1105V42.7845V45.4586V48.1326V50.8066V53.4807H2.67403V50.8066V48.1326Z" fill="black"/>
<path d="M26.7404 48.1326H24.0664V50.8066H26.7404H29.4145V48.1326H26.7404Z" fill="#FFD700"/>
<path d="M50.8064 48.1326V45.4586V42.7845V40.1105V37.4365V34.7624V32.0884V29.4144V26.7403V24.0663V21.3923V18.7182V16.0442V13.3702V10.6961V8.0221V5.34807V2.67403V0H48.1324H45.4584H42.7843H40.1103H37.4363H34.7622H32.0882H29.4142H26.7401H24.0661H21.3921H18.718H16.044H13.37H10.6959H8.02189H5.34786H2.67383V2.67403V5.34807V8.0221V10.6961V13.3702V16.0442V18.7182V21.3923V24.0663V26.7403V29.4144V32.0884V34.7624V37.4365V40.1105V42.7845V45.4586V48.1326V50.8066V53.4807H5.34786V56.1547V58.8287H8.02189V61.5028V64.1768H10.6959V66.8508V69.5249H13.37V72.1989V74.8729H16.044H18.718V72.1989V69.5249H21.3921V66.8508V64.1768H24.0661V61.5028V58.8287H26.7401H29.4142V61.5028V64.1768H32.0882V66.8508V69.5249H34.7622V72.1989V74.8729H37.4363H40.1103V72.1989V69.5249H42.7843V66.8508V64.1768H45.4584V61.5028V58.8287H48.1324V56.1547V53.4807H50.8064V50.8066V48.1326ZM45.4584 50.8066V53.4807V56.1547H42.7843V58.8287V61.5028H40.1103V64.1768V66.8508H37.4363H34.7622V64.1768V61.5028H32.0882V58.8287V56.1547H29.4142V53.4807V50.8066H26.7401H24.0661V53.4807V56.1547H21.3921V58.8287V61.5028H18.718V64.1768V66.8508H16.044H13.37V64.1768V61.5028H10.6959V58.8287V56.1547H8.02189V53.4807V50.8066H5.34786V48.1326V45.4586V42.7845V40.1105V37.4365V34.7624V32.0884V29.4144V26.7403V24.0663V21.3923V18.7182V16.0442V13.3702V10.6961V8.0221V5.34807H8.02189H10.6959H13.37H16.044H18.718H21.3921H24.0661H26.7401H29.4142H32.0882H34.7622H37.4363H40.1103H42.7843H45.4584H48.1324V8.0221V10.6961V13.3702V16.0442V18.7182V21.3923V24.0663V26.7403V29.4144V32.0884V34.7624V37.4365V40.1105V42.7845V45.4586V48.1326V50.8066H45.4584Z" fill="#6B91BE"/>
<path d="M10.6965 50.8066H8.02246V53.4807V56.1547H10.6965V53.4807V50.8066Z" fill="#FFD700"/>
<path d="M21.3926 53.4807V56.1547H24.0666V53.4807V50.8066H21.3926V53.4807Z" fill="#FFD700"/>
<path d="M32.0881 50.8066H29.4141V53.4807V56.1547H32.0881V53.4807V50.8066Z" fill="#FFD700"/>
<path d="M42.7842 53.4807V56.1547H45.4582V53.4807V50.8066H42.7842V53.4807Z" fill="#FFD700"/>
<path d="M5.34786 53.4807H2.67383V56.1547V58.8287H5.34786V56.1547V53.4807Z" fill="black"/>
<path d="M48.1328 56.1547V58.8287H50.8068V56.1547V53.4807H48.1328V56.1547Z" fill="black"/>
<path d="M13.3703 56.1547H10.6963V58.8287V61.5027H13.3703V58.8287V56.1547Z" fill="#FFD700"/>
<path d="M18.7178 58.8287V61.5027H21.3918V58.8287V56.1547H18.7178V58.8287Z" fill="#FFD700"/>
<path d="M34.7629 56.1547H32.0889V58.8287V61.5027H34.7629V58.8287V56.1547Z" fill="#FFD700"/>
<path d="M40.1104 58.8287V61.5027H42.7844V58.8287V56.1547H40.1104V58.8287Z" fill="#FFD700"/>
<path d="M8.02169 58.8287H5.34766V61.5028V64.1768H8.02169V61.5028V58.8287Z" fill="black"/>
<path d="M29.4145 58.8287H26.7404H24.0664V61.5028V64.1768H26.7404H29.4145V61.5028V58.8287Z" fill="black"/>
<path d="M45.459 61.5028V64.1768H48.133V61.5028V58.8287H45.459V61.5028Z" fill="black"/>
<path d="M13.3701 61.5027V64.1768V66.8508H16.0442H18.7182V64.1768V61.5027H16.0442H13.3701Z" fill="#FFD700"/>
<path d="M34.7627 61.5027V64.1768V66.8508H37.4367H40.1108V64.1768V61.5027H37.4367H34.7627Z" fill="#FFD700"/>
<path d="M10.6965 64.1768H8.02246V66.8509V69.5249H10.6965V66.8509V64.1768Z" fill="black"/>
<path d="M21.3926 66.8509V69.5249H24.0666V66.8509V64.1768H21.3926V66.8509Z" fill="black"/>
<path d="M32.0881 64.1768H29.4141V66.8509V69.5249H32.0881V66.8509V64.1768Z" fill="black"/>
<path d="M42.7842 66.8509V69.5249H45.4582V66.8509V64.1768H42.7842V66.8509Z" fill="black"/>
<path d="M13.3703 69.5248H10.6963V72.1989V74.8729H13.3703V72.1989V69.5248Z" fill="black"/>
<path d="M18.7178 72.1989V74.8729H21.3918V72.1989V69.5248H18.7178V72.1989Z" fill="black"/>
<path d="M34.7629 69.5248H32.0889V72.1989V74.8729H34.7629V72.1989V69.5248Z" fill="black"/>
<path d="M40.1104 72.1989V74.8729H42.7844V72.1989V69.5248H40.1104V72.1989Z" fill="black"/>
<path d="M13.3701 74.8729V77.547V80.221H16.0442H18.7182V77.547V74.8729H16.0442H13.3701Z" fill="black"/>
<path d="M34.7627 74.8729V77.547V80.221H37.4367H40.1108V77.547V74.8729H37.4367H34.7627Z" fill="black"/>
<path d="M19.2528 18.8079V19.4318H19.8768V20.0557H20.5007V20.6797H21.1247H21.7486H22.3726H22.9965V20.0557V19.4318V18.8079V18.1839H22.3726V17.56H21.7486V16.936H21.1247H20.5007H19.8768H19.2528V17.56H18.6289V18.1839H19.2528V18.8079Z" fill="white"/>
<path d="M26.7401 19.4318H27.364H27.988V18.8078V18.1839V17.56V16.936V16.3121V15.6881V15.0642V14.4402H27.364H26.7401H26.1161H25.4922V15.0642V15.6881V16.3121V16.936V17.56V18.1839V18.8078V19.4318H26.1161H26.7401Z" fill="white"/>
<path d="M31.7313 20.6797H32.3552H32.9792V20.0557H33.6031V19.4318H34.227V18.8079V18.1839V17.56V16.936H33.6031H32.9792H32.3552H31.7313V17.56H31.1073V18.1839H30.4834V18.8079V19.4318V20.0557V20.6797H31.1073H31.7313Z" fill="white"/>
<path d="M41.0909 21.9275V21.3036H40.467V20.6796H39.843H39.2191H38.5951H37.9712H37.3472H36.7233H36.0994H35.4754V21.3036H34.8515V21.9275H34.2275V22.5514V23.1754V23.7993V24.4233V25.0472V25.6712V26.2951V26.919H34.8515V27.543H35.4754V28.1669H36.0994H36.7233H37.3472H37.9712H38.5951H39.2191H39.843H40.467V27.543H41.0909V26.919H41.7148V26.2951V25.6712V25.0472V24.4233V23.7993V23.1754V22.5514V21.9275H41.0909Z" fill="white"/>
<path d="M12.3896 27.543H13.0135V28.1669H13.6374H14.2614H14.8853H15.5093H16.1332H16.7572H17.3811H18.005V27.543H18.629V26.919H19.2529V26.2951V25.6712V25.0472V24.4233V23.7993V23.1754V22.5514V21.9275H18.629V21.3036H18.005V20.6796H17.3811H16.7572H16.1332H15.5093H14.8853H14.2614H13.6374H13.0135V21.3036H12.3896V21.9275H11.7656V22.5514V23.1754V23.7993V24.4233V25.0472V25.6712V26.2951V26.919H12.3896V27.543Z" fill="white"/>
<path d="M41.0909 30.6627H40.4669H39.843H39.219H38.5951H37.9711H37.3472H36.7233H36.0993H35.4754H34.8514H34.2275V30.0388H33.6036V29.4148V28.7909H32.9796V28.167H32.3557V27.543H31.7317V26.9191V26.2951H31.1078V25.6712H30.4839V25.0473H29.8599V24.4233V23.7994H29.236V23.1754H28.612V22.5515H27.9881V21.9276H27.3642H26.7402H26.1163H25.4923V22.5515H24.8684V23.1754H24.2444V23.7994H23.6205V24.4233V25.0473H22.9966V25.6712H22.3726V26.2951H21.7487V26.9191V27.543H21.1247V28.167H20.5008V28.7909H19.8769V29.4148V30.0388H19.2529V30.6627H18.629H18.005H17.3811H16.7572H16.1332H15.5093H14.8853H14.2614H13.6374H13.0135H12.3896V31.2867H11.7656V31.9106V32.5345V33.1585V33.7824V34.4064V35.0303V35.6543V36.2782V36.9021V37.5261V38.15V38.774V39.3979V40.0218V40.6458V41.2697V41.8937H12.3896H13.0135H13.6374H14.2614H14.8853H15.5093H16.1332H16.7572H17.3811H18.005H18.629H19.2529H19.8769H20.5008V41.2697V40.6458V40.0218V39.3979V38.774V38.15V37.5261V36.9021V36.2782V35.6543H21.1247V35.0303V34.4064H21.7487V33.7824H22.3726V33.1585V32.5345H22.9966V31.9106V31.2867H23.6205V30.6627H24.2444V30.0388V29.4148H24.8684V28.7909H25.4923V28.167V27.543H26.1163V26.9191H26.7402H27.3642V27.543H27.9881V28.167V28.7909H28.612V29.4148H29.236V30.0388V30.6627H29.8599V31.2867H30.4839V31.9106V32.5345H31.1078V33.1585V33.7824H31.7317V34.4064H32.3557V35.0303V35.6543H32.9796V36.2782V36.9021V37.5261V38.15V38.774V39.3979V40.0218V40.6458V41.2697V41.8937H33.6036H34.2275H34.8514H35.4754H36.0993H36.7233H37.3472H37.9711H38.5951H39.219H39.843H40.4669H41.0909H41.7148V41.2697V40.6458V40.0218V39.3979V38.774V38.15V37.5261V36.9021V36.2782V35.6543V35.0303V34.4064V33.7824V33.1585V32.5345V31.9106V31.2867H41.0909V30.6627Z" fill="white"/>
</g>
<defs>
<clipPath id="clip0_564_8173">
<rect width="53.4807" height="80.221" fill="white"/>
</clipPath>
</defs>
</svg>
