<svg width="54" height="81" viewBox="0 0 54 81" fill="none" xmlns="http://www.w3.org/2000/svg">
<g clip-path="url(#clip0_564_8214)">
<path d="M50.8066 0V2.67403V5.34807V8.0221V10.6961V13.3702V16.0442V18.7182V21.3923V24.0663V26.7403V29.4144V32.0884V34.7624V37.4365V40.1105V42.7845V45.4586V48.1326V50.8066V53.4807H53.4807V50.8066V48.1326V45.4586V42.7845V40.1105V37.4365V34.7624V32.0884V29.4144V26.7403V24.0663V21.3923V18.7182V16.0442V13.3702V10.6961V8.0221V5.34807V2.67403V0H50.8066Z" fill="black"/>
<path d="M45.4589 45.4586V42.7845V40.1105V37.4365V34.7624V32.0884V29.4144V26.7403V24.0663V21.3923V18.7182V16.0442V13.3702V10.6961V8.02209H42.7849H40.1109H37.4368H34.7628H32.0888H29.4147H26.7407H24.0667H21.3926H18.7186H16.0446H13.3705H10.6965H8.02246V10.6961V13.3702V16.0442V18.7182V21.3923V24.0663V26.7403V29.4144V32.0884V34.7624V37.4365V40.1105V42.7845V45.4586V48.1326V50.8066H10.6965V53.4807V56.1547H13.3705V58.8287V61.5028H16.0446H18.7186V58.8287V56.1547H21.3926V53.4807V50.8066H24.0667V48.1326H26.7407H29.4147V50.8066H32.0888V53.4807V56.1547H34.7628V58.8287V61.5028H37.4368H40.1109V58.8287V56.1547H42.7849V53.4807V50.8066H45.4589V48.1326V45.4586Z" fill="#6B91BE"/>
<path d="M48.1322 45.4586V42.7845V40.1105V37.4365V34.7624V32.0884V29.4144V26.7403V24.0663V21.3923V18.7182V16.0442V13.3702V10.6961V8.02212V5.34808H45.4582H42.7841H40.1101H37.4361H34.762H32.088H29.414H26.7399H24.0659H21.3919H18.7178H16.0438H13.3698H10.6957H8.02169H5.34766V8.02212V10.6961V13.3702V16.0442V18.7182V21.3923V24.0663V26.7403V29.4144V32.0884V34.7624V37.4365V40.1105V42.7845V45.4586V48.1326V50.8066H8.02169V48.1326V45.4586V42.7845V40.1105V37.4365V34.7624V32.0884V29.4144V26.7403V24.0663V21.3923V18.7182V16.0442V13.3702V10.6961V8.02212H10.6957H13.3698H16.0438H18.7178H21.3919H24.0659H26.7399H29.414H32.088H34.762H37.4361H40.1101H42.7841H45.4582V10.6961V13.3702V16.0442V18.7182V21.3923V24.0663V26.7403V29.4144V32.0884V34.7624V37.4365V40.1105V42.7845V45.4586V48.1326V50.8066H48.1322V48.1326V45.4586Z" fill="#FFD700"/>
<path d="M2.67403 48.1326V45.4586V42.7845V40.1105V37.4365V34.7624V32.0884V29.4144V26.7403V24.0663V21.3923V18.7182V16.0442V13.3702V10.6961V8.0221V5.34807V2.67403V0H0V2.67403V5.34807V8.0221V10.6961V13.3702V16.0442V18.7182V21.3923V24.0663V26.7403V29.4144V32.0884V34.7624V37.4365V40.1105V42.7845V45.4586V48.1326V50.8066V53.4807H2.67403V50.8066V48.1326Z" fill="black"/>
<path d="M26.7404 48.1326H24.0664V50.8066H26.7404H29.4145V48.1326H26.7404Z" fill="#FFD700"/>
<path d="M50.8064 48.1326V45.4586V42.7845V40.1105V37.4365V34.7624V32.0884V29.4144V26.7403V24.0663V21.3923V18.7182V16.0442V13.3702V10.6961V8.0221V5.34807V2.67403V0H48.1324H45.4584H42.7843H40.1103H37.4363H34.7622H32.0882H29.4142H26.7401H24.0661H21.3921H18.718H16.044H13.37H10.6959H8.02189H5.34786H2.67383V2.67403V5.34807V8.0221V10.6961V13.3702V16.0442V18.7182V21.3923V24.0663V26.7403V29.4144V32.0884V34.7624V37.4365V40.1105V42.7845V45.4586V48.1326V50.8066V53.4807H5.34786V56.1547V58.8287H8.02189V61.5028V64.1768H10.6959V66.8508V69.5249H13.37V72.1989V74.8729H16.044H18.718V72.1989V69.5249H21.3921V66.8508V64.1768H24.0661V61.5028V58.8287H26.7401H29.4142V61.5028V64.1768H32.0882V66.8508V69.5249H34.7622V72.1989V74.8729H37.4363H40.1103V72.1989V69.5249H42.7843V66.8508V64.1768H45.4584V61.5028V58.8287H48.1324V56.1547V53.4807H50.8064V50.8066V48.1326ZM45.4584 50.8066V53.4807V56.1547H42.7843V58.8287V61.5028H40.1103V64.1768V66.8508H37.4363H34.7622V64.1768V61.5028H32.0882V58.8287V56.1547H29.4142V53.4807V50.8066H26.7401H24.0661V53.4807V56.1547H21.3921V58.8287V61.5028H18.718V64.1768V66.8508H16.044H13.37V64.1768V61.5028H10.6959V58.8287V56.1547H8.02189V53.4807V50.8066H5.34786V48.1326V45.4586V42.7845V40.1105V37.4365V34.7624V32.0884V29.4144V26.7403V24.0663V21.3923V18.7182V16.0442V13.3702V10.6961V8.0221V5.34807H8.02189H10.6959H13.37H16.044H18.718H21.3921H24.0661H26.7401H29.4142H32.0882H34.7622H37.4363H40.1103H42.7843H45.4584H48.1324V8.0221V10.6961V13.3702V16.0442V18.7182V21.3923V24.0663V26.7403V29.4144V32.0884V34.7624V37.4365V40.1105V42.7845V45.4586V48.1326V50.8066H45.4584Z" fill="#6B91BE"/>
<path d="M10.6965 50.8066H8.02246V53.4807V56.1547H10.6965V53.4807V50.8066Z" fill="#FFD700"/>
<path d="M21.3926 53.4807V56.1547H24.0666V53.4807V50.8066H21.3926V53.4807Z" fill="#FFD700"/>
<path d="M32.0881 50.8066H29.4141V53.4807V56.1547H32.0881V53.4807V50.8066Z" fill="#FFD700"/>
<path d="M42.7842 53.4807V56.1547H45.4582V53.4807V50.8066H42.7842V53.4807Z" fill="#FFD700"/>
<path d="M5.34786 53.4807H2.67383V56.1547V58.8287H5.34786V56.1547V53.4807Z" fill="black"/>
<path d="M48.1328 56.1547V58.8287H50.8068V56.1547V53.4807H48.1328V56.1547Z" fill="black"/>
<path d="M13.3703 56.1547H10.6963V58.8287V61.5027H13.3703V58.8287V56.1547Z" fill="#FFD700"/>
<path d="M18.7178 58.8287V61.5027H21.3918V58.8287V56.1547H18.7178V58.8287Z" fill="#FFD700"/>
<path d="M34.7629 56.1547H32.0889V58.8287V61.5027H34.7629V58.8287V56.1547Z" fill="#FFD700"/>
<path d="M40.1104 58.8287V61.5027H42.7844V58.8287V56.1547H40.1104V58.8287Z" fill="#FFD700"/>
<path d="M8.02169 58.8287H5.34766V61.5028V64.1768H8.02169V61.5028V58.8287Z" fill="black"/>
<path d="M29.4145 58.8287H26.7404H24.0664V61.5028V64.1768H26.7404H29.4145V61.5028V58.8287Z" fill="black"/>
<path d="M45.459 61.5028V64.1768H48.133V61.5028V58.8287H45.459V61.5028Z" fill="black"/>
<path d="M13.3701 61.5027V64.1768V66.8508H16.0442H18.7182V64.1768V61.5027H16.0442H13.3701Z" fill="#FFD700"/>
<path d="M34.7627 61.5027V64.1768V66.8508H37.4367H40.1108V64.1768V61.5027H37.4367H34.7627Z" fill="#FFD700"/>
<path d="M10.6965 64.1768H8.02246V66.8509V69.5249H10.6965V66.8509V64.1768Z" fill="black"/>
<path d="M21.3926 66.8509V69.5249H24.0666V66.8509V64.1768H21.3926V66.8509Z" fill="black"/>
<path d="M32.0881 64.1768H29.4141V66.8509V69.5249H32.0881V66.8509V64.1768Z" fill="black"/>
<path d="M42.7842 66.8509V69.5249H45.4582V66.8509V64.1768H42.7842V66.8509Z" fill="black"/>
<path d="M13.3703 69.5248H10.6963V72.1989V74.8729H13.3703V72.1989V69.5248Z" fill="black"/>
<path d="M18.7178 72.1989V74.8729H21.3918V72.1989V69.5248H18.7178V72.1989Z" fill="black"/>
<path d="M34.7629 69.5248H32.0889V72.1989V74.8729H34.7629V72.1989V69.5248Z" fill="black"/>
<path d="M40.1104 72.1989V74.8729H42.7844V72.1989V69.5248H40.1104V72.1989Z" fill="black"/>
<path d="M13.3701 74.8729V77.547V80.221H16.0442H18.7182V77.547V74.8729H16.0442H13.3701Z" fill="black"/>
<path d="M34.7627 74.8729V77.547V80.221H37.4367H40.1108V77.547V74.8729H37.4367H34.7627Z" fill="black"/>
<path d="M33.8716 18.7187H33.2922H32.7129H32.1335H31.5541H30.9747H30.3954H29.816H29.2366H28.6572H28.0779H27.4985H26.9191H26.3397H25.7604H25.181H24.6016H24.0223H23.4429H22.8635H22.2841H21.7048H21.1254H20.546H19.9666H19.3873H18.8079V19.2981H18.2285V19.8774V20.4568V21.0362V21.6156V22.1949V22.7743V23.3537V23.9331V24.5124V25.0918V25.6712V26.2505V26.8299V27.4093V27.9887V28.568V29.1474V29.7268V30.3062V30.8855V31.4649V32.0443V32.6237V33.203V33.7824V34.3618V34.9412V35.5205V36.0999V36.6793V37.2587V37.838V38.4174V38.9968V39.5761V40.1555V40.7349V41.3143H18.8079V41.8936H19.3873H19.9666H20.546H21.1254H21.7048H22.2841H22.8635H23.4429H24.0223H24.6016H25.181H25.7604H26.3397H26.9191H27.4985H28.0779H28.6572H29.2366H29.816H30.3954H30.9747H31.5541H32.1335H32.7129H33.2922H33.8716V41.3143H34.451V40.7349V40.1555V39.5761V38.9968V38.4174V37.838V37.2587V36.6793V36.0999V35.5205V34.9412V34.3618V33.7824V33.203V32.6237V32.0443V31.4649V30.8855V30.3062V29.7268V29.1474V28.568V27.9887V27.4093V26.8299V26.2505V25.6712V25.0918V24.5124V23.9331V23.3537V22.7743V22.1949V21.6156V21.0362V20.4568V19.8774V19.2981H33.8716V18.7187ZM30.3954 34.9412V35.5205V36.0999H29.816H29.2366H28.6572H28.0779H27.4985H26.9191H26.3397H25.7604H25.181H24.6016H24.0223H23.4429H22.8635H22.2841V35.5205V34.9412V34.3618H22.8635V33.7824H23.4429H24.0223V33.203H24.6016H25.181V32.6237V32.0443V31.4649V30.8855V30.3062H24.6016V29.7268V29.1474H24.0223V28.568V27.9887V27.4093V26.8299V26.2505V25.6712H24.6016V25.0918H25.181H25.7604H26.3397H26.9191H27.4985H28.0779V25.6712H28.6572V26.2505V26.8299V27.4093V27.9887V28.568V29.1474H28.0779V29.7268V30.3062H27.4985V30.8855V31.4649V32.0443V32.6237V33.203H28.0779H28.6572V33.7824H29.2366H29.816V34.3618H30.3954V34.9412Z" fill="white"/>
<path d="M15.9107 21.0361H15.3313H14.7519H14.1725H13.5932H13.0138H12.4344H11.855H11.2757V21.6154H10.6963V22.1948V22.7742V23.3536V23.9329V24.5123V25.0917V25.6711V26.2504V26.8298V27.4092V27.9886V28.5679V29.1473V29.7267V30.3061V30.8854V31.4648V32.0442V32.6235V33.2029V33.7823V34.3617V34.941V35.5204V36.0998V36.6792V37.2585V37.8379V38.4173V38.9967H11.2757V39.576H11.855H12.4344H13.0138H13.5932H14.1725H14.7519H15.3313H15.9107H16.49V38.9967V38.4173V37.8379V37.2585V36.6792V36.0998H15.9107H15.3313H14.7519H14.1725H13.5932V35.5204V34.941V34.3617H14.1725V33.7823H14.7519H15.3313V33.2029H15.9107H16.49V32.6235V32.0442V31.4648V30.8854V30.3061H15.9107V29.7267V29.1473H15.3313V28.5679V27.9886V27.4092V26.8298V26.2504V25.6711H15.9107V25.0917H16.49V24.5123H17.0694V23.9329V23.3536V22.7742V22.1948V21.6154V21.0361H16.49H15.9107Z" fill="white"/>
<path d="M41.4031 21.6154V21.0361H40.8237H40.2444H39.665H39.0856H38.5062H37.9269H37.3475H36.7681H36.1887H35.6094V21.6154V22.1948V22.7742V23.3536V23.9329V24.5123H36.1887V25.0917H36.7681V25.6711H37.3475V26.2504V26.8298V27.4092V27.9886V28.5679V29.1473H36.7681V29.7267V30.3061H36.1887V30.8854V31.4648V32.0442V32.6235V33.2029H36.7681H37.3475V33.7823H37.9269H38.5062V34.3617H39.0856V34.941V35.5204V36.0998H38.5062H37.9269H37.3475H36.7681H36.1887V36.6792V37.2585V37.8379V38.4173V38.9967V39.576H36.7681H37.3475H37.9269H38.5062H39.0856H39.665H40.2444H40.8237H41.4031V38.9967H41.9825V38.4173V37.8379V37.2585V36.6792V36.0998V35.5204V34.941V34.3617V33.7823V33.2029V32.6235V32.0442V31.4648V30.8854V30.3061V29.7267V29.1473V28.5679V27.9886V27.4092V26.8298V26.2504V25.6711V25.0917V24.5123V23.9329V23.3536V22.7742V22.1948V21.6154H41.4031Z" fill="white"/>
</g>
<defs>
<clipPath id="clip0_564_8214">
<rect width="53.4807" height="80.221" fill="white"/>
</clipPath>
</defs>
</svg>
