<svg width="54" height="81" viewBox="0 0 54 81" fill="none" xmlns="http://www.w3.org/2000/svg">
<g clip-path="url(#clip0_564_8136)">
<path d="M50.8066 0V2.67403V5.34807V8.0221V10.6961V13.3702V16.0442V18.7182V21.3923V24.0663V26.7403V29.4144V32.0884V34.7624V37.4365V40.1105V42.7845V45.4586V48.1326V50.8066V53.4807H53.4807V50.8066V48.1326V45.4586V42.7845V40.1105V37.4365V34.7624V32.0884V29.4144V26.7403V24.0663V21.3923V18.7182V16.0442V13.3702V10.6961V8.0221V5.34807V2.67403V0H50.8066Z" fill="black"/>
<path d="M45.4589 45.4586V42.7845V40.1105V37.4365V34.7624V32.0884V29.4144V26.7403V24.0663V21.3923V18.7182V16.0442V13.3702V10.6961V8.02209H42.7849H40.1109H37.4368H34.7628H32.0888H29.4147H26.7407H24.0667H21.3926H18.7186H16.0446H13.3705H10.6965H8.02246V10.6961V13.3702V16.0442V18.7182V21.3923V24.0663V26.7403V29.4144V32.0884V34.7624V37.4365V40.1105V42.7845V45.4586V48.1326V50.8066H10.6965V53.4807V56.1547H13.3705V58.8287V61.5028H16.0446H18.7186V58.8287V56.1547H21.3926V53.4807V50.8066H24.0667V48.1326H26.7407H29.4147V50.8066H32.0888V53.4807V56.1547H34.7628V58.8287V61.5028H37.4368H40.1109V58.8287V56.1547H42.7849V53.4807V50.8066H45.4589V48.1326V45.4586Z" fill="#6B91BE"/>
<path d="M48.1322 45.4586V42.7845V40.1105V37.4365V34.7624V32.0884V29.4144V26.7403V24.0663V21.3923V18.7182V16.0442V13.3702V10.6961V8.02212V5.34808H45.4582H42.7841H40.1101H37.4361H34.762H32.088H29.414H26.7399H24.0659H21.3919H18.7178H16.0438H13.3698H10.6957H8.02169H5.34766V8.02212V10.6961V13.3702V16.0442V18.7182V21.3923V24.0663V26.7403V29.4144V32.0884V34.7624V37.4365V40.1105V42.7845V45.4586V48.1326V50.8066H8.02169V48.1326V45.4586V42.7845V40.1105V37.4365V34.7624V32.0884V29.4144V26.7403V24.0663V21.3923V18.7182V16.0442V13.3702V10.6961V8.02212H10.6957H13.3698H16.0438H18.7178H21.3919H24.0659H26.7399H29.414H32.088H34.762H37.4361H40.1101H42.7841H45.4582V10.6961V13.3702V16.0442V18.7182V21.3923V24.0663V26.7403V29.4144V32.0884V34.7624V37.4365V40.1105V42.7845V45.4586V48.1326V50.8066H48.1322V48.1326V45.4586Z" fill="#FFD700"/>
<path d="M2.67403 48.1326V45.4586V42.7845V40.1105V37.4365V34.7624V32.0884V29.4144V26.7403V24.0663V21.3923V18.7182V16.0442V13.3702V10.6961V8.0221V5.34807V2.67403V0H0V2.67403V5.34807V8.0221V10.6961V13.3702V16.0442V18.7182V21.3923V24.0663V26.7403V29.4144V32.0884V34.7624V37.4365V40.1105V42.7845V45.4586V48.1326V50.8066V53.4807H2.67403V50.8066V48.1326Z" fill="black"/>
<path d="M26.7404 48.1326H24.0664V50.8066H26.7404H29.4145V48.1326H26.7404Z" fill="#FFD700"/>
<path d="M50.8064 48.1326V45.4586V42.7845V40.1105V37.4365V34.7624V32.0884V29.4144V26.7403V24.0663V21.3923V18.7182V16.0442V13.3702V10.6961V8.0221V5.34807V2.67403V0H48.1324H45.4584H42.7843H40.1103H37.4363H34.7622H32.0882H29.4142H26.7401H24.0661H21.3921H18.718H16.044H13.37H10.6959H8.02189H5.34786H2.67383V2.67403V5.34807V8.0221V10.6961V13.3702V16.0442V18.7182V21.3923V24.0663V26.7403V29.4144V32.0884V34.7624V37.4365V40.1105V42.7845V45.4586V48.1326V50.8066V53.4807H5.34786V56.1547V58.8287H8.02189V61.5028V64.1768H10.6959V66.8508V69.5249H13.37V72.1989V74.8729H16.044H18.718V72.1989V69.5249H21.3921V66.8508V64.1768H24.0661V61.5028V58.8287H26.7401H29.4142V61.5028V64.1768H32.0882V66.8508V69.5249H34.7622V72.1989V74.8729H37.4363H40.1103V72.1989V69.5249H42.7843V66.8508V64.1768H45.4584V61.5028V58.8287H48.1324V56.1547V53.4807H50.8064V50.8066V48.1326ZM45.4584 50.8066V53.4807V56.1547H42.7843V58.8287V61.5028H40.1103V64.1768V66.8508H37.4363H34.7622V64.1768V61.5028H32.0882V58.8287V56.1547H29.4142V53.4807V50.8066H26.7401H24.0661V53.4807V56.1547H21.3921V58.8287V61.5028H18.718V64.1768V66.8508H16.044H13.37V64.1768V61.5028H10.6959V58.8287V56.1547H8.02189V53.4807V50.8066H5.34786V48.1326V45.4586V42.7845V40.1105V37.4365V34.7624V32.0884V29.4144V26.7403V24.0663V21.3923V18.7182V16.0442V13.3702V10.6961V8.0221V5.34807H8.02189H10.6959H13.37H16.044H18.718H21.3921H24.0661H26.7401H29.4142H32.0882H34.7622H37.4363H40.1103H42.7843H45.4584H48.1324V8.0221V10.6961V13.3702V16.0442V18.7182V21.3923V24.0663V26.7403V29.4144V32.0884V34.7624V37.4365V40.1105V42.7845V45.4586V48.1326V50.8066H45.4584Z" fill="#6B91BE"/>
<path d="M10.6965 50.8066H8.02246V53.4807V56.1547H10.6965V53.4807V50.8066Z" fill="#FFD700"/>
<path d="M21.3926 53.4807V56.1547H24.0666V53.4807V50.8066H21.3926V53.4807Z" fill="#FFD700"/>
<path d="M32.0881 50.8066H29.4141V53.4807V56.1547H32.0881V53.4807V50.8066Z" fill="#FFD700"/>
<path d="M42.7842 53.4807V56.1547H45.4582V53.4807V50.8066H42.7842V53.4807Z" fill="#FFD700"/>
<path d="M5.34786 53.4807H2.67383V56.1547V58.8287H5.34786V56.1547V53.4807Z" fill="black"/>
<path d="M48.1328 56.1547V58.8287H50.8068V56.1547V53.4807H48.1328V56.1547Z" fill="black"/>
<path d="M13.3703 56.1547H10.6963V58.8287V61.5027H13.3703V58.8287V56.1547Z" fill="#FFD700"/>
<path d="M18.7178 58.8287V61.5027H21.3918V58.8287V56.1547H18.7178V58.8287Z" fill="#FFD700"/>
<path d="M34.7629 56.1547H32.0889V58.8287V61.5027H34.7629V58.8287V56.1547Z" fill="#FFD700"/>
<path d="M40.1104 58.8287V61.5027H42.7844V58.8287V56.1547H40.1104V58.8287Z" fill="#FFD700"/>
<path d="M8.02169 58.8287H5.34766V61.5028V64.1768H8.02169V61.5028V58.8287Z" fill="black"/>
<path d="M29.4145 58.8287H26.7404H24.0664V61.5028V64.1768H26.7404H29.4145V61.5028V58.8287Z" fill="black"/>
<path d="M45.459 61.5028V64.1768H48.133V61.5028V58.8287H45.459V61.5028Z" fill="black"/>
<path d="M13.3701 61.5027V64.1768V66.8508H16.0442H18.7182V64.1768V61.5027H16.0442H13.3701Z" fill="#FFD700"/>
<path d="M34.7627 61.5027V64.1768V66.8508H37.4367H40.1108V64.1768V61.5027H37.4367H34.7627Z" fill="#FFD700"/>
<path d="M10.6965 64.1768H8.02246V66.8509V69.5249H10.6965V66.8509V64.1768Z" fill="black"/>
<path d="M21.3926 66.8509V69.5249H24.0666V66.8509V64.1768H21.3926V66.8509Z" fill="black"/>
<path d="M32.0881 64.1768H29.4141V66.8509V69.5249H32.0881V66.8509V64.1768Z" fill="black"/>
<path d="M42.7842 66.8509V69.5249H45.4582V66.8509V64.1768H42.7842V66.8509Z" fill="black"/>
<path d="M13.3703 69.5248H10.6963V72.1989V74.8729H13.3703V72.1989V69.5248Z" fill="black"/>
<path d="M18.7178 72.1989V74.8729H21.3918V72.1989V69.5248H18.7178V72.1989Z" fill="black"/>
<path d="M34.7629 69.5248H32.0889V72.1989V74.8729H34.7629V72.1989V69.5248Z" fill="black"/>
<path d="M40.1104 72.1989V74.8729H42.7844V72.1989V69.5248H40.1104V72.1989Z" fill="black"/>
<path d="M13.3701 74.8729V77.547V80.221H16.0442H18.7182V77.547V74.8729H16.0442H13.3701Z" fill="black"/>
<path d="M34.7627 74.8729V77.547V80.221H37.4367H40.1108V77.547V74.8729H37.4367H34.7627Z" fill="black"/>
<path d="M44.4998 22.9078V22.2838H43.7998V21.6599H43.0998H42.3998V21.036H41.6998V20.412H40.9998V19.7881H40.2998H39.5998V19.1641H38.8998V18.5402H38.1998H37.4998V17.9163H36.7998V17.2923H36.0998H35.3998V16.6684H34.6998V16.0444H33.9998V15.4205H33.2998H32.5998V14.7965H31.8998V14.1726H31.1998H30.4998V13.5487H29.7998V12.9247H29.0998H28.3998V12.3008H27.6998H26.9998H26.2998H25.5998V12.9247H24.8998H24.1998V13.5487H23.4998V14.1726H22.7998H22.0998V14.7965H21.3998V15.4205H20.6998H19.9998V16.0444H19.2998V16.6684H18.5998V17.2923H17.8998H17.1998V17.9163H16.4998V18.5402H15.7998H15.0998V19.1641H14.3998V19.7881H13.6998H12.9998V20.412H12.2998V21.036H11.5998V21.6599H10.8998H10.1998V22.2838H9.4998V22.9078H8.7998V23.5317V24.1557V24.7796V25.4035H9.4998H10.1998H10.8998H11.5998V26.0275V26.6514V27.2754V27.8993V28.5232V29.1472V29.7711V30.3951V31.019V31.643V32.2669V32.8908V33.5148V34.1387V34.7627V35.3866V36.0105V36.6345V37.2584V37.8824V38.5063V39.1302V39.7542V40.3781H12.2998V41.0021H12.9998H13.6998H14.3998H15.0998H15.7998H16.4998H17.1998V40.3781V39.7542V39.1302V38.5063H16.4998H15.7998H15.0998H14.3998V37.8824V37.2584V36.6345V36.0105V35.3866V34.7627V34.1387V33.5148V32.8908V32.2669V31.643V31.019V30.3951V29.7711V29.1472V28.5232V27.8993V27.2754V26.6514V26.0275V25.4035V24.7796V24.1557V23.5317V22.9078H15.0998H15.7998V22.2838H16.4998V21.6599H17.1998H17.8998V21.036H18.5998V20.412H19.2998H19.9998V19.7881H20.6998V19.1641H21.3998V18.5402H22.0998H22.7998V17.9163H23.4998V17.2923H24.1998H24.8998V16.6684H25.5998V16.0444H26.2998H26.9998H27.6998H28.3998V16.6684H29.0998V17.2923H29.7998H30.4998V17.9163H31.1998V18.5402H31.8998H32.5998V19.1641H33.2998V19.7881H33.9998V20.412H34.6998H35.3998V21.036H36.0998V21.6599H36.7998H37.4998V22.2838H38.1998V22.9078H38.8998H39.5998V23.5317V24.1557V24.7796V25.4035V26.0275V26.6514V27.2754V27.8993V28.5232V29.1472V29.7711V30.3951V31.019V31.643V32.2669V32.8908V33.5148V34.1387V34.7627V35.3866V36.0105V36.6345V37.2584V37.8824V38.5063H38.8998H38.1998H37.4998H36.7998V39.1302V39.7542V40.3781V41.0021H37.4998H38.1998H38.8998H39.5998H40.2998H40.9998H41.6998V40.3781H42.3998V39.7542V39.1302V38.5063V37.8824V37.2584V36.6345V36.0105V35.3866V34.7627V34.1387V33.5148V32.8908V32.2669V31.643V31.019V30.3951V29.7711V29.1472V28.5232V27.8993V27.2754V26.6514V26.0275V25.4035H43.0998H43.7998H44.4998H45.1998V24.7796V24.1557V23.5317V22.9078H44.4998Z" fill="white"/>
<path d="M32.6 26.0275H31.9H31.2H30.5H29.8H29.1H28.4H27.7H27H26.3H25.6H24.9H24.2H23.5H22.8H22.1H21.4H20.7H20V26.6514V27.2753V27.8993V28.5232V29.1472V29.7711V30.3951V31.019V31.6429V32.2669V32.8908V33.5148V34.1387V34.7626V35.3866V36.0105V36.6345V37.2584V37.8823V38.5063V39.1302V39.7542V40.3781V41.002V41.626V42.2499V42.8739V43.4978V44.1218V44.7457V45.3696V45.9936V46.6175H20.7V45.9936H21.4V45.3696H22.1V44.7457H22.8V44.1218H23.5H24.2V43.4978H24.9V42.8739H25.6V42.2499H26.3V41.626H27H27.7V42.2499H28.4V42.8739H29.1V43.4978H29.8V44.1218H30.5H31.2V44.7457H31.9V45.3696H32.6V45.9936H33.3V46.6175H34V45.9936V45.3696V44.7457V44.1218V43.4978V42.8739V42.2499V41.626V41.002V40.3781V39.7542V39.1302V38.5063V37.8823V37.2584V36.6345V36.0105V35.3866V34.7626V34.1387V33.5148V32.8908V32.2669V31.6429V31.019V30.3951V29.7711V29.1472V28.5232V27.8993V27.2753V26.6514V26.0275H33.3H32.6Z" fill="white"/>
</g>
<defs>
<clipPath id="clip0_564_8136">
<rect width="53.4807" height="80.221" fill="white"/>
</clipPath>
</defs>
</svg>
