<svg width="54" height="81" viewBox="0 0 54 81" fill="none" xmlns="http://www.w3.org/2000/svg">
<g clip-path="url(#clip0_564_8251)">
<path d="M50.8066 0V2.67403V5.34807V8.0221V10.6961V13.3702V16.0442V18.7182V21.3923V24.0663V26.7403V29.4144V32.0884V34.7624V37.4365V40.1105V42.7845V45.4586V48.1326V50.8066V53.4807H53.4807V50.8066V48.1326V45.4586V42.7845V40.1105V37.4365V34.7624V32.0884V29.4144V26.7403V24.0663V21.3923V18.7182V16.0442V13.3702V10.6961V8.0221V5.34807V2.67403V0H50.8066Z" fill="black"/>
<path d="M45.4589 45.4586V42.7845V40.1105V37.4365V34.7624V32.0884V29.4144V26.7403V24.0663V21.3923V18.7182V16.0442V13.3702V10.6961V8.02209H42.7849H40.1109H37.4368H34.7628H32.0888H29.4147H26.7407H24.0667H21.3926H18.7186H16.0446H13.3705H10.6965H8.02246V10.6961V13.3702V16.0442V18.7182V21.3923V24.0663V26.7403V29.4144V32.0884V34.7624V37.4365V40.1105V42.7845V45.4586V48.1326V50.8066H10.6965V53.4807V56.1547H13.3705V58.8287V61.5028H16.0446H18.7186V58.8287V56.1547H21.3926V53.4807V50.8066H24.0667V48.1326H26.7407H29.4147V50.8066H32.0888V53.4807V56.1547H34.7628V58.8287V61.5028H37.4368H40.1109V58.8287V56.1547H42.7849V53.4807V50.8066H45.4589V48.1326V45.4586Z" fill="#6B91BE"/>
<path d="M48.1322 45.4586V42.7845V40.1105V37.4365V34.7624V32.0884V29.4144V26.7403V24.0663V21.3923V18.7182V16.0442V13.3702V10.6961V8.02212V5.34808H45.4582H42.7841H40.1101H37.4361H34.762H32.088H29.414H26.7399H24.0659H21.3919H18.7178H16.0438H13.3698H10.6957H8.02169H5.34766V8.02212V10.6961V13.3702V16.0442V18.7182V21.3923V24.0663V26.7403V29.4144V32.0884V34.7624V37.4365V40.1105V42.7845V45.4586V48.1326V50.8066H8.02169V48.1326V45.4586V42.7845V40.1105V37.4365V34.7624V32.0884V29.4144V26.7403V24.0663V21.3923V18.7182V16.0442V13.3702V10.6961V8.02212H10.6957H13.3698H16.0438H18.7178H21.3919H24.0659H26.7399H29.414H32.088H34.762H37.4361H40.1101H42.7841H45.4582V10.6961V13.3702V16.0442V18.7182V21.3923V24.0663V26.7403V29.4144V32.0884V34.7624V37.4365V40.1105V42.7845V45.4586V48.1326V50.8066H48.1322V48.1326V45.4586Z" fill="#FFD700"/>
<path d="M2.67403 48.1326V45.4586V42.7845V40.1105V37.4365V34.7624V32.0884V29.4144V26.7403V24.0663V21.3923V18.7182V16.0442V13.3702V10.6961V8.0221V5.34807V2.67403V0H0V2.67403V5.34807V8.0221V10.6961V13.3702V16.0442V18.7182V21.3923V24.0663V26.7403V29.4144V32.0884V34.7624V37.4365V40.1105V42.7845V45.4586V48.1326V50.8066V53.4807H2.67403V50.8066V48.1326Z" fill="black"/>
<path d="M26.7404 48.1326H24.0664V50.8066H26.7404H29.4145V48.1326H26.7404Z" fill="#FFD700"/>
<path d="M50.8064 48.1326V45.4586V42.7845V40.1105V37.4365V34.7624V32.0884V29.4144V26.7403V24.0663V21.3923V18.7182V16.0442V13.3702V10.6961V8.0221V5.34807V2.67403V0H48.1324H45.4584H42.7843H40.1103H37.4363H34.7622H32.0882H29.4142H26.7401H24.0661H21.3921H18.718H16.044H13.37H10.6959H8.02189H5.34786H2.67383V2.67403V5.34807V8.0221V10.6961V13.3702V16.0442V18.7182V21.3923V24.0663V26.7403V29.4144V32.0884V34.7624V37.4365V40.1105V42.7845V45.4586V48.1326V50.8066V53.4807H5.34786V56.1547V58.8287H8.02189V61.5028V64.1768H10.6959V66.8508V69.5249H13.37V72.1989V74.8729H16.044H18.718V72.1989V69.5249H21.3921V66.8508V64.1768H24.0661V61.5028V58.8287H26.7401H29.4142V61.5028V64.1768H32.0882V66.8508V69.5249H34.7622V72.1989V74.8729H37.4363H40.1103V72.1989V69.5249H42.7843V66.8508V64.1768H45.4584V61.5028V58.8287H48.1324V56.1547V53.4807H50.8064V50.8066V48.1326ZM45.4584 50.8066V53.4807V56.1547H42.7843V58.8287V61.5028H40.1103V64.1768V66.8508H37.4363H34.7622V64.1768V61.5028H32.0882V58.8287V56.1547H29.4142V53.4807V50.8066H26.7401H24.0661V53.4807V56.1547H21.3921V58.8287V61.5028H18.718V64.1768V66.8508H16.044H13.37V64.1768V61.5028H10.6959V58.8287V56.1547H8.02189V53.4807V50.8066H5.34786V48.1326V45.4586V42.7845V40.1105V37.4365V34.7624V32.0884V29.4144V26.7403V24.0663V21.3923V18.7182V16.0442V13.3702V10.6961V8.0221V5.34807H8.02189H10.6959H13.37H16.044H18.718H21.3921H24.0661H26.7401H29.4142H32.0882H34.7622H37.4363H40.1103H42.7843H45.4584H48.1324V8.0221V10.6961V13.3702V16.0442V18.7182V21.3923V24.0663V26.7403V29.4144V32.0884V34.7624V37.4365V40.1105V42.7845V45.4586V48.1326V50.8066H45.4584Z" fill="#6B91BE"/>
<path d="M10.6965 50.8066H8.02246V53.4807V56.1547H10.6965V53.4807V50.8066Z" fill="#FFD700"/>
<path d="M21.3926 53.4807V56.1547H24.0666V53.4807V50.8066H21.3926V53.4807Z" fill="#FFD700"/>
<path d="M32.0881 50.8066H29.4141V53.4807V56.1547H32.0881V53.4807V50.8066Z" fill="#FFD700"/>
<path d="M42.7842 53.4807V56.1547H45.4582V53.4807V50.8066H42.7842V53.4807Z" fill="#FFD700"/>
<path d="M5.34786 53.4807H2.67383V56.1547V58.8287H5.34786V56.1547V53.4807Z" fill="black"/>
<path d="M48.1328 56.1547V58.8287H50.8068V56.1547V53.4807H48.1328V56.1547Z" fill="black"/>
<path d="M13.3703 56.1547H10.6963V58.8287V61.5027H13.3703V58.8287V56.1547Z" fill="#FFD700"/>
<path d="M18.7178 58.8287V61.5027H21.3918V58.8287V56.1547H18.7178V58.8287Z" fill="#FFD700"/>
<path d="M34.7629 56.1547H32.0889V58.8287V61.5027H34.7629V58.8287V56.1547Z" fill="#FFD700"/>
<path d="M40.1104 58.8287V61.5027H42.7844V58.8287V56.1547H40.1104V58.8287Z" fill="#FFD700"/>
<path d="M8.02169 58.8287H5.34766V61.5028V64.1768H8.02169V61.5028V58.8287Z" fill="black"/>
<path d="M29.4145 58.8287H26.7404H24.0664V61.5028V64.1768H26.7404H29.4145V61.5028V58.8287Z" fill="black"/>
<path d="M45.459 61.5028V64.1768H48.133V61.5028V58.8287H45.459V61.5028Z" fill="black"/>
<path d="M13.3701 61.5027V64.1768V66.8508H16.0442H18.7182V64.1768V61.5027H16.0442H13.3701Z" fill="#FFD700"/>
<path d="M34.7627 61.5027V64.1768V66.8508H37.4367H40.1108V64.1768V61.5027H37.4367H34.7627Z" fill="#FFD700"/>
<path d="M10.6965 64.1768H8.02246V66.8509V69.5249H10.6965V66.8509V64.1768Z" fill="black"/>
<path d="M21.3926 66.8509V69.5249H24.0666V66.8509V64.1768H21.3926V66.8509Z" fill="black"/>
<path d="M32.0881 64.1768H29.4141V66.8509V69.5249H32.0881V66.8509V64.1768Z" fill="black"/>
<path d="M42.7842 66.8509V69.5249H45.4582V66.8509V64.1768H42.7842V66.8509Z" fill="black"/>
<path d="M13.3703 69.5248H10.6963V72.1989V74.8729H13.3703V72.1989V69.5248Z" fill="black"/>
<path d="M18.7178 72.1989V74.8729H21.3918V72.1989V69.5248H18.7178V72.1989Z" fill="black"/>
<path d="M34.7629 69.5248H32.0889V72.1989V74.8729H34.7629V72.1989V69.5248Z" fill="black"/>
<path d="M40.1104 72.1989V74.8729H42.7844V72.1989V69.5248H40.1104V72.1989Z" fill="black"/>
<path d="M13.3701 74.8729V77.547V80.221H16.0442H18.7182V77.547V74.8729H16.0442H13.3701Z" fill="black"/>
<path d="M34.7627 74.8729V77.547V80.221H37.4367H40.1108V77.547V74.8729H37.4367H34.7627Z" fill="black"/>
<path opacity="0.01" d="M37.6519 19.4243H37.0205V20.0556H37.6519V19.4243Z" fill="white"/>
<path opacity="0.031373" d="M34.4947 20.6871H33.8633V21.3185H34.4947V20.6871Z" fill="white"/>
<path d="M41.4404 20.6871H40.809H40.1776H39.5463V21.3185H38.9149H38.2835H37.6522V21.9499H37.0208H36.3894V22.5812H35.7581H35.1267H34.4953V23.2126H33.864H33.2326V23.844H32.6012H31.9699V24.4753H31.3385H30.7071H30.0757V25.1067H29.4444H28.813V25.7381H28.1816V26.3695V27.0008V27.6322V28.2636V28.8949V29.5263V30.1577V30.789V31.4204V32.0518V32.6831V33.3145V33.9459V34.5772V35.2086V35.84V36.4714V37.1027V37.7341V38.3655V38.9968V39.6282V40.2596V40.8909V41.5223V42.1537H28.813V42.785H29.4444H30.0757H30.7071H31.3385V42.1537H31.9699H32.6012V41.5223H33.2326H33.864V40.8909H34.4953H35.1267V40.2596H35.7581H36.3894V39.6282H37.0208H37.6522V38.9968H38.2835H38.9149V38.3655H39.5463H40.1776V37.7341H40.809H41.4404V37.1027V36.4714H42.0718V35.84V35.2086V34.5772V33.9459V33.3145V32.6831V32.0518V31.4204V30.789V30.1577V29.5263V28.8949V28.2636V27.6322V27.0008V26.3695V25.7381V25.1067V24.4753V23.844V23.2126V22.5812V21.9499V21.3185V20.6871H41.4404ZM34.4953 35.84V36.4714H33.864V37.1027V37.7341H33.2326H32.6012V37.1027H31.9699V36.4714V35.84H32.6012V35.2086V34.5772H33.2326H33.864V35.2086H34.4953V35.84ZM34.4953 28.2636V28.8949H33.864V29.5263V30.1577H33.2326H32.6012V29.5263H31.9699V28.8949V28.2636H32.6012V27.6322V27.0008H33.2326H33.864V27.6322H34.4953V28.2636ZM39.5463 33.3145V33.9459H38.9149V34.5772V35.2086H38.2835H37.6522V34.5772H37.0208V33.9459V33.3145H37.6522V32.6831V32.0518H38.2835H38.9149V32.6831H39.5463V33.3145ZM39.5463 26.3695V27.0008H38.9149V27.6322V28.2636H38.2835H37.6522V27.6322H37.0208V27.0008V26.3695H37.6522V25.7381V25.1067H38.2835H38.9149V25.7381H39.5463V26.3695Z" fill="white"/>
<path opacity="0.011765" d="M24.3931 22.5811H23.7617V23.2125H24.3931V22.5811Z" fill="white"/>
<path opacity="0.019608" d="M30.0757 22.5811H29.4443V23.2125H30.0757V22.5811Z" fill="white"/>
<path d="M38.9144 16.8988V16.2675H38.283H37.6517H37.0203V15.6361H36.3889H35.7576V15.0047H35.1262H34.4948H33.8634V14.3734H33.2321H32.6007V13.742H31.9693H31.338H30.7066V13.1106H30.0752H29.4439H28.8125V12.4792H28.1811H27.5498H26.9184H26.287H25.6557H25.0243V13.1106H24.3929H23.7615H23.1302V13.742H22.4988H21.8674V14.3734H21.2361H20.6047H19.9733V15.0047H19.342H18.7106H18.0792V15.6361H17.4479H16.8165V16.2675H16.1851H15.5538H14.9224V16.8988H14.291V17.5302V18.1616V18.7929H14.9224H15.5538V19.4243H16.1851H16.8165V20.0557H17.4479H18.0792H18.7106V20.687H19.342H19.9733V21.3184H20.6047H21.2361V21.9498H21.8674H22.4988H23.1302V22.5811H23.7615H24.3929V23.2125H25.0243H25.6557V23.8439H26.287H26.9184H27.5498H28.1811V23.2125H28.8125H29.4439V22.5811H30.0752H30.7066V21.9498H31.338H31.9693H32.6007V21.3184H33.2321H33.8634V20.687H34.4948H35.1262H35.7576V20.0557H36.3889H37.0203V19.4243H37.6517H38.283V18.7929H38.9144H39.5458V18.1616V17.5302V16.8988H38.9144ZM28.8125 17.5302V18.1616H28.1811H27.5498V18.7929H26.9184H26.287V18.1616H25.6557H25.0243V17.5302V16.8988H25.6557H26.287V16.2675H26.9184H27.5498V16.8988H28.1811H28.8125V17.5302Z" fill="white"/>
<path d="M25.0244 25.1067H24.393H23.7616V24.4753H23.1303H22.4989H21.8675V23.844H21.2362H20.6048V23.2126H19.9734H19.3421V22.5812H18.7107H18.0793H17.4479V21.9499H16.8166H16.1852V21.3185H15.5538H14.9225H14.2911V20.6871H13.6597H13.0284H12.397H11.7656V21.3185V21.9499V22.5812V23.2126V23.844V24.4753V25.1067V25.7381V26.3695V27.0008V27.6322V28.2636V28.8949V29.5263V30.1577V30.789V31.4204V32.0518V32.6831V33.3145V33.9459V34.5772V35.2086V35.84V36.4714H12.397V37.1027V37.7341H13.0284H13.6597V38.3655H14.2911H14.9225V38.9968H15.5538H16.1852V39.6282H16.8166H17.4479V40.2596H18.0793H18.7107V40.8909H19.3421H19.9734V41.5223H20.6048H21.2362V42.1537H21.8675H22.4989V42.785H23.1303H23.7616H24.393H25.0244V42.1537H25.6557V41.5223V40.8909V40.2596V39.6282V38.9968V38.3655V37.7341V37.1027V36.4714V35.84V35.2086V34.5772V33.9459V33.3145V32.6831V32.0518V31.4204V30.789V30.1577V29.5263V28.8949V28.2636V27.6322V27.0008V26.3695V25.7381H25.0244V25.1067ZM16.8166 26.3695V27.0008H16.1852V27.6322H15.5538H14.9225V27.0008V26.3695H14.2911V25.7381V25.1067H14.9225V24.4753H15.5538H16.1852V25.1067V25.7381H16.8166V26.3695ZM21.8675 36.4714V37.1027H21.2362V37.7341H20.6048H19.9734V37.1027V36.4714H19.3421V35.84V35.2086H19.9734V34.5772H20.6048H21.2362V35.2086V35.84H21.8675V36.4714Z" fill="white"/>
<path opacity="0.01" d="M15.5542 27.0008H14.9229V27.6322H15.5542V27.0008Z" fill="white"/>
<path opacity="0.01" d="M33.8638 29.5261H33.2324V30.1575H33.8638V29.5261Z" fill="white"/>
<path opacity="0.01" d="M20.605 37.1027H19.9736V37.734H20.605V37.1027Z" fill="white"/>
<path opacity="0.01" d="M33.8638 37.1027H33.2324V37.734H33.8638V37.1027Z" fill="white"/>
</g>
<defs>
<clipPath id="clip0_564_8251">
<rect width="53.4807" height="80.221" fill="white"/>
</clipPath>
</defs>
</svg>
