<svg width="300" height="60" viewBox="0 0 300 60" fill="none" xmlns="http://www.w3.org/2000/svg">
<path d="M0 3L1.60428 3L3.20856 3L4.81283 3L6.41711 3L8.02139 3L9.62567 3L11.2299 3L12.8342 3L14.4385 3L16.0428 3L17.6471 3L19.2513 3L20.8556 3L22.4599 3L24.0642 3L25.6684 3L27.2727 3L28.877 3L30.4813 3L32.0856 3L33.6898 3L35.2941 3L36.8984 3L38.5027 3L40.107 3L41.7112 3L43.3155 3L44.9198 3L46.5241 3L48.1283 3L49.7326 3L51.3369 3L52.9412 3L54.5455 3L56.1497 3L57.754 3L59.3583 3L60.9626 3L62.5668 3L64.1711 3L65.7754 3L67.3797 3L68.984 3L70.5882 3L72.1925 3L73.7968 3L75.4011 3L77.0053 3L78.6096 3L80.2139 3L81.8182 3L83.4225 3L85.0267 3L86.631 3L88.2353 3L89.8396 3L91.4439 3L93.0481 3L94.6524 3L96.2567 3L97.861 3L99.4652 3L101.07 3L102.674 3L104.278 3L105.882 3L107.487 3L109.091 3L110.695 3L112.299 3L113.904 3L115.508 3L117.112 3L118.717 3L120.321 3L121.925 3L123.529 3L125.134 3L126.738 3L128.342 3L129.947 3L131.551 3L133.155 3L134.759 3L136.364 3L137.968 3L139.572 3L141.176 3L142.781 3L144.385 3L145.989 3L147.594 3L149.198 3L150.802 3L152.406 3L154.011 3L155.615 3L157.219 3L158.824 3L160.428 3L162.032 3L163.636 3L165.241 3L166.845 3L168.449 3L170.053 3L171.658 3L173.262 3L174.866 3L176.471 3L178.075 3L179.679 3L181.283 3L182.888 3L184.492 3L186.096 3L187.701 3L189.305 3L190.909 3L192.513 3L194.118 3L195.722 3L197.326 3L198.93 3L200.535 3L202.139 3L203.743 3L205.348 3L206.952 3L208.556 3L210.16 3L211.765 3L213.369 3L214.973 3L216.578 3L218.182 3L219.786 3L221.39 3L222.995 3L224.599 3L226.203 3L227.807 3L229.412 3L231.016 3L232.62 3L234.225 3L235.829 3L237.433 3L239.037 3L240.642 3L242.246 3L243.85 3L245.455 3L247.059 3L248.663 3L250.267 3L251.872 3L253.476 3L255.08 3L256.684 3L258.289 3L259.893 3L261.497 3L263.102 3L264.706 3L266.31 3L267.914 3L269.519 3L271.123 3L272.727 3L274.332 3L275.936 3L277.54 3L279.144 3L280.749 3L282.353 3L283.957 3L283.957 3.38616e-06L282.353 3.36703e-06L280.749 3.34789e-06L279.144 3.32876e-06L277.54 3.30963e-06L275.936 3.2905e-06L274.332 3.27137e-06L272.727 3.25224e-06L271.123 3.23311e-06L269.519 3.21398e-06L267.914 3.19485e-06L266.31 3.17572e-06L264.706 3.15659e-06L263.102 3.13746e-06L261.497 3.11832e-06L259.893 3.09919e-06L258.289 3.08006e-06L256.684 3.06093e-06L255.08 3.0418e-06L253.476 3.02267e-06L251.872 3.00354e-06L250.267 2.98441e-06L248.663 2.96528e-06L247.059 2.94615e-06L245.455 2.92702e-06L243.85 2.90789e-06L242.246 2.88875e-06L240.642 2.86962e-06L239.037 2.85049e-06L237.433 2.83136e-06L235.829 2.81223e-06L234.225 2.7931e-06L232.62 2.77397e-06L231.016 2.75484e-06L229.412 2.73571e-06L227.807 2.71658e-06L226.203 2.69745e-06L224.599 2.67832e-06L222.995 2.65918e-06L221.39 2.64005e-06L219.786 2.62092e-06L218.182 2.60179e-06L216.578 2.58266e-06L214.973 2.56353e-06L213.369 2.5444e-06L211.765 2.52527e-06L210.16 2.50614e-06L208.556 2.48701e-06L206.952 2.46788e-06L205.348 2.44875e-06L203.743 2.42961e-06L202.139 2.41048e-06L200.535 2.39135e-06L198.93 2.37222e-06L197.326 2.35309e-06L195.722 2.33396e-06L194.118 2.31483e-06L192.513 2.2957e-06L190.909 2.27657e-06L189.305 2.25744e-06L187.701 2.23831e-06L186.096 2.21918e-06L184.492 2.20004e-06L182.888 2.18091e-06L181.283 2.16178e-06L179.679 2.14265e-06L178.075 2.12352e-06L176.471 2.10439e-06L174.866 2.08526e-06L173.262 2.06613e-06L171.658 2.047e-06L170.053 2.02787e-06L168.449 2.00874e-06L166.845 1.98961e-06L165.241 1.97047e-06L163.636 1.95134e-06L162.032 1.93221e-06L160.428 1.91308e-06L158.824 1.89395e-06L157.219 1.87482e-06L155.615 1.85569e-06L154.011 1.83656e-06L152.406 1.81743e-06L150.802 1.7983e-06L149.198 1.77917e-06L147.594 1.76004e-06L145.989 1.74091e-06L144.385 1.72177e-06L142.781 1.70264e-06L141.176 1.68351e-06L139.572 1.66438e-06L137.968 1.64525e-06L136.364 1.62612e-06L134.759 1.60699e-06L133.155 1.58786e-06L131.551 1.56873e-06L129.947 1.5496e-06L128.342 1.53047e-06L126.738 1.51134e-06L125.134 1.4922e-06L123.529 1.47307e-06L121.925 1.45394e-06L120.321 1.43481e-06L118.717 1.41568e-06L117.112 1.39655e-06L115.508 1.37742e-06L113.904 1.35829e-06L112.299 1.33916e-06L110.695 1.32003e-06L109.091 1.3009e-06L107.487 1.28177e-06L105.882 1.26263e-06L104.278 1.2435e-06L102.674 1.22437e-06L101.07 1.20524e-06L99.4652 1.18611e-06L97.861 1.16698e-06L96.2567 1.14785e-06L94.6524 1.12872e-06L93.0481 1.10959e-06L91.4439 1.09046e-06L89.8396 1.07133e-06L88.2353 1.0522e-06L86.631 1.03306e-06L85.0267 1.01393e-06L83.4225 9.94803e-07L81.8182 9.75672e-07L80.2139 9.56541e-07L78.6096 9.3741e-07L77.0053 9.1828e-07L75.4011 8.99149e-07L73.7968 8.80018e-07L72.1925 8.60887e-07L70.5882 8.41756e-07L68.984 8.22625e-07L67.3797 8.03495e-07L65.7754 7.84364e-07L64.1711 7.65233e-07L62.5668 7.46102e-07L60.9626 7.26971e-07L59.3583 7.07841e-07L57.754 6.8871e-07L56.1497 6.69579e-07L54.5455 6.50448e-07L52.9412 6.31317e-07L51.3369 6.12186e-07L49.7326 5.93056e-07L48.1283 5.73925e-07L46.5241 5.54794e-07L44.9198 5.35663e-07L43.3155 5.16532e-07L41.7112 4.97401e-07L40.107 4.78271e-07L38.5027 4.5914e-07L36.8984 4.40009e-07L35.2941 4.20878e-07L33.6898 4.01747e-07L32.0856 3.82616e-07L30.4813 3.63486e-07L28.877 3.44355e-07L27.2727 3.25224e-07L25.6684 3.06093e-07L24.0642 2.86962e-07L22.4599 2.67832e-07L20.8556 2.48701e-07L19.2513 2.2957e-07L17.6471 2.10439e-07L16.0428 1.91308e-07L14.4385 1.72177e-07L12.8342 1.53047e-07L11.2299 1.33916e-07L9.62567 1.14785e-07L8.02139 9.56541e-08L6.41711 7.65233e-08L4.81283 5.73925e-08L3.20856 3.82616e-08L1.60428 1.91308e-08L3.57746e-08 0L0 3Z" fill="black"/>
<path d="M3.20856 54L4.81283 54L6.41711 54L8.02139 54L9.62567 54L11.2299 54L12.8342 54L14.4385 54L16.0428 54L17.6471 54L19.2513 54L20.8556 54L22.4599 54L24.0642 54L25.6684 54L27.2727 54L28.877 54L30.4813 54L32.0856 54L33.6898 54L35.2941 54L36.8984 54L38.5027 54L40.107 54L41.7112 54L43.3155 54L44.9198 54L46.5241 54L48.1283 54L49.7326 54L51.3369 54L52.9412 54L54.5455 54L56.1497 54L57.754 54L59.3583 54L60.9626 54L62.5668 54L64.1711 54L65.7754 54L67.3797 54L68.984 54L70.5882 54L72.1925 54L73.7968 54L75.4011 54L77.0053 54L78.6096 54L80.2139 54L81.8182 54L83.4225 54L85.0267 54L86.631 54L88.2353 54L89.8396 54L91.4439 54L93.0481 54L94.6524 54L96.2567 54L97.861 54L99.4652 54L101.07 54L102.674 54L104.278 54L105.882 54L107.487 54L109.091 54L110.695 54L112.299 54L113.904 54L115.508 54L117.112 54L118.717 54L120.321 54L121.925 54L123.529 54L125.134 54L126.738 54L128.342 54L129.947 54L131.551 54L133.155 54L134.759 54L136.364 54L137.968 54L139.572 54L141.176 54L142.781 54L144.385 54L145.989 54L147.594 54L149.198 54L150.802 54L152.406 54L154.011 54L155.615 54L157.219 54L158.824 54L160.428 54L162.032 54L163.636 54L165.241 54L166.845 54L168.449 54L170.053 54L171.658 54L173.262 54L174.866 54L176.471 54L178.075 54L179.679 54L181.283 54L182.888 54L184.492 54L186.096 54L187.701 54L189.305 54L190.909 54L192.513 54L194.118 54L195.722 54L197.326 54L198.93 54L200.535 54L202.139 54L203.743 54L205.348 54L206.952 54L208.556 54L210.16 54L211.765 54L213.369 54L214.973 54L216.578 54L218.182 54L219.786 54L221.39 54L222.995 54L224.599 54L226.203 54L227.807 54L229.412 54L231.016 54L232.62 54L234.225 54L235.829 54L237.433 54L239.037 54L240.642 54L242.246 54L243.85 54L245.455 54L247.059 54L248.663 54L250.267 54L251.872 54L253.476 54L255.08 54L256.684 54L258.289 54L259.893 54L261.497 54L263.102 54L264.706 54L266.31 54L267.914 54L269.519 54L271.123 54L272.727 54L274.332 54L275.936 54L277.54 54L279.144 54L280.749 54L282.353 54L282.353 51L280.749 51L279.144 51L277.54 51L275.936 51L274.332 51L272.727 51L271.123 51L269.519 51L267.914 51L266.31 51L264.706 51L263.102 51L261.497 51L259.893 51L258.289 51L256.684 51L255.08 51L253.476 51L251.872 51L250.267 51L248.663 51L247.059 51L245.455 51L243.85 51L242.246 51L240.642 51L239.037 51L237.433 51L235.829 51L234.225 51L232.62 51L231.016 51L229.412 51L227.807 51L226.203 51L224.599 51L222.995 51L221.39 51L219.786 51L218.182 51L216.578 51L214.973 51L213.369 51L211.765 51L210.16 51L208.556 51L206.952 51L205.348 51L203.743 51L202.139 51L200.535 51L198.93 51L197.326 51L195.722 51L194.118 51L192.513 51L190.909 51L189.305 51L187.701 51L186.096 51L184.492 51L182.888 51L181.283 51L179.679 51L178.075 51L176.471 51L174.866 51L173.262 51L171.658 51L170.053 51L168.449 51L166.845 51L165.241 51L163.636 51L162.032 51L160.428 51L158.824 51L157.219 51L155.615 51L154.011 51L152.406 51L150.802 51L149.198 51L147.594 51L145.989 51L144.385 51L142.781 51L141.176 51L139.572 51L137.968 51L136.364 51L134.759 51L133.155 51L131.551 51L129.947 51L128.342 51L126.738 51L125.134 51L123.529 51L121.925 51L120.321 51L118.717 51L117.112 51L115.508 51L113.904 51L112.299 51L110.695 51L109.091 51L107.487 51L105.882 51L104.278 51L102.674 51L101.07 51L99.4652 51L97.861 51L96.2567 51L94.6524 51L93.0481 51L91.4439 51L89.8396 51L88.2353 51L86.631 51L85.0267 51L83.4225 51L81.8182 51L80.2139 51L78.6096 51L77.0053 51L75.4011 51L73.7968 51L72.1925 51L70.5882 51L68.984 51L67.3797 51L65.7754 51L64.1711 51L62.5668 51L60.9626 51L59.3583 51L57.754 51L56.1497 51L54.5455 51L52.9412 51L51.3369 51L49.7326 51L48.1283 51L46.5241 51L44.9198 51L43.3155 51L41.7112 51L40.107 51L38.5027 51L36.8984 51L35.2941 51L33.6898 51L32.0856 51L30.4813 51L28.877 51L27.2727 51L25.6684 51L24.0642 51L22.4599 51L20.8556 51L19.2513 51L17.6471 51L16.0428 51L14.4385 51L12.8342 51L11.2299 51L9.62567 51L8.02139 51L6.41711 51L4.81283 51L3.20856 51L1.60428 51L3.57746e-08 51L0 54L1.60428 54L3.20856 54Z" fill="#6B91BE"/>
<path d="M3.20856 51L4.81283 51L6.41711 51L8.02139 51L9.62567 51L11.2299 51L12.8342 51L14.4385 51L16.0428 51L17.6471 51L19.2513 51L20.8556 51L22.4599 51L24.0642 51L25.6684 51L27.2727 51L28.877 51L30.4813 51L32.0856 51L33.6898 51L35.2941 51L36.8984 51L38.5027 51L40.107 51L41.7112 51L43.3155 51L44.9198 51L46.5241 51L48.1283 51L49.7326 51L51.3369 51L52.9412 51L54.5455 51L56.1497 51L57.754 51L59.3583 51L60.9626 51L62.5668 51L64.1711 51L65.7754 51L67.3797 51L68.984 51L70.5882 51L72.1925 51L73.7968 51L75.4011 51L77.0053 51L78.6096 51L80.2139 51L81.8182 51L83.4225 51L85.0267 51L86.631 51L88.2353 51L89.8396 51L91.4439 51L93.0481 51L94.6524 51L96.2567 51L97.861 51L99.4652 51L101.07 51L102.674 51L104.278 51L105.882 51L107.487 51L109.091 51L110.695 51L112.299 51L113.904 51L115.508 51L117.112 51L118.717 51L120.321 51L121.925 51L123.529 51L125.134 51L126.738 51L128.342 51L129.947 51L131.551 51L133.155 51L134.759 51L136.364 51L137.968 51L139.572 51L141.176 51L142.781 51L144.385 51L145.989 51L147.594 51L149.198 51L150.802 51L152.406 51L154.011 51L155.615 51L157.219 51L158.824 51L160.428 51L162.032 51L163.636 51L165.241 51L166.845 51L168.449 51L170.053 51L171.658 51L173.262 51L174.866 51L176.471 51L178.075 51L179.679 51L181.283 51L182.888 51L184.492 51L186.096 51L187.701 51L189.305 51L190.909 51L192.513 51L194.118 51L195.722 51L197.326 51L198.93 51L200.535 51L202.139 51L203.743 51L205.348 51L206.952 51L208.556 51L210.16 51L211.765 51L213.369 51L214.973 51L216.578 51L218.182 51L219.786 51L221.39 51L222.995 51L224.599 51L226.203 51L227.807 51L229.412 51L231.016 51L232.62 51L234.225 51L235.829 51L237.433 51L239.037 51L240.642 51L242.246 51L243.85 51L245.455 51L247.059 51L248.663 51L250.267 51L251.872 51L253.476 51L255.08 51L256.684 51L258.289 51L259.893 51L261.497 51L263.102 51L264.706 51L266.31 51L267.914 51L269.519 51L271.123 51L272.727 51L274.332 51L275.936 51L277.54 51L279.144 51L280.749 51L282.353 51L282.353 48L283.957 48L285.561 48L285.561 45L287.166 45L288.77 45L288.77 42L288.77 39L287.166 39L285.561 39L285.561 36L283.957 36L282.353 36L282.353 33L280.749 33L280.749 30L280.749 27L282.353 27L282.353 24L283.957 24L285.561 24L285.561 21L287.166 21L288.77 21L288.77 18L288.77 15L287.166 15L285.562 15L285.562 12L283.957 12L282.353 12L282.353 9L280.749 9L279.144 9L277.54 9L275.936 9L274.332 9L272.727 9L271.123 9L269.519 9L267.914 9L266.31 9L264.706 9L263.102 9L261.497 9L259.893 9L258.289 9L256.684 9L255.08 9L253.476 9L251.872 9L250.267 9L248.663 9L247.059 9L245.455 9L243.85 9L242.246 9L240.642 9L239.037 9L237.433 9L235.829 9L234.225 9L232.62 9L231.016 9L229.412 9L227.807 9L226.203 9L224.599 9L222.995 9L221.39 9L219.786 9L218.182 9L216.578 9L214.973 9L213.369 9L211.765 9L210.16 9L208.556 9L206.952 9L205.348 9L203.743 9L202.139 9L200.535 9L198.93 9L197.326 9L195.722 9L194.118 9L192.513 9L190.909 9L189.305 9L187.701 9L186.096 9L184.492 9L182.888 9L181.283 9L179.679 9L178.075 9L176.471 9L174.866 9L173.262 9L171.658 9L170.053 9L168.449 9L166.845 9L165.241 9L163.636 9L162.032 9L160.428 9L158.824 9L157.219 9L155.615 9L154.011 9L152.406 9L150.802 9L149.198 9L147.594 9L145.989 9L144.385 9L142.781 9L141.176 9L139.572 9L137.968 9L136.364 9L134.759 9L133.155 9L131.551 9L129.947 9L128.342 9L126.738 9L125.134 9L123.529 9L121.925 9L120.321 9L118.717 9L117.112 9L115.508 9L113.904 9L112.299 9L110.695 9L109.091 9L107.487 9L105.882 9L104.278 9L102.674 9L101.07 9L99.4652 9L97.861 9L96.2567 9L94.6524 9L93.0481 9L91.4439 9L89.8396 9L88.2353 9L86.631 9L85.0267 9L83.4225 9L81.8182 9L80.2139 9L78.6096 9L77.0053 9L75.4011 9L73.7968 9L72.1925 9L70.5882 9L68.984 9L67.3797 9L65.7754 9L64.1711 9L62.5668 9L60.9626 9L59.3583 9L57.754 9L56.1497 9L54.5455 9L52.9412 9L51.3369 9L49.7326 9L48.1283 9L46.5241 9L44.9198 9L43.3155 9L41.7112 9L40.107 9L38.5027 9L36.8984 9L35.2941 9L33.6898 9L32.0856 9L30.4813 9L28.877 9L27.2727 9L25.6684 9L24.0642 9L22.4599 9L20.8556 9L19.2513 9L17.6471 9L16.0428 9L14.4385 9L12.8342 9L11.2299 9L9.62567 9L8.02139 9L6.41711 9L4.81283 9L3.20856 9L1.60428 9L5.00845e-07 9L4.6507e-07 12L4.29296e-07 15L3.93521e-07 18L3.57746e-07 21L3.21972e-07 24L2.86197e-07 27L2.50422e-07 30L2.14648e-07 33L1.78873e-07 36L1.43099e-07 39L1.07324e-07 42L7.15493e-08 45L3.57746e-08 48L0 51L1.60428 51L3.20856 51Z" fill="white"/>
<path d="M3.20856 9L4.81283 9L6.41711 9L8.02139 9L9.62567 9L11.2299 9L12.8342 9L14.4385 9L16.0428 9L17.6471 9L19.2513 9L20.8556 9L22.4599 9L24.0642 9L25.6684 9L27.2727 9L28.877 9L30.4813 9L32.0856 9L33.6898 9L35.2941 9L36.8984 9L38.5027 9L40.107 9L41.7112 9L43.3155 9L44.9198 9L46.5241 9L48.1283 9L49.7326 9L51.3369 9L52.9412 9L54.5455 9L56.1497 9L57.754 9L59.3583 9L60.9626 9L62.5668 9L64.1711 9L65.7754 9L67.3797 9L68.984 9L70.5882 9L72.1925 9L73.7968 9L75.4011 9L77.0053 9L78.6096 9L80.2139 9L81.8182 9L83.4225 9L85.0267 9L86.631 9L88.2353 9L89.8396 9L91.4439 9L93.0481 9L94.6524 9L96.2567 9L97.861 9L99.4652 9L101.07 9L102.674 9L104.278 9L105.882 9L107.487 9L109.091 9L110.695 9L112.299 9L113.904 9L115.508 9L117.112 9L118.717 9L120.321 9L121.925 9L123.529 9L125.134 9L126.738 9L128.342 9L129.947 9L131.551 9L133.155 9L134.759 9L136.364 9L137.968 9L139.572 9L141.176 9L142.781 9L144.385 9L145.989 9L147.594 9L149.198 9L150.802 9L152.406 9L154.011 9L155.615 9L157.219 9L158.824 9L160.428 9L162.032 9L163.636 9L165.241 9L166.845 9L168.449 9L170.053 9L171.658 9L173.262 9L174.866 9L176.471 9L178.075 9L179.679 9L181.283 9L182.888 9L184.492 9L186.096 9L187.701 9L189.305 9L190.909 9L192.513 9L194.118 9L195.722 9L197.326 9L198.93 9L200.535 9L202.139 9L203.743 9L205.348 9L206.952 9L208.556 9L210.16 9L211.765 9L213.369 9L214.973 9L216.578 9L218.182 9L219.786 9L221.39 9L222.995 9L224.599 9L226.203 9L227.807 9L229.412 9L231.016 9L232.62 9L234.225 9L235.829 9L237.433 9L239.037 9L240.642 9L242.246 9L243.85 9L245.455 9L247.059 9L248.663 9L250.267 9L251.872 9L253.476 9L255.08 9L256.684 9L258.289 9L259.893 9L261.497 9L263.102 9L264.706 9L266.31 9L267.914 9L269.519 9L271.123 9L272.727 9L274.332 9L275.936 9L277.54 9L279.144 9L280.749 9L282.353 9L282.353 6L280.749 6L279.144 6L277.54 6L275.936 6L274.332 6L272.727 6L271.123 6L269.519 6L267.914 6L266.31 6L264.706 6L263.102 6L261.497 6L259.893 6L258.289 6L256.684 6L255.08 6L253.476 6L251.872 6L250.267 6L248.663 6L247.059 6L245.455 6L243.85 6L242.246 6L240.642 6L239.037 6L237.433 6L235.829 6L234.225 6L232.62 6L231.016 6L229.412 6L227.807 6L226.203 6L224.599 6L222.995 6L221.39 6L219.786 6L218.182 6L216.578 6L214.973 6L213.369 6L211.765 6L210.16 6L208.556 6L206.952 6L205.348 6L203.743 6L202.139 6L200.535 6L198.93 6L197.326 6L195.722 6L194.118 6L192.513 6L190.909 6L189.305 6L187.701 6L186.096 6L184.492 6L182.888 6L181.283 6L179.679 6L178.075 6L176.471 6L174.866 6L173.262 6L171.658 6L170.053 6L168.449 6L166.845 6L165.241 6L163.636 6L162.032 6L160.428 6L158.824 6L157.219 6L155.615 6L154.011 6L152.406 6L150.802 6L149.198 6L147.594 6L145.989 6L144.385 6L142.781 6L141.176 6L139.572 6L137.968 6L136.364 6L134.759 6L133.155 6L131.551 6L129.947 6L128.342 6L126.738 6L125.134 6L123.529 6L121.925 6L120.321 6L118.717 6L117.112 6L115.508 6L113.904 6L112.299 6L110.695 6L109.091 6L107.487 6L105.882 6L104.278 6L102.674 6L101.07 6L99.4652 6L97.861 6L96.2567 6L94.6524 6L93.0481 6L91.4439 6L89.8396 6L88.2353 6L86.631 6L85.0267 6L83.4225 6L81.8182 6L80.2139 6L78.6096 6L77.0053 6L75.4011 6L73.7968 6L72.1925 6L70.5882 6L68.984 6L67.3797 6L65.7754 6L64.1711 6L62.5668 6L60.9626 6L59.3583 6L57.754 6L56.1497 6L54.5455 6L52.9412 6L51.3369 6L49.7326 6L48.1283 6L46.5241 6L44.9198 6L43.3155 6L41.7112 6L40.107 6L38.5027 6L36.8984 6L35.2941 6L33.6898 6L32.0856 6L30.4813 6L28.877 6L27.2727 6L25.6684 6L24.0642 6L22.4599 6L20.8556 6L19.2513 6L17.6471 6L16.0428 6L14.4385 6L12.8342 6L11.2299 6L9.62567 6L8.02139 6L6.41711 6L4.81283 6L3.20856 6L1.60428 6L3.57746e-08 6L0 9L1.60428 9L3.20856 9Z" fill="#6B91BE"/>
<path d="M280.749 57L279.144 57L277.54 57L275.936 57L274.332 57L272.727 57L271.123 57L269.519 57L267.914 57L266.31 57L264.706 57L263.102 57L261.497 57L259.893 57L258.289 57L256.684 57L255.08 57L253.476 57L251.872 57L250.267 57L248.663 57L247.059 57L245.455 57L243.85 57L242.246 57L240.642 57L239.037 57L237.433 57L235.829 57L234.225 57L232.62 57L231.016 57L229.412 57L227.807 57L226.203 57L224.599 57L222.995 57L221.39 57L219.786 57L218.182 57L216.578 57L214.973 57L213.369 57L211.765 57L210.16 57L208.556 57L206.952 57L205.348 57L203.743 57L202.139 57L200.535 57L198.93 57L197.326 57L195.722 57L194.118 57L192.513 57L190.909 57L189.305 57L187.701 57L186.096 57L184.492 57L182.888 57L181.283 57L179.679 57L178.075 57L176.471 57L174.866 57L173.262 57L171.658 57L170.053 57L168.449 57L166.845 57L165.241 57L163.636 57L162.032 57L160.428 57L158.824 57L157.219 57L155.615 57L154.011 57L152.406 57L150.802 57L149.198 57L147.594 57L145.989 57L144.385 57L142.781 57L141.176 57L139.572 57L137.968 57L136.364 57L134.759 57L133.155 57L131.551 57L129.947 57L128.342 57L126.738 57L125.134 57L123.529 57L121.925 57L120.321 57L118.717 57L117.112 57L115.508 57L113.904 57L112.299 57L110.695 57L109.091 57L107.487 57L105.882 57L104.278 57L102.674 57L101.07 57L99.4652 57L97.861 57L96.2567 57L94.6524 57L93.0481 57L91.4439 57L89.8396 57L88.2353 57L86.631 57L85.0267 57L83.4225 57L81.8182 57L80.2139 57L78.6096 57L77.0053 57L75.4011 57L73.7968 57L72.1925 57L70.5882 57L68.984 57L67.3797 57L65.7754 57L64.1711 57L62.5668 57L60.9626 57L59.3583 57L57.754 57L56.1497 57L54.5455 57L52.9412 57L51.3369 57L49.7326 57L48.1283 57L46.5241 57L44.9198 57L43.3155 57L41.7112 57L40.107 57L38.5027 57L36.8984 57L35.2941 57L33.6898 57L32.0856 57L30.4813 57L28.877 57L27.2727 57L25.6684 57L24.0642 57L22.4599 57L20.8556 57L19.2513 57L17.6471 57L16.0428 57L14.4385 57L12.8342 57L11.2299 57L9.62567 57L8.02139 57L6.41711 57L4.81283 57L3.20856 57L1.60428 57L3.57746e-08 57L0 60L1.60428 60L3.20856 60L4.81283 60L6.41711 60L8.02139 60L9.62567 60L11.2299 60L12.8342 60L14.4385 60L16.0428 60L17.6471 60L19.2513 60L20.8556 60L22.4599 60L24.0642 60L25.6684 60L27.2727 60L28.877 60L30.4813 60L32.0856 60L33.6898 60L35.2941 60L36.8984 60L38.5027 60L40.107 60L41.7112 60L43.3155 60L44.9198 60L46.5241 60L48.1283 60L49.7326 60L51.3369 60L52.9412 60L54.5455 60L56.1497 60L57.754 60L59.3583 60L60.9626 60L62.5668 60L64.1711 60L65.7754 60L67.3797 60L68.984 60L70.5882 60L72.1925 60L73.7968 60L75.4011 60L77.0053 60L78.6096 60L80.2139 60L81.8182 60L83.4225 60L85.0267 60L86.631 60L88.2353 60L89.8396 60L91.4439 60L93.0481 60L94.6524 60L96.2567 60L97.861 60L99.4652 60L101.07 60L102.674 60L104.278 60L105.882 60L107.487 60L109.091 60L110.695 60L112.299 60L113.904 60L115.508 60L117.112 60L118.717 60L120.321 60L121.925 60L123.529 60L125.134 60L126.738 60L128.342 60L129.947 60L131.551 60L133.155 60L134.759 60L136.364 60L137.968 60L139.572 60L141.176 60L142.781 60L144.385 60L145.989 60L147.594 60L149.198 60L150.802 60L152.406 60L154.011 60L155.615 60L157.219 60L158.824 60L160.428 60L162.032 60L163.636 60L165.241 60L166.845 60L168.449 60L170.053 60L171.658 60L173.262 60L174.866 60L176.471 60L178.075 60L179.679 60L181.283 60L182.888 60L184.492 60L186.096 60L187.701 60L189.305 60L190.909 60L192.513 60L194.118 60L195.722 60L197.326 60L198.93 60L200.535 60L202.139 60L203.743 60L205.348 60L206.952 60L208.556 60L210.16 60L211.765 60L213.369 60L214.973 60L216.578 60L218.182 60L219.786 60L221.39 60L222.995 60L224.599 60L226.203 60L227.807 60L229.412 60L231.016 60L232.62 60L234.225 60L235.829 60L237.433 60L239.037 60L240.642 60L242.246 60L243.85 60L245.455 60L247.059 60L248.663 60L250.267 60L251.872 60L253.476 60L255.08 60L256.684 60L258.289 60L259.893 60L261.497 60L263.102 60L264.706 60L266.31 60L267.914 60L269.519 60L271.123 60L272.727 60L274.332 60L275.936 60L277.54 60L279.144 60L280.749 60L282.353 60L283.957 60L283.957 57L282.353 57L280.749 57Z" fill="black"/>
<path d="M280.749 30L280.749 33L282.353 33L282.353 30L282.353 27L280.749 27L280.749 30Z" fill="#6B91BE"/>
<path d="M280.749 3L279.144 3L277.54 3L275.936 3L274.332 3L272.727 3L271.123 3L269.519 3L267.914 3L266.31 3L264.706 3L263.102 3L261.497 3L259.893 3L258.289 3L256.684 3L255.08 3L253.476 3L251.872 3L250.267 3L248.663 3L247.059 3L245.455 3L243.85 3L242.246 3L240.642 3L239.037 3L237.433 3L235.829 3L234.225 3L232.62 3L231.016 3L229.412 3L227.807 3L226.203 3L224.599 3L222.995 3L221.39 3L219.786 3L218.182 3L216.578 3L214.973 3L213.369 3L211.765 3L210.16 3L208.556 3L206.952 3L205.348 3L203.743 3L202.139 3L200.535 3L198.93 3L197.326 3L195.722 3L194.118 3L192.513 3L190.909 3L189.305 3L187.701 3L186.096 3L184.492 3L182.888 3L181.283 3L179.679 3L178.075 3L176.471 3L174.866 3L173.262 3L171.658 3L170.053 3L168.449 3L166.845 3L165.241 3L163.636 3L162.032 3L160.428 3L158.824 3L157.219 3L155.615 3L154.011 3L152.406 3L150.802 3L149.198 3L147.594 3L145.989 3L144.385 3L142.781 3L141.176 3L139.572 3L137.968 3L136.364 3L134.759 3L133.155 3L131.551 3L129.947 3L128.342 3L126.738 3L125.134 3L123.529 3L121.925 3L120.321 3L118.717 3L117.112 3L115.508 3L113.904 3L112.299 3L110.695 3L109.091 3L107.487 3L105.882 3L104.278 3L102.674 3L101.07 3L99.4652 3L97.861 3L96.2567 3L94.6524 3L93.0481 3L91.4439 3L89.8396 3L88.2353 3L86.631 3L85.0267 3L83.4225 3L81.8182 3L80.2139 3L78.6096 3L77.0053 3L75.4011 3L73.7968 3L72.1925 3L70.5882 3L68.984 3L67.3797 3L65.7754 3L64.1711 3L62.5668 3L60.9626 3L59.3583 3L57.754 3L56.1497 3L54.5455 3L52.9412 3L51.3369 3L49.7326 3L48.1283 3L46.5241 3L44.9198 3L43.3155 3L41.7112 3L40.107 3L38.5027 3L36.8984 3L35.2941 3L33.6898 3L32.0856 3L30.4813 3L28.877 3L27.2727 3L25.6685 3L24.0642 3L22.4599 3L20.8556 3L19.2513 3L17.6471 3L16.0428 3L14.4385 3L12.8342 3L11.2299 3L9.62567 3L8.02139 3L6.41711 3L4.81283 3L3.20856 3L1.60428 3L6.43944e-07 3L6.08169e-07 6L1.60428 6L3.20856 6L4.81283 6L6.41711 6L8.02139 6L9.62567 6L11.2299 6L12.8342 6L14.4385 6L16.0428 6L17.6471 6L19.2513 6L20.8556 6L22.4599 6L24.0642 6L25.6685 6L27.2727 6L28.877 6L30.4813 6L32.0856 6L33.6898 6L35.2941 6L36.8984 6L38.5027 6L40.107 6L41.7112 6L43.3155 6L44.9198 6L46.5241 6L48.1283 6L49.7326 6L51.3369 6L52.9412 6L54.5455 6L56.1497 6L57.754 6L59.3583 6L60.9626 6L62.5668 6L64.1711 6L65.7754 6L67.3797 6L68.984 6L70.5882 6L72.1925 6L73.7968 6L75.4011 6L77.0053 6L78.6096 6L80.2139 6L81.8182 6L83.4225 6L85.0267 6L86.631 6L88.2353 6L89.8396 6L91.4439 6L93.0481 6L94.6524 6L96.2567 6L97.861 6L99.4652 6L101.07 6L102.674 6L104.278 6L105.882 6L107.487 6L109.091 6L110.695 6L112.299 6L113.904 6L115.508 6L117.112 6L118.717 6L120.321 6L121.925 6L123.529 6L125.134 6L126.738 6L128.342 6L129.947 6L131.551 6L133.155 6L134.759 6L136.364 6L137.968 6L139.572 6L141.176 6L142.781 6L144.385 6L145.989 6L147.594 6L149.198 6L150.802 6L152.406 6L154.011 6L155.615 6L157.219 6L158.824 6L160.428 6L162.032 6L163.636 6L165.241 6L166.845 6L168.449 6L170.053 6L171.658 6L173.262 6L174.866 6L176.471 6L178.075 6L179.679 6L181.283 6L182.888 6L184.492 6L186.096 6L187.701 6L189.305 6L190.909 6L192.513 6L194.118 6L195.722 6L197.326 6L198.93 6L200.535 6L202.139 6L203.743 6L205.348 6L206.952 6L208.556 6L210.16 6L211.765 6L213.369 6L214.973 6L216.578 6L218.182 6L219.786 6L221.39 6L222.995 6L224.599 6L226.203 6L227.807 6L229.412 6L231.016 6L232.62 6L234.225 6L235.829 6L237.433 6L239.037 6L240.642 6L242.246 6L243.85 6L245.455 6L247.059 6L248.663 6L250.267 6L251.872 6L253.476 6L255.08 6L256.684 6L258.289 6L259.893 6L261.497 6L263.102 6L264.706 6L266.31 6L267.914 6L269.519 6L271.123 6L272.727 6L274.332 6L275.936 6L277.54 6L279.144 6L280.749 6L282.353 6L282.353 9L283.957 9L285.562 9L285.562 12L287.166 12L288.77 12L288.77 15L290.374 15L291.979 15L291.979 18L291.979 21L290.374 21L288.77 21L288.77 24L287.166 24L285.561 24L285.561 27L283.957 27L282.353 27L282.353 30L282.353 33L283.957 33L285.561 33L285.561 36L287.166 36L288.77 36L288.77 39L290.374 39L291.979 39L291.979 42L291.979 45L290.374 45L288.77 45L288.77 48L287.166 48L285.561 48L285.561 51L283.957 51L282.353 51L282.353 54L280.749 54L279.144 54L277.54 54L275.936 54L274.332 54L272.727 54L271.123 54L269.519 54L267.914 54L266.31 54L264.706 54L263.102 54L261.497 54L259.893 54L258.289 54L256.684 54L255.08 54L253.476 54L251.872 54L250.267 54L248.663 54L247.059 54L245.455 54L243.85 54L242.246 54L240.642 54L239.037 54L237.433 54L235.829 54L234.225 54L232.62 54L231.016 54L229.412 54L227.807 54L226.203 54L224.599 54L222.995 54L221.39 54L219.786 54L218.182 54L216.578 54L214.973 54L213.369 54L211.765 54L210.16 54L208.556 54L206.952 54L205.348 54L203.743 54L202.139 54L200.535 54L198.93 54L197.326 54L195.722 54L194.118 54L192.513 54L190.909 54L189.305 54L187.701 54L186.096 54L184.492 54L182.888 54L181.283 54L179.679 54L178.075 54L176.471 54L174.866 54L173.262 54L171.658 54L170.053 54L168.449 54L166.845 54L165.241 54L163.636 54L162.032 54L160.428 54L158.824 54L157.219 54L155.615 54L154.011 54L152.406 54L150.802 54L149.198 54L147.594 54L145.989 54L144.385 54L142.781 54L141.176 54L139.572 54L137.968 54L136.364 54L134.759 54L133.155 54L131.551 54L129.947 54L128.342 54L126.738 54L125.134 54L123.529 54L121.925 54L120.321 54L118.717 54L117.112 54L115.508 54L113.904 54L112.299 54L110.695 54L109.091 54L107.487 54L105.882 54L104.278 54L102.674 54L101.07 54L99.4652 54L97.861 54L96.2567 54L94.6524 54L93.0481 54L91.4439 54L89.8396 54L88.2353 54L86.631 54L85.0267 54L83.4225 54L81.8182 54L80.2139 54L78.6096 54L77.0053 54L75.4011 54L73.7968 54L72.1925 54L70.5882 54L68.984 54L67.3797 54L65.7754 54L64.1711 54L62.5668 54L60.9626 54L59.3583 54L57.754 54L56.1497 54L54.5455 54L52.9412 54L51.3369 54L49.7326 54L48.1283 54L46.5241 54L44.9198 54L43.3155 54L41.7112 54L40.107 54L38.5027 54L36.8984 54L35.2941 54L33.6898 54L32.0856 54L30.4813 54L28.877 54L27.2727 54L25.6684 54L24.0642 54L22.4599 54L20.8556 54L19.2513 54L17.6471 54L16.0428 54L14.4385 54L12.8342 54L11.2299 54L9.62567 54L8.02139 54L6.41711 54L4.81283 54L3.20856 54L1.60428 54L3.57746e-08 54L0 57L1.60428 57L3.20856 57L4.81283 57L6.41711 57L8.02139 57L9.62567 57L11.2299 57L12.8342 57L14.4385 57L16.0428 57L17.6471 57L19.2513 57L20.8556 57L22.4599 57L24.0642 57L25.6684 57L27.2727 57L28.877 57L30.4813 57L32.0856 57L33.6898 57L35.2941 57L36.8984 57L38.5027 57L40.107 57L41.7112 57L43.3155 57L44.9198 57L46.5241 57L48.1283 57L49.7326 57L51.3369 57L52.9412 57L54.5455 57L56.1497 57L57.754 57L59.3583 57L60.9626 57L62.5668 57L64.1711 57L65.7754 57L67.3797 57L68.984 57L70.5882 57L72.1925 57L73.7968 57L75.4011 57L77.0053 57L78.6096 57L80.2139 57L81.8182 57L83.4225 57L85.0267 57L86.631 57L88.2353 57L89.8396 57L91.4439 57L93.0481 57L94.6524 57L96.2567 57L97.861 57L99.4652 57L101.07 57L102.674 57L104.278 57L105.882 57L107.487 57L109.091 57L110.695 57L112.299 57L113.904 57L115.508 57L117.112 57L118.717 57L120.321 57L121.925 57L123.529 57L125.134 57L126.738 57L128.342 57L129.947 57L131.551 57L133.155 57L134.759 57L136.364 57L137.968 57L139.572 57L141.176 57L142.781 57L144.385 57L145.989 57L147.594 57L149.198 57L150.802 57L152.406 57L154.011 57L155.615 57L157.219 57L158.824 57L160.428 57L162.032 57L163.636 57L165.241 57L166.845 57L168.449 57L170.053 57L171.658 57L173.262 57L174.866 57L176.471 57L178.075 57L179.679 57L181.283 57L182.888 57L184.492 57L186.096 57L187.701 57L189.305 57L190.909 57L192.513 57L194.118 57L195.722 57L197.326 57L198.93 57L200.535 57L202.139 57L203.743 57L205.348 57L206.952 57L208.556 57L210.16 57L211.765 57L213.369 57L214.973 57L216.578 57L218.182 57L219.786 57L221.39 57L222.995 57L224.599 57L226.203 57L227.807 57L229.412 57L231.016 57L232.62 57L234.225 57L235.829 57L237.433 57L239.037 57L240.642 57L242.246 57L243.85 57L245.455 57L247.059 57L248.663 57L250.267 57L251.872 57L253.476 57L255.08 57L256.684 57L258.289 57L259.893 57L261.497 57L263.102 57L264.706 57L266.31 57L267.914 57L269.519 57L271.123 57L272.727 57L274.332 57L275.936 57L277.54 57L279.144 57L280.749 57L282.353 57L283.957 57L283.957 54L285.561 54L287.166 54L287.166 51L288.77 51L290.374 51L290.374 48L291.979 48L293.583 48L293.583 45L295.187 45L296.791 45L296.791 42L296.791 39L295.187 39L293.583 39L293.583 36L291.979 36L290.374 36L290.374 33L288.77 33L287.166 33L287.166 30L287.166 27L288.77 27L290.374 27L290.374 24L291.979 24L293.583 24L293.583 21L295.187 21L296.791 21L296.791 18L296.791 15L295.187 15L293.583 15L293.583 12L291.979 12L290.374 12L290.374 9L288.77 9L287.166 9L287.166 6L285.562 6L283.957 6L283.957 3L282.353 3L280.749 3Z" fill="white"/>
<path d="M282.353 48L282.353 51L283.957 51L285.561 51L285.561 48L283.957 48L282.353 48Z" fill="#6B91BE"/>
<path d="M283.957 36L285.561 36L285.561 33L283.957 33L282.353 33L282.353 36L283.957 36Z" fill="#6B91BE"/>
<path d="M282.353 24L282.353 27L283.957 27L285.561 27L285.561 24L283.957 24L282.353 24Z" fill="#6B91BE"/>
<path d="M283.957 12L285.561 12L285.561 9L283.957 9L282.353 9L282.353 12L283.957 12Z" fill="#6B91BE"/>
<path d="M283.957 54L283.957 57L285.561 57L287.166 57L287.166 54L285.561 54L283.957 54Z" fill="black"/>
<path d="M285.561 6L287.166 6L287.166 3L285.561 3L283.957 3L283.957 6L285.561 6Z" fill="black"/>
<path d="M285.562 45L285.562 48L287.166 48L288.77 48L288.77 45L287.166 45L285.562 45Z" fill="#6B91BE"/>
<path d="M287.166 39L288.77 39L288.77 36L287.166 36L285.562 36L285.562 39L287.166 39Z" fill="#6B91BE"/>
<path d="M285.562 21L285.562 24L287.166 24L288.77 24L288.77 21L287.166 21L285.562 21Z" fill="#6B91BE"/>
<path d="M287.166 15L288.77 15L288.77 12L287.166 12L285.562 12L285.562 15L287.166 15Z" fill="#6B91BE"/>
<path d="M287.166 51L287.166 54L288.77 54L290.375 54L290.375 51L288.77 51L287.166 51Z" fill="black"/>
<path d="M287.166 27L287.166 30L287.166 33L288.77 33L290.375 33L290.375 30L290.375 27L288.77 27L287.166 27Z" fill="black"/>
<path d="M288.77 9L290.375 9L290.375 6L288.77 6L287.166 6L287.166 9L288.77 9Z" fill="black"/>
<path d="M288.771 45L290.375 45L291.979 45L291.979 42L291.979 39L290.375 39L288.771 39L288.771 42L288.771 45Z" fill="#6B91BE"/>
<path d="M288.771 21L290.375 21L291.979 21L291.979 18L291.979 15L290.375 15L288.771 15L288.771 18L288.771 21Z" fill="#6B91BE"/>
<path d="M290.374 48L290.374 51L291.978 51L293.583 51L293.583 48L291.978 48L290.374 48Z" fill="black"/>
<path d="M291.978 36L293.583 36L293.583 33L291.978 33L290.374 33L290.374 36L291.978 36Z" fill="black"/>
<path d="M290.374 24L290.374 27L291.978 27L293.583 27L293.583 24L291.978 24L290.374 24Z" fill="black"/>
<path d="M291.978 12L293.583 12L293.583 9L291.978 9L290.374 9L290.374 12L291.978 12Z" fill="black"/>
<path d="M293.583 45L293.583 48L295.187 48L296.792 48L296.792 45L295.187 45L293.583 45Z" fill="black"/>
<path d="M295.187 39L296.792 39L296.792 36L295.187 36L293.583 36L293.583 39L295.187 39Z" fill="black"/>
<path d="M293.583 21L293.583 24L295.187 24L296.792 24L296.792 21L295.187 21L293.583 21Z" fill="black"/>
<path d="M295.187 15L296.792 15L296.792 12L295.187 12L293.583 12L293.583 15L295.187 15Z" fill="black"/>
<path d="M296.791 45L298.395 45L300 45L300 42L300 39L298.395 39L296.791 39L296.791 42L296.791 45Z" fill="black"/>
<path d="M296.791 21L298.395 21L300 21L300 18L300 15L298.395 15L296.791 15L296.791 18L296.791 21Z" fill="black"/>
<path d="M245.5 27.5H245V27H244.5H244H243.5H243H242.5H242H241.5H241V27.5H240.5V28H240V28.5V29V29.5V30V30.5V31V31.5V32H240.5V32.5H241V33H241.5H242H242.5H243H243.5H244H244.5H245V32.5H245.5V32H246V31.5V31V30.5V30V29.5V29V28.5V28H245.5V27.5Z" fill="black"/>
<path d="M257.5 29V28.5V28H257V27.5H256.5V27H256V26.5V26H255.5V25.5H255V25H254.5V24.5H254V24H253.5H253V23.5H252.5V23H252V22.5H251.5H251V22H250.5V21.5H250H249.5V21H249H248.5H248V20.5H247.5H247H246.5V20H246H245.5H245H244.5H244H243.5H243H242.5H242H241.5H241H240.5H240H239.5V20.5H239H238.5H238V21H237.5H237H236.5V21.5H236H235.5V22H235V22.5H234.5H234V23H233.5V23.5H233V24H232.5H232V24.5H231.5V25H231V25.5H230.5V26H230V26.5V27H229.5V27.5H229V28H228.5V28.5V29H228V29.5V30V30.5V31V31.5H228.5V32H229V32.5V33H229.5V33.5H230V34H230.5V34.5H231V35H231.5V35.5H232V36H232.5V36.5H233V37H233.5V37.5H234H234.5V38H235H235.5V38.5H236V39H236.5H237H237.5V39.5H238H238.5H239V40H239.5H240H240.5H241H241.5H242H242.5H243H243.5H244H244.5H245H245.5H246H246.5H247V39.5H247.5H248H248.5V39H249H249.5H250V38.5H250.5V38H251H251.5V37.5H252H252.5V37H253V36.5H253.5V36H254V35.5H254.5V35H255V34.5H255.5V34H256V33.5H256.5V33H257V32.5V32H257.5V31.5H258V31V30.5V30V29.5V29H257.5ZM245.5 36V36.5H245H244.5H244H243.5H243H242.5H242H241.5H241H240.5V36H240H239.5V35.5H239V35H238.5V34.5H238V34H237.5V33.5H237V33V32.5H236.5V32V31.5V31V30.5V30V29.5V29V28.5V28V27.5H237V27V26.5H237.5V26H238V25.5H238.5V25H239V24.5H239.5V24H240H240.5V23.5H241H241.5H242H242.5H243H243.5H244H244.5H245H245.5V24H246H246.5V24.5H247V25H247.5V25.5H248V26H248.5V26.5H249V27V27.5H249.5V28V28.5V29V29.5V30V30.5V31V31.5V32V32.5H249V33V33.5H248.5V34H248V34.5H247.5V35H247V35.5H246.5V36H246H245.5Z" fill="black"/>
</svg>
