<svg width="248" height="68" viewBox="0 0 248 68" fill="none" xmlns="http://www.w3.org/2000/svg">
<g filter="url(#filter0_d_430_6614)">
<path d="M0 3L1.30481 3L2.60963 3L3.91444 3L5.21925 3L6.52406 3L7.82888 3L9.13369 3L10.4385 3L11.7433 3L13.0481 3L14.3529 3L15.6578 3L16.9626 3L18.2674 3L19.5722 3L20.877 3L22.1818 3L23.4866 3L24.7914 3L26.0963 3L27.4011 3L28.7059 3L30.0107 3L31.3155 3L32.6203 3L33.9251 3L35.2299 3L36.5348 3L37.8396 3L39.1444 3L40.4492 3L41.754 3L43.0588 3L44.3636 3L45.6684 3L46.9733 3L48.2781 3L49.5829 3L50.8877 3L52.1925 3L53.4973 3L54.8021 3L56.1069 3L57.4118 3L58.7166 3L60.0214 3L61.3262 3L62.631 3L63.9358 3L65.2406 3L66.5455 3L67.8503 3L69.1551 3L70.4599 3L71.7647 3L73.0695 3L74.3743 3L75.6791 3L76.984 3L78.2888 3L79.5936 3L80.8984 3L82.2032 3L83.508 3L84.8128 3L86.1176 3L87.4225 3L88.7273 3L90.0321 3L91.3369 3L92.6417 3L93.9465 3L95.2513 3L96.5561 3L97.861 3L99.1658 3L100.471 3L101.775 3L103.08 3L104.385 3L105.69 3L106.995 3L108.299 3L109.604 3L110.909 3L112.214 3L113.519 3L114.824 3L116.128 3L117.433 3L118.738 3L120.043 3L121.348 3L122.652 3L123.957 3L125.262 3L126.567 3L127.872 3L129.176 3L130.481 3L131.786 3L133.091 3L134.396 3L135.701 3L137.005 3L138.31 3L139.615 3L140.92 3L142.225 3L143.529 3L144.834 3L146.139 3L147.444 3L148.749 3L150.053 3L151.358 3L152.663 3L153.968 3L155.273 3L156.578 3L157.882 3L159.187 3L160.492 3L161.797 3L163.102 3L164.406 3L165.711 3L167.016 3L168.321 3L169.626 3L170.93 3L172.235 3L173.54 3L174.845 3L176.15 3L177.455 3L178.759 3L180.064 3L181.369 3L182.674 3L183.979 3L185.283 3L186.588 3L187.893 3L189.198 3L190.503 3L191.807 3L193.112 3L194.417 3L195.722 3L197.027 3L198.332 3L199.636 3L200.941 3L202.246 3L203.551 3L204.856 3L206.16 3L207.465 3L208.77 3L210.075 3L211.38 3L212.684 3L213.989 3L215.294 3L216.599 3L217.904 3L219.209 3L220.513 3L221.818 3L223.123 3L224.428 3L225.733 3L227.037 3L228.342 3L229.647 3L230.952 3L230.952 2.75407e-06L229.647 2.73851e-06L228.342 2.72295e-06L227.037 2.70739e-06L225.733 2.69183e-06L224.428 2.67627e-06L223.123 2.66071e-06L221.818 2.64516e-06L220.513 2.6296e-06L219.209 2.61404e-06L217.904 2.59848e-06L216.599 2.58292e-06L215.294 2.56736e-06L213.989 2.5518e-06L212.684 2.53624e-06L211.38 2.52068e-06L210.075 2.50512e-06L208.77 2.48956e-06L207.465 2.474e-06L206.16 2.45844e-06L204.856 2.44288e-06L203.551 2.42732e-06L202.246 2.41176e-06L200.941 2.3962e-06L199.636 2.38064e-06L198.332 2.36508e-06L197.027 2.34952e-06L195.722 2.33396e-06L194.417 2.3184e-06L193.112 2.30284e-06L191.807 2.28728e-06L190.503 2.27172e-06L189.198 2.25616e-06L187.893 2.2406e-06L186.588 2.22504e-06L185.283 2.20948e-06L183.979 2.19392e-06L182.674 2.17836e-06L181.369 2.1628e-06L180.064 2.14724e-06L178.759 2.13168e-06L177.455 2.11612e-06L176.15 2.10056e-06L174.845 2.085e-06L173.54 2.06944e-06L172.235 2.05389e-06L170.93 2.03833e-06L169.626 2.02277e-06L168.321 2.00721e-06L167.016 1.99165e-06L165.711 1.97609e-06L164.406 1.96053e-06L163.102 1.94497e-06L161.797 1.92941e-06L160.492 1.91385e-06L159.187 1.89829e-06L157.882 1.88273e-06L156.578 1.86717e-06L155.273 1.85161e-06L153.968 1.83605e-06L152.663 1.82049e-06L151.358 1.80493e-06L150.053 1.78937e-06L148.749 1.77381e-06L147.444 1.75825e-06L146.139 1.74269e-06L144.834 1.72713e-06L143.529 1.71157e-06L142.225 1.69601e-06L140.92 1.68045e-06L139.615 1.66489e-06L138.31 1.64933e-06L137.005 1.63377e-06L135.701 1.61821e-06L134.396 1.60265e-06L133.091 1.58709e-06L131.786 1.57153e-06L130.481 1.55597e-06L129.176 1.54041e-06L127.872 1.52485e-06L126.567 1.50929e-06L125.262 1.49373e-06L123.957 1.47817e-06L122.652 1.46262e-06L121.348 1.44706e-06L120.043 1.4315e-06L118.738 1.41594e-06L117.433 1.40038e-06L116.128 1.38482e-06L114.824 1.36926e-06L113.519 1.3537e-06L112.214 1.33814e-06L110.909 1.32258e-06L109.604 1.30702e-06L108.299 1.29146e-06L106.995 1.2759e-06L105.69 1.26034e-06L104.385 1.24478e-06L103.08 1.22922e-06L101.775 1.21366e-06L100.471 1.1981e-06L99.1658 1.18254e-06L97.861 1.16698e-06L96.5561 1.15142e-06L95.2513 1.13586e-06L93.9465 1.1203e-06L92.6417 1.10474e-06L91.3369 1.08918e-06L90.0321 1.07362e-06L88.7273 1.05806e-06L87.4225 1.0425e-06L86.1176 1.02694e-06L84.8128 1.01138e-06L83.508 9.95823e-07L82.2032 9.80263e-07L80.8984 9.64704e-07L79.5936 9.49144e-07L78.2888 9.33584e-07L76.984 9.18024e-07L75.6791 9.02465e-07L74.3743 8.86905e-07L73.0695 8.71345e-07L71.7647 8.55786e-07L70.4599 8.40226e-07L69.1551 8.24666e-07L67.8503 8.09106e-07L66.5455 7.93547e-07L65.2406 7.77987e-07L63.9358 7.62427e-07L62.631 7.46867e-07L61.3262 7.31308e-07L60.0214 7.15748e-07L58.7166 7.00188e-07L57.4118 6.84628e-07L56.1069 6.69069e-07L54.8021 6.53509e-07L53.4973 6.37949e-07L52.1925 6.22389e-07L50.8877 6.0683e-07L49.5829 5.9127e-07L48.2781 5.7571e-07L46.9733 5.60151e-07L45.6684 5.44591e-07L44.3636 5.29031e-07L43.0588 5.13471e-07L41.754 4.97912e-07L40.4492 4.82352e-07L39.1444 4.66792e-07L37.8396 4.51232e-07L36.5348 4.35673e-07L35.2299 4.20113e-07L33.9251 4.04553e-07L32.6203 3.88993e-07L31.3155 3.73434e-07L30.0107 3.57874e-07L28.7059 3.42314e-07L27.4011 3.26754e-07L26.0963 3.11195e-07L24.7914 2.95635e-07L23.4866 2.80075e-07L22.1818 2.64516e-07L20.877 2.48956e-07L19.5722 2.33396e-07L18.2674 2.17836e-07L16.9626 2.02277e-07L15.6578 1.86717e-07L14.3529 1.71157e-07L13.0481 1.55597e-07L11.7433 1.40038e-07L10.4385 1.24478e-07L9.13369 1.08918e-07L7.82888 9.33584e-08L6.52406 7.77987e-08L5.21925 6.22389e-08L3.91444 4.66792e-08L2.60963 3.11195e-08L1.30481 1.55597e-08L3.57746e-08 0L0 3Z" fill="black"/>
<path d="M2.60963 54L3.91444 54L5.21925 54L6.52406 54L7.82888 54L9.13369 54L10.4385 54L11.7433 54L13.0481 54L14.3529 54L15.6578 54L16.9626 54L18.2674 54L19.5722 54L20.877 54L22.1818 54L23.4866 54L24.7914 54L26.0963 54L27.4011 54L28.7059 54L30.0107 54L31.3155 54L32.6203 54L33.9251 54L35.2299 54L36.5348 54L37.8396 54L39.1444 54L40.4492 54L41.754 54L43.0588 54L44.3636 54L45.6685 54L46.9733 54L48.2781 54L49.5829 54L50.8877 54L52.1925 54L53.4973 54L54.8021 54L56.107 54L57.4118 54L58.7166 54L60.0214 54L61.3262 54L62.631 54L63.9358 54L65.2406 54L66.5455 54L67.8503 54L69.1551 54L70.4599 54L71.7647 54L73.0695 54L74.3743 54L75.6791 54L76.984 54L78.2888 54L79.5936 54L80.8984 54L82.2032 54L83.508 54L84.8128 54L86.1177 54L87.4225 54L88.7273 54L90.0321 54L91.3369 54L92.6417 54L93.9465 54L95.2513 54L96.5562 54L97.861 54L99.1658 54L100.471 54L101.775 54L103.08 54L104.385 54L105.69 54L106.995 54L108.299 54L109.604 54L110.909 54L112.214 54L113.519 54L114.824 54L116.128 54L117.433 54L118.738 54L120.043 54L121.348 54L122.652 54L123.957 54L125.262 54L126.567 54L127.872 54L129.176 54L130.481 54L131.786 54L133.091 54L134.396 54L135.701 54L137.005 54L138.31 54L139.615 54L140.92 54L142.225 54L143.529 54L144.834 54L146.139 54L147.444 54L148.749 54L150.053 54L151.358 54L152.663 54L153.968 54L155.273 54L156.578 54L157.882 54L159.187 54L160.492 54L161.797 54L163.102 54L164.406 54L165.711 54L167.016 54L168.321 54L169.626 54L170.93 54L172.235 54L173.54 54L174.845 54L176.15 54L177.455 54L178.759 54L180.064 54L181.369 54L182.674 54L183.979 54L185.283 54L186.588 54L187.893 54L189.198 54L190.503 54L191.807 54L193.112 54L194.417 54L195.722 54L197.027 54L198.332 54L199.636 54L200.941 54L202.246 54L203.551 54L204.856 54L206.16 54L207.465 54L208.77 54L210.075 54L211.38 54L212.685 54L213.989 54L215.294 54L216.599 54L217.904 54L219.209 54L220.513 54L221.818 54L223.123 54L224.428 54L225.733 54L227.037 54L228.342 54L229.647 54L229.647 51L228.342 51L227.037 51L225.733 51L224.428 51L223.123 51L221.818 51L220.513 51L219.209 51L217.904 51L216.599 51L215.294 51L213.989 51L212.685 51L211.38 51L210.075 51L208.77 51L207.465 51L206.16 51L204.856 51L203.551 51L202.246 51L200.941 51L199.636 51L198.332 51L197.027 51L195.722 51L194.417 51L193.112 51L191.807 51L190.503 51L189.198 51L187.893 51L186.588 51L185.283 51L183.979 51L182.674 51L181.369 51L180.064 51L178.759 51L177.455 51L176.15 51L174.845 51L173.54 51L172.235 51L170.93 51L169.626 51L168.321 51L167.016 51L165.711 51L164.406 51L163.102 51L161.797 51L160.492 51L159.187 51L157.882 51L156.578 51L155.273 51L153.968 51L152.663 51L151.358 51L150.053 51L148.749 51L147.444 51L146.139 51L144.834 51L143.529 51L142.225 51L140.92 51L139.615 51L138.31 51L137.005 51L135.701 51L134.396 51L133.091 51L131.786 51L130.481 51L129.176 51L127.872 51L126.567 51L125.262 51L123.957 51L122.652 51L121.348 51L120.043 51L118.738 51L117.433 51L116.128 51L114.824 51L113.519 51L112.214 51L110.909 51L109.604 51L108.299 51L106.995 51L105.69 51L104.385 51L103.08 51L101.775 51L100.471 51L99.1658 51L97.861 51L96.5562 51L95.2513 51L93.9465 51L92.6417 51L91.3369 51L90.0321 51L88.7273 51L87.4225 51L86.1177 51L84.8128 51L83.508 51L82.2032 51L80.8984 51L79.5936 51L78.2888 51L76.984 51L75.6791 51L74.3743 51L73.0695 51L71.7647 51L70.4599 51L69.1551 51L67.8503 51L66.5455 51L65.2406 51L63.9358 51L62.631 51L61.3262 51L60.0214 51L58.7166 51L57.4118 51L56.107 51L54.8021 51L53.4973 51L52.1925 51L50.8877 51L49.5829 51L48.2781 51L46.9733 51L45.6685 51L44.3636 51L43.0588 51L41.754 51L40.4492 51L39.1444 51L37.8396 51L36.5348 51L35.2299 51L33.9251 51L32.6203 51L31.3155 51L30.0107 51L28.7059 51L27.4011 51L26.0963 51L24.7914 51L23.4866 51L22.1818 51L20.877 51L19.5722 51L18.2674 51L16.9626 51L15.6578 51L14.3529 51L13.0481 51L11.7433 51L10.4385 51L9.13369 51L7.82888 51L6.52406 51L5.21925 51L3.91444 51L2.60963 51L1.30481 51L3.57746e-08 51L0 54L1.30481 54L2.60963 54Z" fill="#FFD700"/>
<path d="M2.60963 51L3.91444 51L5.21925 51L6.52406 51L7.82888 51L9.13369 51L10.4385 51L11.7433 51L13.0481 51L14.3529 51L15.6578 51L16.9626 51L18.2674 51L19.5722 51L20.877 51L22.1818 51L23.4866 51L24.7914 51L26.0963 51L27.4011 51L28.7059 51L30.0107 51L31.3155 51L32.6203 51L33.9251 51L35.2299 51L36.5348 51L37.8396 51L39.1444 51L40.4492 51L41.754 51L43.0588 51L44.3636 51L45.6684 51L46.9733 51L48.2781 51L49.5829 51L50.8877 51L52.1925 51L53.4973 51L54.8021 51L56.1069 51L57.4118 51L58.7166 51L60.0214 51L61.3262 51L62.631 51L63.9358 51L65.2406 51L66.5455 51L67.8503 51L69.1551 51L70.4599 51L71.7647 51L73.0695 51L74.3743 51L75.6791 51L76.984 51L78.2888 51L79.5936 51L80.8984 51L82.2032 51L83.508 51L84.8128 51L86.1176 51L87.4225 51L88.7273 51L90.0321 51L91.3369 51L92.6417 51L93.9465 51L95.2513 51L96.5561 51L97.861 51L99.1658 51L100.471 51L101.775 51L103.08 51L104.385 51L105.69 51L106.995 51L108.299 51L109.604 51L110.909 51L112.214 51L113.519 51L114.824 51L116.128 51L117.433 51L118.738 51L120.043 51L121.348 51L122.652 51L123.957 51L125.262 51L126.567 51L127.872 51L129.176 51L130.481 51L131.786 51L133.091 51L134.396 51L135.701 51L137.005 51L138.31 51L139.615 51L140.92 51L142.225 51L143.529 51L144.834 51L146.139 51L147.444 51L148.749 51L150.053 51L151.358 51L152.663 51L153.968 51L155.273 51L156.578 51L157.882 51L159.187 51L160.492 51L161.797 51L163.102 51L164.406 51L165.711 51L167.016 51L168.321 51L169.626 51L170.93 51L172.235 51L173.54 51L174.845 51L176.15 51L177.455 51L178.759 51L180.064 51L181.369 51L182.674 51L183.979 51L185.283 51L186.588 51L187.893 51L189.198 51L190.503 51L191.807 51L193.112 51L194.417 51L195.722 51L197.027 51L198.332 51L199.636 51L200.941 51L202.246 51L203.551 51L204.856 51L206.16 51L207.465 51L208.77 51L210.075 51L211.38 51L212.684 51L213.989 51L215.294 51L216.599 51L217.904 51L219.209 51L220.513 51L221.818 51L223.123 51L224.428 51L225.733 51L227.037 51L228.342 51L229.647 51L229.647 48L230.952 48L232.257 48L232.257 45L233.561 45L234.866 45L234.866 42L234.866 39L233.561 39L232.257 39L232.257 36L230.952 36L229.647 36L229.647 33L228.342 33L228.342 30L228.342 27L229.647 27L229.647 24L230.952 24L232.257 24L232.257 21L233.561 21L234.866 21L234.866 18L234.866 15L233.561 15L232.257 15L232.257 12L230.952 12L229.647 12L229.647 9.00001L228.342 9.00001L227.037 9.00001L225.733 9.00001L224.428 9.00001L223.123 9.00001L221.818 9.00001L220.513 9.00001L219.209 9.00001L217.904 9.00001L216.599 9.00001L215.294 9.00001L213.989 9.00001L212.684 9.00001L211.38 9.00001L210.075 9.00001L208.77 9.00001L207.465 9.00001L206.16 9.00001L204.856 9.00001L203.551 9.00001L202.246 9.00001L200.941 9.00001L199.636 9.00001L198.332 9.00001L197.027 9.00001L195.722 9.00001L194.417 9.00001L193.112 9.00001L191.807 9.00001L190.503 9.00001L189.198 9.00001L187.893 9.00001L186.588 9.00001L185.283 9.00001L183.979 9.00001L182.674 9.00001L181.369 9.00001L180.064 9.00001L178.759 9.00001L177.455 9.00001L176.15 9.00001L174.845 9.00001L173.54 9.00001L172.235 9.00001L170.93 9.00001L169.626 9.00001L168.321 9.00001L167.016 9.00001L165.711 9.00001L164.406 9.00001L163.102 9.00001L161.797 9.00001L160.492 9.00001L159.187 9.00001L157.882 9.00001L156.578 9.00001L155.273 9.00001L153.968 9.00001L152.663 9.00001L151.358 9.00001L150.053 9.00001L148.749 9.00001L147.444 9.00001L146.139 9.00001L144.834 9.00001L143.529 9.00001L142.225 9.00001L140.92 9.00001L139.615 9.00001L138.31 9L137.005 9L135.701 9L134.396 9L133.091 9L131.786 9L130.481 9L129.176 9L127.872 9L126.567 9L125.262 9L123.957 9L122.652 9L121.348 9L120.043 9L118.738 9L117.433 9L116.128 9L114.824 9L113.519 9L112.214 9L110.909 9L109.604 9L108.299 9L106.995 9L105.69 9L104.385 9L103.08 9L101.775 9L100.471 9L99.1658 9L97.861 9L96.5561 9L95.2513 9L93.9465 9L92.6417 9L91.3369 9L90.0321 9L88.7273 9L87.4225 9L86.1176 9L84.8128 9L83.508 9L82.2032 9L80.8984 9L79.5936 9L78.2888 9L76.984 9L75.6791 9L74.3743 9L73.0695 9L71.7647 9L70.4599 9L69.1551 9L67.8503 9L66.5455 9L65.2406 9L63.9358 9L62.631 9L61.3262 9L60.0214 9L58.7166 9L57.4118 9L56.107 9L54.8021 9L53.4973 9L52.1925 9L50.8877 9L49.5829 9L48.2781 9L46.9733 9L45.6684 9L44.3636 9L43.0588 9L41.754 9L40.4492 9L39.1444 9L37.8396 9L36.5348 9L35.2299 9L33.9251 9L32.6203 9L31.3155 9L30.0107 9L28.7059 9L27.4011 9L26.0963 9L24.7914 9L23.4866 9L22.1818 9L20.877 9L19.5722 9L18.2674 9L16.9626 9L15.6578 9L14.3529 9L13.0481 9L11.7433 9L10.4385 9L9.13369 9L7.82888 9L6.52406 9L5.21925 9L3.91444 9L2.60963 9L1.30481 9L5.00845e-07 9L4.6507e-07 12L4.29296e-07 15L3.93521e-07 18L3.57746e-07 21L3.21972e-07 24L2.86197e-07 27L2.50422e-07 30L2.14648e-07 33L1.78873e-07 36L1.43099e-07 39L1.07324e-07 42L7.15493e-08 45L3.57746e-08 48L0 51L1.30481 51L2.60963 51Z" fill="#6B91BE"/>
<path d="M2.60963 9L3.91444 9L5.21925 9L6.52406 9L7.82888 9L9.13369 9L10.4385 9L11.7433 9L13.0481 9L14.3529 9L15.6578 9L16.9626 9L18.2674 9L19.5722 9L20.877 9L22.1818 9L23.4866 9L24.7914 9L26.0963 9L27.4011 9L28.7059 9L30.0107 9L31.3155 9L32.6203 9L33.9251 9L35.2299 9L36.5348 9L37.8396 9L39.1444 9L40.4492 9L41.754 9L43.0588 9L44.3636 9L45.6685 9L46.9733 9L48.2781 9L49.5829 9L50.8877 9L52.1925 9L53.4973 9L54.8021 9L56.107 9L57.4118 9L58.7166 9L60.0214 9L61.3262 9L62.631 9L63.9358 9L65.2406 9L66.5455 9L67.8503 9L69.1551 9L70.4599 9L71.7647 9L73.0695 9L74.3743 9L75.6791 9L76.984 9L78.2888 9L79.5936 9L80.8984 9L82.2032 9L83.508 9L84.8128 9L86.1177 9L87.4225 9L88.7273 9L90.0321 9L91.3369 9L92.6417 9L93.9465 9L95.2513 9L96.5562 9L97.861 9L99.1658 9L100.471 9L101.775 9L103.08 9L104.385 9L105.69 9L106.995 9L108.299 9L109.604 9L110.909 9L112.214 9L113.519 9L114.824 9L116.128 9L117.433 9L118.738 9L120.043 9L121.348 9L122.652 9L123.957 9L125.262 9L126.567 9L127.872 9L129.176 9L130.481 9L131.786 9L133.091 9L134.396 9L135.701 9L137.005 9L138.31 9L139.615 9L140.92 9L142.225 9L143.529 9L144.834 9L146.139 9L147.444 9L148.749 9L150.053 9L151.358 9L152.663 9L153.968 9L155.273 9L156.578 9L157.882 9L159.187 9L160.492 9L161.797 9L163.102 9L164.406 9L165.711 9L167.016 9L168.321 9L169.626 9L170.93 9L172.235 9L173.54 9L174.845 9L176.15 9L177.455 9L178.759 9L180.064 9L181.369 9L182.674 9L183.979 9L185.283 9L186.588 9L187.893 9L189.198 9L190.503 9L191.807 9L193.112 9L194.417 9L195.722 9L197.027 9L198.332 9L199.636 9L200.941 9L202.246 9L203.551 9L204.856 9L206.16 9L207.465 9L208.77 9L210.075 9L211.38 9L212.685 9L213.989 9L215.294 9L216.599 9L217.904 9L219.209 9L220.513 9L221.818 9L223.123 9L224.428 9L225.733 9L227.037 9L228.342 9L229.647 9L229.647 6L228.342 6L227.037 6L225.733 6L224.428 6L223.123 6L221.818 6L220.513 6L219.209 6L217.904 6L216.599 6L215.294 6L213.989 6L212.685 6L211.38 6L210.075 6L208.77 6L207.465 6L206.16 6L204.856 6L203.551 6L202.246 6L200.941 6L199.636 6L198.332 6L197.027 6L195.722 6L194.417 6L193.112 6L191.807 6L190.503 6L189.198 6L187.893 6L186.588 6L185.283 6L183.979 6L182.674 6L181.369 6L180.064 6L178.759 6L177.455 6L176.15 6L174.845 6L173.54 6L172.235 6L170.93 6L169.626 6L168.321 6L167.016 6L165.711 6L164.406 6L163.102 6L161.797 6L160.492 6L159.187 6L157.882 6L156.578 6L155.273 6L153.968 6L152.663 6L151.358 6L150.053 6L148.749 6L147.444 6L146.139 6L144.834 6L143.529 6L142.225 6L140.92 6L139.615 6L138.31 6L137.005 6L135.701 6L134.396 6L133.091 6L131.786 6L130.481 6L129.176 6L127.872 6L126.567 6L125.262 6L123.957 6L122.652 6L121.348 6L120.043 6L118.738 6L117.433 6L116.128 6L114.824 6L113.519 6L112.214 6L110.909 6L109.604 6L108.299 6L106.995 6L105.69 6L104.385 6L103.08 6L101.775 6L100.471 6L99.1658 6L97.861 6L96.5562 6L95.2513 6L93.9465 6L92.6417 6L91.3369 6L90.0321 6L88.7273 6L87.4225 6L86.1177 6L84.8128 6L83.508 6L82.2032 6L80.8984 6L79.5936 6L78.2888 6L76.984 6L75.6791 6L74.3743 6L73.0695 6L71.7647 6L70.4599 6L69.1551 6L67.8503 6L66.5455 6L65.2406 6L63.9358 6L62.631 6L61.3262 6L60.0214 6L58.7166 6L57.4118 6L56.107 6L54.8021 6L53.4973 6L52.1925 6L50.8877 6L49.5829 6L48.2781 6L46.9733 6L45.6685 6L44.3636 6L43.0588 6L41.754 6L40.4492 6L39.1444 6L37.8396 6L36.5348 6L35.2299 6L33.9251 6L32.6203 6L31.3155 6L30.0107 6L28.7059 6L27.4011 6L26.0963 6L24.7914 6L23.4866 6L22.1818 6L20.877 6L19.5722 6L18.2674 6L16.9626 6L15.6578 6L14.3529 6L13.0481 6L11.7433 6L10.4385 6L9.13369 6L7.82888 6L6.52406 6L5.21925 6L3.91444 6L2.60963 6L1.30481 6L3.57746e-08 6L0 9L1.30481 9L2.60963 9Z" fill="#FFD700"/>
<path d="M228.342 57L227.037 57L225.733 57L224.428 57L223.123 57L221.818 57L220.513 57L219.209 57L217.904 57L216.599 57L215.294 57L213.989 57L212.684 57L211.38 57L210.075 57L208.77 57L207.465 57L206.16 57L204.856 57L203.551 57L202.246 57L200.941 57L199.636 57L198.332 57L197.027 57L195.722 57L194.417 57L193.112 57L191.807 57L190.503 57L189.198 57L187.893 57L186.588 57L185.283 57L183.979 57L182.674 57L181.369 57L180.064 57L178.759 57L177.455 57L176.15 57L174.845 57L173.54 57L172.235 57L170.93 57L169.626 57L168.321 57L167.016 57L165.711 57L164.406 57L163.102 57L161.797 57L160.492 57L159.187 57L157.882 57L156.578 57L155.273 57L153.968 57L152.663 57L151.358 57L150.053 57L148.749 57L147.444 57L146.139 57L144.834 57L143.529 57L142.225 57L140.92 57L139.615 57L138.31 57L137.005 57L135.701 57L134.396 57L133.091 57L131.786 57L130.481 57L129.176 57L127.872 57L126.567 57L125.262 57L123.957 57L122.652 57L121.348 57L120.043 57L118.738 57L117.433 57L116.128 57L114.824 57L113.519 57L112.214 57L110.909 57L109.604 57L108.299 57L106.995 57L105.69 57L104.385 57L103.08 57L101.775 57L100.471 57L99.1658 57L97.861 57L96.5561 57L95.2513 57L93.9465 57L92.6417 57L91.3369 57L90.0321 57L88.7273 57L87.4225 57L86.1176 57L84.8128 57L83.508 57L82.2032 57L80.8984 57L79.5936 57L78.2888 57L76.984 57L75.6791 57L74.3743 57L73.0695 57L71.7647 57L70.4599 57L69.1551 57L67.8503 57L66.5455 57L65.2406 57L63.9358 57L62.631 57L61.3262 57L60.0214 57L58.7166 57L57.4118 57L56.1069 57L54.8021 57L53.4973 57L52.1925 57L50.8877 57L49.5829 57L48.2781 57L46.9733 57L45.6684 57L44.3636 57L43.0588 57L41.754 57L40.4492 57L39.1444 57L37.8396 57L36.5348 57L35.2299 57L33.9251 57L32.6203 57L31.3155 57L30.0107 57L28.7059 57L27.4011 57L26.0963 57L24.7914 57L23.4866 57L22.1818 57L20.877 57L19.5722 57L18.2674 57L16.9626 57L15.6578 57L14.3529 57L13.0481 57L11.7433 57L10.4385 57L9.13369 57L7.82888 57L6.52406 57L5.21925 57L3.91444 57L2.60963 57L1.30481 57L3.57746e-08 57L0 60L1.30481 60L2.60963 60L3.91444 60L5.21925 60L6.52406 60L7.82888 60L9.13369 60L10.4385 60L11.7433 60L13.0481 60L14.3529 60L15.6578 60L16.9626 60L18.2674 60L19.5722 60L20.877 60L22.1818 60L23.4866 60L24.7914 60L26.0963 60L27.4011 60L28.7059 60L30.0107 60L31.3155 60L32.6203 60L33.9251 60L35.2299 60L36.5348 60L37.8396 60L39.1444 60L40.4492 60L41.754 60L43.0588 60L44.3636 60L45.6684 60L46.9733 60L48.2781 60L49.5829 60L50.8877 60L52.1925 60L53.4973 60L54.8021 60L56.1069 60L57.4118 60L58.7166 60L60.0214 60L61.3262 60L62.631 60L63.9358 60L65.2406 60L66.5455 60L67.8503 60L69.1551 60L70.4599 60L71.7647 60L73.0695 60L74.3743 60L75.6791 60L76.984 60L78.2888 60L79.5936 60L80.8984 60L82.2032 60L83.508 60L84.8128 60L86.1176 60L87.4225 60L88.7273 60L90.0321 60L91.3369 60L92.6417 60L93.9465 60L95.2513 60L96.5561 60L97.861 60L99.1658 60L100.471 60L101.775 60L103.08 60L104.385 60L105.69 60L106.995 60L108.299 60L109.604 60L110.909 60L112.214 60L113.519 60L114.824 60L116.128 60L117.433 60L118.738 60L120.043 60L121.348 60L122.652 60L123.957 60L125.262 60L126.567 60L127.872 60L129.176 60L130.481 60L131.786 60L133.091 60L134.396 60L135.701 60L137.005 60L138.31 60L139.615 60L140.92 60L142.225 60L143.529 60L144.834 60L146.139 60L147.444 60L148.749 60L150.053 60L151.358 60L152.663 60L153.968 60L155.273 60L156.578 60L157.882 60L159.187 60L160.492 60L161.797 60L163.102 60L164.406 60L165.711 60L167.016 60L168.321 60L169.626 60L170.93 60L172.235 60L173.54 60L174.845 60L176.15 60L177.455 60L178.759 60L180.064 60L181.369 60L182.674 60L183.979 60L185.283 60L186.588 60L187.893 60L189.198 60L190.503 60L191.807 60L193.112 60L194.417 60L195.722 60L197.027 60L198.332 60L199.636 60L200.941 60L202.246 60L203.551 60L204.856 60L206.16 60L207.465 60L208.77 60L210.075 60L211.38 60L212.684 60L213.989 60L215.294 60L216.599 60L217.904 60L219.209 60L220.513 60L221.818 60L223.123 60L224.428 60L225.733 60L227.037 60L228.342 60L229.647 60L230.952 60L230.952 57L229.647 57L228.342 57Z" fill="black"/>
<path d="M228.342 30L228.342 33L229.647 33L229.647 30L229.647 27L228.342 27L228.342 30Z" fill="#FFD700"/>
<path d="M228.342 3.00001L227.037 3.00001L225.733 3.00001L224.428 3.00001L223.123 3.00001L221.818 3.00001L220.513 3.00001L219.209 3.00001L217.904 3.00001L216.599 3.00001L215.294 3.00001L213.989 3.00001L212.685 3.00001L211.38 3.00001L210.075 3.00001L208.77 3.00001L207.465 3.00001L206.16 3.00001L204.856 3.00001L203.551 3.00001L202.246 3.00001L200.941 3.00001L199.636 3.00001L198.332 3.00001L197.027 3.00001L195.722 3.00001L194.417 3.00001L193.112 3.00001L191.807 3.00001L190.503 3.00001L189.198 3.00001L187.893 3.00001L186.588 3.00001L185.283 3.00001L183.979 3.00001L182.674 3.00001L181.369 3.00001L180.064 3.00001L178.759 3.00001L177.455 3.00001L176.15 3.00001L174.845 3.00001L173.54 3.00001L172.235 3.00001L170.93 3.00001L169.626 3.00001L168.321 3.00001L167.016 3.00001L165.711 3.00001L164.406 3.00001L163.102 3.00001L161.797 3.00001L160.492 3.00001L159.187 3.00001L157.882 3.00001L156.578 3.00001L155.273 3.00001L153.968 3.00001L152.663 3.00001L151.358 3.00001L150.053 3.00001L148.749 3.00001L147.444 3.00001L146.139 3.00001L144.834 3.00001L143.529 3.00001L142.225 3.00001L140.92 3.00001L139.615 3.00001L138.31 3.00001L137.005 3.00001L135.701 3.00001L134.396 3.00001L133.091 3.00001L131.786 3.00001L130.481 3.00001L129.176 3.00001L127.872 3.00001L126.567 3.00001L125.262 3.00001L123.957 3.00001L122.652 3.00001L121.348 3.00001L120.043 3.00001L118.738 3.00001L117.433 3.00001L116.128 3.00001L114.824 3.00001L113.519 3.00001L112.214 3.00001L110.909 3.00001L109.604 3.00001L108.299 3.00001L106.995 3.00001L105.69 3.00001L104.385 3.00001L103.08 3.00001L101.775 3.00001L100.471 3.00001L99.1658 3.00001L97.861 3.00001L96.5562 3.00001L95.2513 3.00001L93.9465 3.00001L92.6417 3.00001L91.3369 3.00001L90.0321 3.00001L88.7273 3.00001L87.4225 3.00001L86.1177 3.00001L84.8128 3.00001L83.508 3.00001L82.2032 3.00001L80.8984 3.00001L79.5936 3.00001L78.2888 3.00001L76.984 3.00001L75.6791 3.00001L74.3743 3.00001L73.0695 3.00001L71.7647 3.00001L70.4599 3.00001L69.1551 3.00001L67.8503 3.00001L66.5455 3.00001L65.2406 3.00001L63.9358 3.00001L62.631 3.00001L61.3262 3.00001L60.0214 3.00001L58.7166 3L57.4118 3L56.107 3L54.8021 3L53.4973 3L52.1925 3L50.8877 3L49.5829 3L48.2781 3L46.9733 3L45.6685 3L44.3636 3L43.0588 3L41.754 3L40.4492 3L39.1444 3L37.8396 3L36.5348 3L35.2299 3L33.9251 3L32.6203 3L31.3155 3L30.0107 3L28.7059 3L27.4011 3L26.0963 3L24.7914 3L23.4866 3L22.1818 3L20.877 3L19.5722 3L18.2674 3L16.9626 3L15.6578 3L14.3529 3L13.0481 3L11.7433 3L10.4385 3L9.13369 3L7.82888 3L6.52407 3L5.21925 3L3.91444 3L2.60963 3L1.30481 3L6.43944e-07 3L6.08169e-07 6L1.30481 6L2.60963 6L3.91444 6L5.21925 6L6.52407 6L7.82888 6L9.13369 6L10.4385 6L11.7433 6L13.0481 6L14.3529 6L15.6578 6L16.9626 6L18.2674 6L19.5722 6L20.877 6L22.1818 6L23.4866 6L24.7914 6L26.0963 6L27.4011 6L28.7059 6L30.0107 6L31.3155 6L32.6203 6L33.9251 6L35.2299 6L36.5348 6L37.8396 6L39.1444 6L40.4492 6L41.754 6L43.0588 6L44.3636 6L45.6685 6L46.9733 6L48.2781 6L49.5829 6L50.8877 6L52.1925 6L53.4973 6L54.8021 6L56.107 6L57.4118 6L58.7166 6L60.0214 6L61.3262 6L62.631 6L63.9358 6L65.2406 6L66.5455 6L67.8503 6L69.1551 6L70.4599 6L71.7647 6L73.0695 6L74.3743 6L75.6791 6L76.984 6L78.2888 6L79.5936 6.00001L80.8984 6.00001L82.2032 6.00001L83.508 6.00001L84.8128 6.00001L86.1177 6.00001L87.4225 6.00001L88.7273 6.00001L90.0321 6.00001L91.3369 6.00001L92.6417 6.00001L93.9465 6.00001L95.2513 6.00001L96.5562 6.00001L97.861 6.00001L99.1658 6.00001L100.471 6.00001L101.775 6.00001L103.08 6.00001L104.385 6.00001L105.69 6.00001L106.995 6.00001L108.299 6.00001L109.604 6.00001L110.909 6.00001L112.214 6.00001L113.519 6.00001L114.824 6.00001L116.128 6.00001L117.433 6.00001L118.738 6.00001L120.043 6.00001L121.348 6.00001L122.652 6.00001L123.957 6.00001L125.262 6.00001L126.567 6.00001L127.872 6.00001L129.176 6.00001L130.481 6.00001L131.786 6.00001L133.091 6.00001L134.396 6.00001L135.701 6.00001L137.005 6.00001L138.31 6.00001L139.615 6.00001L140.92 6.00001L142.225 6.00001L143.529 6.00001L144.834 6.00001L146.139 6.00001L147.444 6.00001L148.749 6.00001L150.053 6.00001L151.358 6.00001L152.663 6.00001L153.968 6.00001L155.273 6.00001L156.578 6.00001L157.882 6.00001L159.187 6.00001L160.492 6.00001L161.797 6.00001L163.102 6.00001L164.406 6.00001L165.711 6.00001L167.016 6.00001L168.321 6.00001L169.626 6.00001L170.93 6.00001L172.235 6.00001L173.54 6.00001L174.845 6.00001L176.15 6.00001L177.455 6.00001L178.759 6.00001L180.064 6.00001L181.369 6.00001L182.674 6.00001L183.979 6.00001L185.283 6.00001L186.588 6.00001L187.893 6.00001L189.198 6.00001L190.503 6.00001L191.807 6.00001L193.112 6.00001L194.417 6.00001L195.722 6.00001L197.027 6.00001L198.332 6.00001L199.636 6.00001L200.941 6.00001L202.246 6.00001L203.551 6.00001L204.856 6.00001L206.16 6.00001L207.465 6.00001L208.77 6.00001L210.075 6.00001L211.38 6.00001L212.685 6.00001L213.989 6.00001L215.294 6.00001L216.599 6.00001L217.904 6.00001L219.209 6.00001L220.513 6.00001L221.818 6.00001L223.123 6.00001L224.428 6.00001L225.733 6.00001L227.037 6.00001L228.342 6.00001L229.647 6.00001L229.647 9.00001L230.952 9.00001L232.257 9.00001L232.257 12L233.562 12L234.866 12L234.866 15L236.171 15L237.476 15L237.476 18L237.476 21L236.171 21L234.866 21L234.866 24L233.562 24L232.257 24L232.257 27L230.952 27L229.647 27L229.647 30L229.647 33L230.952 33L232.257 33L232.257 36L233.562 36L234.866 36L234.866 39L236.171 39L237.476 39L237.476 42L237.476 45L236.171 45L234.866 45L234.866 48L233.562 48L232.257 48L232.257 51L230.952 51L229.647 51L229.647 54L228.342 54L227.037 54L225.733 54L224.428 54L223.123 54L221.818 54L220.513 54L219.209 54L217.904 54L216.599 54L215.294 54L213.989 54L212.685 54L211.38 54L210.075 54L208.77 54L207.465 54L206.16 54L204.856 54L203.551 54L202.246 54L200.941 54L199.636 54L198.332 54L197.027 54L195.722 54L194.417 54L193.112 54L191.807 54L190.503 54L189.198 54L187.893 54L186.588 54L185.283 54L183.979 54L182.674 54L181.369 54L180.064 54L178.759 54L177.455 54L176.15 54L174.845 54L173.54 54L172.235 54L170.93 54L169.626 54L168.321 54L167.016 54L165.711 54L164.406 54L163.102 54L161.797 54L160.492 54L159.187 54L157.882 54L156.578 54L155.273 54L153.968 54L152.663 54L151.358 54L150.053 54L148.749 54L147.444 54L146.139 54L144.834 54L143.529 54L142.225 54L140.92 54L139.615 54L138.31 54L137.005 54L135.701 54L134.396 54L133.091 54L131.786 54L130.481 54L129.176 54L127.872 54L126.567 54L125.262 54L123.957 54L122.652 54L121.348 54L120.043 54L118.738 54L117.433 54L116.128 54L114.824 54L113.519 54L112.214 54L110.909 54L109.604 54L108.299 54L106.995 54L105.69 54L104.385 54L103.08 54L101.775 54L100.471 54L99.1658 54L97.861 54L96.5562 54L95.2513 54L93.9465 54L92.6417 54L91.3369 54L90.0321 54L88.7273 54L87.4225 54L86.1177 54L84.8128 54L83.508 54L82.2032 54L80.8984 54L79.5936 54L78.2888 54L76.984 54L75.6791 54L74.3743 54L73.0695 54L71.7647 54L70.4599 54L69.1551 54L67.8503 54L66.5455 54L65.2406 54L63.9358 54L62.631 54L61.3262 54L60.0214 54L58.7166 54L57.4118 54L56.107 54L54.8021 54L53.4973 54L52.1925 54L50.8877 54L49.5829 54L48.2781 54L46.9733 54L45.6685 54L44.3636 54L43.0588 54L41.754 54L40.4492 54L39.1444 54L37.8396 54L36.5348 54L35.2299 54L33.9251 54L32.6203 54L31.3155 54L30.0107 54L28.7059 54L27.4011 54L26.0963 54L24.7914 54L23.4866 54L22.1818 54L20.877 54L19.5722 54L18.2674 54L16.9626 54L15.6578 54L14.3529 54L13.0481 54L11.7433 54L10.4385 54L9.13369 54L7.82888 54L6.52406 54L5.21925 54L3.91444 54L2.60963 54L1.30481 54L3.57746e-08 54L0 57L1.30481 57L2.60963 57L3.91444 57L5.21925 57L6.52406 57L7.82888 57L9.13369 57L10.4385 57L11.7433 57L13.0481 57L14.3529 57L15.6578 57L16.9626 57L18.2674 57L19.5722 57L20.877 57L22.1818 57L23.4866 57L24.7914 57L26.0963 57L27.4011 57L28.7059 57L30.0107 57L31.3155 57L32.6203 57L33.9251 57L35.2299 57L36.5348 57L37.8396 57L39.1444 57L40.4492 57L41.754 57L43.0588 57L44.3636 57L45.6685 57L46.9733 57L48.2781 57L49.5829 57L50.8877 57L52.1925 57L53.4973 57L54.8021 57L56.107 57L57.4118 57L58.7166 57L60.0214 57L61.3262 57L62.631 57L63.9358 57L65.2406 57L66.5455 57L67.8503 57L69.1551 57L70.4599 57L71.7647 57L73.0695 57L74.3743 57L75.6791 57L76.984 57L78.2888 57L79.5936 57L80.8984 57L82.2032 57L83.508 57L84.8128 57L86.1177 57L87.4225 57L88.7273 57L90.0321 57L91.3369 57L92.6417 57L93.9465 57L95.2513 57L96.5562 57L97.861 57L99.1658 57L100.471 57L101.775 57L103.08 57L104.385 57L105.69 57L106.995 57L108.299 57L109.604 57L110.909 57L112.214 57L113.519 57L114.824 57L116.128 57L117.433 57L118.738 57L120.043 57L121.348 57L122.652 57L123.957 57L125.262 57L126.567 57L127.872 57L129.176 57L130.481 57L131.786 57L133.091 57L134.396 57L135.701 57L137.005 57L138.31 57L139.615 57L140.92 57L142.225 57L143.529 57L144.834 57L146.139 57L147.444 57L148.749 57L150.053 57L151.358 57L152.663 57L153.968 57L155.273 57L156.578 57L157.882 57L159.187 57L160.492 57L161.797 57L163.102 57L164.406 57L165.711 57L167.016 57L168.321 57L169.626 57L170.93 57L172.235 57L173.54 57L174.845 57L176.15 57L177.455 57L178.759 57L180.064 57L181.369 57L182.674 57L183.979 57L185.283 57L186.588 57L187.893 57L189.198 57L190.503 57L191.807 57L193.112 57L194.417 57L195.722 57L197.027 57L198.332 57L199.636 57L200.941 57L202.246 57L203.551 57L204.856 57L206.16 57L207.465 57L208.77 57L210.075 57L211.38 57L212.685 57L213.989 57L215.294 57L216.599 57L217.904 57L219.209 57L220.513 57L221.818 57L223.123 57L224.428 57L225.733 57L227.037 57L228.342 57L229.647 57L230.952 57L230.952 54L232.257 54L233.562 54L233.562 51L234.866 51L236.171 51L236.171 48L237.476 48L238.781 48L238.781 45L240.086 45L241.39 45L241.39 42L241.39 39L240.086 39L238.781 39L238.781 36L237.476 36L236.171 36L236.171 33L234.866 33L233.562 33L233.562 30L233.562 27L234.866 27L236.171 27L236.171 24L237.476 24L238.781 24L238.781 21L240.086 21L241.39 21L241.39 18L241.39 15L240.086 15L238.781 15L238.781 12L237.476 12L236.171 12L236.171 9.00001L234.866 9.00001L233.562 9.00001L233.562 6.00001L232.257 6.00001L230.952 6.00001L230.952 3.00001L229.647 3.00001L228.342 3.00001Z" fill="#6B91BE"/>
<path d="M229.647 48L229.647 51L230.952 51L232.257 51L232.257 48L230.952 48L229.647 48Z" fill="#FFD700"/>
<path d="M230.952 36L232.257 36L232.257 33L230.952 33L229.647 33L229.647 36L230.952 36Z" fill="#FFD700"/>
<path d="M229.647 24L229.647 27L230.952 27L232.257 27L232.257 24L230.952 24L229.647 24Z" fill="#FFD700"/>
<path d="M230.952 12L232.257 12L232.257 9.00001L230.952 9.00001L229.647 9.00001L229.647 12L230.952 12Z" fill="#FFD700"/>
<path d="M230.952 54L230.952 57L232.257 57L233.562 57L233.562 54L232.257 54L230.952 54Z" fill="black"/>
<path d="M232.257 6.00001L233.562 6.00001L233.562 3.00001L232.257 3.00001L230.952 3.00001L230.952 6.00001L232.257 6.00001Z" fill="black"/>
<path d="M232.257 45L232.257 48L233.562 48L234.866 48L234.866 45L233.562 45L232.257 45Z" fill="#FFD700"/>
<path d="M233.562 39L234.866 39L234.866 36L233.562 36L232.257 36L232.257 39L233.562 39Z" fill="#FFD700"/>
<path d="M232.257 21L232.257 24L233.562 24L234.866 24L234.866 21L233.562 21L232.257 21Z" fill="#FFD700"/>
<path d="M233.562 15L234.866 15L234.866 12L233.562 12L232.257 12L232.257 15L233.562 15Z" fill="#FFD700"/>
<path d="M233.562 51L233.562 54L234.866 54L236.171 54L236.171 51L234.866 51L233.562 51Z" fill="black"/>
<path d="M233.562 27L233.562 30L233.562 33L234.866 33L236.171 33L236.171 30L236.171 27L234.866 27L233.562 27Z" fill="black"/>
<path d="M234.866 9.00001L236.171 9.00001L236.171 6.00001L234.866 6.00001L233.562 6.00001L233.562 9.00001L234.866 9.00001Z" fill="black"/>
<path d="M234.866 45L236.171 45L237.476 45L237.476 42L237.476 39L236.171 39L234.866 39L234.866 42L234.866 45Z" fill="#FFD700"/>
<path d="M234.866 21L236.171 21L237.476 21L237.476 18L237.476 15L236.171 15L234.866 15L234.866 18L234.866 21Z" fill="#FFD700"/>
<path d="M236.171 48L236.171 51L237.476 51L238.781 51L238.781 48L237.476 48L236.171 48Z" fill="black"/>
<path d="M237.476 36L238.781 36L238.781 33L237.476 33L236.171 33L236.171 36L237.476 36Z" fill="black"/>
<path d="M236.171 24L236.171 27L237.476 27L238.781 27L238.781 24L237.476 24L236.171 24Z" fill="black"/>
<path d="M237.476 12L238.781 12L238.781 9.00001L237.476 9.00001L236.171 9.00001L236.171 12L237.476 12Z" fill="black"/>
<path d="M238.781 45L238.781 48L240.086 48L241.391 48L241.391 45L240.086 45L238.781 45Z" fill="black"/>
<path d="M240.086 39L241.391 39L241.391 36L240.086 36L238.781 36L238.781 39L240.086 39Z" fill="black"/>
<path d="M238.781 21L238.781 24L240.086 24L241.391 24L241.391 21L240.086 21L238.781 21Z" fill="black"/>
<path d="M240.086 15L241.391 15L241.391 12L240.086 12L238.781 12L238.781 15L240.086 15Z" fill="black"/>
<path d="M241.391 45L242.695 45L244 45L244 42L244 39L242.695 39L241.391 39L241.391 42L241.391 45Z" fill="black"/>
<path d="M241.391 21L242.695 21L244 21L244 18L244 15L242.695 15L241.391 15L241.391 18L241.391 21Z" fill="black"/>
<path d="M27.9216 42L18.2266 42L18.2266 26.46L27.9216 26.46L27.9216 28.385L29.8816 28.385L29.8816 40.04L27.9216 40.04L27.9216 42ZM22.1116 28.385L22.1116 40.04L25.9966 40.04L25.9966 28.385L22.1116 28.385ZM37.6634 42L33.7784 42L33.7784 30.345L37.6634 30.345L37.6634 42ZM33.7784 28.385L33.7784 26.46L37.6634 26.46L37.6634 28.385L33.7784 28.385ZM49.3071 42L43.4621 42L43.4621 40.04L41.5371 40.04L41.5371 32.27L43.4621 32.27L43.4621 30.345L51.2321 30.345L51.2321 34.23L49.3071 34.23L49.3071 32.27L45.4221 32.27L45.4221 40.04L49.3071 40.04L49.3071 38.115L51.2321 38.115L51.2321 40.04L49.3071 40.04L49.3071 42ZM64.4597 42L56.6897 42L56.6897 40.04L54.7647 40.04L54.7647 32.27L56.6897 32.27L56.6897 30.345L64.4597 30.345L64.4597 32.27L66.4197 32.27L66.4197 34.23L64.4597 34.23L64.4597 36.155L60.5747 36.155L60.5747 38.115L58.6497 38.115L58.6497 40.04L64.4597 40.04L64.4597 38.115L66.4197 38.115L66.4197 40.04L64.4597 40.04L64.4597 42ZM62.5347 32.27L58.6497 32.27L58.6497 36.155L60.5747 36.155L60.5747 34.23L62.5347 34.23L62.5347 32.27ZM81.5501 36.155L81.5501 42L77.6651 42L77.6651 26.46L87.3601 26.46L87.3601 28.385L89.3201 28.385L89.3201 34.23L87.3601 34.23L87.3601 36.155L89.3201 36.155L89.3201 42L85.4351 42L85.4351 36.155L81.5501 36.155ZM81.5501 28.385L81.5501 34.23L85.4351 34.23L85.4351 28.385L81.5501 28.385ZM102.912 42L95.1418 42L95.1418 40.04L93.2168 40.04L93.2168 32.27L95.1418 32.27L95.1418 30.345L102.912 30.345L102.912 32.27L104.872 32.27L104.872 40.04L102.912 40.04L102.912 42ZM100.987 40.04L100.987 32.27L97.1018 32.27L97.1018 40.04L100.987 40.04ZM112.654 42L108.769 42L108.769 26.46L112.654 26.46L112.654 42ZM120.412 42L116.527 42L116.527 26.46L120.412 26.46L120.412 42Z" fill="white"/>
</g>
<path d="M211.424 29.5714V29.1633H210.982V28.7551H210.541H210.099V28.3469H209.658V27.9388H209.216V27.5306H208.774H208.333V27.1224H207.891V26.7143H207.45H207.008V26.3061H206.566V25.898H206.125V25.4898H205.683H205.242V25.0816H204.8V24.6735H204.358H203.917V24.2653H203.475V23.8571H203.034V23.449H202.592H202.15V23.0408H201.709V22.6327H201.267H200.826V22.2245H200.384V21.8163H199.942V21.4082H199.501H199.059V21H198.618H198.176H197.734H197.293H196.851H196.41V21.4082H195.968V21.8163V22.2245H195.526V22.6327V23.0408H195.968V23.449V23.8571H196.41V24.2653H196.851V24.6735H197.293H197.734V25.0816H198.176V25.4898H198.618H199.059V25.898H199.501V26.3061H199.942V26.7143H200.384H200.826V27.1224H201.267V27.5306H201.709H202.15V27.9388H202.592V28.3469H203.034V28.7551H203.475H203.917V29.1633H204.358V29.5714H204.8V29.9796H205.242H205.683V30.3878H206.125V30.7959V31.2041H205.683V31.6122H205.242H204.8V32.0204H204.358V32.4286H203.917V32.8367H203.475H203.034V33.2449H202.592V33.6531H202.15V34.0612H201.709H201.267V34.4694H200.826V34.8776H200.384H199.942V35.2857H199.501V35.6939H199.059V36.102H198.618H198.176V36.5102H197.734V36.9184H197.293H196.851V37.3265H196.41V37.7347H195.968V38.1429V38.551H195.526V38.9592V39.3673H195.968V39.7755V40.1837H196.41V40.5918H196.851H197.293H197.734V41H198.176V40.5918H198.618H199.059V40.1837H199.501H199.942V39.7755H200.384V39.3673H200.826V38.9592H201.267H201.709V38.551H202.15V38.1429H202.592H203.034V37.7347H203.475V37.3265H203.917V36.9184H204.358H204.8V36.5102H205.242V36.102H205.683H206.125V35.6939H206.566V35.2857H207.008V34.8776H207.45H207.891V34.4694H208.333V34.0612H208.774H209.216V33.6531H209.658V33.2449H210.099V32.8367H210.541H210.982V32.4286H211.424V32.0204H211.866V31.6122V31.2041V30.7959V30.3878V29.9796V29.5714H211.424Z" fill="white"/>
<defs>
<filter id="filter0_d_430_6614" x="-4" y="0" width="252" height="68" filterUnits="userSpaceOnUse" color-interpolation-filters="sRGB">
<feFlood flood-opacity="0" result="BackgroundImageFix"/>
<feColorMatrix in="SourceAlpha" type="matrix" values="0 0 0 0 0 0 0 0 0 0 0 0 0 0 0 0 0 0 127 0" result="hardAlpha"/>
<feOffset dy="4"/>
<feGaussianBlur stdDeviation="2"/>
<feComposite in2="hardAlpha" operator="out"/>
<feColorMatrix type="matrix" values="0 0 0 0 0 0 0 0 0 0 0 0 0 0 0 0 0 0 0.25 0"/>
<feBlend mode="normal" in2="BackgroundImageFix" result="effect1_dropShadow_430_6614"/>
<feBlend mode="normal" in="SourceGraphic" in2="effect1_dropShadow_430_6614" result="shape"/>
</filter>
</defs>
</svg>
