<svg width="300" height="61" viewBox="0 0 300 61" fill="none" xmlns="http://www.w3.org/2000/svg">
<path d="M300 57.752L16.0428 57.752V60.752L300 60.752V57.752Z" fill="black"/>
<path d="M17.6471 6.75203V9.75203L300 9.75204V6.75204L17.6471 6.75203Z" fill="#FFD700"/>
<path d="M17.6471 9.75203V12.752H14.4385L14.4385 15.752H11.2299V21.752H14.4385V24.752H17.6471V27.752H19.2513V33.752H17.6471V36.752H14.4385V39.752H11.2299V45.752H14.4385V48.752H17.6471V51.752L300 51.752V9.75204L17.6471 9.75203Z" fill="#6B91BE"/>
<path d="M17.6471 51.752V54.752L300 54.752V51.752L17.6471 51.752Z" fill="#FFD700"/>
<path d="M300 3.75204V0.752042L16.0428 0.752029L16.0428 3.75203L300 3.75204Z" fill="black"/>
<path d="M19.2513 27.752H17.6471V33.752H19.2513V27.752Z" fill="#FFD700"/>
<path d="M300 57.752V54.752L17.6471 54.752V51.752H14.4385V48.752H11.2299V45.752H8.02139V39.752H11.2299V36.752H14.4385L14.4385 33.752H17.6471V27.752H14.4385V24.752H11.2299V21.752H8.02139V15.752H11.2299L11.23 12.752H14.4385V9.75203H17.6471V6.75203L300 6.75204V3.75204L16.0428 3.75203V6.75203H12.8342V9.75203H9.62567V12.752H6.41711V15.752L3.20856 15.752L3.20856 21.752H6.41711V24.752H9.62567V27.752H12.8342V33.752H9.62567L9.62567 36.752H6.41711V39.752H3.20856L3.20856 45.752H6.41711V48.752H9.62567V51.752H12.8342V54.752H16.0428V57.752L300 57.752Z" fill="#6B91BE"/>
<path d="M17.6471 12.752V9.75203H14.4385V12.752H17.6471Z" fill="#FFD700"/>
<path d="M14.4385 24.752V27.752H17.6471V24.752H14.4385Z" fill="#FFD700"/>
<path d="M17.6471 36.752V33.752H14.4385L14.4385 36.752H17.6471Z" fill="#FFD700"/>
<path d="M14.4385 48.752V51.752H17.6471V48.752H14.4385Z" fill="#FFD700"/>
<path d="M16.0428 6.75203V3.75203L12.8342 3.75203L12.8342 6.75203H16.0428Z" fill="black"/>
<path d="M12.8342 54.752V57.752H16.0428V54.752H12.8342Z" fill="black"/>
<path d="M14.4385 15.752L14.4385 12.752H11.23L11.2299 15.752H14.4385Z" fill="#FFD700"/>
<path d="M11.2299 21.752V24.752H14.4385V21.752H11.2299Z" fill="#FFD700"/>
<path d="M14.4385 39.752V36.752H11.2299V39.752H14.4385Z" fill="#FFD700"/>
<path d="M11.2299 45.752V48.752H14.4385V45.752H11.2299Z" fill="#FFD700"/>
<path d="M12.8342 9.75203V6.75203L9.62567 6.75203L9.62567 9.75203H12.8342Z" fill="black"/>
<path d="M12.8342 33.752V27.752H9.62567V33.752H12.8342Z" fill="black"/>
<path d="M9.62567 51.752L9.62567 54.752H12.8342V51.752H9.62567Z" fill="black"/>
<path d="M11.2299 15.752H8.02139V21.752H11.2299V15.752Z" fill="#FFD700"/>
<path d="M11.2299 39.752H8.02139V45.752H11.2299V39.752Z" fill="#FFD700"/>
<path d="M9.62567 12.752V9.75203H6.41712L6.41711 12.752H9.62567Z" fill="black"/>
<path d="M6.41711 24.752L6.41712 27.752H9.62567V24.752H6.41711Z" fill="black"/>
<path d="M9.62567 36.752L9.62567 33.752H6.41711L6.41711 36.752H9.62567Z" fill="black"/>
<path d="M6.41711 48.752L6.41711 51.752H9.62567V48.752H6.41711Z" fill="black"/>
<path d="M6.41711 15.752V12.752L3.20856 12.752L3.20856 15.752L6.41711 15.752Z" fill="black"/>
<path d="M3.20856 21.752L3.20856 24.752H6.41711V21.752H3.20856Z" fill="black"/>
<path d="M6.41711 39.752V36.752H3.20856L3.20856 39.752H6.41711Z" fill="black"/>
<path d="M3.20856 45.752L3.20856 48.752H6.41711V45.752H3.20856Z" fill="black"/>
<path d="M3.20856 15.752H1.31134e-06L1.04907e-06 21.752H3.20856L3.20856 15.752Z" fill="black"/>
<path d="M3.20856 39.752H2.62268e-07L0 45.752H3.20856L3.20856 39.752Z" fill="black"/>
<path d="M33.845 34.907V40.752H29.96V25.212H39.655V27.137H41.615V32.982H39.655V34.907H33.845ZM33.845 27.137V32.982H37.73V27.137H33.845ZM47.8587 40.752H43.9737V25.212H47.8587V40.752ZM53.0625 31.022V29.097H60.8675V31.022H62.7925V40.752H53.0625V38.792H51.1375V34.907H53.0625V32.982H58.9075V31.022H53.0625ZM58.9075 38.792V34.907H55.0225V38.792H58.9075ZM65.7232 32.982V29.097H69.6082V32.982H71.5332V36.867H73.4932V29.097H77.3782V32.982H75.4532V36.867H73.4932V42.712H71.5332V44.637H67.6482V40.752H71.5332V38.792H69.6082V36.867H67.6482V32.982H65.7232Z" fill="white"/>
</svg>
