<svg width="300" height="61" viewBox="0 0 300 61" fill="none" xmlns="http://www.w3.org/2000/svg">
<path d="M300 57.752L16.0428 57.752V60.752L300 60.752V57.752Z" fill="black"/>
<path d="M17.6471 6.75201V9.75201L300 9.75203V6.75203L17.6471 6.75201Z" fill="#FFD700"/>
<path d="M17.6471 9.75201V12.752H14.4385L14.4385 15.752H11.2299V21.752H14.4385V24.752H17.6471V27.752H19.2513V33.752H17.6471V36.752H14.4385V39.752H11.2299V45.752H14.4385V48.752H17.6471V51.752L300 51.752V9.75203L17.6471 9.75201Z" fill="#6B91BE"/>
<path d="M17.6471 51.752V54.752L300 54.752V51.752L17.6471 51.752Z" fill="#FFD700"/>
<path d="M300 3.75203V0.752027L16.0428 0.752014L16.0428 3.75201L300 3.75203Z" fill="black"/>
<path d="M19.2513 27.752H17.6471V33.752H19.2513V27.752Z" fill="#FFD700"/>
<path d="M300 57.752V54.752L17.6471 54.752V51.752H14.4385V48.752H11.2299V45.752H8.02139V39.752H11.2299V36.752H14.4385L14.4385 33.752H17.6471V27.752H14.4385V24.752H11.2299V21.752H8.02139V15.752H11.2299L11.23 12.752H14.4385V9.75201H17.6471V6.75201L300 6.75203V3.75203L16.0428 3.75201V6.75201H12.8342V9.75201H9.62567V12.752H6.41711V15.752L3.20856 15.752L3.20856 21.752H6.41711V24.752H9.62567V27.752H12.8342V33.752H9.62567L9.62567 36.752H6.41711V39.752H3.20856L3.20856 45.752H6.41711V48.752H9.62567V51.752H12.8342V54.752H16.0428V57.752L300 57.752Z" fill="#6B91BE"/>
<path d="M17.6471 12.752V9.75201H14.4385V12.752H17.6471Z" fill="#FFD700"/>
<path d="M14.4385 24.752V27.752H17.6471V24.752H14.4385Z" fill="#FFD700"/>
<path d="M17.6471 36.752V33.752H14.4385L14.4385 36.752H17.6471Z" fill="#FFD700"/>
<path d="M14.4385 48.752V51.752H17.6471V48.752H14.4385Z" fill="#FFD700"/>
<path d="M16.0428 6.75201V3.75201L12.8342 3.75201L12.8342 6.75201H16.0428Z" fill="black"/>
<path d="M12.8342 54.752V57.752H16.0428V54.752H12.8342Z" fill="black"/>
<path d="M14.4385 15.752L14.4385 12.752H11.23L11.2299 15.752H14.4385Z" fill="#FFD700"/>
<path d="M11.2299 21.752V24.752H14.4385V21.752H11.2299Z" fill="#FFD700"/>
<path d="M14.4385 39.752V36.752H11.2299V39.752H14.4385Z" fill="#FFD700"/>
<path d="M11.2299 45.752V48.752H14.4385V45.752H11.2299Z" fill="#FFD700"/>
<path d="M12.8342 9.75201V6.75201L9.62567 6.75201L9.62567 9.75201H12.8342Z" fill="black"/>
<path d="M12.8342 33.752V27.752H9.62567V33.752H12.8342Z" fill="black"/>
<path d="M9.62567 51.752L9.62567 54.752H12.8342V51.752H9.62567Z" fill="black"/>
<path d="M11.2299 15.752H8.02139V21.752H11.2299V15.752Z" fill="#FFD700"/>
<path d="M11.2299 39.752H8.02139V45.752H11.2299V39.752Z" fill="#FFD700"/>
<path d="M9.62567 12.752V9.75201H6.41712L6.41711 12.752H9.62567Z" fill="black"/>
<path d="M6.41711 24.752L6.41712 27.752H9.62567V24.752H6.41711Z" fill="black"/>
<path d="M9.62567 36.752L9.62567 33.752H6.41711L6.41711 36.752H9.62567Z" fill="black"/>
<path d="M6.41711 48.752L6.41711 51.752H9.62567V48.752H6.41711Z" fill="black"/>
<path d="M6.41711 15.752V12.752L3.20856 12.752L3.20856 15.752L6.41711 15.752Z" fill="black"/>
<path d="M3.20856 21.752L3.20856 24.752H6.41711V21.752H3.20856Z" fill="black"/>
<path d="M6.41711 39.752V36.752H3.20856L3.20856 39.752H6.41711Z" fill="black"/>
<path d="M3.20856 45.752L3.20856 48.752H6.41711V45.752H3.20856Z" fill="black"/>
<path d="M3.20856 15.752H1.31134e-06L1.04907e-06 21.752H3.20856L3.20856 15.752Z" fill="black"/>
<path d="M3.20856 39.752H2.62268e-07L0 45.752H3.20856L3.20856 39.752Z" fill="black"/>
<path d="M33.845 45.752H29.96V30.212H39.655V32.137H33.845V36.022H37.73V37.982H33.845V45.752ZM45.5003 45.752H41.6153V34.097H45.5003V36.022H47.4253V34.097H49.3853V37.982H45.5003V45.752ZM55.6175 45.752H51.7325V34.097H55.6175V45.752ZM51.7325 32.137V30.212H55.6175V32.137H51.7325ZM69.1863 45.752H61.4163V43.792H59.4913V36.022H61.4163V34.097H69.1863V36.022H71.1463V37.982H69.1863V39.907H65.3013V41.867H63.3763V43.792H69.1863V41.867H71.1463V43.792H69.1863V45.752ZM67.2613 36.022H63.3763V39.907H65.3013V37.982H67.2613V36.022ZM78.5179 45.752H74.6329V34.097H78.5179V36.022H80.4429V34.097H84.3279V36.022H86.2879V45.752H82.4029V36.022H80.4429V37.982H78.5179V45.752ZM97.9546 34.097V30.212H101.84V45.752H92.1096V43.792H90.1846V36.022H92.1096V34.097H97.9546ZM97.9546 43.792V36.022H94.0696V43.792H97.9546ZM111.161 43.792V45.752H105.316V43.792H109.236V41.867H107.276V39.907H105.316V36.022H107.276V34.097H113.121V36.022H109.236V37.982H111.161V39.907H113.121V43.792H111.161Z" fill="white"/>
</svg>
