<svg width="300" height="61" viewBox="0 0 300 61" fill="none" xmlns="http://www.w3.org/2000/svg">
<path d="M300 57.7521L16.0428 57.7521V60.7521L300 60.7521V57.7521Z" fill="black"/>
<path d="M17.6471 6.75207V9.75207L300 9.75208V6.75208L17.6471 6.75207Z" fill="#FFD700"/>
<path d="M17.6471 9.75207V12.7521H14.4385L14.4385 15.7521H11.2299V21.7521H14.4385V24.7521H17.6471V27.7521H19.2513V33.7521H17.6471V36.7521H14.4385V39.7521H11.2299V45.7521H14.4385V48.7521H17.6471V51.7521L300 51.7521V9.75208L17.6471 9.75207Z" fill="#6B91BE"/>
<path d="M17.6471 51.7521V54.7521L300 54.7521V51.7521L17.6471 51.7521Z" fill="#FFD700"/>
<path d="M300 3.75208V0.75208L16.0428 0.752068L16.0428 3.75207L300 3.75208Z" fill="black"/>
<path d="M19.2513 27.7521H17.6471V33.7521H19.2513V27.7521Z" fill="#FFD700"/>
<path d="M300 57.7521V54.7521L17.6471 54.7521V51.7521H14.4385V48.7521H11.2299V45.7521H8.02139V39.7521H11.2299V36.7521H14.4385L14.4385 33.7521H17.6471V27.7521H14.4385V24.7521H11.2299V21.7521H8.02139V15.7521H11.2299L11.23 12.7521H14.4385V9.75207H17.6471V6.75207L300 6.75208V3.75208L16.0428 3.75207V6.75207H12.8342V9.75207H9.62567V12.7521H6.41711V15.7521L3.20856 15.7521L3.20856 21.7521H6.41711V24.7521H9.62567V27.7521H12.8342V33.7521H9.62567L9.62567 36.7521H6.41711V39.7521H3.20856L3.20856 45.7521H6.41711V48.7521H9.62567V51.7521H12.8342V54.7521H16.0428V57.7521L300 57.7521Z" fill="#6B91BE"/>
<path d="M17.6471 12.7521V9.75207H14.4385V12.7521H17.6471Z" fill="#FFD700"/>
<path d="M14.4385 24.7521V27.7521H17.6471V24.7521H14.4385Z" fill="#FFD700"/>
<path d="M17.6471 36.7521V33.7521H14.4385L14.4385 36.7521H17.6471Z" fill="#FFD700"/>
<path d="M14.4385 48.7521V51.7521H17.6471V48.7521H14.4385Z" fill="#FFD700"/>
<path d="M16.0428 6.75207V3.75207L12.8342 3.75207L12.8342 6.75207H16.0428Z" fill="black"/>
<path d="M12.8342 54.7521V57.7521H16.0428V54.7521H12.8342Z" fill="black"/>
<path d="M14.4385 15.7521L14.4385 12.7521H11.23L11.2299 15.7521H14.4385Z" fill="#FFD700"/>
<path d="M11.2299 21.7521V24.7521H14.4385V21.7521H11.2299Z" fill="#FFD700"/>
<path d="M14.4385 39.7521V36.7521H11.2299V39.7521H14.4385Z" fill="#FFD700"/>
<path d="M11.2299 45.7521V48.7521H14.4385V45.7521H11.2299Z" fill="#FFD700"/>
<path d="M12.8342 9.75207V6.75207L9.62567 6.75207L9.62567 9.75207H12.8342Z" fill="black"/>
<path d="M12.8342 33.7521V27.7521H9.62567V33.7521H12.8342Z" fill="black"/>
<path d="M9.62567 51.7521L9.62567 54.7521H12.8342V51.7521H9.62567Z" fill="black"/>
<path d="M11.2299 15.7521H8.02139V21.7521H11.2299V15.7521Z" fill="#FFD700"/>
<path d="M11.2299 39.7521H8.02139V45.7521H11.2299V39.7521Z" fill="#FFD700"/>
<path d="M9.62567 12.7521V9.75207H6.41712L6.41711 12.7521H9.62567Z" fill="black"/>
<path d="M6.41711 24.7521L6.41712 27.7521H9.62567V24.7521H6.41711Z" fill="black"/>
<path d="M9.62567 36.7521L9.62567 33.7521H6.41711L6.41711 36.7521H9.62567Z" fill="black"/>
<path d="M6.41711 48.7521L6.41711 51.7521H9.62567V48.7521H6.41711Z" fill="black"/>
<path d="M6.41711 15.7521V12.7521L3.20856 12.7521L3.20856 15.7521L6.41711 15.7521Z" fill="black"/>
<path d="M3.20856 21.7521L3.20856 24.7521H6.41711V21.7521H3.20856Z" fill="black"/>
<path d="M6.41711 39.7521V36.7521H3.20856L3.20856 39.7521H6.41711Z" fill="black"/>
<path d="M3.20856 45.7521L3.20856 48.7521H6.41711V45.7521H3.20856Z" fill="black"/>
<path d="M3.20856 15.7521H1.31134e-06L1.04907e-06 21.7521H3.20856L3.20856 15.7521Z" fill="black"/>
<path d="M3.20856 39.7521H2.62268e-07L0 45.7521H3.20856L3.20856 39.7521Z" fill="black"/>
<path d="M31.885 30.212H39.655V34.097H37.73V32.137H33.845V43.792H37.73V41.867H39.655V43.792H37.73V45.752H31.885V43.792H29.96V32.137H31.885V30.212ZM44.5175 36.022V34.097H52.3225V36.022H54.2475V45.752H44.5175V43.792H42.5925V39.907H44.5175V37.982H50.3625V36.022H44.5175ZM50.3625 43.792V39.907H46.4775V43.792H50.3625ZM62.0432 45.752H58.1582V34.097H62.0432V36.022H63.9682V34.097H65.9282V37.982H62.0432V45.752ZM76.0454 34.097V30.212H79.9304V45.752H70.2004V43.792H68.2754V36.022H70.2004V34.097H76.0454ZM76.0454 43.792V36.022H72.1604V43.792H76.0454ZM89.2522 43.792V45.752H83.4072V43.792H87.3272V41.867H85.3672V39.907H83.4072V36.022H85.3672V34.097H91.2122V36.022H87.3272V37.982H89.2522V39.907H91.2122V43.792H89.2522Z" fill="white"/>
</svg>
