<svg width="300" height="61" viewBox="0 0 300 61" fill="none" xmlns="http://www.w3.org/2000/svg">
<path d="M300 57.7521L16.0428 57.7521V60.7521L300 60.7521V57.7521Z" fill="black"/>
<path d="M17.6471 6.7521V9.7521L300 9.75211V6.75211L17.6471 6.7521Z" fill="#FFD700"/>
<path d="M17.6471 9.7521V12.7521H14.4385L14.4385 15.7521H11.2299V21.7521H14.4385V24.7521H17.6471V27.7521H19.2513V33.7521H17.6471V36.7521H14.4385V39.7521H11.2299V45.7521H14.4385V48.7521H17.6471V51.7521L300 51.7521V9.75211L17.6471 9.7521Z" fill="#6B91BE"/>
<path d="M17.6471 51.7521V54.7521L300 54.7521V51.7521L17.6471 51.7521Z" fill="#FFD700"/>
<path d="M300 3.75211V0.75211L16.0428 0.752098L16.0428 3.7521L300 3.75211Z" fill="black"/>
<path d="M19.2513 27.7521H17.6471V33.7521H19.2513V27.7521Z" fill="#FFD700"/>
<path d="M300 57.7521V54.7521L17.6471 54.7521V51.7521H14.4385V48.7521H11.2299V45.7521H8.02139V39.7521H11.2299V36.7521H14.4385L14.4385 33.7521H17.6471V27.7521H14.4385V24.7521H11.2299V21.7521H8.02139V15.7521H11.2299L11.23 12.7521H14.4385V9.7521H17.6471V6.7521L300 6.75211V3.75211L16.0428 3.7521V6.7521H12.8342V9.7521H9.62567V12.7521H6.41711V15.7521L3.20856 15.7521L3.20856 21.7521H6.41711V24.7521H9.62567V27.7521H12.8342V33.7521H9.62567L9.62567 36.7521H6.41711V39.7521H3.20856L3.20856 45.7521H6.41711V48.7521H9.62567V51.7521H12.8342V54.7521H16.0428V57.7521L300 57.7521Z" fill="#6B91BE"/>
<path d="M17.6471 12.7521V9.7521H14.4385V12.7521H17.6471Z" fill="#FFD700"/>
<path d="M14.4385 24.7521V27.7521H17.6471V24.7521H14.4385Z" fill="#FFD700"/>
<path d="M17.6471 36.7521V33.7521H14.4385L14.4385 36.7521H17.6471Z" fill="#FFD700"/>
<path d="M14.4385 48.7521V51.7521H17.6471V48.7521H14.4385Z" fill="#FFD700"/>
<path d="M16.0428 6.7521V3.7521L12.8342 3.7521L12.8342 6.7521H16.0428Z" fill="black"/>
<path d="M12.8342 54.7521V57.7521H16.0428V54.7521H12.8342Z" fill="black"/>
<path d="M14.4385 15.7521L14.4385 12.7521H11.23L11.2299 15.7521H14.4385Z" fill="#FFD700"/>
<path d="M11.2299 21.7521V24.7521H14.4385V21.7521H11.2299Z" fill="#FFD700"/>
<path d="M14.4385 39.7521V36.7521H11.2299V39.7521H14.4385Z" fill="#FFD700"/>
<path d="M11.2299 45.7521V48.7521H14.4385V45.7521H11.2299Z" fill="#FFD700"/>
<path d="M12.8342 9.7521V6.7521L9.62567 6.7521L9.62567 9.7521H12.8342Z" fill="black"/>
<path d="M12.8342 33.7521V27.7521H9.62567V33.7521H12.8342Z" fill="black"/>
<path d="M9.62567 51.7521L9.62567 54.7521H12.8342V51.7521H9.62567Z" fill="black"/>
<path d="M11.2299 15.7521H8.02139V21.7521H11.2299V15.7521Z" fill="#FFD700"/>
<path d="M11.2299 39.7521H8.02139V45.7521H11.2299V39.7521Z" fill="#FFD700"/>
<path d="M9.62567 12.7521V9.7521H6.41712L6.41711 12.7521H9.62567Z" fill="black"/>
<path d="M6.41711 24.7521L6.41712 27.7521H9.62567V24.7521H6.41711Z" fill="black"/>
<path d="M9.62567 36.7521L9.62567 33.7521H6.41711L6.41711 36.7521H9.62567Z" fill="black"/>
<path d="M6.41711 48.7521L6.41711 51.7521H9.62567V48.7521H6.41711Z" fill="black"/>
<path d="M6.41711 15.7521V12.7521L3.20856 12.7521L3.20856 15.7521L6.41711 15.7521Z" fill="black"/>
<path d="M3.20856 21.7521L3.20856 24.7521H6.41711V21.7521H3.20856Z" fill="black"/>
<path d="M6.41711 39.7521V36.7521H3.20856L3.20856 39.7521H6.41711Z" fill="black"/>
<path d="M3.20856 45.7521L3.20856 48.7521H6.41711V45.7521H3.20856Z" fill="black"/>
<path d="M3.20856 15.7521H1.31134e-06L1.04907e-06 21.7521H3.20856L3.20856 15.7521Z" fill="black"/>
<path d="M3.20856 39.7521H2.62268e-07L0 45.7521H3.20856L3.20856 39.7521Z" fill="black"/>
<path d="M31.885 29.2121H39.655V33.0971H37.73V31.1371H33.845V42.7921H37.73V40.8671H39.655V42.7921H37.73V44.7521H31.885V42.7921H29.96V31.1371H31.885V29.2121ZM52.8825 44.7521H45.1125V42.7921H43.1875V35.0221H45.1125V33.0971H52.8825V35.0221H54.8425V42.7921H52.8825V44.7521ZM50.9575 42.7921V35.0221H47.0725V42.7921H50.9575ZM62.6243 44.7521H58.7393V29.2121H62.6243V44.7521ZM70.3831 44.7521H66.4981V29.2121H70.3831V44.7521ZM83.9519 44.7521H76.1819V42.7921H74.2569V35.0221H76.1819V33.0971H83.9519V35.0221H85.9119V36.9821H83.9519V38.9071H80.0669V40.8671H78.1419V42.7921H83.9519V40.8671H85.9119V42.7921H83.9519V44.7521ZM82.0269 35.0221H78.1419V38.9071H80.0669V36.9821H82.0269V35.0221ZM97.1685 44.7521H91.3235V42.7921H89.3985V35.0221H91.3235V33.0971H99.0935V36.9821H97.1685V35.0221H93.2835V42.7921H97.1685V40.8671H99.0935V42.7921H97.1685V44.7521ZM103.571 29.2121H107.456V33.0971H109.416V35.0221H107.456V44.7521H103.571V35.0221H101.646V33.0971H103.571V29.2121ZM116.252 44.7521H112.367V33.0971H116.252V44.7521ZM112.367 31.1371V29.2121H116.252V31.1371H112.367ZM129.821 44.7521H122.051V42.7921H120.126V35.0221H122.051V33.0971H129.821V35.0221H131.781V42.7921H129.821V44.7521ZM127.896 42.7921V35.0221H124.011V42.7921H127.896ZM139.563 44.7521H135.678V33.0971H139.563V35.0221H141.488V33.0971H145.373V35.0221H147.333V44.7521H143.448V35.0221H141.488V36.9821H139.563V44.7521Z" fill="white"/>
</svg>
