<svg width="228" height="68" viewBox="0 0 228 68" fill="none" xmlns="http://www.w3.org/2000/svg">
<g filter="url(#filter0_d_430_14946)">
<path d="M0 3L1.19786 3L2.39572 3L3.59358 3L4.79144 3L5.9893 3L7.18717 3L8.38503 3L9.58289 3L10.7807 3L11.9786 3L13.1765 3L14.3743 3L15.5722 3L16.7701 3L17.9679 3L19.1658 3L20.3636 3L21.5615 3L22.7594 3L23.9572 3L25.1551 3L26.3529 3L27.5508 3L28.7487 3L29.9465 3L31.1444 3L32.3422 3L33.5401 3L34.738 3L35.9358 3L37.1337 3L38.3316 3L39.5294 3L40.7273 3L41.9251 3L43.123 3L44.3209 3L45.5187 3L46.7166 3L47.9144 3L49.1123 3L50.3102 3L51.508 3L52.7059 3L53.9037 3L55.1016 3L56.2995 3L57.4973 3L58.6952 3L59.893 3L61.0909 3L62.2888 3L63.4866 3L64.6845 3L65.8824 3L67.0802 3L68.2781 3L69.4759 3L70.6738 3L71.8717 3L73.0695 3L74.2674 3L75.4652 3L76.6631 3L77.861 3L79.0588 3L80.2567 3L81.4545 3L82.6524 3L83.8503 3L85.0481 3L86.246 3L87.4438 3L88.6417 3L89.8396 3L91.0374 3L92.2353 3L93.4332 3L94.631 3L95.8289 3L97.0267 3L98.2246 3L99.4225 3L100.62 3L101.818 3L103.016 3L104.214 3L105.412 3L106.61 3L107.807 3L109.005 3L110.203 3L111.401 3L112.599 3L113.797 3L114.995 3L116.193 3L117.39 3L118.588 3L119.786 3L120.984 3L122.182 3L123.38 3L124.578 3L125.775 3L126.973 3L128.171 3L129.369 3L130.567 3L131.765 3L132.963 3L134.16 3L135.358 3L136.556 3L137.754 3L138.952 3L140.15 3L141.348 3L142.545 3L143.743 3L144.941 3L146.139 3L147.337 3L148.535 3L149.733 3L150.93 3L152.128 3L153.326 3L154.524 3L155.722 3L156.92 3L158.118 3L159.316 3L160.513 3L161.711 3L162.909 3L164.107 3L165.305 3L166.503 3L167.701 3L168.898 3L170.096 3L171.294 3L172.492 3L173.69 3L174.888 3L176.086 3L177.283 3L178.481 3L179.679 3L180.877 3L182.075 3L183.273 3L184.471 3L185.668 3L186.866 3L188.064 3L189.262 3L190.46 3L191.658 3L192.856 3L194.053 3L195.251 3L196.449 3L197.647 3L198.845 3L200.043 3L201.241 3L202.439 3L203.636 3L204.834 3L206.032 3L207.23 3L208.428 3L209.626 3L210.824 3L212.021 3L212.021 2.52833e-06L210.824 2.51405e-06L209.626 2.49976e-06L208.428 2.48548e-06L207.23 2.47119e-06L206.032 2.45691e-06L204.834 2.44262e-06L203.636 2.42834e-06L202.439 2.41406e-06L201.241 2.39977e-06L200.043 2.38549e-06L198.845 2.3712e-06L197.647 2.35692e-06L196.449 2.34263e-06L195.251 2.32835e-06L194.053 2.31406e-06L192.856 2.29978e-06L191.658 2.2855e-06L190.46 2.27121e-06L189.262 2.25693e-06L188.064 2.24264e-06L186.866 2.22836e-06L185.668 2.21407e-06L184.471 2.19979e-06L183.273 2.18551e-06L182.075 2.17122e-06L180.877 2.15694e-06L179.679 2.14265e-06L178.481 2.12837e-06L177.283 2.11408e-06L176.086 2.0998e-06L174.888 2.08551e-06L173.69 2.07123e-06L172.492 2.05695e-06L171.294 2.04266e-06L170.096 2.02838e-06L168.898 2.01409e-06L167.701 1.99981e-06L166.503 1.98552e-06L165.305 1.97124e-06L164.107 1.95696e-06L162.909 1.94267e-06L161.711 1.92839e-06L160.513 1.9141e-06L159.316 1.89982e-06L158.118 1.88553e-06L156.92 1.87125e-06L155.722 1.85697e-06L154.524 1.84268e-06L153.326 1.8284e-06L152.128 1.81411e-06L150.93 1.79983e-06L149.733 1.78554e-06L148.535 1.77126e-06L147.337 1.75697e-06L146.139 1.74269e-06L144.941 1.72841e-06L143.743 1.71412e-06L142.545 1.69984e-06L141.348 1.68555e-06L140.15 1.67127e-06L138.952 1.65698e-06L137.754 1.6427e-06L136.556 1.62842e-06L135.358 1.61413e-06L134.16 1.59985e-06L132.963 1.58556e-06L131.765 1.57128e-06L130.567 1.55699e-06L129.369 1.54271e-06L128.171 1.52843e-06L126.973 1.51414e-06L125.775 1.49986e-06L124.578 1.48557e-06L123.38 1.47129e-06L122.182 1.457e-06L120.984 1.44272e-06L119.786 1.42843e-06L118.588 1.41415e-06L117.39 1.39987e-06L116.193 1.38558e-06L114.995 1.3713e-06L113.797 1.35701e-06L112.599 1.34273e-06L111.401 1.32844e-06L110.203 1.31416e-06L109.005 1.29988e-06L107.807 1.28559e-06L106.61 1.27131e-06L105.412 1.25702e-06L104.214 1.24274e-06L103.016 1.22845e-06L101.818 1.21417e-06L100.62 1.19989e-06L99.4225 1.1856e-06L98.2246 1.17132e-06L97.0267 1.15703e-06L95.8289 1.14275e-06L94.631 1.12846e-06L93.4332 1.11418e-06L92.2353 1.09989e-06L91.0374 1.08561e-06L89.8396 1.07133e-06L88.6417 1.05704e-06L87.4438 1.04276e-06L86.246 1.02847e-06L85.0481 1.01419e-06L83.8503 9.99904e-07L82.6524 9.8562e-07L81.4545 9.71336e-07L80.2567 9.57051e-07L79.0588 9.42767e-07L77.861 9.28483e-07L76.6631 9.14198e-07L75.4652 8.99914e-07L74.2674 8.8563e-07L73.0695 8.71345e-07L71.8717 8.57061e-07L70.6738 8.42777e-07L69.4759 8.28492e-07L68.2781 8.14208e-07L67.0802 7.99924e-07L65.8824 7.85639e-07L64.6845 7.71355e-07L63.4866 7.5707e-07L62.2888 7.42786e-07L61.0909 7.28502e-07L59.893 7.14217e-07L58.6952 6.99933e-07L57.4973 6.85649e-07L56.2995 6.71364e-07L55.1016 6.5708e-07L53.9037 6.42796e-07L52.7059 6.28511e-07L51.508 6.14227e-07L50.3102 5.99943e-07L49.1123 5.85658e-07L47.9144 5.71374e-07L46.7166 5.5709e-07L45.5187 5.42805e-07L44.3209 5.28521e-07L43.123 5.14237e-07L41.9251 4.99952e-07L40.7273 4.85668e-07L39.5294 4.71384e-07L38.3316 4.57099e-07L37.1337 4.42815e-07L35.9358 4.2853e-07L34.738 4.14246e-07L33.5401 3.99962e-07L32.3422 3.85677e-07L31.1444 3.71393e-07L29.9465 3.57109e-07L28.7487 3.42824e-07L27.5508 3.2854e-07L26.3529 3.14256e-07L25.1551 2.99971e-07L23.9572 2.85687e-07L22.7594 2.71403e-07L21.5615 2.57118e-07L20.3636 2.42834e-07L19.1658 2.2855e-07L17.9679 2.14265e-07L16.7701 1.99981e-07L15.5722 1.85697e-07L14.3743 1.71412e-07L13.1765 1.57128e-07L11.9786 1.42843e-07L10.7807 1.28559e-07L9.58289 1.14275e-07L8.38503 9.99904e-08L7.18717 8.57061e-08L5.9893 7.14217e-08L4.79144 5.71374e-08L3.59358 4.2853e-08L2.39572 2.85687e-08L1.19786 1.42843e-08L3.57746e-08 0L0 3Z" fill="black"/>
<path d="M2.39572 54L3.59358 54L4.79144 54L5.9893 54L7.18717 54L8.38503 54L9.58289 54L10.7807 54L11.9786 54L13.1765 54L14.3743 54L15.5722 54L16.7701 54L17.9679 54L19.1658 54L20.3636 54L21.5615 54L22.7594 54L23.9572 54L25.1551 54L26.3529 54L27.5508 54L28.7487 54L29.9465 54L31.1444 54L32.3422 54L33.5401 54L34.738 54L35.9358 54L37.1337 54L38.3316 54L39.5294 54L40.7273 54L41.9251 54L43.123 54L44.3209 54L45.5187 54L46.7166 54L47.9144 54L49.1123 54L50.3102 54L51.508 54L52.7059 54L53.9037 54L55.1016 54L56.2995 54L57.4973 54L58.6952 54L59.893 54L61.0909 54L62.2888 54L63.4866 54L64.6845 54L65.8824 54L67.0802 54L68.2781 54L69.4759 54L70.6738 54L71.8717 54L73.0695 54L74.2674 54L75.4652 54L76.6631 54L77.861 54L79.0588 54L80.2567 54L81.4545 54L82.6524 54L83.8503 54L85.0481 54L86.246 54L87.4438 54L88.6417 54L89.8396 54L91.0374 54L92.2353 54L93.4332 54L94.631 54L95.8289 54L97.0267 54L98.2246 54L99.4225 54L100.62 54L101.818 54L103.016 54L104.214 54L105.412 54L106.61 54L107.807 54L109.005 54L110.203 54L111.401 54L112.599 54L113.797 54L114.995 54L116.193 54L117.39 54L118.588 54L119.786 54L120.984 54L122.182 54L123.38 54L124.578 54L125.775 54L126.973 54L128.171 54L129.369 54L130.567 54L131.765 54L132.963 54L134.16 54L135.358 54L136.556 54L137.754 54L138.952 54L140.15 54L141.348 54L142.545 54L143.743 54L144.941 54L146.139 54L147.337 54L148.535 54L149.733 54L150.93 54L152.128 54L153.326 54L154.524 54L155.722 54L156.92 54L158.118 54L159.316 54L160.513 54L161.711 54L162.909 54L164.107 54L165.305 54L166.503 54L167.701 54L168.898 54L170.096 54L171.294 54L172.492 54L173.69 54L174.888 54L176.086 54L177.283 54L178.481 54L179.679 54L180.877 54L182.075 54L183.273 54L184.471 54L185.668 54L186.866 54L188.064 54L189.262 54L190.46 54L191.658 54L192.856 54L194.053 54L195.251 54L196.449 54L197.647 54L198.845 54L200.043 54L201.241 54L202.439 54L203.636 54L204.834 54L206.032 54L207.23 54L208.428 54L209.626 54L210.824 54L210.824 51L209.626 51L208.428 51L207.23 51L206.032 51L204.834 51L203.636 51L202.439 51L201.241 51L200.043 51L198.845 51L197.647 51L196.449 51L195.251 51L194.053 51L192.856 51L191.658 51L190.46 51L189.262 51L188.064 51L186.866 51L185.668 51L184.471 51L183.273 51L182.075 51L180.877 51L179.679 51L178.481 51L177.283 51L176.086 51L174.888 51L173.69 51L172.492 51L171.294 51L170.096 51L168.898 51L167.701 51L166.503 51L165.305 51L164.107 51L162.909 51L161.711 51L160.513 51L159.316 51L158.118 51L156.92 51L155.722 51L154.524 51L153.326 51L152.128 51L150.93 51L149.733 51L148.535 51L147.337 51L146.139 51L144.941 51L143.743 51L142.545 51L141.348 51L140.15 51L138.952 51L137.754 51L136.556 51L135.358 51L134.16 51L132.963 51L131.765 51L130.567 51L129.369 51L128.171 51L126.973 51L125.775 51L124.578 51L123.38 51L122.182 51L120.984 51L119.786 51L118.588 51L117.39 51L116.193 51L114.995 51L113.797 51L112.599 51L111.401 51L110.203 51L109.005 51L107.807 51L106.61 51L105.412 51L104.214 51L103.016 51L101.818 51L100.62 51L99.4225 51L98.2246 51L97.0267 51L95.8289 51L94.631 51L93.4332 51L92.2353 51L91.0374 51L89.8396 51L88.6417 51L87.4438 51L86.246 51L85.0481 51L83.8503 51L82.6524 51L81.4545 51L80.2567 51L79.0588 51L77.861 51L76.6631 51L75.4652 51L74.2674 51L73.0695 51L71.8717 51L70.6738 51L69.4759 51L68.2781 51L67.0802 51L65.8824 51L64.6845 51L63.4866 51L62.2888 51L61.0909 51L59.893 51L58.6952 51L57.4973 51L56.2995 51L55.1016 51L53.9037 51L52.7059 51L51.508 51L50.3102 51L49.1123 51L47.9144 51L46.7166 51L45.5187 51L44.3209 51L43.123 51L41.9251 51L40.7273 51L39.5294 51L38.3316 51L37.1337 51L35.9358 51L34.738 51L33.5401 51L32.3422 51L31.1444 51L29.9465 51L28.7487 51L27.5508 51L26.3529 51L25.1551 51L23.9572 51L22.7594 51L21.5615 51L20.3636 51L19.1658 51L17.9679 51L16.7701 51L15.5722 51L14.3743 51L13.1765 51L11.9786 51L10.7807 51L9.58289 51L8.38503 51L7.18717 51L5.9893 51L4.79144 51L3.59358 51L2.39572 51L1.19786 51L3.57746e-08 51L0 54L1.19786 54L2.39572 54Z" fill="#FFD700"/>
<path d="M2.39572 51L3.59358 51L4.79144 51L5.9893 51L7.18717 51L8.38503 51L9.58289 51L10.7807 51L11.9786 51L13.1765 51L14.3743 51L15.5722 51L16.7701 51L17.9679 51L19.1658 51L20.3636 51L21.5615 51L22.7594 51L23.9572 51L25.1551 51L26.3529 51L27.5508 51L28.7487 51L29.9465 51L31.1444 51L32.3422 51L33.5401 51L34.738 51L35.9358 51L37.1337 51L38.3316 51L39.5294 51L40.7273 51L41.9251 51L43.123 51L44.3209 51L45.5187 51L46.7166 51L47.9144 51L49.1123 51L50.3102 51L51.508 51L52.7059 51L53.9037 51L55.1016 51L56.2995 51L57.4973 51L58.6952 51L59.893 51L61.0909 51L62.2888 51L63.4866 51L64.6845 51L65.8824 51L67.0802 51L68.2781 51L69.4759 51L70.6738 51L71.8717 51L73.0695 51L74.2674 51L75.4652 51L76.6631 51L77.861 51L79.0588 51L80.2567 51L81.4545 51L82.6524 51L83.8503 51L85.0481 51L86.246 51L87.4438 51L88.6417 51L89.8396 51L91.0374 51L92.2353 51L93.4332 51L94.631 51L95.8289 51L97.0267 51L98.2246 51L99.4225 51L100.62 51L101.818 51L103.016 51L104.214 51L105.412 51L106.61 51L107.807 51L109.005 51L110.203 51L111.401 51L112.599 51L113.797 51L114.995 51L116.193 51L117.39 51L118.588 51L119.786 51L120.984 51L122.182 51L123.38 51L124.578 51L125.775 51L126.973 51L128.171 51L129.369 51L130.567 51L131.765 51L132.963 51L134.16 51L135.358 51L136.556 51L137.754 51L138.952 51L140.15 51L141.348 51L142.545 51L143.743 51L144.941 51L146.139 51L147.337 51L148.535 51L149.733 51L150.93 51L152.128 51L153.326 51L154.524 51L155.722 51L156.92 51L158.118 51L159.316 51L160.513 51L161.711 51L162.909 51L164.107 51L165.305 51L166.503 51L167.701 51L168.898 51L170.096 51L171.294 51L172.492 51L173.69 51L174.888 51L176.086 51L177.283 51L178.481 51L179.679 51L180.877 51L182.075 51L183.273 51L184.471 51L185.668 51L186.866 51L188.064 51L189.262 51L190.46 51L191.658 51L192.856 51L194.053 51L195.251 51L196.449 51L197.647 51L198.845 51L200.043 51L201.241 51L202.439 51L203.636 51L204.834 51L206.032 51L207.23 51L208.428 51L209.626 51L210.824 51L210.824 48L212.021 48L213.219 48L213.219 45L214.417 45L215.615 45L215.615 42L215.615 39L214.417 39L213.219 39L213.219 36L212.021 36L210.824 36L210.824 33L209.626 33L209.626 30L209.626 27L210.824 27L210.824 24L212.021 24L213.219 24L213.219 21L214.417 21L215.615 21L215.615 18L215.615 15L214.417 15L213.219 15L213.219 12L212.021 12L210.824 12L210.824 9.00001L209.626 9.00001L208.428 9.00001L207.23 9.00001L206.032 9.00001L204.834 9.00001L203.636 9.00001L202.439 9.00001L201.241 9.00001L200.043 9.00001L198.845 9.00001L197.647 9.00001L196.449 9.00001L195.251 9.00001L194.053 9.00001L192.856 9.00001L191.658 9.00001L190.46 9.00001L189.262 9.00001L188.064 9.00001L186.866 9.00001L185.668 9.00001L184.471 9.00001L183.273 9.00001L182.075 9.00001L180.877 9.00001L179.679 9.00001L178.481 9.00001L177.283 9.00001L176.086 9.00001L174.888 9.00001L173.69 9.00001L172.492 9.00001L171.294 9.00001L170.096 9.00001L168.898 9.00001L167.701 9.00001L166.503 9.00001L165.305 9.00001L164.107 9.00001L162.909 9.00001L161.711 9.00001L160.513 9.00001L159.316 9.00001L158.118 9.00001L156.92 9.00001L155.722 9.00001L154.524 9.00001L153.326 9.00001L152.128 9.00001L150.93 9.00001L149.733 9.00001L148.535 9.00001L147.337 9.00001L146.139 9.00001L144.941 9.00001L143.743 9.00001L142.545 9.00001L141.348 9.00001L140.15 9.00001L138.952 9.00001L137.754 9.00001L136.556 9.00001L135.358 9.00001L134.16 9.00001L132.963 9.00001L131.765 9.00001L130.567 9.00001L129.369 9.00001L128.171 9.00001L126.973 9.00001L125.775 9.00001L124.578 9.00001L123.38 9.00001L122.182 9.00001L120.984 9.00001L119.786 9.00001L118.588 9.00001L117.39 9.00001L116.193 9.00001L114.995 9.00001L113.797 9.00001L112.599 9.00001L111.401 9.00001L110.203 9.00001L109.005 9.00001L107.807 9.00001L106.61 9.00001L105.412 9.00001L104.214 9.00001L103.016 9.00001L101.818 9.00001L100.62 9.00001L99.4225 9.00001L98.2246 9L97.0267 9L95.8289 9L94.631 9L93.4332 9L92.2353 9L91.0374 9L89.8396 9L88.6417 9L87.4438 9L86.246 9L85.0481 9L83.8503 9L82.6524 9L81.4545 9L80.2567 9L79.0588 9L77.861 9L76.6631 9L75.4652 9L74.2674 9L73.0695 9L71.8717 9L70.6738 9L69.4759 9L68.2781 9L67.0802 9L65.8824 9L64.6845 9L63.4866 9L62.2888 9L61.0909 9L59.893 9L58.6952 9L57.4973 9L56.2995 9L55.1016 9L53.9037 9L52.7059 9L51.508 9L50.3102 9L49.1123 9L47.9144 9L46.7166 9L45.5187 9L44.3209 9L43.123 9L41.9251 9L40.7273 9L39.5294 9L38.3316 9L37.1337 9L35.9358 9L34.738 9L33.5401 9L32.3422 9L31.1444 9L29.9465 9L28.7487 9L27.5508 9L26.3529 9L25.1551 9L23.9572 9L22.7594 9L21.5615 9L20.3636 9L19.1658 9L17.9679 9L16.7701 9L15.5722 9L14.3743 9L13.1765 9L11.9786 9L10.7807 9L9.58289 9L8.38503 9L7.18717 9L5.98931 9L4.79144 9L3.59358 9L2.39572 9L1.19786 9L5.00845e-07 9L4.6507e-07 12L4.29296e-07 15L3.93521e-07 18L3.57746e-07 21L3.21972e-07 24L2.86197e-07 27L2.50422e-07 30L2.14648e-07 33L1.78873e-07 36L1.43099e-07 39L1.07324e-07 42L7.15493e-08 45L3.57746e-08 48L0 51L1.19786 51L2.39572 51Z" fill="#6B91BE"/>
<path d="M2.39572 9L3.59358 9L4.79144 9L5.9893 9L7.18717 9L8.38503 9L9.58289 9L10.7807 9L11.9786 9L13.1765 9L14.3743 9L15.5722 9L16.7701 9L17.9679 9L19.1658 9L20.3636 9L21.5615 9L22.7594 9L23.9572 9L25.1551 9L26.3529 9L27.5508 9L28.7487 9L29.9465 9L31.1444 9L32.3422 9L33.5401 9L34.738 9L35.9358 9L37.1337 9L38.3316 9L39.5294 9L40.7273 9L41.9251 9L43.123 9L44.3209 9L45.5187 9L46.7166 9L47.9144 9L49.1123 9L50.3102 9L51.508 9L52.7059 9L53.9037 9L55.1016 9L56.2995 9L57.4973 9L58.6952 9L59.893 9L61.0909 9L62.2888 9L63.4866 9L64.6845 9L65.8824 9L67.0802 9L68.2781 9L69.4759 9L70.6738 9L71.8717 9L73.0695 9L74.2674 9L75.4652 9L76.6631 9L77.861 9L79.0588 9L80.2567 9L81.4545 9L82.6524 9L83.8503 9L85.0481 9L86.246 9L87.4438 9L88.6417 9L89.8396 9L91.0374 9L92.2353 9L93.4332 9L94.631 9L95.8289 9L97.0267 9L98.2246 9L99.4225 9L100.62 9L101.818 9L103.016 9L104.214 9L105.412 9L106.61 9L107.807 9L109.005 9L110.203 9L111.401 9L112.599 9L113.797 9L114.995 9L116.193 9L117.39 9L118.588 9L119.786 9L120.984 9L122.182 9L123.38 9L124.578 9L125.775 9L126.973 9L128.171 9L129.369 9L130.567 9L131.765 9L132.963 9L134.16 9L135.358 9L136.556 9L137.754 9L138.952 9L140.15 9L141.348 9L142.545 9L143.743 9L144.941 9L146.139 9L147.337 9L148.535 9L149.733 9L150.93 9L152.128 9L153.326 9L154.524 9L155.722 9L156.92 9L158.118 9L159.316 9L160.513 9L161.711 9L162.909 9L164.107 9L165.305 9L166.503 9L167.701 9L168.898 9L170.096 9L171.294 9L172.492 9L173.69 9L174.888 9L176.086 9L177.283 9L178.481 9L179.679 9L180.877 9L182.075 9L183.273 9L184.471 9L185.668 9L186.866 9L188.064 9L189.262 9L190.46 9L191.658 9L192.856 9L194.053 9L195.251 9L196.449 9L197.647 9L198.845 9L200.043 9L201.241 9L202.439 9L203.636 9L204.834 9L206.032 9L207.23 9L208.428 9L209.626 9L210.824 9L210.824 6L209.626 6L208.428 6L207.23 6L206.032 6L204.834 6L203.636 6L202.439 6L201.241 6L200.043 6L198.845 6L197.647 6L196.449 6L195.251 6L194.053 6L192.856 6L191.658 6L190.46 6L189.262 6L188.064 6L186.866 6L185.668 6L184.471 6L183.273 6L182.075 6L180.877 6L179.679 6L178.481 6L177.283 6L176.086 6L174.888 6L173.69 6L172.492 6L171.294 6L170.096 6L168.898 6L167.701 6L166.503 6L165.305 6L164.107 6L162.909 6L161.711 6L160.513 6L159.316 6L158.118 6L156.92 6L155.722 6L154.524 6L153.326 6L152.128 6L150.93 6L149.733 6L148.535 6L147.337 6L146.139 6L144.941 6L143.743 6L142.545 6L141.348 6L140.15 6L138.952 6L137.754 6L136.556 6L135.358 6L134.16 6L132.963 6L131.765 6L130.567 6L129.369 6L128.171 6L126.973 6L125.775 6L124.578 6L123.38 6L122.182 6L120.984 6L119.786 6L118.588 6L117.39 6L116.193 6L114.995 6L113.797 6L112.599 6L111.401 6L110.203 6L109.005 6L107.807 6L106.61 6L105.412 6L104.214 6L103.016 6L101.818 6L100.62 6L99.4225 6L98.2246 6L97.0267 6L95.8289 6L94.631 6L93.4332 6L92.2353 6L91.0374 6L89.8396 6L88.6417 6L87.4438 6L86.246 6L85.0481 6L83.8503 6L82.6524 6L81.4545 6L80.2567 6L79.0588 6L77.861 6L76.6631 6L75.4652 6L74.2674 6L73.0695 6L71.8717 6L70.6738 6L69.4759 6L68.2781 6L67.0802 6L65.8824 6L64.6845 6L63.4866 6L62.2888 6L61.0909 6L59.893 6L58.6952 6L57.4973 6L56.2995 6L55.1016 6L53.9037 6L52.7059 6L51.508 6L50.3102 6L49.1123 6L47.9144 6L46.7166 6L45.5187 6L44.3209 6L43.123 6L41.9251 6L40.7273 6L39.5294 6L38.3316 6L37.1337 6L35.9358 6L34.738 6L33.5401 6L32.3422 6L31.1444 6L29.9465 6L28.7487 6L27.5508 6L26.3529 6L25.1551 6L23.9572 6L22.7594 6L21.5615 6L20.3636 6L19.1658 6L17.9679 6L16.7701 6L15.5722 6L14.3743 6L13.1765 6L11.9786 6L10.7807 6L9.58289 6L8.38503 6L7.18717 6L5.9893 6L4.79144 6L3.59358 6L2.39572 6L1.19786 6L3.57746e-08 6L0 9L1.19786 9L2.39572 9Z" fill="#FFD700"/>
<path d="M209.626 57L208.428 57L207.23 57L206.032 57L204.834 57L203.636 57L202.439 57L201.241 57L200.043 57L198.845 57L197.647 57L196.449 57L195.251 57L194.053 57L192.856 57L191.658 57L190.46 57L189.262 57L188.064 57L186.866 57L185.668 57L184.471 57L183.273 57L182.075 57L180.877 57L179.679 57L178.481 57L177.283 57L176.086 57L174.888 57L173.69 57L172.492 57L171.294 57L170.096 57L168.898 57L167.701 57L166.503 57L165.305 57L164.107 57L162.909 57L161.711 57L160.513 57L159.316 57L158.118 57L156.92 57L155.722 57L154.524 57L153.326 57L152.128 57L150.93 57L149.733 57L148.535 57L147.337 57L146.139 57L144.941 57L143.743 57L142.545 57L141.348 57L140.15 57L138.952 57L137.754 57L136.556 57L135.358 57L134.16 57L132.963 57L131.765 57L130.567 57L129.369 57L128.171 57L126.973 57L125.775 57L124.578 57L123.38 57L122.182 57L120.984 57L119.786 57L118.588 57L117.39 57L116.193 57L114.995 57L113.797 57L112.599 57L111.401 57L110.203 57L109.005 57L107.807 57L106.61 57L105.412 57L104.214 57L103.016 57L101.818 57L100.62 57L99.4225 57L98.2246 57L97.0267 57L95.8289 57L94.631 57L93.4332 57L92.2353 57L91.0374 57L89.8396 57L88.6417 57L87.4438 57L86.246 57L85.0481 57L83.8503 57L82.6524 57L81.4545 57L80.2567 57L79.0588 57L77.861 57L76.6631 57L75.4652 57L74.2674 57L73.0695 57L71.8717 57L70.6738 57L69.4759 57L68.2781 57L67.0802 57L65.8824 57L64.6845 57L63.4866 57L62.2888 57L61.0909 57L59.893 57L58.6952 57L57.4973 57L56.2995 57L55.1016 57L53.9037 57L52.7059 57L51.508 57L50.3102 57L49.1123 57L47.9144 57L46.7166 57L45.5187 57L44.3209 57L43.123 57L41.9251 57L40.7273 57L39.5294 57L38.3316 57L37.1337 57L35.9358 57L34.738 57L33.5401 57L32.3422 57L31.1444 57L29.9465 57L28.7487 57L27.5508 57L26.3529 57L25.1551 57L23.9572 57L22.7594 57L21.5615 57L20.3636 57L19.1658 57L17.9679 57L16.7701 57L15.5722 57L14.3743 57L13.1765 57L11.9786 57L10.7807 57L9.58289 57L8.38503 57L7.18717 57L5.9893 57L4.79144 57L3.59358 57L2.39572 57L1.19786 57L3.57746e-08 57L0 60L1.19786 60L2.39572 60L3.59358 60L4.79144 60L5.9893 60L7.18717 60L8.38503 60L9.58289 60L10.7807 60L11.9786 60L13.1765 60L14.3743 60L15.5722 60L16.7701 60L17.9679 60L19.1658 60L20.3636 60L21.5615 60L22.7594 60L23.9572 60L25.1551 60L26.3529 60L27.5508 60L28.7487 60L29.9465 60L31.1444 60L32.3422 60L33.5401 60L34.738 60L35.9358 60L37.1337 60L38.3316 60L39.5294 60L40.7273 60L41.9251 60L43.123 60L44.3209 60L45.5187 60L46.7166 60L47.9144 60L49.1123 60L50.3102 60L51.508 60L52.7059 60L53.9037 60L55.1016 60L56.2995 60L57.4973 60L58.6952 60L59.893 60L61.0909 60L62.2888 60L63.4866 60L64.6845 60L65.8824 60L67.0802 60L68.2781 60L69.4759 60L70.6738 60L71.8717 60L73.0695 60L74.2674 60L75.4652 60L76.6631 60L77.861 60L79.0588 60L80.2567 60L81.4545 60L82.6524 60L83.8503 60L85.0481 60L86.246 60L87.4438 60L88.6417 60L89.8396 60L91.0374 60L92.2353 60L93.4332 60L94.631 60L95.8289 60L97.0267 60L98.2246 60L99.4225 60L100.62 60L101.818 60L103.016 60L104.214 60L105.412 60L106.61 60L107.807 60L109.005 60L110.203 60L111.401 60L112.599 60L113.797 60L114.995 60L116.193 60L117.39 60L118.588 60L119.786 60L120.984 60L122.182 60L123.38 60L124.578 60L125.775 60L126.973 60L128.171 60L129.369 60L130.567 60L131.765 60L132.963 60L134.16 60L135.358 60L136.556 60L137.754 60L138.952 60L140.15 60L141.348 60L142.545 60L143.743 60L144.941 60L146.139 60L147.337 60L148.535 60L149.733 60L150.93 60L152.128 60L153.326 60L154.524 60L155.722 60L156.92 60L158.118 60L159.316 60L160.513 60L161.711 60L162.909 60L164.107 60L165.305 60L166.503 60L167.701 60L168.898 60L170.096 60L171.294 60L172.492 60L173.69 60L174.888 60L176.086 60L177.283 60L178.481 60L179.679 60L180.877 60L182.075 60L183.273 60L184.471 60L185.668 60L186.866 60L188.064 60L189.262 60L190.46 60L191.658 60L192.856 60L194.053 60L195.251 60L196.449 60L197.647 60L198.845 60L200.043 60L201.241 60L202.439 60L203.636 60L204.834 60L206.032 60L207.23 60L208.428 60L209.626 60L210.824 60L212.021 60L212.021 57L210.824 57L209.626 57Z" fill="black"/>
<path d="M209.626 30L209.626 33L210.824 33L210.824 30L210.824 27L209.626 27L209.626 30Z" fill="#FFD700"/>
<path d="M209.626 3.00001L208.428 3.00001L207.23 3.00001L206.032 3.00001L204.834 3.00001L203.636 3.00001L202.439 3.00001L201.241 3.00001L200.043 3.00001L198.845 3.00001L197.647 3.00001L196.449 3.00001L195.251 3.00001L194.053 3.00001L192.856 3.00001L191.658 3.00001L190.46 3.00001L189.262 3.00001L188.064 3.00001L186.866 3.00001L185.668 3.00001L184.471 3.00001L183.273 3.00001L182.075 3.00001L180.877 3.00001L179.679 3.00001L178.481 3.00001L177.283 3.00001L176.086 3.00001L174.888 3.00001L173.69 3.00001L172.492 3.00001L171.294 3.00001L170.096 3.00001L168.898 3.00001L167.701 3.00001L166.503 3.00001L165.305 3.00001L164.107 3.00001L162.909 3.00001L161.711 3.00001L160.513 3.00001L159.316 3.00001L158.118 3.00001L156.92 3.00001L155.722 3.00001L154.524 3.00001L153.326 3.00001L152.128 3.00001L150.93 3.00001L149.733 3.00001L148.535 3.00001L147.337 3.00001L146.139 3.00001L144.941 3.00001L143.743 3.00001L142.545 3.00001L141.348 3.00001L140.15 3.00001L138.952 3.00001L137.754 3.00001L136.556 3.00001L135.358 3.00001L134.16 3.00001L132.963 3.00001L131.765 3.00001L130.567 3.00001L129.369 3.00001L128.171 3.00001L126.973 3.00001L125.775 3.00001L124.578 3.00001L123.38 3.00001L122.182 3.00001L120.984 3.00001L119.786 3.00001L118.588 3.00001L117.39 3.00001L116.193 3.00001L114.995 3.00001L113.797 3.00001L112.599 3.00001L111.401 3.00001L110.203 3.00001L109.005 3.00001L107.807 3.00001L106.61 3.00001L105.412 3.00001L104.214 3.00001L103.016 3.00001L101.818 3.00001L100.62 3.00001L99.4225 3.00001L98.2246 3L97.0267 3L95.8289 3L94.631 3L93.4332 3L92.2353 3L91.0374 3L89.8396 3L88.6417 3L87.4438 3L86.246 3L85.0481 3L83.8503 3L82.6524 3L81.4545 3L80.2567 3L79.0588 3L77.861 3L76.6631 3L75.4652 3L74.2674 3L73.0695 3L71.8717 3L70.6738 3L69.4759 3L68.2781 3L67.0802 3L65.8824 3L64.6845 3L63.4866 3L62.2888 3L61.0909 3L59.893 3L58.6952 3L57.4973 3L56.2995 3L55.1016 3L53.9037 3L52.7059 3L51.508 3L50.3102 3L49.1123 3L47.9144 3L46.7166 3L45.5187 3L44.3209 3L43.123 3L41.9251 3L40.7273 3L39.5294 3L38.3316 3L37.1337 3L35.9358 3L34.738 3L33.5401 3L32.3422 3L31.1444 3L29.9465 3L28.7487 3L27.5508 3L26.3529 3L25.1551 3L23.9572 3L22.7594 3L21.5615 3L20.3636 3L19.1658 3L17.9679 3L16.7701 3L15.5722 3L14.3743 3L13.1765 3L11.9786 3L10.7807 3L9.58289 3L8.38503 3L7.18717 3L5.98931 3L4.79144 3L3.59358 3L2.39572 3L1.19786 3L6.43944e-07 3L6.08169e-07 6L1.19786 6L2.39572 6L3.59358 6L4.79144 6L5.98931 6L7.18717 6L8.38503 6L9.58289 6L10.7807 6L11.9786 6L13.1765 6L14.3743 6L15.5722 6L16.7701 6L17.9679 6L19.1658 6L20.3636 6L21.5615 6L22.7594 6L23.9572 6L25.1551 6L26.3529 6L27.5508 6L28.7487 6L29.9465 6L31.1444 6L32.3422 6L33.5401 6L34.738 6L35.9358 6L37.1337 6L38.3316 6L39.5294 6L40.7273 6L41.9251 6L43.123 6L44.3209 6L45.5187 6L46.7166 6L47.9144 6L49.1123 6L50.3102 6L51.508 6L52.7059 6L53.9037 6L55.1016 6L56.2995 6L57.4973 6L58.6952 6L59.893 6L61.0909 6L62.2888 6L63.4866 6L64.6845 6L65.8824 6L67.0802 6L68.2781 6L69.4759 6L70.6738 6L71.8717 6L73.0695 6L74.2674 6L75.4652 6L76.6631 6L77.861 6L79.0588 6L80.2567 6L81.4545 6L82.6524 6L83.8503 6L85.0481 6L86.246 6L87.4438 6L88.6417 6L89.8396 6L91.0374 6L92.2353 6L93.4332 6L94.631 6L95.8289 6L97.0267 6L98.2246 6L99.4225 6.00001L100.62 6.00001L101.818 6.00001L103.016 6.00001L104.214 6.00001L105.412 6.00001L106.61 6.00001L107.807 6.00001L109.005 6.00001L110.203 6.00001L111.401 6.00001L112.599 6.00001L113.797 6.00001L114.995 6.00001L116.193 6.00001L117.39 6.00001L118.588 6.00001L119.786 6.00001L120.984 6.00001L122.182 6.00001L123.38 6.00001L124.578 6.00001L125.775 6.00001L126.973 6.00001L128.171 6.00001L129.369 6.00001L130.567 6.00001L131.765 6.00001L132.963 6.00001L134.16 6.00001L135.358 6.00001L136.556 6.00001L137.754 6.00001L138.952 6.00001L140.15 6.00001L141.348 6.00001L142.545 6.00001L143.743 6.00001L144.941 6.00001L146.139 6.00001L147.337 6.00001L148.535 6.00001L149.733 6.00001L150.93 6.00001L152.128 6.00001L153.326 6.00001L154.524 6.00001L155.722 6.00001L156.92 6.00001L158.118 6.00001L159.316 6.00001L160.513 6.00001L161.711 6.00001L162.909 6.00001L164.107 6.00001L165.305 6.00001L166.503 6.00001L167.701 6.00001L168.898 6.00001L170.096 6.00001L171.294 6.00001L172.492 6.00001L173.69 6.00001L174.888 6.00001L176.086 6.00001L177.283 6.00001L178.481 6.00001L179.679 6.00001L180.877 6.00001L182.075 6.00001L183.273 6.00001L184.471 6.00001L185.668 6.00001L186.866 6.00001L188.064 6.00001L189.262 6.00001L190.46 6.00001L191.658 6.00001L192.856 6.00001L194.053 6.00001L195.251 6.00001L196.449 6.00001L197.647 6.00001L198.845 6.00001L200.043 6.00001L201.241 6.00001L202.439 6.00001L203.636 6.00001L204.834 6.00001L206.032 6.00001L207.23 6.00001L208.428 6.00001L209.626 6.00001L210.824 6.00001L210.824 9.00001L212.021 9.00001L213.219 9.00001L213.219 12L214.417 12L215.615 12L215.615 15L216.813 15L218.011 15L218.011 18L218.011 21L216.813 21L215.615 21L215.615 24L214.417 24L213.219 24L213.219 27L212.021 27L210.824 27L210.824 30L210.824 33L212.021 33L213.219 33L213.219 36L214.417 36L215.615 36L215.615 39L216.813 39L218.011 39L218.011 42L218.011 45L216.813 45L215.615 45L215.615 48L214.417 48L213.219 48L213.219 51L212.021 51L210.824 51L210.824 54L209.626 54L208.428 54L207.23 54L206.032 54L204.834 54L203.636 54L202.439 54L201.241 54L200.043 54L198.845 54L197.647 54L196.449 54L195.251 54L194.053 54L192.856 54L191.658 54L190.46 54L189.262 54L188.064 54L186.866 54L185.668 54L184.471 54L183.273 54L182.075 54L180.877 54L179.679 54L178.481 54L177.283 54L176.086 54L174.888 54L173.69 54L172.492 54L171.294 54L170.096 54L168.898 54L167.701 54L166.503 54L165.305 54L164.107 54L162.909 54L161.711 54L160.513 54L159.316 54L158.118 54L156.92 54L155.722 54L154.524 54L153.326 54L152.128 54L150.93 54L149.733 54L148.535 54L147.337 54L146.139 54L144.941 54L143.743 54L142.545 54L141.348 54L140.15 54L138.952 54L137.754 54L136.556 54L135.358 54L134.16 54L132.963 54L131.765 54L130.567 54L129.369 54L128.171 54L126.973 54L125.775 54L124.578 54L123.38 54L122.182 54L120.984 54L119.786 54L118.588 54L117.39 54L116.193 54L114.995 54L113.797 54L112.599 54L111.401 54L110.203 54L109.005 54L107.807 54L106.61 54L105.412 54L104.214 54L103.016 54L101.818 54L100.62 54L99.4225 54L98.2246 54L97.0267 54L95.8289 54L94.631 54L93.4332 54L92.2353 54L91.0374 54L89.8396 54L88.6417 54L87.4438 54L86.246 54L85.0481 54L83.8503 54L82.6524 54L81.4545 54L80.2567 54L79.0588 54L77.861 54L76.6631 54L75.4652 54L74.2674 54L73.0695 54L71.8717 54L70.6738 54L69.4759 54L68.2781 54L67.0802 54L65.8824 54L64.6845 54L63.4866 54L62.2888 54L61.0909 54L59.893 54L58.6952 54L57.4973 54L56.2995 54L55.1016 54L53.9037 54L52.7059 54L51.508 54L50.3102 54L49.1123 54L47.9144 54L46.7166 54L45.5187 54L44.3209 54L43.123 54L41.9251 54L40.7273 54L39.5294 54L38.3316 54L37.1337 54L35.9358 54L34.738 54L33.5401 54L32.3422 54L31.1444 54L29.9465 54L28.7487 54L27.5508 54L26.3529 54L25.1551 54L23.9572 54L22.7594 54L21.5615 54L20.3636 54L19.1658 54L17.9679 54L16.7701 54L15.5722 54L14.3743 54L13.1765 54L11.9786 54L10.7807 54L9.58289 54L8.38503 54L7.18717 54L5.9893 54L4.79144 54L3.59358 54L2.39572 54L1.19786 54L3.57746e-08 54L0 57L1.19786 57L2.39572 57L3.59358 57L4.79144 57L5.9893 57L7.18717 57L8.38503 57L9.58289 57L10.7807 57L11.9786 57L13.1765 57L14.3743 57L15.5722 57L16.7701 57L17.9679 57L19.1658 57L20.3636 57L21.5615 57L22.7594 57L23.9572 57L25.1551 57L26.3529 57L27.5508 57L28.7487 57L29.9465 57L31.1444 57L32.3422 57L33.5401 57L34.738 57L35.9358 57L37.1337 57L38.3316 57L39.5294 57L40.7273 57L41.9251 57L43.123 57L44.3209 57L45.5187 57L46.7166 57L47.9144 57L49.1123 57L50.3102 57L51.508 57L52.7059 57L53.9037 57L55.1016 57L56.2995 57L57.4973 57L58.6952 57L59.893 57L61.0909 57L62.2888 57L63.4866 57L64.6845 57L65.8824 57L67.0802 57L68.2781 57L69.4759 57L70.6738 57L71.8717 57L73.0695 57L74.2674 57L75.4652 57L76.6631 57L77.861 57L79.0588 57L80.2567 57L81.4545 57L82.6524 57L83.8503 57L85.0481 57L86.246 57L87.4438 57L88.6417 57L89.8396 57L91.0374 57L92.2353 57L93.4332 57L94.631 57L95.8289 57L97.0267 57L98.2246 57L99.4225 57L100.62 57L101.818 57L103.016 57L104.214 57L105.412 57L106.61 57L107.807 57L109.005 57L110.203 57L111.401 57L112.599 57L113.797 57L114.995 57L116.193 57L117.39 57L118.588 57L119.786 57L120.984 57L122.182 57L123.38 57L124.578 57L125.775 57L126.973 57L128.171 57L129.369 57L130.567 57L131.765 57L132.963 57L134.16 57L135.358 57L136.556 57L137.754 57L138.952 57L140.15 57L141.348 57L142.545 57L143.743 57L144.941 57L146.139 57L147.337 57L148.535 57L149.733 57L150.93 57L152.128 57L153.326 57L154.524 57L155.722 57L156.92 57L158.118 57L159.316 57L160.513 57L161.711 57L162.909 57L164.107 57L165.305 57L166.503 57L167.701 57L168.898 57L170.096 57L171.294 57L172.492 57L173.69 57L174.888 57L176.086 57L177.283 57L178.481 57L179.679 57L180.877 57L182.075 57L183.273 57L184.471 57L185.668 57L186.866 57L188.064 57L189.262 57L190.46 57L191.658 57L192.856 57L194.053 57L195.251 57L196.449 57L197.647 57L198.845 57L200.043 57L201.241 57L202.439 57L203.636 57L204.834 57L206.032 57L207.23 57L208.428 57L209.626 57L210.824 57L212.021 57L212.021 54L213.219 54L214.417 54L214.417 51L215.615 51L216.813 51L216.813 48L218.011 48L219.209 48L219.209 45L220.406 45L221.604 45L221.604 42L221.604 39L220.406 39L219.209 39L219.209 36L218.011 36L216.813 36L216.813 33L215.615 33L214.417 33L214.417 30L214.417 27L215.615 27L216.813 27L216.813 24L218.011 24L219.209 24L219.209 21L220.406 21L221.604 21L221.604 18L221.604 15L220.406 15L219.209 15L219.209 12L218.011 12L216.813 12L216.813 9.00001L215.615 9.00001L214.417 9.00001L214.417 6.00001L213.219 6.00001L212.021 6.00001L212.021 3.00001L210.824 3.00001L209.626 3.00001Z" fill="#6B91BE"/>
<path d="M210.823 48L210.823 51L212.021 51L213.219 51L213.219 48L212.021 48L210.823 48Z" fill="#FFD700"/>
<path d="M212.021 36L213.219 36L213.219 33L212.021 33L210.823 33L210.823 36L212.021 36Z" fill="#FFD700"/>
<path d="M210.823 24L210.823 27L212.021 27L213.219 27L213.219 24L212.021 24L210.823 24Z" fill="#FFD700"/>
<path d="M212.021 12L213.219 12L213.219 9L212.021 9L210.823 9L210.823 12L212.021 12Z" fill="#FFD700"/>
<path d="M212.021 54L212.021 57L213.219 57L214.417 57L214.417 54L213.219 54L212.021 54Z" fill="black"/>
<path d="M213.219 6L214.417 6L214.417 3L213.219 3L212.021 3L212.021 6L213.219 6Z" fill="black"/>
<path d="M213.22 45L213.22 48L214.418 48L215.615 48L215.615 45L214.418 45L213.22 45Z" fill="#FFD700"/>
<path d="M214.418 39L215.615 39L215.615 36L214.418 36L213.22 36L213.22 39L214.418 39Z" fill="#FFD700"/>
<path d="M213.22 21L213.22 24L214.418 24L215.615 24L215.615 21L214.418 21L213.22 21Z" fill="#FFD700"/>
<path d="M214.418 15L215.615 15L215.615 12L214.418 12L213.22 12L213.22 15L214.418 15Z" fill="#FFD700"/>
<path d="M214.417 51L214.417 54L215.615 54L216.813 54L216.813 51L215.615 51L214.417 51Z" fill="black"/>
<path d="M214.417 27L214.417 30L214.417 33L215.615 33L216.813 33L216.813 30L216.813 27L215.615 27L214.417 27Z" fill="black"/>
<path d="M215.615 9L216.813 9L216.813 6L215.615 6L214.417 6L214.417 9L215.615 9Z" fill="black"/>
<path d="M215.615 45L216.813 45L218.011 45L218.011 42L218.011 39L216.813 39L215.615 39L215.615 42L215.615 45Z" fill="#FFD700"/>
<path d="M215.615 21L216.813 21L218.011 21L218.011 18L218.011 15L216.813 15L215.615 15L215.615 18L215.615 21Z" fill="#FFD700"/>
<path d="M216.813 48L216.812 51L218.01 51L219.208 51L219.208 48L218.01 48L216.813 48Z" fill="black"/>
<path d="M218.01 36L219.208 36L219.208 33L218.01 33L216.813 33L216.812 36L218.01 36Z" fill="black"/>
<path d="M216.813 24L216.812 27L218.01 27L219.208 27L219.208 24L218.01 24L216.813 24Z" fill="black"/>
<path d="M218.01 12L219.208 12L219.208 9L218.01 9L216.813 9L216.812 12L218.01 12Z" fill="black"/>
<path d="M219.209 45L219.209 48L220.407 48L221.605 48L221.605 45L220.407 45L219.209 45Z" fill="black"/>
<path d="M220.407 39L221.605 39L221.605 36L220.407 36L219.209 36L219.209 39L220.407 39Z" fill="black"/>
<path d="M219.209 21L219.209 24L220.407 24L221.605 24L221.605 21L220.407 21L219.209 21Z" fill="black"/>
<path d="M220.407 15L221.605 15L221.605 12L220.407 12L219.209 12L219.209 15L220.407 15Z" fill="black"/>
<path d="M221.604 45L222.802 45L224 45L224 42L224 39L222.802 39L221.604 39L221.604 42L221.604 45Z" fill="black"/>
<path d="M221.604 21L222.802 21L224 21L224 18L224 15L222.802 15L221.604 15L221.604 18L221.604 21Z" fill="black"/>
<path d="M24.4536 40.04L24.4536 42L16.6836 42L16.6836 38.115L18.6436 38.115L18.6436 40.04L22.5286 40.04L22.5286 36.155L20.5686 36.155L20.5686 34.23L18.6436 34.23L18.6436 32.27L16.6836 32.27L16.6836 28.385L18.6436 28.385L18.6436 26.46L26.4136 26.46L26.4136 30.345L24.4536 30.345L24.4536 28.385L20.5686 28.385L20.5686 30.345L22.5286 30.345L22.5286 32.27L24.4536 32.27L24.4536 34.23L26.4136 34.23L26.4136 40.04L24.4536 40.04ZM37.8911 42L32.0461 42L32.0461 40.04L30.1211 40.04L30.1211 32.27L32.0461 32.27L32.0461 30.345L39.8161 30.345L39.8161 34.23L37.8911 34.23L37.8911 32.27L34.0061 32.27L34.0061 40.04L37.8911 40.04L37.8911 38.115L39.8161 38.115L39.8161 40.04L37.8911 40.04L37.8911 42ZM47.2337 42L43.3487 42L43.3487 26.46L47.2337 26.46L47.2337 32.27L49.1587 32.27L49.1587 30.345L53.0437 30.345L53.0437 32.27L55.0037 32.27L55.0037 42L51.1187 42L51.1187 32.27L49.1587 32.27L49.1587 34.23L47.2337 34.23L47.2337 42ZM68.5954 42L60.8254 42L60.8254 40.04L58.9004 40.04L58.9004 32.27L60.8254 32.27L60.8254 30.345L68.5954 30.345L68.5954 32.27L70.5554 32.27L70.5554 34.23L68.5954 34.23L68.5954 36.155L64.7104 36.155L64.7104 38.115L62.7854 38.115L62.7854 40.04L68.5954 40.04L68.5954 38.115L70.5554 38.115L70.5554 40.04L68.5954 40.04L68.5954 42ZM66.6704 32.27L62.7854 32.27L62.7854 36.155L64.7104 36.155L64.7104 34.23L66.6704 34.23L66.6704 32.27ZM81.812 30.345L81.812 26.46L85.697 26.46L85.697 42L75.967 42L75.967 40.04L74.042 40.04L74.042 32.27L75.967 32.27L75.967 30.345L81.812 30.345ZM81.812 40.04L81.812 32.27L77.927 32.27L77.927 40.04L81.812 40.04ZM97.3638 30.345L101.249 30.345L101.249 40.04L99.2888 40.04L99.2888 42L91.5188 42L91.5188 40.04L89.5938 40.04L89.5938 30.345L93.4788 30.345L93.4788 40.04L97.3638 40.04L97.3638 30.345ZM109.031 42L105.146 42L105.146 26.46L109.031 26.46L109.031 42ZM122.599 42L114.829 42L114.829 40.04L112.904 40.04L112.904 32.27L114.829 32.27L114.829 30.345L122.599 30.345L122.599 32.27L124.559 32.27L124.559 34.23L122.599 34.23L122.599 36.155L118.714 36.155L118.714 38.115L116.789 38.115L116.789 40.04L122.599 40.04L122.599 38.115L124.559 38.115L124.559 40.04L122.599 40.04L122.599 42ZM120.674 32.27L116.789 32.27L116.789 36.155L118.714 36.155L118.714 34.23L120.674 34.23L120.674 32.27Z" fill="white"/>
</g>
<path d="M198.091 36.5463L196.819 35.2735L195.546 34.0007L194.273 32.7279L195.546 31.4551L196.819 30.1823L198.091 28.9095L199.364 27.6368L198.091 26.364L196.819 25.0912L195.546 26.364L194.273 27.6368L193 28.9095L191.728 30.1823L190.455 28.9095L189.182 27.6368L187.909 26.364L186.636 25.0912L185.364 26.364L184.091 27.6368L185.364 28.9095L186.636 30.1823L187.909 31.4551L189.182 32.7279L187.909 34.0007L186.636 35.2735L185.364 36.5463L184.091 37.8191L185.364 39.0919L186.636 40.3647L187.909 39.0919L189.182 37.8191L190.455 36.5463L191.728 35.2735L193 36.5463L194.273 37.8191L195.546 39.0919L196.819 40.3647L198.091 39.0919L199.364 37.8191L198.091 36.5463Z" fill="white"/>
<defs>
<filter id="filter0_d_430_14946" x="-4" y="0" width="232" height="68" filterUnits="userSpaceOnUse" color-interpolation-filters="sRGB">
<feFlood flood-opacity="0" result="BackgroundImageFix"/>
<feColorMatrix in="SourceAlpha" type="matrix" values="0 0 0 0 0 0 0 0 0 0 0 0 0 0 0 0 0 0 127 0" result="hardAlpha"/>
<feOffset dy="4"/>
<feGaussianBlur stdDeviation="2"/>
<feComposite in2="hardAlpha" operator="out"/>
<feColorMatrix type="matrix" values="0 0 0 0 0 0 0 0 0 0 0 0 0 0 0 0 0 0 0.25 0"/>
<feBlend mode="normal" in2="BackgroundImageFix" result="effect1_dropShadow_430_14946"/>
<feBlend mode="normal" in="SourceGraphic" in2="effect1_dropShadow_430_14946" result="shape"/>
</filter>
</defs>
</svg>
