<svg width="300" height="61" viewBox="0 0 300 61" fill="none" xmlns="http://www.w3.org/2000/svg">
<path d="M300 57.752L16.0428 57.752V60.752L300 60.752V57.752Z" fill="black"/>
<path d="M17.6471 6.75198V9.75198L300 9.752V6.752L17.6471 6.75198Z" fill="#FFD700"/>
<path d="M17.6471 9.75198V12.752H14.4385L14.4385 15.752H11.2299V21.752H14.4385V24.752H17.6471V27.752H19.2513V33.752H17.6471V36.752H14.4385V39.752H11.2299V45.752H14.4385V48.752H17.6471V51.752L300 51.752V9.752L17.6471 9.75198Z" fill="#6B91BE"/>
<path d="M17.6471 51.752V54.752L300 54.752V51.752L17.6471 51.752Z" fill="#FFD700"/>
<path d="M300 3.752V0.751996L16.0428 0.751984L16.0428 3.75198L300 3.752Z" fill="black"/>
<path d="M19.2513 27.752H17.6471V33.752H19.2513V27.752Z" fill="#FFD700"/>
<path d="M300 57.752V54.752L17.6471 54.752V51.752H14.4385V48.752H11.2299V45.752H8.02139V39.752H11.2299V36.752H14.4385L14.4385 33.752H17.6471V27.752H14.4385V24.752H11.2299V21.752H8.02139V15.752H11.2299L11.23 12.752H14.4385V9.75198H17.6471V6.75198L300 6.752V3.752L16.0428 3.75198V6.75198H12.8342V9.75198H9.62567V12.752H6.41711V15.752L3.20856 15.752L3.20856 21.752H6.41711V24.752H9.62567V27.752H12.8342V33.752H9.62567L9.62567 36.752H6.41711V39.752H3.20856L3.20856 45.752H6.41711V48.752H9.62567V51.752H12.8342V54.752H16.0428V57.752L300 57.752Z" fill="#6B91BE"/>
<path d="M17.6471 12.752V9.75198H14.4385V12.752H17.6471Z" fill="#FFD700"/>
<path d="M14.4385 24.752V27.752H17.6471V24.752H14.4385Z" fill="#FFD700"/>
<path d="M17.6471 36.752V33.752H14.4385L14.4385 36.752H17.6471Z" fill="#FFD700"/>
<path d="M14.4385 48.752V51.752H17.6471V48.752H14.4385Z" fill="#FFD700"/>
<path d="M16.0428 6.75198V3.75198L12.8342 3.75198L12.8342 6.75198H16.0428Z" fill="black"/>
<path d="M12.8342 54.752V57.752H16.0428V54.752H12.8342Z" fill="black"/>
<path d="M14.4385 15.752L14.4385 12.752H11.23L11.2299 15.752H14.4385Z" fill="#FFD700"/>
<path d="M11.2299 21.752V24.752H14.4385V21.752H11.2299Z" fill="#FFD700"/>
<path d="M14.4385 39.752V36.752H11.2299V39.752H14.4385Z" fill="#FFD700"/>
<path d="M11.2299 45.752V48.752H14.4385V45.752H11.2299Z" fill="#FFD700"/>
<path d="M12.8342 9.75198V6.75198L9.62567 6.75198L9.62567 9.75198H12.8342Z" fill="black"/>
<path d="M12.8342 33.752V27.752H9.62567V33.752H12.8342Z" fill="black"/>
<path d="M9.62567 51.752L9.62567 54.752H12.8342V51.752H9.62567Z" fill="black"/>
<path d="M11.2299 15.752H8.02139V21.752H11.2299V15.752Z" fill="#FFD700"/>
<path d="M11.2299 39.752H8.02139V45.752H11.2299V39.752Z" fill="#FFD700"/>
<path d="M9.62567 12.752V9.75198H6.41712L6.41711 12.752H9.62567Z" fill="black"/>
<path d="M6.41711 24.752L6.41712 27.752H9.62567V24.752H6.41711Z" fill="black"/>
<path d="M9.62567 36.752L9.62567 33.752H6.41711L6.41711 36.752H9.62567Z" fill="black"/>
<path d="M6.41711 48.752L6.41711 51.752H9.62567V48.752H6.41711Z" fill="black"/>
<path d="M6.41711 15.752V12.752L3.20856 12.752L3.20856 15.752L6.41711 15.752Z" fill="black"/>
<path d="M3.20856 21.752L3.20856 24.752H6.41711V21.752H3.20856Z" fill="black"/>
<path d="M6.41711 39.752V36.752H3.20856L3.20856 39.752H6.41711Z" fill="black"/>
<path d="M3.20856 45.752L3.20856 48.752H6.41711V45.752H3.20856Z" fill="black"/>
<path d="M3.20856 15.752H1.31134e-06L1.04907e-06 21.752H3.20856L3.20856 15.752Z" fill="black"/>
<path d="M3.20856 39.752H2.62268e-07L0 45.752H3.20856L3.20856 39.752Z" fill="black"/>
<path d="M33.845 39.907V45.752H29.96V30.212H39.655V32.137H41.615V37.982H39.655V39.907H33.845ZM33.845 32.137V37.982H37.73V32.137H33.845ZM47.8587 45.752H43.9737V34.097H47.8587V36.022H49.7837V34.097H51.7437V37.982H47.8587V45.752ZM63.7859 45.752H56.0159V43.792H54.0909V36.022H56.0159V34.097H63.7859V36.022H65.7459V43.792H63.7859V45.752ZM61.8609 43.792V36.022H57.9759V43.792H61.8609ZM74.4726 34.097H76.4326V36.022H74.4726V45.752H70.5876V36.022H68.6626V34.097H70.5876V32.137H72.5476V30.212H78.3926V32.137H74.4726V34.097ZM83.8157 45.752H79.9307V34.097H83.8157V45.752ZM79.9307 32.137V30.212H83.8157V32.137H79.9307ZM91.5745 45.752H87.6895V30.212H91.5745V45.752ZM105.143 45.752H97.3733V43.792H95.4483V36.022H97.3733V34.097H105.143V36.022H107.103V37.982H105.143V39.907H101.258V41.867H99.3333V43.792H105.143V41.867H107.103V43.792H105.143V45.752ZM103.218 36.022H99.3333V39.907H101.258V37.982H103.218V36.022Z" fill="white"/>
</svg>
