<svg width="300" height="61" viewBox="0 0 300 61" fill="none" xmlns="http://www.w3.org/2000/svg">
<path d="M300 57.752L16.0428 57.752V60.752L300 60.752V57.752Z" fill="black"/>
<path d="M17.6471 6.75201V9.75201L300 9.75203V6.75203L17.6471 6.75201Z" fill="#FFD700"/>
<path d="M17.6471 9.75201V12.752H14.4385L14.4385 15.752H11.2299V21.752H14.4385V24.752H17.6471V27.752H19.2513V33.752H17.6471V36.752H14.4385V39.752H11.2299V45.752H14.4385V48.752H17.6471V51.752L300 51.752V9.75203L17.6471 9.75201Z" fill="#6B91BE"/>
<path d="M17.6471 51.752V54.752L300 54.752V51.752L17.6471 51.752Z" fill="#FFD700"/>
<path d="M300 3.75203V0.752027L16.0428 0.752014L16.0428 3.75201L300 3.75203Z" fill="black"/>
<path d="M19.2513 27.752H17.6471V33.752H19.2513V27.752Z" fill="#FFD700"/>
<path d="M300 57.752V54.752L17.6471 54.752V51.752H14.4385V48.752H11.2299V45.752H8.02139V39.752H11.2299V36.752H14.4385L14.4385 33.752H17.6471V27.752H14.4385V24.752H11.2299V21.752H8.02139V15.752H11.2299L11.23 12.752H14.4385V9.75201H17.6471V6.75201L300 6.75203V3.75203L16.0428 3.75201V6.75201H12.8342V9.75201H9.62567V12.752H6.41711V15.752L3.20856 15.752L3.20856 21.752H6.41711V24.752H9.62567V27.752H12.8342V33.752H9.62567L9.62567 36.752H6.41711V39.752H3.20856L3.20856 45.752H6.41711V48.752H9.62567V51.752H12.8342V54.752H16.0428V57.752L300 57.752Z" fill="#6B91BE"/>
<path d="M17.6471 12.752V9.75201H14.4385V12.752H17.6471Z" fill="#FFD700"/>
<path d="M14.4385 24.752V27.752H17.6471V24.752H14.4385Z" fill="#FFD700"/>
<path d="M17.6471 36.752V33.752H14.4385L14.4385 36.752H17.6471Z" fill="#FFD700"/>
<path d="M14.4385 48.752V51.752H17.6471V48.752H14.4385Z" fill="#FFD700"/>
<path d="M16.0428 6.75201V3.75201L12.8342 3.75201L12.8342 6.75201H16.0428Z" fill="black"/>
<path d="M12.8342 54.752V57.752H16.0428V54.752H12.8342Z" fill="black"/>
<path d="M14.4385 15.752L14.4385 12.752H11.23L11.2299 15.752H14.4385Z" fill="#FFD700"/>
<path d="M11.2299 21.752V24.752H14.4385V21.752H11.2299Z" fill="#FFD700"/>
<path d="M14.4385 39.752V36.752H11.2299V39.752H14.4385Z" fill="#FFD700"/>
<path d="M11.2299 45.752V48.752H14.4385V45.752H11.2299Z" fill="#FFD700"/>
<path d="M12.8342 9.75201V6.75201L9.62567 6.75201L9.62567 9.75201H12.8342Z" fill="black"/>
<path d="M12.8342 33.752V27.752H9.62567V33.752H12.8342Z" fill="black"/>
<path d="M9.62567 51.752L9.62567 54.752H12.8342V51.752H9.62567Z" fill="black"/>
<path d="M11.2299 15.752H8.02139V21.752H11.2299V15.752Z" fill="#FFD700"/>
<path d="M11.2299 39.752H8.02139V45.752H11.2299V39.752Z" fill="#FFD700"/>
<path d="M9.62567 12.752V9.75201H6.41712L6.41711 12.752H9.62567Z" fill="black"/>
<path d="M6.41711 24.752L6.41712 27.752H9.62567V24.752H6.41711Z" fill="black"/>
<path d="M9.62567 36.752L9.62567 33.752H6.41711L6.41711 36.752H9.62567Z" fill="black"/>
<path d="M6.41711 48.752L6.41711 51.752H9.62567V48.752H6.41711Z" fill="black"/>
<path d="M6.41711 15.752V12.752L3.20856 12.752L3.20856 15.752L6.41711 15.752Z" fill="black"/>
<path d="M3.20856 21.752L3.20856 24.752H6.41711V21.752H3.20856Z" fill="black"/>
<path d="M6.41711 39.752V36.752H3.20856L3.20856 39.752H6.41711Z" fill="black"/>
<path d="M3.20856 45.752L3.20856 48.752H6.41711V45.752H3.20856Z" fill="black"/>
<path d="M3.20856 15.752H1.31134e-06L1.04907e-06 21.752H3.20856L3.20856 15.752Z" fill="black"/>
<path d="M3.20856 39.752H2.62268e-07L0 45.752H3.20856L3.20856 39.752Z" fill="black"/>
<path d="M39.655 45.752H29.96V30.212H39.655V32.137H33.845V36.022H37.73V37.982H33.845V43.792H39.655V45.752ZM41.2163 37.982V34.097H45.1013V37.982H47.0263V41.867H48.9863V34.097H52.8713V37.982H50.9463V41.867H48.9863V45.752H45.1013V41.867H43.1413V37.982H41.2163ZM65.4948 45.752H57.7248V43.792H55.7998V36.022H57.7248V34.097H65.4948V36.022H67.4548V37.982H65.4948V39.907H61.6098V41.867H59.6848V43.792H65.4948V41.867H67.4548V43.792H65.4948V45.752ZM63.5698 36.022H59.6848V39.907H61.6098V37.982H63.5698V36.022ZM74.8264 45.752H70.9414V34.097H74.8264V36.022H76.7514V34.097H80.6364V36.022H82.5964V45.752H78.7114V36.022H76.7514V37.982H74.8264V45.752ZM87.4382 30.212H91.3232V34.097H93.2832V36.022H91.3232V45.752H87.4382V36.022H85.5132V34.097H87.4382V30.212ZM101.659 43.792V45.752H95.8144V43.792H99.7344V41.867H97.7744V39.907H95.8144V36.022H97.7744V34.097H103.619V36.022H99.7344V37.982H101.659V39.907H103.619V43.792H101.659Z" fill="white"/>
</svg>
