<svg width="270" height="68" viewBox="0 0 270 68" fill="none" xmlns="http://www.w3.org/2000/svg">
<g filter="url(#filter0_d_520_13812)">
<path d="M1 3L2.41711 3L3.83422 3L5.25134 3L6.66845 3L8.08556 3L9.50267 3L10.9198 3L12.3369 3L13.754 3L15.1711 3L16.5882 3L18.0053 3L19.4225 3L20.8396 3L22.2567 3L23.6738 3L25.0909 3L26.508 3L27.9251 3L29.3422 3L30.7594 3L32.1765 3L33.5936 3L35.0107 3L36.4278 3L37.8449 3L39.262 3L40.6791 3L42.0963 3L43.5134 3L44.9305 3L46.3476 3L47.7647 3L49.1818 3L50.5989 3L52.016 3L53.4332 3L54.8503 3L56.2674 3L57.6845 3L59.1016 3L60.5187 3L61.9358 3L63.3529 3L64.7701 3L66.1872 3L67.6043 3L69.0214 3L70.4385 3L71.8556 3L73.2727 3L74.6898 3L76.1069 3L77.5241 3L78.9412 3L80.3583 3L81.7754 3L83.1925 3L84.6096 3L86.0267 3L87.4438 3L88.861 3L90.2781 3L91.6952 3L93.1123 3L94.5294 3L95.9465 3L97.3636 3L98.7807 3L100.198 3L101.615 3L103.032 3L104.449 3L105.866 3L107.283 3L108.701 3L110.118 3L111.535 3L112.952 3L114.369 3L115.786 3L117.203 3L118.62 3L120.037 3L121.455 3L122.872 3L124.289 3L125.706 3L127.123 3L128.54 3L129.957 3L131.374 3L132.791 3L134.209 3L135.626 3L137.043 3L138.46 3L139.877 3L141.294 3L142.711 3L144.128 3L145.545 3L146.963 3L148.38 3L149.797 3L151.214 3L152.631 3L154.048 3L155.465 3L156.882 3L158.299 3L159.717 3L161.134 3L162.551 3L163.968 3L165.385 3L166.802 3L168.219 3L169.636 3L171.053 3L172.471 3L173.888 3L175.305 3L176.722 3L178.139 3L179.556 3L180.973 3L182.39 3L183.807 3L185.225 3L186.642 3L188.059 3L189.476 3L190.893 3L192.31 3L193.727 3L195.144 3L196.561 3L197.979 3L199.396 3L200.813 3L202.23 3L203.647 3L205.064 3L206.481 3L207.898 3L209.315 3L210.733 3L212.15 3L213.567 3L214.984 3L216.401 3L217.818 3L219.235 3L220.652 3L222.07 3L223.487 3L224.904 3L226.321 3L227.738 3L229.155 3L230.572 3L231.989 3L233.406 3L234.824 3L236.241 3L237.658 3L239.075 3L240.492 3L241.909 3L243.326 3L244.743 3L246.16 3L247.578 3L248.995 3L250.412 3L251.829 3L251.829 2.9911e-06L250.412 2.97421e-06L248.995 2.95731e-06L247.578 2.94041e-06L246.16 2.92351e-06L244.743 2.90661e-06L243.326 2.88971e-06L241.909 2.87281e-06L240.492 2.85591e-06L239.075 2.83901e-06L237.658 2.82212e-06L236.241 2.80522e-06L234.824 2.78832e-06L233.406 2.77142e-06L231.989 2.75452e-06L230.572 2.73762e-06L229.155 2.72072e-06L227.738 2.70382e-06L226.321 2.68692e-06L224.904 2.67003e-06L223.487 2.65313e-06L222.07 2.63623e-06L220.652 2.61933e-06L219.235 2.60243e-06L217.818 2.58553e-06L216.401 2.56863e-06L214.984 2.55173e-06L213.567 2.53483e-06L212.15 2.51794e-06L210.733 2.50104e-06L209.315 2.48414e-06L207.898 2.46724e-06L206.481 2.45034e-06L205.064 2.43344e-06L203.647 2.41654e-06L202.23 2.39964e-06L200.813 2.38274e-06L199.396 2.36585e-06L197.979 2.34895e-06L196.561 2.33205e-06L195.144 2.31515e-06L193.727 2.29825e-06L192.31 2.28135e-06L190.893 2.26445e-06L189.476 2.24755e-06L188.059 2.23065e-06L186.642 2.21376e-06L185.225 2.19686e-06L183.807 2.17996e-06L182.39 2.16306e-06L180.973 2.14616e-06L179.556 2.12926e-06L178.139 2.11236e-06L176.722 2.09546e-06L175.305 2.07856e-06L173.888 2.06167e-06L172.471 2.04477e-06L171.053 2.02787e-06L169.636 2.01097e-06L168.219 1.99407e-06L166.802 1.97717e-06L165.385 1.96027e-06L163.968 1.94337e-06L162.551 1.92647e-06L161.134 1.90958e-06L159.717 1.89268e-06L158.299 1.87578e-06L156.882 1.85888e-06L155.465 1.84198e-06L154.048 1.82508e-06L152.631 1.80818e-06L151.214 1.79128e-06L149.797 1.77438e-06L148.38 1.75748e-06L146.963 1.74059e-06L145.545 1.72369e-06L144.128 1.70679e-06L142.711 1.68989e-06L141.294 1.67299e-06L139.877 1.65609e-06L138.46 1.63919e-06L137.043 1.62229e-06L135.626 1.60539e-06L134.209 1.5885e-06L132.791 1.5716e-06L131.374 1.5547e-06L129.957 1.5378e-06L128.54 1.5209e-06L127.123 1.504e-06L125.706 1.4871e-06L124.289 1.4702e-06L122.872 1.4533e-06L121.455 1.43641e-06L120.037 1.41951e-06L118.62 1.40261e-06L117.203 1.38571e-06L115.786 1.36881e-06L114.369 1.35191e-06L112.952 1.33501e-06L111.535 1.31811e-06L110.118 1.30121e-06L108.701 1.28432e-06L107.283 1.26742e-06L105.866 1.25052e-06L104.449 1.23362e-06L103.032 1.21672e-06L101.615 1.19982e-06L100.198 1.18292e-06L98.7807 1.16602e-06L97.3636 1.14912e-06L95.9465 1.13223e-06L94.5294 1.11533e-06L93.1123 1.09843e-06L91.6952 1.08153e-06L90.2781 1.06463e-06L88.861 1.04773e-06L87.4438 1.03083e-06L86.0267 1.01393e-06L84.6096 9.97035e-07L83.1925 9.80136e-07L81.7754 9.63237e-07L80.3583 9.46338e-07L78.9412 9.29439e-07L77.5241 9.1254e-07L76.1069 8.95641e-07L74.6898 8.78742e-07L73.2727 8.61844e-07L71.8556 8.44945e-07L70.4385 8.28046e-07L69.0214 8.11147e-07L67.6043 7.94248e-07L66.1872 7.77349e-07L64.7701 7.6045e-07L63.3529 7.43551e-07L61.9358 7.26652e-07L60.5187 7.09754e-07L59.1016 6.92855e-07L57.6845 6.75956e-07L56.2674 6.59057e-07L54.8503 6.42158e-07L53.4332 6.25259e-07L52.016 6.0836e-07L50.5989 5.91461e-07L49.1818 5.74562e-07L47.7647 5.57663e-07L46.3476 5.40765e-07L44.9305 5.23866e-07L43.5134 5.06967e-07L42.0963 4.90068e-07L40.6791 4.73169e-07L39.262 4.5627e-07L37.8449 4.39371e-07L36.4278 4.22472e-07L35.0107 4.05573e-07L33.5936 3.88675e-07L32.1765 3.71776e-07L30.7594 3.54877e-07L29.3422 3.37978e-07L27.9251 3.21079e-07L26.508 3.0418e-07L25.0909 2.87281e-07L23.6738 2.70382e-07L22.2567 2.53483e-07L20.8396 2.36585e-07L19.4225 2.19686e-07L18.0053 2.02787e-07L16.5882 1.85888e-07L15.1711 1.68989e-07L13.754 1.5209e-07L12.3369 1.35191e-07L10.9198 1.18292e-07L9.50267 1.01393e-07L8.08556 8.44945e-08L6.66845 6.75956e-08L5.25134 5.06967e-08L3.83422 3.37978e-08L2.41711 1.68989e-08L1 0L1 3Z" fill="black"/>
<path d="M3.83422 54L5.25134 54L6.66845 54L8.08556 54L9.50267 54L10.9198 54L12.3369 54L13.754 54L15.1711 54L16.5882 54L18.0053 54L19.4225 54L20.8396 54L22.2567 54L23.6738 54L25.0909 54L26.508 54L27.9251 54L29.3422 54L30.7594 54L32.1765 54L33.5936 54L35.0107 54L36.4278 54L37.8449 54L39.262 54L40.6791 54L42.0963 54L43.5134 54L44.9305 54L46.3476 54L47.7647 54L49.1818 54L50.5989 54L52.016 54L53.4332 54L54.8503 54L56.2674 54L57.6845 54L59.1016 54L60.5187 54L61.9358 54L63.3529 54L64.7701 54L66.1872 54L67.6043 54L69.0214 54L70.4385 54L71.8556 54L73.2727 54L74.6898 54L76.1069 54L77.5241 54L78.9412 54L80.3583 54L81.7754 54L83.1925 54L84.6096 54L86.0267 54L87.4438 54L88.861 54L90.2781 54L91.6952 54L93.1123 54L94.5294 54L95.9465 54L97.3636 54L98.7807 54L100.198 54L101.615 54L103.032 54L104.449 54L105.866 54L107.283 54L108.701 54L110.118 54L111.535 54L112.952 54L114.369 54L115.786 54L117.203 54L118.62 54L120.037 54L121.455 54L122.872 54L124.289 54L125.706 54L127.123 54L128.54 54L129.957 54L131.374 54L132.791 54L134.209 54L135.626 54L137.043 54L138.46 54L139.877 54L141.294 54L142.711 54L144.128 54L145.545 54L146.963 54L148.38 54L149.797 54L151.214 54L152.631 54L154.048 54L155.465 54L156.882 54L158.299 54L159.717 54L161.134 54L162.551 54L163.968 54L165.385 54L166.802 54L168.219 54L169.636 54L171.053 54L172.471 54L173.888 54L175.305 54L176.722 54L178.139 54L179.556 54L180.973 54L182.39 54L183.807 54L185.225 54L186.642 54L188.059 54L189.476 54L190.893 54L192.31 54L193.727 54L195.144 54L196.561 54L197.979 54L199.396 54L200.813 54L202.23 54L203.647 54L205.064 54L206.481 54L207.898 54L209.315 54L210.733 54L212.15 54L213.567 54L214.984 54L216.401 54L217.818 54L219.235 54L220.652 54L222.07 54L223.487 54L224.904 54L226.321 54L227.738 54L229.155 54L230.572 54L231.989 54L233.406 54L234.824 54L236.241 54L237.658 54L239.075 54L240.492 54L241.909 54L243.326 54L244.743 54L246.16 54L247.578 54L248.995 54L250.412 54L250.412 51L248.995 51L247.578 51L246.16 51L244.743 51L243.326 51L241.909 51L240.492 51L239.075 51L237.658 51L236.241 51L234.824 51L233.406 51L231.989 51L230.572 51L229.155 51L227.738 51L226.321 51L224.904 51L223.487 51L222.07 51L220.652 51L219.235 51L217.818 51L216.401 51L214.984 51L213.567 51L212.15 51L210.733 51L209.315 51L207.898 51L206.481 51L205.064 51L203.647 51L202.23 51L200.813 51L199.396 51L197.979 51L196.561 51L195.144 51L193.727 51L192.31 51L190.893 51L189.476 51L188.059 51L186.642 51L185.225 51L183.807 51L182.39 51L180.973 51L179.556 51L178.139 51L176.722 51L175.305 51L173.888 51L172.471 51L171.053 51L169.636 51L168.219 51L166.802 51L165.385 51L163.968 51L162.551 51L161.134 51L159.717 51L158.299 51L156.882 51L155.465 51L154.048 51L152.631 51L151.214 51L149.797 51L148.38 51L146.963 51L145.545 51L144.128 51L142.711 51L141.294 51L139.877 51L138.46 51L137.043 51L135.626 51L134.209 51L132.791 51L131.374 51L129.957 51L128.54 51L127.123 51L125.706 51L124.289 51L122.872 51L121.455 51L120.037 51L118.62 51L117.203 51L115.786 51L114.369 51L112.952 51L111.535 51L110.118 51L108.701 51L107.283 51L105.866 51L104.449 51L103.032 51L101.615 51L100.198 51L98.7807 51L97.3636 51L95.9465 51L94.5294 51L93.1123 51L91.6952 51L90.2781 51L88.861 51L87.4438 51L86.0267 51L84.6096 51L83.1925 51L81.7754 51L80.3583 51L78.9412 51L77.5241 51L76.1069 51L74.6898 51L73.2727 51L71.8556 51L70.4385 51L69.0214 51L67.6043 51L66.1872 51L64.7701 51L63.3529 51L61.9358 51L60.5187 51L59.1016 51L57.6845 51L56.2674 51L54.8503 51L53.4332 51L52.016 51L50.5989 51L49.1818 51L47.7647 51L46.3476 51L44.9305 51L43.5134 51L42.0963 51L40.6791 51L39.262 51L37.8449 51L36.4278 51L35.0107 51L33.5936 51L32.1765 51L30.7594 51L29.3422 51L27.9251 51L26.508 51L25.0909 51L23.6738 51L22.2567 51L20.8396 51L19.4225 51L18.0053 51L16.5882 51L15.1711 51L13.754 51L12.3369 51L10.9198 51L9.50267 51L8.08556 51L6.66845 51L5.25134 51L3.83422 51L2.41711 51L1 51L1 54L2.41711 54L3.83422 54Z" fill="#FFD700"/>
<path d="M3.83422 51L5.25134 51L6.66845 51L8.08556 51L9.50267 51L10.9198 51L12.3369 51L13.754 51L15.1711 51L16.5882 51L18.0053 51L19.4225 51L20.8396 51L22.2567 51L23.6738 51L25.0909 51L26.508 51L27.9251 51L29.3422 51L30.7594 51L32.1765 51L33.5936 51L35.0107 51L36.4278 51L37.8449 51L39.262 51L40.6791 51L42.0963 51L43.5134 51L44.9305 51L46.3476 51L47.7647 51L49.1818 51L50.5989 51L52.016 51L53.4332 51L54.8503 51L56.2674 51L57.6845 51L59.1016 51L60.5187 51L61.9358 51L63.3529 51L64.7701 51L66.1872 51L67.6043 51L69.0214 51L70.4385 51L71.8556 51L73.2727 51L74.6898 51L76.107 51L77.5241 51L78.9412 51L80.3583 51L81.7754 51L83.1925 51L84.6096 51L86.0267 51L87.4439 51L88.861 51L90.2781 51L91.6952 51L93.1123 51L94.5294 51L95.9465 51L97.3636 51L98.7808 51L100.198 51L101.615 51L103.032 51L104.449 51L105.866 51L107.283 51L108.701 51L110.118 51L111.535 51L112.952 51L114.369 51L115.786 51L117.203 51L118.62 51L120.037 51L121.455 51L122.872 51L124.289 51L125.706 51L127.123 51L128.54 51L129.957 51L131.374 51L132.791 51L134.209 51L135.626 51L137.043 51L138.46 51L139.877 51L141.294 51L142.711 51L144.128 51L145.545 51L146.963 51L148.38 51L149.797 51L151.214 51L152.631 51L154.048 51L155.465 51L156.882 51L158.299 51L159.717 51L161.134 51L162.551 51L163.968 51L165.385 51L166.802 51L168.219 51L169.636 51L171.053 51L172.471 51L173.888 51L175.305 51L176.722 51L178.139 51L179.556 51L180.973 51L182.39 51L183.807 51L185.225 51L186.642 51L188.059 51L189.476 51L190.893 51L192.31 51L193.727 51L195.144 51L196.562 51L197.979 51L199.396 51L200.813 51L202.23 51L203.647 51L205.064 51L206.481 51L207.898 51L209.316 51L210.733 51L212.15 51L213.567 51L214.984 51L216.401 51L217.818 51L219.235 51L220.652 51L222.07 51L223.487 51L224.904 51L226.321 51L227.738 51L229.155 51L230.572 51L231.989 51L233.406 51L234.824 51L236.241 51L237.658 51L239.075 51L240.492 51L241.909 51L243.326 51L244.743 51L246.16 51L247.578 51L248.995 51L250.412 51L250.412 48L251.829 48L253.246 48L253.246 45L254.663 45L256.08 45L256.08 42L256.08 39L254.663 39L253.246 39L253.246 36L251.829 36L250.412 36L250.412 33L248.995 33L248.995 30L248.995 27L250.412 27L250.412 24L251.829 24L253.246 24L253.246 21L254.663 21L256.08 21L256.08 18L256.08 15L254.663 15L253.246 15L253.246 12L251.829 12L250.412 12L250.412 9.00001L248.995 9.00001L247.578 9.00001L246.16 9.00001L244.743 9.00001L243.326 9.00001L241.909 9.00001L240.492 9.00001L239.075 9.00001L237.658 9.00001L236.241 9.00001L234.824 9.00001L233.406 9.00001L231.989 9.00001L230.572 9.00001L229.155 9.00001L227.738 9.00001L226.321 9.00001L224.904 9.00001L223.487 9.00001L222.07 9.00001L220.652 9.00001L219.235 9.00001L217.818 9.00001L216.401 9.00001L214.984 9.00001L213.567 9.00001L212.15 9.00001L210.733 9.00001L209.316 9.00001L207.898 9.00001L206.481 9.00001L205.064 9.00001L203.647 9.00001L202.23 9.00001L200.813 9.00001L199.396 9.00001L197.979 9.00001L196.562 9.00001L195.144 9.00001L193.727 9.00001L192.31 9.00001L190.893 9.00001L189.476 9.00001L188.059 9.00001L186.642 9.00001L185.225 9.00001L183.807 9.00001L182.39 9.00001L180.973 9.00001L179.556 9.00001L178.139 9.00001L176.722 9.00001L175.305 9.00001L173.888 9.00001L172.471 9.00001L171.053 9.00001L169.636 9.00001L168.219 9.00001L166.802 9.00001L165.385 9.00001L163.968 9.00001L162.551 9.00001L161.134 9.00001L159.717 9.00001L158.299 9.00001L156.882 9.00001L155.465 9.00001L154.048 9.00001L152.631 9.00001L151.214 9.00001L149.797 9.00001L148.38 9.00001L146.963 9.00001L145.545 9.00001L144.128 9.00001L142.711 9.00001L141.294 9.00001L139.877 9.00001L138.46 9.00001L137.043 9.00001L135.626 9.00001L134.209 9.00001L132.791 9.00001L131.374 9.00001L129.957 9.00001L128.54 9.00001L127.123 9.00001L125.706 9.00001L124.289 9.00001L122.872 9.00001L121.455 9.00001L120.037 9.00001L118.62 9.00001L117.203 9.00001L115.786 9.00001L114.369 9.00001L112.952 9.00001L111.535 9.00001L110.118 9.00001L108.701 9.00001L107.283 9.00001L105.866 9.00001L104.449 9.00001L103.032 9.00001L101.615 9.00001L100.198 9L98.7808 9L97.3636 9L95.9465 9L94.5294 9L93.1123 9L91.6952 9L90.2781 9L88.861 9L87.4439 9L86.0267 9L84.6096 9L83.1925 9L81.7754 9L80.3583 9L78.9412 9L77.5241 9L76.107 9L74.6898 9L73.2727 9L71.8556 9L70.4385 9L69.0214 9L67.6043 9L66.1872 9L64.7701 9L63.3529 9L61.9358 9L60.5187 9L59.1016 9L57.6845 9L56.2674 9L54.8503 9L53.4332 9L52.016 9L50.5989 9L49.1818 9L47.7647 9L46.3476 9L44.9305 9L43.5134 9L42.0963 9L40.6791 9L39.262 9L37.8449 9L36.4278 9L35.0107 9L33.5936 9L32.1765 9L30.7594 9L29.3422 9L27.9251 9L26.508 9L25.0909 9L23.6738 9L22.2567 9L20.8396 9L19.4225 9L18.0053 9L16.5882 9L15.1711 9L13.754 9L12.3369 9L10.9198 9L9.50267 9L8.08556 9L6.66845 9L5.25134 9L3.83423 9L2.41711 9L1 9L1 12L1 15L1 18L1 21L1 24L1 27L1 30L1 33L1 36L1 39L1 42L1 45L1 48L1 51L2.41711 51L3.83422 51Z" fill="#6BBE95"/>
<path d="M3.83422 9L5.25134 9L6.66845 9L8.08556 9L9.50267 9L10.9198 9L12.3369 9L13.754 9L15.1711 9L16.5882 9L18.0053 9L19.4225 9L20.8396 9L22.2567 9L23.6738 9L25.0909 9L26.508 9L27.9251 9L29.3422 9L30.7594 9L32.1765 9L33.5936 9L35.0107 9L36.4278 9L37.8449 9L39.262 9L40.6791 9L42.0963 9L43.5134 9L44.9305 9L46.3476 9L47.7647 9L49.1818 9L50.5989 9L52.016 9L53.4332 9L54.8503 9L56.2674 9L57.6845 9L59.1016 9L60.5187 9L61.9358 9L63.3529 9L64.7701 9L66.1872 9L67.6043 9L69.0214 9L70.4385 9L71.8556 9L73.2727 9L74.6898 9L76.1069 9L77.5241 9L78.9412 9L80.3583 9L81.7754 9L83.1925 9L84.6096 9L86.0267 9L87.4438 9L88.861 9L90.2781 9L91.6952 9L93.1123 9L94.5294 9L95.9465 9L97.3636 9L98.7807 9L100.198 9L101.615 9L103.032 9L104.449 9L105.866 9L107.283 9L108.701 9L110.118 9L111.535 9L112.952 9L114.369 9L115.786 9L117.203 9L118.62 9L120.037 9L121.455 9L122.872 9L124.289 9L125.706 9L127.123 9L128.54 9L129.957 9L131.374 9L132.791 9L134.209 9L135.626 9L137.043 9L138.46 9L139.877 9L141.294 9L142.711 9L144.128 9L145.545 9L146.963 9L148.38 9L149.797 9L151.214 9L152.631 9L154.048 9L155.465 9L156.882 9L158.299 9L159.717 9L161.134 9L162.551 9L163.968 9L165.385 9L166.802 9L168.219 9L169.636 9L171.053 9L172.471 9L173.888 9L175.305 9L176.722 9L178.139 9L179.556 9L180.973 9L182.39 9L183.807 9L185.225 9L186.642 9L188.059 9L189.476 9L190.893 9L192.31 9L193.727 9L195.144 9L196.561 9L197.979 9L199.396 9L200.813 9L202.23 9L203.647 9L205.064 9L206.481 9L207.898 9L209.315 9L210.733 9L212.15 9L213.567 9L214.984 9L216.401 9L217.818 9L219.235 9L220.652 9L222.07 9L223.487 9L224.904 9L226.321 9L227.738 9L229.155 9L230.572 9L231.989 9L233.406 9L234.824 9L236.241 9L237.658 9L239.075 9L240.492 9L241.909 9L243.326 9L244.743 9L246.16 9L247.578 9L248.995 9L250.412 9L250.412 6L248.995 6L247.578 6L246.16 6L244.743 6L243.326 6L241.909 6L240.492 6L239.075 6L237.658 6L236.241 6L234.824 6L233.406 6L231.989 6L230.572 6L229.155 6L227.738 6L226.321 6L224.904 6L223.487 6L222.07 6L220.652 6L219.235 6L217.818 6L216.401 6L214.984 6L213.567 6L212.15 6L210.733 6L209.315 6L207.898 6L206.481 6L205.064 6L203.647 6L202.23 6L200.813 6L199.396 6L197.979 6L196.561 6L195.144 6L193.727 6L192.31 6L190.893 6L189.476 6L188.059 6L186.642 6L185.225 6L183.807 6L182.39 6L180.973 6L179.556 6L178.139 6L176.722 6L175.305 6L173.888 6L172.471 6L171.053 6L169.636 6L168.219 6L166.802 6L165.385 6L163.968 6L162.551 6L161.134 6L159.717 6L158.299 6L156.882 6L155.465 6L154.048 6L152.631 6L151.214 6L149.797 6L148.38 6L146.963 6L145.545 6L144.128 6L142.711 6L141.294 6L139.877 6L138.46 6L137.043 6L135.626 6L134.209 6L132.791 6L131.374 6L129.957 6L128.54 6L127.123 6L125.706 6L124.289 6L122.872 6L121.455 6L120.037 6L118.62 6L117.203 6L115.786 6L114.369 6L112.952 6L111.535 6L110.118 6L108.701 6L107.283 6L105.866 6L104.449 6L103.032 6L101.615 6L100.198 6L98.7807 6L97.3636 6L95.9465 6L94.5294 6L93.1123 6L91.6952 6L90.2781 6L88.861 6L87.4438 6L86.0267 6L84.6096 6L83.1925 6L81.7754 6L80.3583 6L78.9412 6L77.5241 6L76.1069 6L74.6898 6L73.2727 6L71.8556 6L70.4385 6L69.0214 6L67.6043 6L66.1872 6L64.7701 6L63.3529 6L61.9358 6L60.5187 6L59.1016 6L57.6845 6L56.2674 6L54.8503 6L53.4332 6L52.016 6L50.5989 6L49.1818 6L47.7647 6L46.3476 6L44.9305 6L43.5134 6L42.0963 6L40.6791 6L39.262 6L37.8449 6L36.4278 6L35.0107 6L33.5936 6L32.1765 6L30.7594 6L29.3422 6L27.9251 6L26.508 6L25.0909 6L23.6738 6L22.2567 6L20.8396 6L19.4225 6L18.0053 6L16.5882 6L15.1711 6L13.754 6L12.3369 6L10.9198 6L9.50267 6L8.08556 6L6.66845 6L5.25134 6L3.83422 6L2.41711 6L1 6L1 9L2.41711 9L3.83422 9Z" fill="#FFD700"/>
<path d="M248.995 57L247.578 57L246.16 57L244.743 57L243.326 57L241.909 57L240.492 57L239.075 57L237.658 57L236.241 57L234.824 57L233.406 57L231.989 57L230.572 57L229.155 57L227.738 57L226.321 57L224.904 57L223.487 57L222.07 57L220.652 57L219.235 57L217.818 57L216.401 57L214.984 57L213.567 57L212.15 57L210.733 57L209.315 57L207.898 57L206.481 57L205.064 57L203.647 57L202.23 57L200.813 57L199.396 57L197.979 57L196.561 57L195.144 57L193.727 57L192.31 57L190.893 57L189.476 57L188.059 57L186.642 57L185.225 57L183.807 57L182.39 57L180.973 57L179.556 57L178.139 57L176.722 57L175.305 57L173.888 57L172.471 57L171.053 57L169.636 57L168.219 57L166.802 57L165.385 57L163.968 57L162.551 57L161.134 57L159.717 57L158.299 57L156.882 57L155.465 57L154.048 57L152.631 57L151.214 57L149.797 57L148.38 57L146.963 57L145.545 57L144.128 57L142.711 57L141.294 57L139.877 57L138.46 57L137.043 57L135.626 57L134.209 57L132.791 57L131.374 57L129.957 57L128.54 57L127.123 57L125.706 57L124.289 57L122.872 57L121.455 57L120.037 57L118.62 57L117.203 57L115.786 57L114.369 57L112.952 57L111.535 57L110.118 57L108.701 57L107.283 57L105.866 57L104.449 57L103.032 57L101.615 57L100.198 57L98.7807 57L97.3636 57L95.9465 57L94.5294 57L93.1123 57L91.6952 57L90.2781 57L88.861 57L87.4438 57L86.0267 57L84.6096 57L83.1925 57L81.7754 57L80.3583 57L78.9412 57L77.5241 57L76.1069 57L74.6898 57L73.2727 57L71.8556 57L70.4385 57L69.0214 57L67.6043 57L66.1872 57L64.7701 57L63.3529 57L61.9358 57L60.5187 57L59.1016 57L57.6845 57L56.2674 57L54.8503 57L53.4332 57L52.016 57L50.5989 57L49.1818 57L47.7647 57L46.3476 57L44.9305 57L43.5134 57L42.0963 57L40.6791 57L39.262 57L37.8449 57L36.4278 57L35.0107 57L33.5936 57L32.1765 57L30.7594 57L29.3422 57L27.9251 57L26.508 57L25.0909 57L23.6738 57L22.2567 57L20.8396 57L19.4225 57L18.0053 57L16.5882 57L15.1711 57L13.754 57L12.3369 57L10.9198 57L9.50267 57L8.08556 57L6.66845 57L5.25134 57L3.83422 57L2.41711 57L1 57L1 60L2.41711 60L3.83422 60L5.25134 60L6.66845 60L8.08556 60L9.50267 60L10.9198 60L12.3369 60L13.754 60L15.1711 60L16.5882 60L18.0053 60L19.4225 60L20.8396 60L22.2567 60L23.6738 60L25.0909 60L26.508 60L27.9251 60L29.3422 60L30.7594 60L32.1765 60L33.5936 60L35.0107 60L36.4278 60L37.8449 60L39.262 60L40.6791 60L42.0963 60L43.5134 60L44.9305 60L46.3476 60L47.7647 60L49.1818 60L50.5989 60L52.016 60L53.4332 60L54.8503 60L56.2674 60L57.6845 60L59.1016 60L60.5187 60L61.9358 60L63.3529 60L64.7701 60L66.1872 60L67.6043 60L69.0214 60L70.4385 60L71.8556 60L73.2727 60L74.6898 60L76.1069 60L77.5241 60L78.9412 60L80.3583 60L81.7754 60L83.1925 60L84.6096 60L86.0267 60L87.4438 60L88.861 60L90.2781 60L91.6952 60L93.1123 60L94.5294 60L95.9465 60L97.3636 60L98.7807 60L100.198 60L101.615 60L103.032 60L104.449 60L105.866 60L107.283 60L108.701 60L110.118 60L111.535 60L112.952 60L114.369 60L115.786 60L117.203 60L118.62 60L120.037 60L121.455 60L122.872 60L124.289 60L125.706 60L127.123 60L128.54 60L129.957 60L131.374 60L132.791 60L134.209 60L135.626 60L137.043 60L138.46 60L139.877 60L141.294 60L142.711 60L144.128 60L145.545 60L146.963 60L148.38 60L149.797 60L151.214 60L152.631 60L154.048 60L155.465 60L156.882 60L158.299 60L159.717 60L161.134 60L162.551 60L163.968 60L165.385 60L166.802 60L168.219 60L169.636 60L171.053 60L172.471 60L173.888 60L175.305 60L176.722 60L178.139 60L179.556 60L180.973 60L182.39 60L183.807 60L185.225 60L186.642 60L188.059 60L189.476 60L190.893 60L192.31 60L193.727 60L195.144 60L196.561 60L197.979 60L199.396 60L200.813 60L202.23 60L203.647 60L205.064 60L206.481 60L207.898 60L209.315 60L210.733 60L212.15 60L213.567 60L214.984 60L216.401 60L217.818 60L219.235 60L220.652 60L222.07 60L223.487 60L224.904 60L226.321 60L227.738 60L229.155 60L230.572 60L231.989 60L233.406 60L234.824 60L236.241 60L237.658 60L239.075 60L240.492 60L241.909 60L243.326 60L244.743 60L246.16 60L247.578 60L248.995 60L250.412 60L251.829 60L251.829 57L250.412 57L248.995 57Z" fill="black"/>
<path d="M248.995 30L248.995 33L250.412 33L250.412 30L250.412 27L248.995 27L248.995 30Z" fill="#FFD700"/>
<path d="M248.995 3.00001L247.578 3.00001L246.16 3.00001L244.743 3.00001L243.326 3.00001L241.909 3.00001L240.492 3.00001L239.075 3.00001L237.658 3.00001L236.241 3.00001L234.824 3.00001L233.406 3.00001L231.989 3.00001L230.572 3.00001L229.155 3.00001L227.738 3.00001L226.321 3.00001L224.904 3.00001L223.487 3.00001L222.07 3.00001L220.652 3.00001L219.235 3.00001L217.818 3.00001L216.401 3.00001L214.984 3.00001L213.567 3.00001L212.15 3.00001L210.733 3.00001L209.315 3.00001L207.898 3.00001L206.481 3.00001L205.064 3.00001L203.647 3.00001L202.23 3.00001L200.813 3.00001L199.396 3.00001L197.979 3.00001L196.561 3.00001L195.144 3.00001L193.727 3.00001L192.31 3.00001L190.893 3.00001L189.476 3.00001L188.059 3.00001L186.642 3.00001L185.225 3.00001L183.807 3.00001L182.39 3.00001L180.973 3.00001L179.556 3.00001L178.139 3.00001L176.722 3.00001L175.305 3.00001L173.888 3.00001L172.471 3.00001L171.053 3.00001L169.636 3.00001L168.219 3.00001L166.802 3.00001L165.385 3.00001L163.968 3.00001L162.551 3.00001L161.134 3.00001L159.717 3.00001L158.299 3.00001L156.882 3.00001L155.465 3.00001L154.048 3.00001L152.631 3.00001L151.214 3.00001L149.797 3.00001L148.38 3.00001L146.963 3.00001L145.545 3.00001L144.128 3.00001L142.711 3.00001L141.294 3.00001L139.877 3.00001L138.46 3.00001L137.043 3.00001L135.626 3.00001L134.209 3.00001L132.791 3.00001L131.374 3.00001L129.957 3.00001L128.54 3.00001L127.123 3.00001L125.706 3.00001L124.289 3.00001L122.872 3.00001L121.455 3.00001L120.037 3.00001L118.62 3.00001L117.203 3.00001L115.786 3.00001L114.369 3.00001L112.952 3.00001L111.535 3.00001L110.118 3.00001L108.701 3.00001L107.283 3.00001L105.866 3.00001L104.449 3.00001L103.032 3.00001L101.615 3.00001L100.198 3L98.7807 3L97.3636 3L95.9465 3L94.5294 3L93.1123 3L91.6952 3L90.2781 3L88.861 3L87.4438 3L86.0267 3L84.6096 3L83.1925 3L81.7754 3L80.3583 3L78.9412 3L77.5241 3L76.1069 3L74.6898 3L73.2727 3L71.8556 3L70.4385 3L69.0214 3L67.6043 3L66.1872 3L64.7701 3L63.3529 3L61.9358 3L60.5187 3L59.1016 3L57.6845 3L56.2674 3L54.8503 3L53.4332 3L52.016 3L50.5989 3L49.1818 3L47.7647 3L46.3476 3L44.9305 3L43.5134 3L42.0963 3L40.6791 3L39.262 3L37.8449 3L36.4278 3L35.0107 3L33.5936 3L32.1765 3L30.7594 3L29.3422 3L27.9251 3L26.508 3L25.0909 3L23.6738 3L22.2567 3L20.8396 3L19.4225 3L18.0053 3L16.5882 3L15.1711 3L13.754 3L12.3369 3L10.9198 3L9.50267 3L8.08556 3L6.66845 3L5.25134 3L3.83423 3L2.41711 3L1 3L1 6L2.41711 6L3.83423 6L5.25134 6L6.66845 6L8.08556 6L9.50267 6L10.9198 6L12.3369 6L13.754 6L15.1711 6L16.5882 6L18.0053 6L19.4225 6L20.8396 6L22.2567 6L23.6738 6L25.0909 6L26.508 6L27.9251 6L29.3422 6L30.7594 6L32.1765 6L33.5936 6L35.0107 6L36.4278 6L37.8449 6L39.262 6L40.6791 6L42.0963 6L43.5134 6L44.9305 6L46.3476 6L47.7647 6L49.1818 6L50.5989 6L52.016 6L53.4332 6L54.8503 6L56.2674 6L57.6845 6L59.1016 6L60.5187 6L61.9358 6L63.3529 6L64.7701 6L66.1872 6L67.6043 6L69.0214 6L70.4385 6L71.8556 6L73.2727 6L74.6898 6L76.1069 6L77.5241 6L78.9412 6L80.3583 6L81.7754 6L83.1925 6L84.6096 6L86.0267 6L87.4438 6L88.861 6L90.2781 6L91.6952 6L93.1123 6L94.5294 6L95.9465 6L97.3636 6L98.7807 6L100.198 6L101.615 6.00001L103.032 6.00001L104.449 6.00001L105.866 6.00001L107.283 6.00001L108.701 6.00001L110.118 6.00001L111.535 6.00001L112.952 6.00001L114.369 6.00001L115.786 6.00001L117.203 6.00001L118.62 6.00001L120.037 6.00001L121.455 6.00001L122.872 6.00001L124.289 6.00001L125.706 6.00001L127.123 6.00001L128.54 6.00001L129.957 6.00001L131.374 6.00001L132.791 6.00001L134.209 6.00001L135.626 6.00001L137.043 6.00001L138.46 6.00001L139.877 6.00001L141.294 6.00001L142.711 6.00001L144.128 6.00001L145.545 6.00001L146.963 6.00001L148.38 6.00001L149.797 6.00001L151.214 6.00001L152.631 6.00001L154.048 6.00001L155.465 6.00001L156.882 6.00001L158.299 6.00001L159.717 6.00001L161.134 6.00001L162.551 6.00001L163.968 6.00001L165.385 6.00001L166.802 6.00001L168.219 6.00001L169.636 6.00001L171.053 6.00001L172.471 6.00001L173.888 6.00001L175.305 6.00001L176.722 6.00001L178.139 6.00001L179.556 6.00001L180.973 6.00001L182.39 6.00001L183.807 6.00001L185.225 6.00001L186.642 6.00001L188.059 6.00001L189.476 6.00001L190.893 6.00001L192.31 6.00001L193.727 6.00001L195.144 6.00001L196.561 6.00001L197.979 6.00001L199.396 6.00001L200.813 6.00001L202.23 6.00001L203.647 6.00001L205.064 6.00001L206.481 6.00001L207.898 6.00001L209.315 6.00001L210.733 6.00001L212.15 6.00001L213.567 6.00001L214.984 6.00001L216.401 6.00001L217.818 6.00001L219.235 6.00001L220.652 6.00001L222.07 6.00001L223.487 6.00001L224.904 6.00001L226.321 6.00001L227.738 6.00001L229.155 6.00001L230.572 6.00001L231.989 6.00001L233.406 6.00001L234.824 6.00001L236.241 6.00001L237.658 6.00001L239.075 6.00001L240.492 6.00001L241.909 6.00001L243.326 6.00001L244.743 6.00001L246.16 6.00001L247.578 6.00001L248.995 6.00001L250.412 6.00001L250.412 9.00001L251.829 9.00001L253.246 9.00001L253.246 12L254.663 12L256.08 12L256.08 15L257.497 15L258.914 15L258.914 18L258.914 21L257.497 21L256.08 21L256.08 24L254.663 24L253.246 24L253.246 27L251.829 27L250.412 27L250.412 30L250.412 33L251.829 33L253.246 33L253.246 36L254.663 36L256.08 36L256.08 39L257.497 39L258.914 39L258.914 42L258.914 45L257.497 45L256.08 45L256.08 48L254.663 48L253.246 48L253.246 51L251.829 51L250.412 51L250.412 54L248.995 54L247.578 54L246.16 54L244.743 54L243.326 54L241.909 54L240.492 54L239.075 54L237.658 54L236.241 54L234.824 54L233.406 54L231.989 54L230.572 54L229.155 54L227.738 54L226.321 54L224.904 54L223.487 54L222.07 54L220.652 54L219.235 54L217.818 54L216.401 54L214.984 54L213.567 54L212.15 54L210.733 54L209.315 54L207.898 54L206.481 54L205.064 54L203.647 54L202.23 54L200.813 54L199.396 54L197.979 54L196.561 54L195.144 54L193.727 54L192.31 54L190.893 54L189.476 54L188.059 54L186.642 54L185.225 54L183.807 54L182.39 54L180.973 54L179.556 54L178.139 54L176.722 54L175.305 54L173.888 54L172.471 54L171.053 54L169.636 54L168.219 54L166.802 54L165.385 54L163.968 54L162.551 54L161.134 54L159.717 54L158.299 54L156.882 54L155.465 54L154.048 54L152.631 54L151.214 54L149.797 54L148.38 54L146.963 54L145.545 54L144.128 54L142.711 54L141.294 54L139.877 54L138.46 54L137.043 54L135.626 54L134.209 54L132.791 54L131.374 54L129.957 54L128.54 54L127.123 54L125.706 54L124.289 54L122.872 54L121.455 54L120.037 54L118.62 54L117.203 54L115.786 54L114.369 54L112.952 54L111.535 54L110.118 54L108.701 54L107.283 54L105.866 54L104.449 54L103.032 54L101.615 54L100.198 54L98.7807 54L97.3636 54L95.9465 54L94.5294 54L93.1123 54L91.6952 54L90.2781 54L88.861 54L87.4438 54L86.0267 54L84.6096 54L83.1925 54L81.7754 54L80.3583 54L78.9412 54L77.5241 54L76.1069 54L74.6898 54L73.2727 54L71.8556 54L70.4385 54L69.0214 54L67.6043 54L66.1872 54L64.7701 54L63.3529 54L61.9358 54L60.5187 54L59.1016 54L57.6845 54L56.2674 54L54.8503 54L53.4332 54L52.016 54L50.5989 54L49.1818 54L47.7647 54L46.3476 54L44.9305 54L43.5134 54L42.0963 54L40.6791 54L39.262 54L37.8449 54L36.4278 54L35.0107 54L33.5936 54L32.1765 54L30.7594 54L29.3422 54L27.9251 54L26.508 54L25.0909 54L23.6738 54L22.2567 54L20.8396 54L19.4225 54L18.0053 54L16.5882 54L15.1711 54L13.754 54L12.3369 54L10.9198 54L9.50267 54L8.08556 54L6.66845 54L5.25134 54L3.83422 54L2.41711 54L1 54L1 57L2.41711 57L3.83422 57L5.25134 57L6.66845 57L8.08556 57L9.50267 57L10.9198 57L12.3369 57L13.754 57L15.1711 57L16.5882 57L18.0053 57L19.4225 57L20.8396 57L22.2567 57L23.6738 57L25.0909 57L26.508 57L27.9251 57L29.3422 57L30.7594 57L32.1765 57L33.5936 57L35.0107 57L36.4278 57L37.8449 57L39.262 57L40.6791 57L42.0963 57L43.5134 57L44.9305 57L46.3476 57L47.7647 57L49.1818 57L50.5989 57L52.016 57L53.4332 57L54.8503 57L56.2674 57L57.6845 57L59.1016 57L60.5187 57L61.9358 57L63.3529 57L64.7701 57L66.1872 57L67.6043 57L69.0214 57L70.4385 57L71.8556 57L73.2727 57L74.6898 57L76.1069 57L77.5241 57L78.9412 57L80.3583 57L81.7754 57L83.1925 57L84.6096 57L86.0267 57L87.4438 57L88.861 57L90.2781 57L91.6952 57L93.1123 57L94.5294 57L95.9465 57L97.3636 57L98.7807 57L100.198 57L101.615 57L103.032 57L104.449 57L105.866 57L107.283 57L108.701 57L110.118 57L111.535 57L112.952 57L114.369 57L115.786 57L117.203 57L118.62 57L120.037 57L121.455 57L122.872 57L124.289 57L125.706 57L127.123 57L128.54 57L129.957 57L131.374 57L132.791 57L134.209 57L135.626 57L137.043 57L138.46 57L139.877 57L141.294 57L142.711 57L144.128 57L145.545 57L146.963 57L148.38 57L149.797 57L151.214 57L152.631 57L154.048 57L155.465 57L156.882 57L158.299 57L159.717 57L161.134 57L162.551 57L163.968 57L165.385 57L166.802 57L168.219 57L169.636 57L171.053 57L172.471 57L173.888 57L175.305 57L176.722 57L178.139 57L179.556 57L180.973 57L182.39 57L183.807 57L185.225 57L186.642 57L188.059 57L189.476 57L190.893 57L192.31 57L193.727 57L195.144 57L196.561 57L197.979 57L199.396 57L200.813 57L202.23 57L203.647 57L205.064 57L206.481 57L207.898 57L209.315 57L210.733 57L212.15 57L213.567 57L214.984 57L216.401 57L217.818 57L219.235 57L220.652 57L222.07 57L223.487 57L224.904 57L226.321 57L227.738 57L229.155 57L230.572 57L231.989 57L233.406 57L234.824 57L236.241 57L237.658 57L239.075 57L240.492 57L241.909 57L243.326 57L244.743 57L246.16 57L247.578 57L248.995 57L250.412 57L251.829 57L251.829 54L253.246 54L254.663 54L254.663 51L256.08 51L257.497 51L257.497 48L258.914 48L260.332 48L260.332 45L261.749 45L263.166 45L263.166 42L263.166 39L261.749 39L260.332 39L260.332 36L258.914 36L257.497 36L257.497 33L256.08 33L254.663 33L254.663 30L254.663 27L256.08 27L257.497 27L257.497 24L258.914 24L260.332 24L260.332 21L261.749 21L263.166 21L263.166 18L263.166 15L261.749 15L260.332 15L260.332 12L258.914 12L257.497 12L257.497 9.00001L256.08 9.00001L254.663 9.00001L254.663 6.00001L253.246 6.00001L251.829 6.00001L251.829 3.00001L250.412 3.00001L248.995 3.00001Z" fill="#6BBE95"/>
<path d="M250.412 48L250.412 51L251.829 51L253.246 51L253.246 48L251.829 48L250.412 48Z" fill="#FFD700"/>
<path d="M251.829 36L253.246 36L253.246 33L251.829 33L250.412 33L250.412 36L251.829 36Z" fill="#FFD700"/>
<path d="M250.412 24L250.412 27L251.829 27L253.246 27L253.246 24L251.829 24L250.412 24Z" fill="#FFD700"/>
<path d="M251.829 12L253.246 12L253.246 9.00001L251.829 9.00001L250.412 9.00001L250.412 12L251.829 12Z" fill="#FFD700"/>
<path d="M251.829 54L251.829 57L253.246 57L254.663 57L254.663 54L253.246 54L251.829 54Z" fill="black"/>
<path d="M253.246 6.00001L254.663 6.00001L254.663 3.00001L253.246 3.00001L251.829 3.00001L251.829 6.00001L253.246 6.00001Z" fill="black"/>
<path d="M253.246 45L253.246 48L254.663 48L256.08 48L256.08 45L254.663 45L253.246 45Z" fill="#FFD700"/>
<path d="M254.663 39L256.08 39L256.08 36L254.663 36L253.246 36L253.246 39L254.663 39Z" fill="#FFD700"/>
<path d="M253.246 21L253.246 24L254.663 24L256.08 24L256.08 21L254.663 21L253.246 21Z" fill="#FFD700"/>
<path d="M254.663 15L256.08 15L256.08 12L254.663 12L253.246 12L253.246 15L254.663 15Z" fill="#FFD700"/>
<path d="M254.663 51L254.663 54L256.08 54L257.497 54L257.497 51L256.08 51L254.663 51Z" fill="black"/>
<path d="M254.663 27L254.663 30L254.663 33L256.08 33L257.497 33L257.497 30L257.497 27L256.08 27L254.663 27Z" fill="black"/>
<path d="M256.08 9.00001L257.497 9.00001L257.497 6.00001L256.08 6.00001L254.663 6.00001L254.663 9.00001L256.08 9.00001Z" fill="black"/>
<path d="M256.08 45L257.497 45L258.914 45L258.914 42L258.914 39L257.497 39L256.08 39L256.08 42L256.08 45Z" fill="#FFD700"/>
<path d="M256.08 21L257.497 21L258.914 21L258.914 18L258.914 15L257.497 15L256.08 15L256.08 18L256.08 21Z" fill="#FFD700"/>
<path d="M257.497 48L257.497 51L258.914 51L260.331 51L260.331 48L258.914 48L257.497 48Z" fill="black"/>
<path d="M258.914 36L260.331 36L260.331 33L258.914 33L257.497 33L257.497 36L258.914 36Z" fill="black"/>
<path d="M257.497 24L257.497 27L258.914 27L260.331 27L260.331 24L258.914 24L257.497 24Z" fill="black"/>
<path d="M258.914 12L260.331 12L260.331 9.00001L258.914 9.00001L257.497 9.00001L257.497 12L258.914 12Z" fill="black"/>
<path d="M260.332 45L260.332 48L261.749 48L263.166 48L263.166 45L261.749 45L260.332 45Z" fill="black"/>
<path d="M261.749 39L263.166 39L263.166 36L261.749 36L260.332 36L260.332 39L261.749 39Z" fill="black"/>
<path d="M260.332 21L260.332 24L261.749 24L263.166 24L263.166 21L261.749 21L260.332 21Z" fill="black"/>
<path d="M261.749 15L263.166 15L263.166 12L261.749 12L260.332 12L260.332 15L261.749 15Z" fill="black"/>
<path d="M263.166 45L264.583 45L266 45L266 42L266 39L264.583 39L263.166 39L263.166 42L263.166 45Z" fill="black"/>
<path d="M263.166 21L264.583 21L266 21L266 18L266 15L264.583 15L263.166 15L263.166 18L263.166 21Z" fill="black"/>
<path d="M21.957 38.115L21.957 42L20.032 42L20.032 36.155L21.957 36.155L21.957 32.27L23.917 32.27L23.917 26.46L27.802 26.46L27.802 30.345L29.762 30.345L29.762 36.155L31.687 36.155L31.687 42L27.802 42L27.802 38.115L21.957 38.115ZM23.917 36.155L25.877 36.155L25.877 32.27L23.917 32.27L23.917 36.155ZM42.7866 30.345L42.7866 26.46L46.6716 26.46L46.6716 42L36.9416 42L36.9416 40.04L35.0166 40.04L35.0166 32.27L36.9416 32.27L36.9416 30.345L42.7866 30.345ZM42.7866 40.04L42.7866 32.27L38.9016 32.27L38.9016 40.04L42.7866 40.04ZM58.3384 30.345L58.3384 26.46L62.2234 26.46L62.2234 42L52.4934 42L52.4934 40.04L50.5684 40.04L50.5684 32.27L52.4934 32.27L52.4934 30.345L58.3384 30.345ZM58.3384 40.04L58.3384 32.27L54.4534 32.27L54.4534 40.04L58.3384 40.04ZM85.5339 34.23L85.5339 42L83.5739 42L83.5739 40.04L81.6489 40.04L81.6489 42L75.8039 42L75.8039 40.04L73.8789 40.04L73.8789 28.385L75.8039 28.385L75.8039 26.46L85.5339 26.46L85.5339 30.345L83.5739 30.345L83.5739 28.385L77.7639 28.385L77.7639 40.04L81.6489 40.04L81.6489 36.155L79.6889 36.155L79.6889 34.23L85.5339 34.23ZM93.3157 42L89.4307 42L89.4307 30.345L93.3157 30.345L93.3157 32.27L95.2407 32.27L95.2407 30.345L97.2007 30.345L97.2007 34.23L93.3157 34.23L93.3157 42ZM109.243 42L101.473 42L101.473 40.04L99.5479 40.04L99.5479 32.27L101.473 32.27L101.473 30.345L109.243 30.345L109.243 32.27L111.203 32.27L111.203 40.04L109.243 40.04L109.243 42ZM107.318 40.04L107.318 32.27L103.433 32.27L103.433 40.04L107.318 40.04ZM122.87 30.345L126.755 30.345L126.755 40.04L124.795 40.04L124.795 42L117.025 42L117.025 40.04L115.1 40.04L115.1 30.345L118.985 30.345L118.985 40.04L122.87 40.04L122.87 30.345ZM134.536 42L134.536 45.885L130.651 45.885L130.651 30.345L140.346 30.345L140.346 32.27L142.306 32.27L142.306 40.04L140.346 40.04L140.346 42L134.536 42ZM134.536 32.27L134.536 40.04L138.421 40.04L138.421 32.27L134.536 32.27Z" fill="white"/>
</g>
<g clip-path="url(#clip0_520_13812)">
<path d="M235 29H233H231H229V27V25V23V21H227H225V23V25V27V29H223H221H219H217V31V33H219H221H223H225V35V37V39V41H227H229V39V37V35V33H231H233H235H237V31V29H235Z" fill="white"/>
</g>
<defs>
<filter id="filter0_d_520_13812" x="-3" y="0" width="273" height="68" filterUnits="userSpaceOnUse" color-interpolation-filters="sRGB">
<feFlood flood-opacity="0" result="BackgroundImageFix"/>
<feColorMatrix in="SourceAlpha" type="matrix" values="0 0 0 0 0 0 0 0 0 0 0 0 0 0 0 0 0 0 127 0" result="hardAlpha"/>
<feOffset dy="4"/>
<feGaussianBlur stdDeviation="2"/>
<feComposite in2="hardAlpha" operator="out"/>
<feColorMatrix type="matrix" values="0 0 0 0 0 0 0 0 0 0 0 0 0 0 0 0 0 0 0.25 0"/>
<feBlend mode="normal" in2="BackgroundImageFix" result="effect1_dropShadow_520_13812"/>
<feBlend mode="normal" in="SourceGraphic" in2="effect1_dropShadow_520_13812" result="shape"/>
</filter>
<clipPath id="clip0_520_13812">
<rect width="20" height="20" fill="white" transform="translate(217 21)"/>
</clipPath>
</defs>
</svg>
