<svg width="269" height="68" viewBox="0 0 269 68" fill="none" xmlns="http://www.w3.org/2000/svg">
<g filter="url(#filter0_d_430_14959)">
<path d="M0 3L1.41711 3L2.83422 3L4.25134 3L5.66845 3L7.08556 3L8.50267 3L9.91979 3L11.3369 3L12.754 3L14.1711 3L15.5882 3L17.0053 3L18.4225 3L19.8396 3L21.2567 3L22.6738 3L24.0909 3L25.508 3L26.9251 3L28.3422 3L29.7594 3L31.1765 3L32.5936 3L34.0107 3L35.4278 3L36.8449 3L38.262 3L39.6791 3L41.0963 3L42.5134 3L43.9305 3L45.3476 3L46.7647 3L48.1818 3L49.5989 3L51.016 3L52.4332 3L53.8503 3L55.2674 3L56.6845 3L58.1016 3L59.5187 3L60.9358 3L62.3529 3L63.7701 3L65.1872 3L66.6043 3L68.0214 3L69.4385 3L70.8556 3L72.2727 3L73.6898 3L75.1069 3L76.5241 3L77.9412 3L79.3583 3L80.7754 3L82.1925 3L83.6096 3L85.0267 3L86.4438 3L87.861 3L89.2781 3L90.6952 3L92.1123 3L93.5294 3L94.9465 3L96.3636 3L97.7807 3L99.1979 3L100.615 3L102.032 3L103.449 3L104.866 3L106.283 3L107.701 3L109.118 3L110.535 3L111.952 3L113.369 3L114.786 3L116.203 3L117.62 3L119.037 3L120.455 3L121.872 3L123.289 3L124.706 3L126.123 3L127.54 3L128.957 3L130.374 3L131.791 3L133.209 3L134.626 3L136.043 3L137.46 3L138.877 3L140.294 3L141.711 3L143.128 3L144.545 3L145.963 3L147.38 3L148.797 3L150.214 3L151.631 3L153.048 3L154.465 3L155.882 3L157.299 3L158.717 3L160.134 3L161.551 3L162.968 3L164.385 3L165.802 3L167.219 3L168.636 3L170.053 3L171.471 3L172.888 3L174.305 3L175.722 3L177.139 3L178.556 3L179.973 3L181.39 3L182.807 3L184.225 3L185.642 3L187.059 3L188.476 3L189.893 3L191.31 3L192.727 3L194.144 3L195.561 3L196.979 3L198.396 3L199.813 3L201.23 3L202.647 3L204.064 3L205.481 3L206.898 3L208.315 3L209.733 3L211.15 3L212.567 3L213.984 3L215.401 3L216.818 3L218.235 3L219.652 3L221.07 3L222.487 3L223.904 3L225.321 3L226.738 3L228.155 3L229.572 3L230.989 3L232.406 3L233.824 3L235.241 3L236.658 3L238.075 3L239.492 3L240.909 3L242.326 3L243.743 3L245.16 3L246.578 3L247.995 3L249.412 3L250.829 3L250.829 2.9911e-06L249.412 2.97421e-06L247.995 2.95731e-06L246.578 2.94041e-06L245.16 2.92351e-06L243.743 2.90661e-06L242.326 2.88971e-06L240.909 2.87281e-06L239.492 2.85591e-06L238.075 2.83901e-06L236.658 2.82212e-06L235.241 2.80522e-06L233.824 2.78832e-06L232.406 2.77142e-06L230.989 2.75452e-06L229.572 2.73762e-06L228.155 2.72072e-06L226.738 2.70382e-06L225.321 2.68692e-06L223.904 2.67003e-06L222.487 2.65313e-06L221.07 2.63623e-06L219.652 2.61933e-06L218.235 2.60243e-06L216.818 2.58553e-06L215.401 2.56863e-06L213.984 2.55173e-06L212.567 2.53483e-06L211.15 2.51794e-06L209.733 2.50104e-06L208.315 2.48414e-06L206.898 2.46724e-06L205.481 2.45034e-06L204.064 2.43344e-06L202.647 2.41654e-06L201.23 2.39964e-06L199.813 2.38274e-06L198.396 2.36585e-06L196.979 2.34895e-06L195.561 2.33205e-06L194.144 2.31515e-06L192.727 2.29825e-06L191.31 2.28135e-06L189.893 2.26445e-06L188.476 2.24755e-06L187.059 2.23065e-06L185.642 2.21376e-06L184.225 2.19686e-06L182.807 2.17996e-06L181.39 2.16306e-06L179.973 2.14616e-06L178.556 2.12926e-06L177.139 2.11236e-06L175.722 2.09546e-06L174.305 2.07856e-06L172.888 2.06167e-06L171.471 2.04477e-06L170.053 2.02787e-06L168.636 2.01097e-06L167.219 1.99407e-06L165.802 1.97717e-06L164.385 1.96027e-06L162.968 1.94337e-06L161.551 1.92647e-06L160.134 1.90958e-06L158.717 1.89268e-06L157.299 1.87578e-06L155.882 1.85888e-06L154.465 1.84198e-06L153.048 1.82508e-06L151.631 1.80818e-06L150.214 1.79128e-06L148.797 1.77438e-06L147.38 1.75748e-06L145.963 1.74059e-06L144.545 1.72369e-06L143.128 1.70679e-06L141.711 1.68989e-06L140.294 1.67299e-06L138.877 1.65609e-06L137.46 1.63919e-06L136.043 1.62229e-06L134.626 1.60539e-06L133.209 1.5885e-06L131.791 1.5716e-06L130.374 1.5547e-06L128.957 1.5378e-06L127.54 1.5209e-06L126.123 1.504e-06L124.706 1.4871e-06L123.289 1.4702e-06L121.872 1.4533e-06L120.455 1.43641e-06L119.037 1.41951e-06L117.62 1.40261e-06L116.203 1.38571e-06L114.786 1.36881e-06L113.369 1.35191e-06L111.952 1.33501e-06L110.535 1.31811e-06L109.118 1.30121e-06L107.701 1.28432e-06L106.283 1.26742e-06L104.866 1.25052e-06L103.449 1.23362e-06L102.032 1.21672e-06L100.615 1.19982e-06L99.1979 1.18292e-06L97.7807 1.16602e-06L96.3636 1.14912e-06L94.9465 1.13223e-06L93.5294 1.11533e-06L92.1123 1.09843e-06L90.6952 1.08153e-06L89.2781 1.06463e-06L87.861 1.04773e-06L86.4438 1.03083e-06L85.0267 1.01393e-06L83.6096 9.97035e-07L82.1925 9.80136e-07L80.7754 9.63237e-07L79.3583 9.46338e-07L77.9412 9.29439e-07L76.5241 9.1254e-07L75.1069 8.95641e-07L73.6898 8.78742e-07L72.2727 8.61844e-07L70.8556 8.44945e-07L69.4385 8.28046e-07L68.0214 8.11147e-07L66.6043 7.94248e-07L65.1872 7.77349e-07L63.7701 7.6045e-07L62.3529 7.43551e-07L60.9358 7.26652e-07L59.5187 7.09754e-07L58.1016 6.92855e-07L56.6845 6.75956e-07L55.2674 6.59057e-07L53.8503 6.42158e-07L52.4332 6.25259e-07L51.016 6.0836e-07L49.5989 5.91461e-07L48.1818 5.74562e-07L46.7647 5.57663e-07L45.3476 5.40765e-07L43.9305 5.23866e-07L42.5134 5.06967e-07L41.0963 4.90068e-07L39.6791 4.73169e-07L38.262 4.5627e-07L36.8449 4.39371e-07L35.4278 4.22472e-07L34.0107 4.05573e-07L32.5936 3.88675e-07L31.1765 3.71776e-07L29.7594 3.54877e-07L28.3422 3.37978e-07L26.9251 3.21079e-07L25.508 3.0418e-07L24.0909 2.87281e-07L22.6738 2.70382e-07L21.2567 2.53483e-07L19.8396 2.36585e-07L18.4225 2.19686e-07L17.0053 2.02787e-07L15.5882 1.85888e-07L14.1711 1.68989e-07L12.754 1.5209e-07L11.3369 1.35191e-07L9.91979 1.18292e-07L8.50267 1.01393e-07L7.08556 8.44945e-08L5.66845 6.75956e-08L4.25134 5.06967e-08L2.83422 3.37978e-08L1.41711 1.68989e-08L3.57746e-08 0L0 3Z" fill="black"/>
<path d="M2.83422 54L4.25134 54L5.66845 54L7.08556 54L8.50267 54L9.91979 54L11.3369 54L12.754 54L14.1711 54L15.5882 54L17.0053 54L18.4225 54L19.8396 54L21.2567 54L22.6738 54L24.0909 54L25.508 54L26.9251 54L28.3422 54L29.7594 54L31.1765 54L32.5936 54L34.0107 54L35.4278 54L36.8449 54L38.262 54L39.6791 54L41.0963 54L42.5134 54L43.9305 54L45.3476 54L46.7647 54L48.1818 54L49.5989 54L51.016 54L52.4332 54L53.8503 54L55.2674 54L56.6845 54L58.1016 54L59.5187 54L60.9358 54L62.3529 54L63.7701 54L65.1872 54L66.6043 54L68.0214 54L69.4385 54L70.8556 54L72.2727 54L73.6898 54L75.1069 54L76.5241 54L77.9412 54L79.3583 54L80.7754 54L82.1925 54L83.6096 54L85.0267 54L86.4438 54L87.861 54L89.2781 54L90.6952 54L92.1123 54L93.5294 54L94.9465 54L96.3636 54L97.7807 54L99.1979 54L100.615 54L102.032 54L103.449 54L104.866 54L106.283 54L107.701 54L109.118 54L110.535 54L111.952 54L113.369 54L114.786 54L116.203 54L117.62 54L119.037 54L120.455 54L121.872 54L123.289 54L124.706 54L126.123 54L127.54 54L128.957 54L130.374 54L131.791 54L133.209 54L134.626 54L136.043 54L137.46 54L138.877 54L140.294 54L141.711 54L143.128 54L144.545 54L145.963 54L147.38 54L148.797 54L150.214 54L151.631 54L153.048 54L154.465 54L155.882 54L157.299 54L158.717 54L160.134 54L161.551 54L162.968 54L164.385 54L165.802 54L167.219 54L168.636 54L170.053 54L171.471 54L172.888 54L174.305 54L175.722 54L177.139 54L178.556 54L179.973 54L181.39 54L182.807 54L184.225 54L185.642 54L187.059 54L188.476 54L189.893 54L191.31 54L192.727 54L194.144 54L195.561 54L196.979 54L198.396 54L199.813 54L201.23 54L202.647 54L204.064 54L205.481 54L206.898 54L208.315 54L209.733 54L211.15 54L212.567 54L213.984 54L215.401 54L216.818 54L218.235 54L219.652 54L221.07 54L222.487 54L223.904 54L225.321 54L226.738 54L228.155 54L229.572 54L230.989 54L232.406 54L233.824 54L235.241 54L236.658 54L238.075 54L239.492 54L240.909 54L242.326 54L243.743 54L245.16 54L246.578 54L247.995 54L249.412 54L249.412 51L247.995 51L246.578 51L245.16 51L243.743 51L242.326 51L240.909 51L239.492 51L238.075 51L236.658 51L235.241 51L233.824 51L232.406 51L230.989 51L229.572 51L228.155 51L226.738 51L225.321 51L223.904 51L222.487 51L221.07 51L219.652 51L218.235 51L216.818 51L215.401 51L213.984 51L212.567 51L211.15 51L209.733 51L208.315 51L206.898 51L205.481 51L204.064 51L202.647 51L201.23 51L199.813 51L198.396 51L196.979 51L195.561 51L194.144 51L192.727 51L191.31 51L189.893 51L188.476 51L187.059 51L185.642 51L184.225 51L182.807 51L181.39 51L179.973 51L178.556 51L177.139 51L175.722 51L174.305 51L172.888 51L171.471 51L170.053 51L168.636 51L167.219 51L165.802 51L164.385 51L162.968 51L161.551 51L160.134 51L158.717 51L157.299 51L155.882 51L154.465 51L153.048 51L151.631 51L150.214 51L148.797 51L147.38 51L145.963 51L144.545 51L143.128 51L141.711 51L140.294 51L138.877 51L137.46 51L136.043 51L134.626 51L133.209 51L131.791 51L130.374 51L128.957 51L127.54 51L126.123 51L124.706 51L123.289 51L121.872 51L120.455 51L119.037 51L117.62 51L116.203 51L114.786 51L113.369 51L111.952 51L110.535 51L109.118 51L107.701 51L106.283 51L104.866 51L103.449 51L102.032 51L100.615 51L99.1979 51L97.7807 51L96.3636 51L94.9465 51L93.5294 51L92.1123 51L90.6952 51L89.2781 51L87.861 51L86.4438 51L85.0267 51L83.6096 51L82.1925 51L80.7754 51L79.3583 51L77.9412 51L76.5241 51L75.1069 51L73.6898 51L72.2727 51L70.8556 51L69.4385 51L68.0214 51L66.6043 51L65.1872 51L63.7701 51L62.3529 51L60.9358 51L59.5187 51L58.1016 51L56.6845 51L55.2674 51L53.8503 51L52.4332 51L51.016 51L49.5989 51L48.1818 51L46.7647 51L45.3476 51L43.9305 51L42.5134 51L41.0963 51L39.6791 51L38.262 51L36.8449 51L35.4278 51L34.0107 51L32.5936 51L31.1765 51L29.7594 51L28.3422 51L26.9251 51L25.508 51L24.0909 51L22.6738 51L21.2567 51L19.8396 51L18.4225 51L17.0053 51L15.5882 51L14.1711 51L12.754 51L11.3369 51L9.91979 51L8.50267 51L7.08556 51L5.66845 51L4.25134 51L2.83422 51L1.41711 51L3.57746e-08 51L0 54L1.41711 54L2.83422 54Z" fill="#FFD700"/>
<path d="M2.83422 51L4.25134 51L5.66845 51L7.08556 51L8.50267 51L9.91979 51L11.3369 51L12.754 51L14.1711 51L15.5882 51L17.0053 51L18.4225 51L19.8396 51L21.2567 51L22.6738 51L24.0909 51L25.508 51L26.9251 51L28.3422 51L29.7594 51L31.1765 51L32.5936 51L34.0107 51L35.4278 51L36.8449 51L38.262 51L39.6791 51L41.0963 51L42.5134 51L43.9305 51L45.3476 51L46.7647 51L48.1818 51L49.5989 51L51.016 51L52.4332 51L53.8503 51L55.2674 51L56.6845 51L58.1016 51L59.5187 51L60.9358 51L62.3529 51L63.7701 51L65.1872 51L66.6043 51L68.0214 51L69.4385 51L70.8556 51L72.2727 51L73.6898 51L75.107 51L76.5241 51L77.9412 51L79.3583 51L80.7754 51L82.1925 51L83.6096 51L85.0267 51L86.4439 51L87.861 51L89.2781 51L90.6952 51L92.1123 51L93.5294 51L94.9465 51L96.3636 51L97.7808 51L99.1979 51L100.615 51L102.032 51L103.449 51L104.866 51L106.283 51L107.701 51L109.118 51L110.535 51L111.952 51L113.369 51L114.786 51L116.203 51L117.62 51L119.037 51L120.455 51L121.872 51L123.289 51L124.706 51L126.123 51L127.54 51L128.957 51L130.374 51L131.791 51L133.209 51L134.626 51L136.043 51L137.46 51L138.877 51L140.294 51L141.711 51L143.128 51L144.545 51L145.963 51L147.38 51L148.797 51L150.214 51L151.631 51L153.048 51L154.465 51L155.882 51L157.299 51L158.717 51L160.134 51L161.551 51L162.968 51L164.385 51L165.802 51L167.219 51L168.636 51L170.053 51L171.471 51L172.888 51L174.305 51L175.722 51L177.139 51L178.556 51L179.973 51L181.39 51L182.807 51L184.225 51L185.642 51L187.059 51L188.476 51L189.893 51L191.31 51L192.727 51L194.144 51L195.562 51L196.979 51L198.396 51L199.813 51L201.23 51L202.647 51L204.064 51L205.481 51L206.898 51L208.316 51L209.733 51L211.15 51L212.567 51L213.984 51L215.401 51L216.818 51L218.235 51L219.652 51L221.07 51L222.487 51L223.904 51L225.321 51L226.738 51L228.155 51L229.572 51L230.989 51L232.406 51L233.824 51L235.241 51L236.658 51L238.075 51L239.492 51L240.909 51L242.326 51L243.743 51L245.16 51L246.578 51L247.995 51L249.412 51L249.412 48L250.829 48L252.246 48L252.246 45L253.663 45L255.08 45L255.08 42L255.08 39L253.663 39L252.246 39L252.246 36L250.829 36L249.412 36L249.412 33L247.995 33L247.995 30L247.995 27L249.412 27L249.412 24L250.829 24L252.246 24L252.246 21L253.663 21L255.08 21L255.08 18L255.08 15L253.663 15L252.246 15L252.246 12L250.829 12L249.412 12L249.412 9.00001L247.995 9.00001L246.578 9.00001L245.16 9.00001L243.743 9.00001L242.326 9.00001L240.909 9.00001L239.492 9.00001L238.075 9.00001L236.658 9.00001L235.241 9.00001L233.824 9.00001L232.406 9.00001L230.989 9.00001L229.572 9.00001L228.155 9.00001L226.738 9.00001L225.321 9.00001L223.904 9.00001L222.487 9.00001L221.07 9.00001L219.652 9.00001L218.235 9.00001L216.818 9.00001L215.401 9.00001L213.984 9.00001L212.567 9.00001L211.15 9.00001L209.733 9.00001L208.316 9.00001L206.898 9.00001L205.481 9.00001L204.064 9.00001L202.647 9.00001L201.23 9.00001L199.813 9.00001L198.396 9.00001L196.979 9.00001L195.562 9.00001L194.144 9.00001L192.727 9.00001L191.31 9.00001L189.893 9.00001L188.476 9.00001L187.059 9.00001L185.642 9.00001L184.225 9.00001L182.807 9.00001L181.39 9.00001L179.973 9.00001L178.556 9.00001L177.139 9.00001L175.722 9.00001L174.305 9.00001L172.888 9.00001L171.471 9.00001L170.053 9.00001L168.636 9.00001L167.219 9.00001L165.802 9.00001L164.385 9.00001L162.968 9.00001L161.551 9.00001L160.134 9.00001L158.717 9.00001L157.299 9.00001L155.882 9.00001L154.465 9.00001L153.048 9.00001L151.631 9.00001L150.214 9.00001L148.797 9.00001L147.38 9.00001L145.963 9.00001L144.545 9.00001L143.128 9.00001L141.711 9.00001L140.294 9.00001L138.877 9.00001L137.46 9.00001L136.043 9.00001L134.626 9.00001L133.209 9.00001L131.791 9.00001L130.374 9.00001L128.957 9.00001L127.54 9.00001L126.123 9.00001L124.706 9.00001L123.289 9.00001L121.872 9.00001L120.455 9.00001L119.037 9.00001L117.62 9.00001L116.203 9.00001L114.786 9.00001L113.369 9.00001L111.952 9.00001L110.535 9.00001L109.118 9.00001L107.701 9.00001L106.283 9.00001L104.866 9.00001L103.449 9.00001L102.032 9.00001L100.615 9.00001L99.1979 9L97.7808 9L96.3636 9L94.9465 9L93.5294 9L92.1123 9L90.6952 9L89.2781 9L87.861 9L86.4439 9L85.0267 9L83.6096 9L82.1925 9L80.7754 9L79.3583 9L77.9412 9L76.5241 9L75.107 9L73.6898 9L72.2727 9L70.8556 9L69.4385 9L68.0214 9L66.6043 9L65.1872 9L63.7701 9L62.3529 9L60.9358 9L59.5187 9L58.1016 9L56.6845 9L55.2674 9L53.8503 9L52.4332 9L51.016 9L49.5989 9L48.1818 9L46.7647 9L45.3476 9L43.9305 9L42.5134 9L41.0963 9L39.6791 9L38.262 9L36.8449 9L35.4278 9L34.0107 9L32.5936 9L31.1765 9L29.7594 9L28.3422 9L26.9251 9L25.508 9L24.0909 9L22.6738 9L21.2567 9L19.8396 9L18.4225 9L17.0053 9L15.5882 9L14.1711 9L12.754 9L11.3369 9L9.91979 9L8.50267 9L7.08556 9L5.66845 9L4.25134 9L2.83423 9L1.41711 9L5.00845e-07 9L4.6507e-07 12L4.29296e-07 15L3.93521e-07 18L3.57746e-07 21L3.21972e-07 24L2.86197e-07 27L2.50422e-07 30L2.14648e-07 33L1.78873e-07 36L1.43099e-07 39L1.07324e-07 42L7.15493e-08 45L3.57746e-08 48L0 51L1.41711 51L2.83422 51Z" fill="#6BBE95"/>
<path d="M2.83422 9L4.25134 9L5.66845 9L7.08556 9L8.50267 9L9.91979 9L11.3369 9L12.754 9L14.1711 9L15.5882 9L17.0053 9L18.4225 9L19.8396 9L21.2567 9L22.6738 9L24.0909 9L25.508 9L26.9251 9L28.3422 9L29.7594 9L31.1765 9L32.5936 9L34.0107 9L35.4278 9L36.8449 9L38.262 9L39.6791 9L41.0963 9L42.5134 9L43.9305 9L45.3476 9L46.7647 9L48.1818 9L49.5989 9L51.016 9L52.4332 9L53.8503 9L55.2674 9L56.6845 9L58.1016 9L59.5187 9L60.9358 9L62.3529 9L63.7701 9L65.1872 9L66.6043 9L68.0214 9L69.4385 9L70.8556 9L72.2727 9L73.6898 9L75.1069 9L76.5241 9L77.9412 9L79.3583 9L80.7754 9L82.1925 9L83.6096 9L85.0267 9L86.4438 9L87.861 9L89.2781 9L90.6952 9L92.1123 9L93.5294 9L94.9465 9L96.3636 9L97.7807 9L99.1979 9L100.615 9L102.032 9L103.449 9L104.866 9L106.283 9L107.701 9L109.118 9L110.535 9L111.952 9L113.369 9L114.786 9L116.203 9L117.62 9L119.037 9L120.455 9L121.872 9L123.289 9L124.706 9L126.123 9L127.54 9L128.957 9L130.374 9L131.791 9L133.209 9L134.626 9L136.043 9L137.46 9L138.877 9L140.294 9L141.711 9L143.128 9L144.545 9L145.963 9L147.38 9L148.797 9L150.214 9L151.631 9L153.048 9L154.465 9L155.882 9L157.299 9L158.717 9L160.134 9L161.551 9L162.968 9L164.385 9L165.802 9L167.219 9L168.636 9L170.053 9L171.471 9L172.888 9L174.305 9L175.722 9L177.139 9L178.556 9L179.973 9L181.39 9L182.807 9L184.225 9L185.642 9L187.059 9L188.476 9L189.893 9L191.31 9L192.727 9L194.144 9L195.561 9L196.979 9L198.396 9L199.813 9L201.23 9L202.647 9L204.064 9L205.481 9L206.898 9L208.315 9L209.733 9L211.15 9L212.567 9L213.984 9L215.401 9L216.818 9L218.235 9L219.652 9L221.07 9L222.487 9L223.904 9L225.321 9L226.738 9L228.155 9L229.572 9L230.989 9L232.406 9L233.824 9L235.241 9L236.658 9L238.075 9L239.492 9L240.909 9L242.326 9L243.743 9L245.16 9L246.578 9L247.995 9L249.412 9L249.412 6L247.995 6L246.578 6L245.16 6L243.743 6L242.326 6L240.909 6L239.492 6L238.075 6L236.658 6L235.241 6L233.824 6L232.406 6L230.989 6L229.572 6L228.155 6L226.738 6L225.321 6L223.904 6L222.487 6L221.07 6L219.652 6L218.235 6L216.818 6L215.401 6L213.984 6L212.567 6L211.15 6L209.733 6L208.315 6L206.898 6L205.481 6L204.064 6L202.647 6L201.23 6L199.813 6L198.396 6L196.979 6L195.561 6L194.144 6L192.727 6L191.31 6L189.893 6L188.476 6L187.059 6L185.642 6L184.225 6L182.807 6L181.39 6L179.973 6L178.556 6L177.139 6L175.722 6L174.305 6L172.888 6L171.471 6L170.053 6L168.636 6L167.219 6L165.802 6L164.385 6L162.968 6L161.551 6L160.134 6L158.717 6L157.299 6L155.882 6L154.465 6L153.048 6L151.631 6L150.214 6L148.797 6L147.38 6L145.963 6L144.545 6L143.128 6L141.711 6L140.294 6L138.877 6L137.46 6L136.043 6L134.626 6L133.209 6L131.791 6L130.374 6L128.957 6L127.54 6L126.123 6L124.706 6L123.289 6L121.872 6L120.455 6L119.037 6L117.62 6L116.203 6L114.786 6L113.369 6L111.952 6L110.535 6L109.118 6L107.701 6L106.283 6L104.866 6L103.449 6L102.032 6L100.615 6L99.1979 6L97.7807 6L96.3636 6L94.9465 6L93.5294 6L92.1123 6L90.6952 6L89.2781 6L87.861 6L86.4438 6L85.0267 6L83.6096 6L82.1925 6L80.7754 6L79.3583 6L77.9412 6L76.5241 6L75.1069 6L73.6898 6L72.2727 6L70.8556 6L69.4385 6L68.0214 6L66.6043 6L65.1872 6L63.7701 6L62.3529 6L60.9358 6L59.5187 6L58.1016 6L56.6845 6L55.2674 6L53.8503 6L52.4332 6L51.016 6L49.5989 6L48.1818 6L46.7647 6L45.3476 6L43.9305 6L42.5134 6L41.0963 6L39.6791 6L38.262 6L36.8449 6L35.4278 6L34.0107 6L32.5936 6L31.1765 6L29.7594 6L28.3422 6L26.9251 6L25.508 6L24.0909 6L22.6738 6L21.2567 6L19.8396 6L18.4225 6L17.0053 6L15.5882 6L14.1711 6L12.754 6L11.3369 6L9.91979 6L8.50267 6L7.08556 6L5.66845 6L4.25134 6L2.83422 6L1.41711 6L3.57746e-08 6L0 9L1.41711 9L2.83422 9Z" fill="#FFD700"/>
<path d="M247.995 57L246.578 57L245.16 57L243.743 57L242.326 57L240.909 57L239.492 57L238.075 57L236.658 57L235.241 57L233.824 57L232.406 57L230.989 57L229.572 57L228.155 57L226.738 57L225.321 57L223.904 57L222.487 57L221.07 57L219.652 57L218.235 57L216.818 57L215.401 57L213.984 57L212.567 57L211.15 57L209.733 57L208.315 57L206.898 57L205.481 57L204.064 57L202.647 57L201.23 57L199.813 57L198.396 57L196.979 57L195.561 57L194.144 57L192.727 57L191.31 57L189.893 57L188.476 57L187.059 57L185.642 57L184.225 57L182.807 57L181.39 57L179.973 57L178.556 57L177.139 57L175.722 57L174.305 57L172.888 57L171.471 57L170.053 57L168.636 57L167.219 57L165.802 57L164.385 57L162.968 57L161.551 57L160.134 57L158.717 57L157.299 57L155.882 57L154.465 57L153.048 57L151.631 57L150.214 57L148.797 57L147.38 57L145.963 57L144.545 57L143.128 57L141.711 57L140.294 57L138.877 57L137.46 57L136.043 57L134.626 57L133.209 57L131.791 57L130.374 57L128.957 57L127.54 57L126.123 57L124.706 57L123.289 57L121.872 57L120.455 57L119.037 57L117.62 57L116.203 57L114.786 57L113.369 57L111.952 57L110.535 57L109.118 57L107.701 57L106.283 57L104.866 57L103.449 57L102.032 57L100.615 57L99.1979 57L97.7807 57L96.3636 57L94.9465 57L93.5294 57L92.1123 57L90.6952 57L89.2781 57L87.861 57L86.4438 57L85.0267 57L83.6096 57L82.1925 57L80.7754 57L79.3583 57L77.9412 57L76.5241 57L75.1069 57L73.6898 57L72.2727 57L70.8556 57L69.4385 57L68.0214 57L66.6043 57L65.1872 57L63.7701 57L62.3529 57L60.9358 57L59.5187 57L58.1016 57L56.6845 57L55.2674 57L53.8503 57L52.4332 57L51.016 57L49.5989 57L48.1818 57L46.7647 57L45.3476 57L43.9305 57L42.5134 57L41.0963 57L39.6791 57L38.262 57L36.8449 57L35.4278 57L34.0107 57L32.5936 57L31.1765 57L29.7594 57L28.3422 57L26.9251 57L25.508 57L24.0909 57L22.6738 57L21.2567 57L19.8396 57L18.4225 57L17.0053 57L15.5882 57L14.1711 57L12.754 57L11.3369 57L9.91979 57L8.50267 57L7.08556 57L5.66845 57L4.25134 57L2.83422 57L1.41711 57L3.57746e-08 57L0 60L1.41711 60L2.83422 60L4.25134 60L5.66845 60L7.08556 60L8.50267 60L9.91979 60L11.3369 60L12.754 60L14.1711 60L15.5882 60L17.0053 60L18.4225 60L19.8396 60L21.2567 60L22.6738 60L24.0909 60L25.508 60L26.9251 60L28.3422 60L29.7594 60L31.1765 60L32.5936 60L34.0107 60L35.4278 60L36.8449 60L38.262 60L39.6791 60L41.0963 60L42.5134 60L43.9305 60L45.3476 60L46.7647 60L48.1818 60L49.5989 60L51.016 60L52.4332 60L53.8503 60L55.2674 60L56.6845 60L58.1016 60L59.5187 60L60.9358 60L62.3529 60L63.7701 60L65.1872 60L66.6043 60L68.0214 60L69.4385 60L70.8556 60L72.2727 60L73.6898 60L75.1069 60L76.5241 60L77.9412 60L79.3583 60L80.7754 60L82.1925 60L83.6096 60L85.0267 60L86.4438 60L87.861 60L89.2781 60L90.6952 60L92.1123 60L93.5294 60L94.9465 60L96.3636 60L97.7807 60L99.1979 60L100.615 60L102.032 60L103.449 60L104.866 60L106.283 60L107.701 60L109.118 60L110.535 60L111.952 60L113.369 60L114.786 60L116.203 60L117.62 60L119.037 60L120.455 60L121.872 60L123.289 60L124.706 60L126.123 60L127.54 60L128.957 60L130.374 60L131.791 60L133.209 60L134.626 60L136.043 60L137.46 60L138.877 60L140.294 60L141.711 60L143.128 60L144.545 60L145.963 60L147.38 60L148.797 60L150.214 60L151.631 60L153.048 60L154.465 60L155.882 60L157.299 60L158.717 60L160.134 60L161.551 60L162.968 60L164.385 60L165.802 60L167.219 60L168.636 60L170.053 60L171.471 60L172.888 60L174.305 60L175.722 60L177.139 60L178.556 60L179.973 60L181.39 60L182.807 60L184.225 60L185.642 60L187.059 60L188.476 60L189.893 60L191.31 60L192.727 60L194.144 60L195.561 60L196.979 60L198.396 60L199.813 60L201.23 60L202.647 60L204.064 60L205.481 60L206.898 60L208.315 60L209.733 60L211.15 60L212.567 60L213.984 60L215.401 60L216.818 60L218.235 60L219.652 60L221.07 60L222.487 60L223.904 60L225.321 60L226.738 60L228.155 60L229.572 60L230.989 60L232.406 60L233.824 60L235.241 60L236.658 60L238.075 60L239.492 60L240.909 60L242.326 60L243.743 60L245.16 60L246.578 60L247.995 60L249.412 60L250.829 60L250.829 57L249.412 57L247.995 57Z" fill="black"/>
<path d="M247.995 30L247.995 33L249.412 33L249.412 30L249.412 27L247.995 27L247.995 30Z" fill="#FFD700"/>
<path d="M247.995 3.00001L246.578 3.00001L245.16 3.00001L243.743 3.00001L242.326 3.00001L240.909 3.00001L239.492 3.00001L238.075 3.00001L236.658 3.00001L235.241 3.00001L233.824 3.00001L232.406 3.00001L230.989 3.00001L229.572 3.00001L228.155 3.00001L226.738 3.00001L225.321 3.00001L223.904 3.00001L222.487 3.00001L221.07 3.00001L219.652 3.00001L218.235 3.00001L216.818 3.00001L215.401 3.00001L213.984 3.00001L212.567 3.00001L211.15 3.00001L209.733 3.00001L208.315 3.00001L206.898 3.00001L205.481 3.00001L204.064 3.00001L202.647 3.00001L201.23 3.00001L199.813 3.00001L198.396 3.00001L196.979 3.00001L195.561 3.00001L194.144 3.00001L192.727 3.00001L191.31 3.00001L189.893 3.00001L188.476 3.00001L187.059 3.00001L185.642 3.00001L184.225 3.00001L182.807 3.00001L181.39 3.00001L179.973 3.00001L178.556 3.00001L177.139 3.00001L175.722 3.00001L174.305 3.00001L172.888 3.00001L171.471 3.00001L170.053 3.00001L168.636 3.00001L167.219 3.00001L165.802 3.00001L164.385 3.00001L162.968 3.00001L161.551 3.00001L160.134 3.00001L158.717 3.00001L157.299 3.00001L155.882 3.00001L154.465 3.00001L153.048 3.00001L151.631 3.00001L150.214 3.00001L148.797 3.00001L147.38 3.00001L145.963 3.00001L144.545 3.00001L143.128 3.00001L141.711 3.00001L140.294 3.00001L138.877 3.00001L137.46 3.00001L136.043 3.00001L134.626 3.00001L133.209 3.00001L131.791 3.00001L130.374 3.00001L128.957 3.00001L127.54 3.00001L126.123 3.00001L124.706 3.00001L123.289 3.00001L121.872 3.00001L120.455 3.00001L119.037 3.00001L117.62 3.00001L116.203 3.00001L114.786 3.00001L113.369 3.00001L111.952 3.00001L110.535 3.00001L109.118 3.00001L107.701 3.00001L106.283 3.00001L104.866 3.00001L103.449 3.00001L102.032 3.00001L100.615 3.00001L99.1979 3L97.7807 3L96.3636 3L94.9465 3L93.5294 3L92.1123 3L90.6952 3L89.2781 3L87.861 3L86.4438 3L85.0267 3L83.6096 3L82.1925 3L80.7754 3L79.3583 3L77.9412 3L76.5241 3L75.1069 3L73.6898 3L72.2727 3L70.8556 3L69.4385 3L68.0214 3L66.6043 3L65.1872 3L63.7701 3L62.3529 3L60.9358 3L59.5187 3L58.1016 3L56.6845 3L55.2674 3L53.8503 3L52.4332 3L51.016 3L49.5989 3L48.1818 3L46.7647 3L45.3476 3L43.9305 3L42.5134 3L41.0963 3L39.6791 3L38.262 3L36.8449 3L35.4278 3L34.0107 3L32.5936 3L31.1765 3L29.7594 3L28.3422 3L26.9251 3L25.508 3L24.0909 3L22.6738 3L21.2567 3L19.8396 3L18.4225 3L17.0053 3L15.5882 3L14.1711 3L12.754 3L11.3369 3L9.91979 3L8.50267 3L7.08556 3L5.66845 3L4.25134 3L2.83423 3L1.41711 3L6.43944e-07 3L6.08169e-07 6L1.41711 6L2.83423 6L4.25134 6L5.66845 6L7.08556 6L8.50267 6L9.91979 6L11.3369 6L12.754 6L14.1711 6L15.5882 6L17.0053 6L18.4225 6L19.8396 6L21.2567 6L22.6738 6L24.0909 6L25.508 6L26.9251 6L28.3422 6L29.7594 6L31.1765 6L32.5936 6L34.0107 6L35.4278 6L36.8449 6L38.262 6L39.6791 6L41.0963 6L42.5134 6L43.9305 6L45.3476 6L46.7647 6L48.1818 6L49.5989 6L51.016 6L52.4332 6L53.8503 6L55.2674 6L56.6845 6L58.1016 6L59.5187 6L60.9358 6L62.3529 6L63.7701 6L65.1872 6L66.6043 6L68.0214 6L69.4385 6L70.8556 6L72.2727 6L73.6898 6L75.1069 6L76.5241 6L77.9412 6L79.3583 6L80.7754 6L82.1925 6L83.6096 6L85.0267 6L86.4438 6L87.861 6L89.2781 6L90.6952 6L92.1123 6L93.5294 6L94.9465 6L96.3636 6L97.7807 6L99.1979 6L100.615 6.00001L102.032 6.00001L103.449 6.00001L104.866 6.00001L106.283 6.00001L107.701 6.00001L109.118 6.00001L110.535 6.00001L111.952 6.00001L113.369 6.00001L114.786 6.00001L116.203 6.00001L117.62 6.00001L119.037 6.00001L120.455 6.00001L121.872 6.00001L123.289 6.00001L124.706 6.00001L126.123 6.00001L127.54 6.00001L128.957 6.00001L130.374 6.00001L131.791 6.00001L133.209 6.00001L134.626 6.00001L136.043 6.00001L137.46 6.00001L138.877 6.00001L140.294 6.00001L141.711 6.00001L143.128 6.00001L144.545 6.00001L145.963 6.00001L147.38 6.00001L148.797 6.00001L150.214 6.00001L151.631 6.00001L153.048 6.00001L154.465 6.00001L155.882 6.00001L157.299 6.00001L158.717 6.00001L160.134 6.00001L161.551 6.00001L162.968 6.00001L164.385 6.00001L165.802 6.00001L167.219 6.00001L168.636 6.00001L170.053 6.00001L171.471 6.00001L172.888 6.00001L174.305 6.00001L175.722 6.00001L177.139 6.00001L178.556 6.00001L179.973 6.00001L181.39 6.00001L182.807 6.00001L184.225 6.00001L185.642 6.00001L187.059 6.00001L188.476 6.00001L189.893 6.00001L191.31 6.00001L192.727 6.00001L194.144 6.00001L195.561 6.00001L196.979 6.00001L198.396 6.00001L199.813 6.00001L201.23 6.00001L202.647 6.00001L204.064 6.00001L205.481 6.00001L206.898 6.00001L208.315 6.00001L209.733 6.00001L211.15 6.00001L212.567 6.00001L213.984 6.00001L215.401 6.00001L216.818 6.00001L218.235 6.00001L219.652 6.00001L221.07 6.00001L222.487 6.00001L223.904 6.00001L225.321 6.00001L226.738 6.00001L228.155 6.00001L229.572 6.00001L230.989 6.00001L232.406 6.00001L233.824 6.00001L235.241 6.00001L236.658 6.00001L238.075 6.00001L239.492 6.00001L240.909 6.00001L242.326 6.00001L243.743 6.00001L245.16 6.00001L246.578 6.00001L247.995 6.00001L249.412 6.00001L249.412 9.00001L250.829 9.00001L252.246 9.00001L252.246 12L253.663 12L255.08 12L255.08 15L256.497 15L257.914 15L257.914 18L257.914 21L256.497 21L255.08 21L255.08 24L253.663 24L252.246 24L252.246 27L250.829 27L249.412 27L249.412 30L249.412 33L250.829 33L252.246 33L252.246 36L253.663 36L255.08 36L255.08 39L256.497 39L257.914 39L257.914 42L257.914 45L256.497 45L255.08 45L255.08 48L253.663 48L252.246 48L252.246 51L250.829 51L249.412 51L249.412 54L247.995 54L246.578 54L245.16 54L243.743 54L242.326 54L240.909 54L239.492 54L238.075 54L236.658 54L235.241 54L233.824 54L232.406 54L230.989 54L229.572 54L228.155 54L226.738 54L225.321 54L223.904 54L222.487 54L221.07 54L219.652 54L218.235 54L216.818 54L215.401 54L213.984 54L212.567 54L211.15 54L209.733 54L208.315 54L206.898 54L205.481 54L204.064 54L202.647 54L201.23 54L199.813 54L198.396 54L196.979 54L195.561 54L194.144 54L192.727 54L191.31 54L189.893 54L188.476 54L187.059 54L185.642 54L184.225 54L182.807 54L181.39 54L179.973 54L178.556 54L177.139 54L175.722 54L174.305 54L172.888 54L171.471 54L170.053 54L168.636 54L167.219 54L165.802 54L164.385 54L162.968 54L161.551 54L160.134 54L158.717 54L157.299 54L155.882 54L154.465 54L153.048 54L151.631 54L150.214 54L148.797 54L147.38 54L145.963 54L144.545 54L143.128 54L141.711 54L140.294 54L138.877 54L137.46 54L136.043 54L134.626 54L133.209 54L131.791 54L130.374 54L128.957 54L127.54 54L126.123 54L124.706 54L123.289 54L121.872 54L120.455 54L119.037 54L117.62 54L116.203 54L114.786 54L113.369 54L111.952 54L110.535 54L109.118 54L107.701 54L106.283 54L104.866 54L103.449 54L102.032 54L100.615 54L99.1979 54L97.7807 54L96.3636 54L94.9465 54L93.5294 54L92.1123 54L90.6952 54L89.2781 54L87.861 54L86.4438 54L85.0267 54L83.6096 54L82.1925 54L80.7754 54L79.3583 54L77.9412 54L76.5241 54L75.1069 54L73.6898 54L72.2727 54L70.8556 54L69.4385 54L68.0214 54L66.6043 54L65.1872 54L63.7701 54L62.3529 54L60.9358 54L59.5187 54L58.1016 54L56.6845 54L55.2674 54L53.8503 54L52.4332 54L51.016 54L49.5989 54L48.1818 54L46.7647 54L45.3476 54L43.9305 54L42.5134 54L41.0963 54L39.6791 54L38.262 54L36.8449 54L35.4278 54L34.0107 54L32.5936 54L31.1765 54L29.7594 54L28.3422 54L26.9251 54L25.508 54L24.0909 54L22.6738 54L21.2567 54L19.8396 54L18.4225 54L17.0053 54L15.5882 54L14.1711 54L12.754 54L11.3369 54L9.91979 54L8.50267 54L7.08556 54L5.66845 54L4.25134 54L2.83422 54L1.41711 54L3.57746e-08 54L0 57L1.41711 57L2.83422 57L4.25134 57L5.66845 57L7.08556 57L8.50267 57L9.91979 57L11.3369 57L12.754 57L14.1711 57L15.5882 57L17.0053 57L18.4225 57L19.8396 57L21.2567 57L22.6738 57L24.0909 57L25.508 57L26.9251 57L28.3422 57L29.7594 57L31.1765 57L32.5936 57L34.0107 57L35.4278 57L36.8449 57L38.262 57L39.6791 57L41.0963 57L42.5134 57L43.9305 57L45.3476 57L46.7647 57L48.1818 57L49.5989 57L51.016 57L52.4332 57L53.8503 57L55.2674 57L56.6845 57L58.1016 57L59.5187 57L60.9358 57L62.3529 57L63.7701 57L65.1872 57L66.6043 57L68.0214 57L69.4385 57L70.8556 57L72.2727 57L73.6898 57L75.1069 57L76.5241 57L77.9412 57L79.3583 57L80.7754 57L82.1925 57L83.6096 57L85.0267 57L86.4438 57L87.861 57L89.2781 57L90.6952 57L92.1123 57L93.5294 57L94.9465 57L96.3636 57L97.7807 57L99.1979 57L100.615 57L102.032 57L103.449 57L104.866 57L106.283 57L107.701 57L109.118 57L110.535 57L111.952 57L113.369 57L114.786 57L116.203 57L117.62 57L119.037 57L120.455 57L121.872 57L123.289 57L124.706 57L126.123 57L127.54 57L128.957 57L130.374 57L131.791 57L133.209 57L134.626 57L136.043 57L137.46 57L138.877 57L140.294 57L141.711 57L143.128 57L144.545 57L145.963 57L147.38 57L148.797 57L150.214 57L151.631 57L153.048 57L154.465 57L155.882 57L157.299 57L158.717 57L160.134 57L161.551 57L162.968 57L164.385 57L165.802 57L167.219 57L168.636 57L170.053 57L171.471 57L172.888 57L174.305 57L175.722 57L177.139 57L178.556 57L179.973 57L181.39 57L182.807 57L184.225 57L185.642 57L187.059 57L188.476 57L189.893 57L191.31 57L192.727 57L194.144 57L195.561 57L196.979 57L198.396 57L199.813 57L201.23 57L202.647 57L204.064 57L205.481 57L206.898 57L208.315 57L209.733 57L211.15 57L212.567 57L213.984 57L215.401 57L216.818 57L218.235 57L219.652 57L221.07 57L222.487 57L223.904 57L225.321 57L226.738 57L228.155 57L229.572 57L230.989 57L232.406 57L233.824 57L235.241 57L236.658 57L238.075 57L239.492 57L240.909 57L242.326 57L243.743 57L245.16 57L246.578 57L247.995 57L249.412 57L250.829 57L250.829 54L252.246 54L253.663 54L253.663 51L255.08 51L256.497 51L256.497 48L257.914 48L259.332 48L259.332 45L260.749 45L262.166 45L262.166 42L262.166 39L260.749 39L259.332 39L259.332 36L257.914 36L256.497 36L256.497 33L255.08 33L253.663 33L253.663 30L253.663 27L255.08 27L256.497 27L256.497 24L257.914 24L259.332 24L259.332 21L260.749 21L262.166 21L262.166 18L262.166 15L260.749 15L259.332 15L259.332 12L257.914 12L256.497 12L256.497 9.00001L255.08 9.00001L253.663 9.00001L253.663 6.00001L252.246 6.00001L250.829 6.00001L250.829 3.00001L249.412 3.00001L247.995 3.00001Z" fill="#6BBE95"/>
<path d="M249.412 48L249.412 51L250.829 51L252.246 51L252.246 48L250.829 48L249.412 48Z" fill="#FFD700"/>
<path d="M250.829 36L252.246 36L252.246 33L250.829 33L249.412 33L249.412 36L250.829 36Z" fill="#FFD700"/>
<path d="M249.412 24L249.412 27L250.829 27L252.246 27L252.246 24L250.829 24L249.412 24Z" fill="#FFD700"/>
<path d="M250.829 12L252.246 12L252.246 9L250.829 9L249.412 9L249.412 12L250.829 12Z" fill="#FFD700"/>
<path d="M250.829 54L250.829 57L252.246 57L253.663 57L253.663 54L252.246 54L250.829 54Z" fill="black"/>
<path d="M252.246 6L253.663 6L253.663 3L252.246 3L250.829 3L250.829 6L252.246 6Z" fill="black"/>
<path d="M252.246 45L252.246 48L253.663 48L255.08 48L255.08 45L253.663 45L252.246 45Z" fill="#FFD700"/>
<path d="M253.663 39L255.08 39L255.08 36L253.663 36L252.246 36L252.246 39L253.663 39Z" fill="#FFD700"/>
<path d="M252.246 21L252.246 24L253.663 24L255.08 24L255.08 21L253.663 21L252.246 21Z" fill="#FFD700"/>
<path d="M253.663 15L255.08 15L255.08 12L253.663 12L252.246 12L252.246 15L253.663 15Z" fill="#FFD700"/>
<path d="M253.663 51L253.663 54L255.08 54L256.497 54L256.497 51L255.08 51L253.663 51Z" fill="black"/>
<path d="M253.663 27L253.663 30L253.663 33L255.08 33L256.497 33L256.497 30L256.497 27L255.08 27L253.663 27Z" fill="black"/>
<path d="M255.08 9L256.497 9L256.497 6L255.08 6L253.663 6L253.663 9L255.08 9Z" fill="black"/>
<path d="M255.08 45L256.497 45L257.914 45L257.914 42L257.914 39L256.497 39L255.08 39L255.08 42L255.08 45Z" fill="#FFD700"/>
<path d="M255.08 21L256.497 21L257.914 21L257.914 18L257.914 15L256.497 15L255.08 15L255.08 18L255.08 21Z" fill="#FFD700"/>
<path d="M256.497 48L256.497 51L257.914 51L259.331 51L259.331 48L257.914 48L256.497 48Z" fill="black"/>
<path d="M257.914 36L259.331 36L259.331 33L257.914 33L256.497 33L256.497 36L257.914 36Z" fill="black"/>
<path d="M256.497 24L256.497 27L257.914 27L259.331 27L259.331 24L257.914 24L256.497 24Z" fill="black"/>
<path d="M257.914 12L259.331 12L259.331 9L257.914 9L256.497 9L256.497 12L257.914 12Z" fill="black"/>
<path d="M259.332 45L259.332 48L260.749 48L262.166 48L262.166 45L260.749 45L259.332 45Z" fill="black"/>
<path d="M260.749 39L262.166 39L262.166 36L260.749 36L259.332 36L259.332 39L260.749 39Z" fill="black"/>
<path d="M259.332 21L259.332 24L260.749 24L262.166 24L262.166 21L260.749 21L259.332 21Z" fill="black"/>
<path d="M260.749 15L262.166 15L262.166 12L260.749 12L259.332 12L259.332 15L260.749 15Z" fill="black"/>
<path d="M262.166 45L263.583 45L265 45L265 42L265 39L263.583 39L262.166 39L262.166 42L262.166 45Z" fill="black"/>
<path d="M262.166 21L263.583 21L265 21L265 18L265 15L263.583 15L262.166 15L262.166 18L262.166 21Z" fill="black"/>
<path d="M23.512 42L19.627 42L19.627 26.46L29.322 26.46L29.322 28.385L23.512 28.385L23.512 32.27L27.397 32.27L27.397 34.23L23.512 34.23L23.512 42ZM39.0523 30.345L42.9373 30.345L42.9373 40.04L40.9773 40.04L40.9773 42L33.2073 42L33.2073 40.04L31.2823 40.04L31.2823 30.345L35.1673 30.345L35.1673 40.04L39.0523 40.04L39.0523 30.345ZM47.779 26.46L51.664 26.46L51.664 30.345L53.624 30.345L53.624 32.27L51.664 32.27L51.664 42L47.779 42L47.779 32.27L45.854 32.27L45.854 30.345L47.779 30.345L47.779 26.46ZM64.3452 30.345L68.2302 30.345L68.2302 40.04L66.2702 40.04L66.2702 42L58.5002 42L58.5002 40.04L56.5752 40.04L56.5752 30.345L60.4602 30.345L60.4602 40.04L64.3452 40.04L64.3452 30.345ZM76.012 42L72.127 42L72.127 30.345L76.012 30.345L76.012 32.27L77.937 32.27L77.937 30.345L79.897 30.345L79.897 34.23L76.012 34.23L76.012 42ZM91.9392 42L84.1692 42L84.1692 40.04L82.2442 40.04L82.2442 32.27L84.1692 32.27L84.1692 30.345L91.9392 30.345L91.9392 32.27L93.8992 32.27L93.8992 34.23L91.9392 34.23L91.9392 36.155L88.0542 36.155L88.0542 38.115L86.1292 38.115L86.1292 40.04L91.9392 40.04L91.9392 38.115L93.8992 38.115L93.8992 40.04L91.9392 40.04L91.9392 42ZM90.0142 32.27L86.1292 32.27L86.1292 36.155L88.0542 36.155L88.0542 34.23L90.0142 34.23L90.0142 32.27ZM114.84 42L105.145 42L105.145 26.46L114.84 26.46L114.84 28.385L109.03 28.385L109.03 32.27L112.915 32.27L112.915 34.23L109.03 34.23L109.03 40.04L114.84 40.04L114.84 42ZM116.401 34.23L116.401 30.345L120.286 30.345L120.286 34.23L122.211 34.23L122.211 38.115L124.171 38.115L124.171 30.345L128.056 30.345L128.056 34.23L126.131 34.23L126.131 38.115L124.171 38.115L124.171 42L120.286 42L120.286 38.115L118.326 38.115L118.326 34.23L116.401 34.23ZM140.679 42L132.909 42L132.909 40.04L130.984 40.04L130.984 32.27L132.909 32.27L132.909 30.345L140.679 30.345L140.679 32.27L142.639 32.27L142.639 34.23L140.679 34.23L140.679 36.155L136.794 36.155L136.794 38.115L134.869 38.115L134.869 40.04L140.679 40.04L140.679 38.115L142.639 38.115L142.639 40.04L140.679 40.04L140.679 42ZM138.754 32.27L134.869 32.27L134.869 36.155L136.794 36.155L136.794 34.23L138.754 34.23L138.754 32.27ZM150.011 42L146.126 42L146.126 30.345L150.011 30.345L150.011 32.27L151.936 32.27L151.936 30.345L155.821 30.345L155.821 32.27L157.781 32.27L157.781 42L153.896 42L153.896 32.27L151.936 32.27L151.936 34.23L150.011 34.23L150.011 42ZM162.623 26.46L166.508 26.46L166.508 30.345L168.468 30.345L168.468 32.27L166.508 32.27L166.508 42L162.623 42L162.623 32.27L160.698 32.27L160.698 30.345L162.623 30.345L162.623 26.46ZM176.844 40.04L176.844 42L170.999 42L170.999 40.04L174.919 40.04L174.919 38.115L172.959 38.115L172.959 36.155L170.999 36.155L170.999 32.27L172.959 32.27L172.959 30.345L178.804 30.345L178.804 32.27L174.919 32.27L174.919 34.23L176.844 34.23L176.844 36.155L178.804 36.155L178.804 40.04L176.844 40.04Z" fill="white"/>
</g>
<path d="M227.538 27.1125H227.03V26.605H226.523H226.015H225.508H225H224.493H223.985H223.478H222.97V27.1125H222.463V27.62H221.955V28.1275V28.635V29.1425V29.65V30.1575V30.665V31.1725V31.68H222.463V32.1875H222.97V32.695H223.478H223.985H224.493H225H225.508H226.015H226.523H227.03V32.1875H227.538V31.68H228.045V31.1725V30.665V30.1575V29.65V29.1425V28.635V28.1275V27.62H227.538V27.1125Z" fill="white"/>
<path d="M239.718 28.635V28.1275V27.62H239.21V27.1125H238.703V26.605H238.195V26.0975V25.59H237.688V25.0825H237.18V24.575H236.673V24.0675H236.165V23.56H235.658H235.15V23.0525H234.643V22.545H234.135V22.0375H233.628H233.12V21.53H232.613V21.0225H232.105H231.598V20.515H231.09H230.583H230.075V20.0075H229.568H229.06H228.553V19.5H228.045H227.538H227.03H226.523H226.015H225.508H225H224.493H223.985H223.478H222.97H222.463H221.955H221.448V20.0075H220.94H220.433H219.925V20.515H219.418H218.91H218.403V21.0225H217.895H217.388V21.53H216.88V22.0375H216.373H215.865V22.545H215.358V23.0525H214.85V23.56H214.343H213.835V24.0675H213.328V24.575H212.82V25.0825H212.313V25.59H211.805V26.0975V26.605H211.298V27.1125H210.79V27.62H210.283V28.1275V28.635H209.775V29.1425V29.65V30.1575V30.665V31.1725H210.283V31.68H210.79V32.1875V32.695H211.298V33.2025H211.805V33.71H212.313V34.2175H212.82V34.725H213.328V35.2325H213.835V35.74H214.343V36.2475H214.85V36.755H215.358V37.2625H215.865H216.373V37.77H216.88H217.388V38.2775H217.895V38.785H218.403H218.91H219.418V39.2925H219.925H220.433H220.94V39.8H221.448H221.955H222.463H222.97H223.478H223.985H224.493H225H225.508H226.015H226.523H227.03H227.538H228.045H228.553H229.06V39.2925H229.568H230.075H230.583V38.785H231.09H231.598H232.105V38.2775H232.613V37.77H233.12H233.628V37.2625H234.135H234.643V36.755H235.15V36.2475H235.658V35.74H236.165V35.2325H236.673V34.725H237.18V34.2175H237.688V33.71H238.195V33.2025H238.703V32.695H239.21V32.1875V31.68H239.718V31.1725H240.225V30.665V30.1575V29.65V29.1425V28.635H239.718ZM227.538 35.74V36.2475H227.03H226.523H226.015H225.508H225H224.493H223.985H223.478H222.97H222.463V35.74H221.955H221.448V35.2325H220.94V34.725H220.433V34.2175H219.925V33.71H219.418V33.2025H218.91V32.695V32.1875H218.403V31.68V31.1725V30.665V30.1575V29.65V29.1425V28.635V28.1275V27.62V27.1125H218.91V26.605V26.0975H219.418V25.59H219.925V25.0825H220.433V24.575H220.94V24.0675H221.448V23.56H221.955H222.463V23.0525H222.97H223.478H223.985H224.493H225H225.508H226.015H226.523H227.03H227.538V23.56H228.045H228.553V24.0675H229.06V24.575H229.568V25.0825H230.075V25.59H230.583V26.0975H231.09V26.605V27.1125H231.598V27.62V28.1275V28.635V29.1425V29.65V30.1575V30.665V31.1725V31.68V32.1875H231.09V32.695V33.2025H230.583V33.71H230.075V34.2175H229.568V34.725H229.06V35.2325H228.553V35.74H228.045H227.538Z" fill="white"/>
<defs>
<filter id="filter0_d_430_14959" x="-4" y="0" width="273" height="68" filterUnits="userSpaceOnUse" color-interpolation-filters="sRGB">
<feFlood flood-opacity="0" result="BackgroundImageFix"/>
<feColorMatrix in="SourceAlpha" type="matrix" values="0 0 0 0 0 0 0 0 0 0 0 0 0 0 0 0 0 0 127 0" result="hardAlpha"/>
<feOffset dy="4"/>
<feGaussianBlur stdDeviation="2"/>
<feComposite in2="hardAlpha" operator="out"/>
<feColorMatrix type="matrix" values="0 0 0 0 0 0 0 0 0 0 0 0 0 0 0 0 0 0 0.25 0"/>
<feBlend mode="normal" in2="BackgroundImageFix" result="effect1_dropShadow_430_14959"/>
<feBlend mode="normal" in="SourceGraphic" in2="effect1_dropShadow_430_14959" result="shape"/>
</filter>
</defs>
</svg>
