<svg width="234" height="68" viewBox="0 0 234 68" fill="none" xmlns="http://www.w3.org/2000/svg">
<g filter="url(#filter0_d_559_4335)">
<path d="M0 3L1.22995 3L2.45989 3L3.68984 3L4.91979 3L6.14973 3L7.37968 3L8.60963 3L9.83957 3L11.0695 3L12.2995 3L13.5294 3L14.7594 3L15.9893 3L17.2193 3L18.4492 3L19.6791 3L20.9091 3L22.139 3L23.369 3L24.5989 3L25.8289 3L27.0588 3L28.2888 3L29.5187 3L30.7487 3L31.9786 3L33.2086 3L34.4385 3L35.6684 3L36.8984 3L38.1283 3L39.3583 3L40.5882 3L41.8182 3L43.0481 3L44.2781 3L45.508 3L46.738 3L47.9679 3L49.1979 3L50.4278 3L51.6578 3L52.8877 3L54.1176 3L55.3476 3L56.5775 3L57.8075 3L59.0374 3L60.2674 3L61.4973 3L62.7273 3L63.9572 3L65.1872 3L66.4171 3L67.6471 3L68.877 3L70.1069 3L71.3369 3L72.5668 3L73.7968 3L75.0267 3L76.2567 3L77.4866 3L78.7166 3L79.9465 3L81.1765 3L82.4064 3L83.6364 3L84.8663 3L86.0963 3L87.3262 3L88.5561 3L89.7861 3L91.016 3L92.246 3L93.4759 3L94.7059 3L95.9358 3L97.1658 3L98.3957 3L99.6257 3L100.856 3L102.086 3L103.316 3L104.545 3L105.775 3L107.005 3L108.235 3L109.465 3L110.695 3L111.925 3L113.155 3L114.385 3L115.615 3L116.845 3L118.075 3L119.305 3L120.535 3L121.765 3L122.995 3L124.225 3L125.455 3L126.684 3L127.914 3L129.144 3L130.374 3L131.604 3L132.834 3L134.064 3L135.294 3L136.524 3L137.754 3L138.984 3L140.214 3L141.444 3L142.674 3L143.904 3L145.134 3L146.364 3L147.594 3L148.824 3L150.053 3L151.283 3L152.513 3L153.743 3L154.973 3L156.203 3L157.433 3L158.663 3L159.893 3L161.123 3L162.353 3L163.583 3L164.813 3L166.043 3L167.273 3L168.503 3L169.733 3L170.963 3L172.193 3L173.422 3L174.652 3L175.882 3L177.112 3L178.342 3L179.572 3L180.802 3L182.032 3L183.262 3L184.492 3L185.722 3L186.952 3L188.182 3L189.412 3L190.642 3L191.872 3L193.102 3L194.332 3L195.561 3L196.791 3L198.021 3L199.251 3L200.481 3L201.711 3L202.941 3L204.171 3L205.401 3L206.631 3L207.861 3L209.091 3L210.321 3L211.551 3L212.781 3L214.011 3L215.241 3L216.471 3L217.701 3L217.701 2.59605e-06L216.471 2.58139e-06L215.241 2.56672e-06L214.011 2.55205e-06L212.781 2.53739e-06L211.551 2.52272e-06L210.321 2.50805e-06L209.091 2.49338e-06L207.861 2.47872e-06L206.631 2.46405e-06L205.401 2.44938e-06L204.171 2.43472e-06L202.941 2.42005e-06L201.711 2.40538e-06L200.481 2.39072e-06L199.251 2.37605e-06L198.021 2.36138e-06L196.791 2.34671e-06L195.561 2.33205e-06L194.332 2.31738e-06L193.102 2.30271e-06L191.872 2.28805e-06L190.642 2.27338e-06L189.412 2.25871e-06L188.182 2.24405e-06L186.952 2.22938e-06L185.722 2.21471e-06L184.492 2.20004e-06L183.262 2.18538e-06L182.032 2.17071e-06L180.802 2.15604e-06L179.572 2.14138e-06L178.342 2.12671e-06L177.112 2.11204e-06L175.882 2.09738e-06L174.652 2.08271e-06L173.422 2.06804e-06L172.193 2.05338e-06L170.963 2.03871e-06L169.733 2.02404e-06L168.503 2.00937e-06L167.273 1.99471e-06L166.043 1.98004e-06L164.813 1.96537e-06L163.583 1.95071e-06L162.353 1.93604e-06L161.123 1.92137e-06L159.893 1.90671e-06L158.663 1.89204e-06L157.433 1.87737e-06L156.203 1.8627e-06L154.973 1.84804e-06L153.743 1.83337e-06L152.513 1.8187e-06L151.283 1.80404e-06L150.053 1.78937e-06L148.824 1.7747e-06L147.594 1.76004e-06L146.364 1.74537e-06L145.134 1.7307e-06L143.904 1.71603e-06L142.674 1.70137e-06L141.444 1.6867e-06L140.214 1.67203e-06L138.984 1.65737e-06L137.754 1.6427e-06L136.524 1.62803e-06L135.294 1.61337e-06L134.064 1.5987e-06L132.834 1.58403e-06L131.604 1.56937e-06L130.374 1.5547e-06L129.144 1.54003e-06L127.914 1.52536e-06L126.684 1.5107e-06L125.455 1.49603e-06L124.225 1.48136e-06L122.995 1.4667e-06L121.765 1.45203e-06L120.535 1.43736e-06L119.305 1.4227e-06L118.075 1.40803e-06L116.845 1.39336e-06L115.615 1.37869e-06L114.385 1.36403e-06L113.155 1.34936e-06L111.925 1.33469e-06L110.695 1.32003e-06L109.465 1.30536e-06L108.235 1.29069e-06L107.005 1.27603e-06L105.775 1.26136e-06L104.545 1.24669e-06L103.316 1.23203e-06L102.086 1.21736e-06L100.856 1.20269e-06L99.6257 1.18802e-06L98.3957 1.17336e-06L97.1658 1.15869e-06L95.9358 1.14402e-06L94.7059 1.12936e-06L93.4759 1.11469e-06L92.246 1.10002e-06L91.016 1.08536e-06L89.7861 1.07069e-06L88.5561 1.05602e-06L87.3262 1.04135e-06L86.0963 1.02669e-06L84.8663 1.01202e-06L83.6364 9.97354e-07L82.4064 9.82687e-07L81.1765 9.6802e-07L79.9465 9.53353e-07L78.7166 9.38686e-07L77.4866 9.24019e-07L76.2567 9.09352e-07L75.0267 8.94685e-07L73.7968 8.80018e-07L72.5668 8.65351e-07L71.3369 8.50684e-07L70.1069 8.36017e-07L68.877 8.2135e-07L67.6471 8.06683e-07L66.4171 7.92016e-07L65.1872 7.77349e-07L63.9572 7.62682e-07L62.7273 7.48015e-07L61.4973 7.33348e-07L60.2674 7.18681e-07L59.0374 7.04014e-07L57.8075 6.89347e-07L56.5775 6.7468e-07L55.3476 6.60013e-07L54.1176 6.45346e-07L52.8877 6.30679e-07L51.6578 6.16013e-07L50.4278 6.01346e-07L49.1979 5.86679e-07L47.9679 5.72012e-07L46.738 5.57345e-07L45.508 5.42678e-07L44.2781 5.28011e-07L43.0481 5.13344e-07L41.8182 4.98677e-07L40.5882 4.8401e-07L39.3583 4.69343e-07L38.1283 4.54676e-07L36.8984 4.40009e-07L35.6684 4.25342e-07L34.4385 4.10675e-07L33.2086 3.96008e-07L31.9786 3.81341e-07L30.7487 3.66674e-07L29.5187 3.52007e-07L28.2888 3.3734e-07L27.0588 3.22673e-07L25.8289 3.08006e-07L24.5989 2.93339e-07L23.369 2.78672e-07L22.139 2.64005e-07L20.9091 2.49338e-07L19.6791 2.34671e-07L18.4492 2.20004e-07L17.2193 2.05338e-07L15.9893 1.90671e-07L14.7594 1.76004e-07L13.5294 1.61337e-07L12.2995 1.4667e-07L11.0695 1.32003e-07L9.83957 1.17336e-07L8.60963 1.02669e-07L7.37968 8.80018e-08L6.14973 7.33348e-08L4.91979 5.86679e-08L3.68984 4.40009e-08L2.45989 2.93339e-08L1.22995 1.4667e-08L3.57746e-08 0L0 3Z" fill="black"/>
<path d="M2.45989 54L3.68984 54L4.91979 54L6.14973 54L7.37968 54L8.60963 54L9.83957 54L11.0695 54L12.2995 54L13.5294 54L14.7594 54L15.9893 54L17.2193 54L18.4492 54L19.6791 54L20.9091 54L22.139 54L23.369 54L24.5989 54L25.8289 54L27.0588 54L28.2888 54L29.5187 54L30.7487 54L31.9786 54L33.2086 54L34.4385 54L35.6684 54L36.8984 54L38.1283 54L39.3583 54L40.5882 54L41.8182 54L43.0481 54L44.2781 54L45.508 54L46.738 54L47.9679 54L49.1979 54L50.4278 54L51.6578 54L52.8877 54L54.1176 54L55.3476 54L56.5775 54L57.8075 54L59.0374 54L60.2674 54L61.4973 54L62.7273 54L63.9572 54L65.1872 54L66.4171 54L67.6471 54L68.877 54L70.1069 54L71.3369 54L72.5668 54L73.7968 54L75.0267 54L76.2567 54L77.4866 54L78.7166 54L79.9465 54L81.1765 54L82.4064 54L83.6364 54L84.8663 54L86.0963 54L87.3262 54L88.5561 54L89.7861 54L91.016 54L92.246 54L93.4759 54L94.7059 54L95.9358 54L97.1658 54L98.3957 54L99.6257 54L100.856 54L102.086 54L103.316 54L104.545 54L105.775 54L107.005 54L108.235 54L109.465 54L110.695 54L111.925 54L113.155 54L114.385 54L115.615 54L116.845 54L118.075 54L119.305 54L120.535 54L121.765 54L122.995 54L124.225 54L125.455 54L126.684 54L127.914 54L129.144 54L130.374 54L131.604 54L132.834 54L134.064 54L135.294 54L136.524 54L137.754 54L138.984 54L140.214 54L141.444 54L142.674 54L143.904 54L145.134 54L146.364 54L147.594 54L148.824 54L150.053 54L151.283 54L152.513 54L153.743 54L154.973 54L156.203 54L157.433 54L158.663 54L159.893 54L161.123 54L162.353 54L163.583 54L164.813 54L166.043 54L167.273 54L168.503 54L169.733 54L170.963 54L172.193 54L173.422 54L174.652 54L175.882 54L177.112 54L178.342 54L179.572 54L180.802 54L182.032 54L183.262 54L184.492 54L185.722 54L186.952 54L188.182 54L189.412 54L190.642 54L191.872 54L193.102 54L194.332 54L195.561 54L196.791 54L198.021 54L199.251 54L200.481 54L201.711 54L202.941 54L204.171 54L205.401 54L206.631 54L207.861 54L209.091 54L210.321 54L211.551 54L212.781 54L214.011 54L215.241 54L216.471 54L216.471 51L215.241 51L214.011 51L212.781 51L211.551 51L210.321 51L209.091 51L207.861 51L206.631 51L205.401 51L204.171 51L202.941 51L201.711 51L200.481 51L199.251 51L198.021 51L196.791 51L195.561 51L194.332 51L193.102 51L191.872 51L190.642 51L189.412 51L188.182 51L186.952 51L185.722 51L184.492 51L183.262 51L182.032 51L180.802 51L179.572 51L178.342 51L177.112 51L175.882 51L174.652 51L173.422 51L172.193 51L170.963 51L169.733 51L168.503 51L167.273 51L166.043 51L164.813 51L163.583 51L162.353 51L161.123 51L159.893 51L158.663 51L157.433 51L156.203 51L154.973 51L153.743 51L152.513 51L151.283 51L150.053 51L148.824 51L147.594 51L146.364 51L145.134 51L143.904 51L142.674 51L141.444 51L140.214 51L138.984 51L137.754 51L136.524 51L135.294 51L134.064 51L132.834 51L131.604 51L130.374 51L129.144 51L127.914 51L126.684 51L125.455 51L124.225 51L122.995 51L121.765 51L120.535 51L119.305 51L118.075 51L116.845 51L115.615 51L114.385 51L113.155 51L111.925 51L110.695 51L109.465 51L108.235 51L107.005 51L105.775 51L104.545 51L103.316 51L102.086 51L100.856 51L99.6257 51L98.3957 51L97.1658 51L95.9358 51L94.7059 51L93.4759 51L92.246 51L91.016 51L89.7861 51L88.5561 51L87.3262 51L86.0963 51L84.8663 51L83.6364 51L82.4064 51L81.1765 51L79.9465 51L78.7166 51L77.4866 51L76.2567 51L75.0267 51L73.7968 51L72.5668 51L71.3369 51L70.1069 51L68.877 51L67.6471 51L66.4171 51L65.1872 51L63.9572 51L62.7273 51L61.4973 51L60.2674 51L59.0374 51L57.8075 51L56.5775 51L55.3476 51L54.1176 51L52.8877 51L51.6578 51L50.4278 51L49.1979 51L47.9679 51L46.738 51L45.508 51L44.2781 51L43.0481 51L41.8182 51L40.5882 51L39.3583 51L38.1283 51L36.8984 51L35.6684 51L34.4385 51L33.2086 51L31.9786 51L30.7487 51L29.5187 51L28.2888 51L27.0588 51L25.8289 51L24.5989 51L23.369 51L22.139 51L20.9091 51L19.6791 51L18.4492 51L17.2193 51L15.9893 51L14.7594 51L13.5294 51L12.2995 51L11.0695 51L9.83957 51L8.60963 51L7.37968 51L6.14973 51L4.91979 51L3.68984 51L2.45989 51L1.22995 51L3.57746e-08 51L0 54L1.22995 54L2.45989 54Z" fill="#FFD700"/>
<path d="M2.45989 51L3.68984 51L4.91979 51L6.14973 51L7.37968 51L8.60963 51L9.83957 51L11.0695 51L12.2995 51L13.5294 51L14.7594 51L15.9893 51L17.2193 51L18.4492 51L19.6791 51L20.9091 51L22.139 51L23.369 51L24.5989 51L25.8289 51L27.0588 51L28.2888 51L29.5187 51L30.7487 51L31.9786 51L33.2086 51L34.4385 51L35.6684 51L36.8984 51L38.1283 51L39.3583 51L40.5882 51L41.8182 51L43.0481 51L44.2781 51L45.508 51L46.738 51L47.9679 51L49.1979 51L50.4278 51L51.6578 51L52.8877 51L54.1176 51L55.3476 51L56.5775 51L57.8075 51L59.0374 51L60.2674 51L61.4973 51L62.7273 51L63.9572 51L65.1872 51L66.4171 51L67.6471 51L68.877 51L70.1069 51L71.3369 51L72.5668 51L73.7968 51L75.0267 51L76.2567 51L77.4866 51L78.7166 51L79.9465 51L81.1765 51L82.4064 51L83.6364 51L84.8663 51L86.0963 51L87.3262 51L88.5561 51L89.7861 51L91.016 51L92.246 51L93.4759 51L94.7059 51L95.9358 51L97.1658 51L98.3957 51L99.6257 51L100.856 51L102.086 51L103.316 51L104.545 51L105.775 51L107.005 51L108.235 51L109.465 51L110.695 51L111.925 51L113.155 51L114.385 51L115.615 51L116.845 51L118.075 51L119.305 51L120.535 51L121.765 51L122.995 51L124.225 51L125.455 51L126.684 51L127.914 51L129.144 51L130.374 51L131.604 51L132.834 51L134.064 51L135.294 51L136.524 51L137.754 51L138.984 51L140.214 51L141.444 51L142.674 51L143.904 51L145.134 51L146.364 51L147.594 51L148.824 51L150.053 51L151.283 51L152.513 51L153.743 51L154.973 51L156.203 51L157.433 51L158.663 51L159.893 51L161.123 51L162.353 51L163.583 51L164.813 51L166.043 51L167.273 51L168.503 51L169.733 51L170.963 51L172.193 51L173.422 51L174.652 51L175.882 51L177.112 51L178.342 51L179.572 51L180.802 51L182.032 51L183.262 51L184.492 51L185.722 51L186.952 51L188.182 51L189.412 51L190.642 51L191.872 51L193.102 51L194.332 51L195.561 51L196.791 51L198.021 51L199.251 51L200.481 51L201.711 51L202.941 51L204.171 51L205.401 51L206.631 51L207.861 51L209.091 51L210.321 51L211.551 51L212.781 51L214.011 51L215.241 51L216.471 51L216.471 48L217.701 48L218.93 48L218.93 45L220.16 45L221.39 45L221.39 42L221.39 39L220.16 39L218.93 39L218.93 36L217.701 36L216.471 36L216.471 33L215.241 33L215.241 30L215.241 27L216.471 27L216.471 24L217.701 24L218.93 24L218.93 21L220.16 21L221.39 21L221.39 18L221.39 15L220.16 15L218.93 15L218.93 12L217.701 12L216.471 12L216.471 9.00001L215.241 9.00001L214.011 9.00001L212.781 9.00001L211.551 9.00001L210.321 9.00001L209.091 9.00001L207.861 9.00001L206.631 9.00001L205.401 9.00001L204.171 9.00001L202.941 9.00001L201.711 9.00001L200.481 9.00001L199.251 9.00001L198.021 9.00001L196.791 9.00001L195.561 9.00001L194.332 9.00001L193.102 9.00001L191.872 9.00001L190.642 9.00001L189.412 9.00001L188.182 9.00001L186.952 9.00001L185.722 9.00001L184.492 9.00001L183.262 9.00001L182.032 9.00001L180.802 9.00001L179.572 9.00001L178.342 9.00001L177.112 9.00001L175.882 9.00001L174.652 9.00001L173.422 9.00001L172.193 9.00001L170.963 9.00001L169.733 9.00001L168.503 9.00001L167.273 9.00001L166.043 9.00001L164.813 9.00001L163.583 9.00001L162.353 9.00001L161.123 9.00001L159.893 9.00001L158.663 9.00001L157.433 9.00001L156.203 9.00001L154.973 9.00001L153.743 9.00001L152.513 9.00001L151.283 9.00001L150.053 9.00001L148.824 9.00001L147.594 9.00001L146.364 9.00001L145.134 9.00001L143.904 9.00001L142.674 9.00001L141.444 9.00001L140.214 9.00001L138.984 9.00001L137.754 9.00001L136.524 9.00001L135.294 9.00001L134.064 9.00001L132.834 9.00001L131.604 9.00001L130.374 9.00001L129.144 9.00001L127.914 9.00001L126.684 9.00001L125.455 9.00001L124.225 9.00001L122.995 9.00001L121.765 9.00001L120.535 9.00001L119.305 9.00001L118.075 9.00001L116.845 9.00001L115.615 9.00001L114.385 9.00001L113.155 9.00001L111.925 9.00001L110.695 9.00001L109.465 9.00001L108.235 9.00001L107.005 9.00001L105.775 9.00001L104.545 9.00001L103.316 9.00001L102.086 9.00001L100.856 9.00001L99.6257 9.00001L98.3957 9L97.1658 9L95.9358 9L94.7059 9L93.4759 9L92.246 9L91.016 9L89.7861 9L88.5561 9L87.3262 9L86.0963 9L84.8663 9L83.6364 9L82.4064 9L81.1765 9L79.9465 9L78.7166 9L77.4866 9L76.2567 9L75.0267 9L73.7968 9L72.5668 9L71.3369 9L70.1069 9L68.877 9L67.6471 9L66.4171 9L65.1872 9L63.9572 9L62.7273 9L61.4973 9L60.2674 9L59.0374 9L57.8075 9L56.5775 9L55.3476 9L54.1176 9L52.8877 9L51.6578 9L50.4278 9L49.1979 9L47.9679 9L46.738 9L45.508 9L44.2781 9L43.0481 9L41.8182 9L40.5882 9L39.3583 9L38.1283 9L36.8984 9L35.6684 9L34.4385 9L33.2086 9L31.9786 9L30.7487 9L29.5187 9L28.2888 9L27.0588 9L25.8289 9L24.5989 9L23.369 9L22.139 9L20.9091 9L19.6791 9L18.4492 9L17.2193 9L15.9893 9L14.7594 9L13.5294 9L12.2995 9L11.0695 9L9.83957 9L8.60963 9L7.37968 9L6.14973 9L4.91979 9L3.68984 9L2.45989 9L1.22995 9L5.00845e-07 9L4.6507e-07 12L4.29296e-07 15L3.93521e-07 18L3.57746e-07 21L3.21972e-07 24L2.86197e-07 27L2.50422e-07 30L2.14648e-07 33L1.78873e-07 36L1.43099e-07 39L1.07324e-07 42L7.15493e-08 45L3.57746e-08 48L0 51L1.22995 51L2.45989 51Z" fill="#B83941"/>
<path d="M2.45989 9L3.68984 9L4.91979 9L6.14973 9L7.37968 9L8.60963 9L9.83957 9L11.0695 9L12.2995 9L13.5294 9L14.7594 9L15.9893 9L17.2193 9L18.4492 9L19.6791 9L20.9091 9L22.139 9L23.369 9L24.5989 9L25.8289 9L27.0588 9L28.2888 9L29.5187 9L30.7487 9L31.9786 9L33.2086 9L34.4385 9L35.6684 9L36.8984 9L38.1283 9L39.3583 9L40.5882 9L41.8182 9L43.0481 9L44.2781 9L45.508 9L46.738 9L47.9679 9L49.1979 9L50.4278 9L51.6578 9L52.8877 9L54.1176 9L55.3476 9L56.5775 9L57.8075 9L59.0374 9L60.2674 9L61.4973 9L62.7273 9L63.9572 9L65.1872 9L66.4171 9L67.6471 9L68.877 9L70.1069 9L71.3369 9L72.5668 9L73.7968 9L75.0267 9L76.2567 9L77.4866 9L78.7166 9L79.9465 9L81.1765 9L82.4064 9L83.6364 9L84.8663 9L86.0963 9L87.3262 9L88.5561 9L89.7861 9L91.016 9L92.246 9L93.4759 9L94.7059 9L95.9358 9L97.1658 9L98.3957 9L99.6257 9L100.856 9L102.086 9L103.316 9L104.545 9L105.775 9L107.005 9L108.235 9L109.465 9L110.695 9L111.925 9L113.155 9L114.385 9L115.615 9L116.845 9L118.075 9L119.305 9L120.535 9L121.765 9L122.995 9L124.225 9L125.455 9L126.684 9L127.914 9L129.144 9L130.374 9L131.604 9L132.834 9L134.064 9L135.294 9L136.524 9L137.754 9L138.984 9L140.214 9L141.444 9L142.674 9L143.904 9L145.134 9L146.364 9L147.594 9L148.824 9L150.053 9L151.283 9L152.513 9L153.743 9L154.973 9L156.203 9L157.433 9L158.663 9L159.893 9L161.123 9L162.353 9L163.583 9L164.813 9L166.043 9L167.273 9L168.503 9L169.733 9L170.963 9L172.193 9L173.422 9L174.652 9L175.882 9L177.112 9L178.342 9L179.572 9L180.802 9L182.032 9L183.262 9L184.492 9L185.722 9L186.952 9L188.182 9L189.412 9L190.642 9L191.872 9L193.102 9L194.332 9L195.561 9L196.791 9L198.021 9L199.251 9L200.481 9L201.711 9L202.941 9L204.171 9L205.401 9L206.631 9L207.861 9L209.091 9L210.321 9L211.551 9L212.781 9L214.011 9L215.241 9L216.471 9L216.471 6L215.241 6L214.011 6L212.781 6L211.551 6L210.321 6L209.091 6L207.861 6L206.631 6L205.401 6L204.171 6L202.941 6L201.711 6L200.481 6L199.251 6L198.021 6L196.791 6L195.561 6L194.332 6L193.102 6L191.872 6L190.642 6L189.412 6L188.182 6L186.952 6L185.722 6L184.492 6L183.262 6L182.032 6L180.802 6L179.572 6L178.342 6L177.112 6L175.882 6L174.652 6L173.422 6L172.193 6L170.963 6L169.733 6L168.503 6L167.273 6L166.043 6L164.813 6L163.583 6L162.353 6L161.123 6L159.893 6L158.663 6L157.433 6L156.203 6L154.973 6L153.743 6L152.513 6L151.283 6L150.053 6L148.824 6L147.594 6L146.364 6L145.134 6L143.904 6L142.674 6L141.444 6L140.214 6L138.984 6L137.754 6L136.524 6L135.294 6L134.064 6L132.834 6L131.604 6L130.374 6L129.144 6L127.914 6L126.684 6L125.455 6L124.225 6L122.995 6L121.765 6L120.535 6L119.305 6L118.075 6L116.845 6L115.615 6L114.385 6L113.155 6L111.925 6L110.695 6L109.465 6L108.235 6L107.005 6L105.775 6L104.545 6L103.316 6L102.086 6L100.856 6L99.6257 6L98.3957 6L97.1658 6L95.9358 6L94.7059 6L93.4759 6L92.246 6L91.016 6L89.7861 6L88.5561 6L87.3262 6L86.0963 6L84.8663 6L83.6364 6L82.4064 6L81.1765 6L79.9465 6L78.7166 6L77.4866 6L76.2567 6L75.0267 6L73.7968 6L72.5668 6L71.3369 6L70.1069 6L68.877 6L67.6471 6L66.4171 6L65.1872 6L63.9572 6L62.7273 6L61.4973 6L60.2674 6L59.0374 6L57.8075 6L56.5775 6L55.3476 6L54.1176 6L52.8877 6L51.6578 6L50.4278 6L49.1979 6L47.9679 6L46.738 6L45.508 6L44.2781 6L43.0481 6L41.8182 6L40.5882 6L39.3583 6L38.1283 6L36.8984 6L35.6684 6L34.4385 6L33.2086 6L31.9786 6L30.7487 6L29.5187 6L28.2888 6L27.0588 6L25.8289 6L24.5989 6L23.369 6L22.139 6L20.9091 6L19.6791 6L18.4492 6L17.2193 6L15.9893 6L14.7594 6L13.5294 6L12.2995 6L11.0695 6L9.83957 6L8.60963 6L7.37968 6L6.14973 6L4.91979 6L3.68984 6L2.45989 6L1.22995 6L3.57746e-08 6L0 9L1.22995 9L2.45989 9Z" fill="#FFD700"/>
<path d="M215.241 57L214.011 57L212.781 57L211.551 57L210.321 57L209.091 57L207.861 57L206.631 57L205.401 57L204.171 57L202.941 57L201.711 57L200.481 57L199.251 57L198.021 57L196.791 57L195.561 57L194.332 57L193.102 57L191.872 57L190.642 57L189.412 57L188.182 57L186.952 57L185.722 57L184.492 57L183.262 57L182.032 57L180.802 57L179.572 57L178.342 57L177.112 57L175.882 57L174.652 57L173.422 57L172.193 57L170.963 57L169.733 57L168.503 57L167.273 57L166.043 57L164.813 57L163.583 57L162.353 57L161.123 57L159.893 57L158.663 57L157.433 57L156.203 57L154.973 57L153.743 57L152.513 57L151.283 57L150.053 57L148.824 57L147.594 57L146.364 57L145.134 57L143.904 57L142.674 57L141.444 57L140.214 57L138.984 57L137.754 57L136.524 57L135.294 57L134.064 57L132.834 57L131.604 57L130.374 57L129.144 57L127.914 57L126.684 57L125.455 57L124.225 57L122.995 57L121.765 57L120.535 57L119.305 57L118.075 57L116.845 57L115.615 57L114.385 57L113.155 57L111.925 57L110.695 57L109.465 57L108.235 57L107.005 57L105.775 57L104.545 57L103.316 57L102.086 57L100.856 57L99.6257 57L98.3957 57L97.1658 57L95.9358 57L94.7059 57L93.4759 57L92.246 57L91.016 57L89.7861 57L88.5561 57L87.3262 57L86.0963 57L84.8663 57L83.6364 57L82.4064 57L81.1765 57L79.9465 57L78.7166 57L77.4866 57L76.2567 57L75.0267 57L73.7968 57L72.5668 57L71.3369 57L70.1069 57L68.877 57L67.6471 57L66.4171 57L65.1872 57L63.9572 57L62.7273 57L61.4973 57L60.2674 57L59.0374 57L57.8075 57L56.5775 57L55.3476 57L54.1176 57L52.8877 57L51.6578 57L50.4278 57L49.1979 57L47.9679 57L46.738 57L45.508 57L44.2781 57L43.0481 57L41.8182 57L40.5882 57L39.3583 57L38.1283 57L36.8984 57L35.6684 57L34.4385 57L33.2086 57L31.9786 57L30.7487 57L29.5187 57L28.2888 57L27.0588 57L25.8289 57L24.5989 57L23.369 57L22.139 57L20.9091 57L19.6791 57L18.4492 57L17.2193 57L15.9893 57L14.7594 57L13.5294 57L12.2995 57L11.0695 57L9.83957 57L8.60963 57L7.37968 57L6.14973 57L4.91979 57L3.68984 57L2.45989 57L1.22995 57L3.57746e-08 57L0 60L1.22995 60L2.45989 60L3.68984 60L4.91979 60L6.14973 60L7.37968 60L8.60963 60L9.83957 60L11.0695 60L12.2995 60L13.5294 60L14.7594 60L15.9893 60L17.2193 60L18.4492 60L19.6791 60L20.9091 60L22.139 60L23.369 60L24.5989 60L25.8289 60L27.0588 60L28.2888 60L29.5187 60L30.7487 60L31.9786 60L33.2086 60L34.4385 60L35.6684 60L36.8984 60L38.1283 60L39.3583 60L40.5882 60L41.8182 60L43.0481 60L44.2781 60L45.508 60L46.738 60L47.9679 60L49.1979 60L50.4278 60L51.6578 60L52.8877 60L54.1176 60L55.3476 60L56.5775 60L57.8075 60L59.0374 60L60.2674 60L61.4973 60L62.7273 60L63.9572 60L65.1872 60L66.4171 60L67.6471 60L68.877 60L70.1069 60L71.3369 60L72.5668 60L73.7968 60L75.0267 60L76.2567 60L77.4866 60L78.7166 60L79.9465 60L81.1765 60L82.4064 60L83.6364 60L84.8663 60L86.0963 60L87.3262 60L88.5561 60L89.7861 60L91.016 60L92.246 60L93.4759 60L94.7059 60L95.9358 60L97.1658 60L98.3957 60L99.6257 60L100.856 60L102.086 60L103.316 60L104.545 60L105.775 60L107.005 60L108.235 60L109.465 60L110.695 60L111.925 60L113.155 60L114.385 60L115.615 60L116.845 60L118.075 60L119.305 60L120.535 60L121.765 60L122.995 60L124.225 60L125.455 60L126.684 60L127.914 60L129.144 60L130.374 60L131.604 60L132.834 60L134.064 60L135.294 60L136.524 60L137.754 60L138.984 60L140.214 60L141.444 60L142.674 60L143.904 60L145.134 60L146.364 60L147.594 60L148.824 60L150.053 60L151.283 60L152.513 60L153.743 60L154.973 60L156.203 60L157.433 60L158.663 60L159.893 60L161.123 60L162.353 60L163.583 60L164.813 60L166.043 60L167.273 60L168.503 60L169.733 60L170.963 60L172.193 60L173.422 60L174.652 60L175.882 60L177.112 60L178.342 60L179.572 60L180.802 60L182.032 60L183.262 60L184.492 60L185.722 60L186.952 60L188.182 60L189.412 60L190.642 60L191.872 60L193.102 60L194.332 60L195.561 60L196.791 60L198.021 60L199.251 60L200.481 60L201.711 60L202.941 60L204.171 60L205.401 60L206.631 60L207.861 60L209.091 60L210.321 60L211.551 60L212.781 60L214.011 60L215.241 60L216.471 60L217.701 60L217.701 57L216.471 57L215.241 57Z" fill="black"/>
<path d="M215.24 30L215.24 33L216.47 33L216.47 30L216.47 27L215.24 27L215.24 30Z" fill="#FFD700"/>
<path d="M215.241 3.00001L214.011 3.00001L212.781 3.00001L211.551 3.00001L210.321 3.00001L209.091 3.00001L207.861 3.00001L206.631 3.00001L205.401 3.00001L204.171 3.00001L202.941 3.00001L201.711 3.00001L200.481 3.00001L199.251 3.00001L198.021 3.00001L196.791 3.00001L195.561 3.00001L194.332 3.00001L193.102 3.00001L191.872 3.00001L190.642 3.00001L189.412 3.00001L188.182 3.00001L186.952 3.00001L185.722 3.00001L184.492 3.00001L183.262 3.00001L182.032 3.00001L180.802 3.00001L179.572 3.00001L178.342 3.00001L177.112 3.00001L175.882 3.00001L174.652 3.00001L173.422 3.00001L172.193 3.00001L170.963 3.00001L169.733 3.00001L168.503 3.00001L167.273 3.00001L166.043 3.00001L164.813 3.00001L163.583 3.00001L162.353 3.00001L161.123 3.00001L159.893 3.00001L158.663 3.00001L157.433 3.00001L156.203 3.00001L154.973 3.00001L153.743 3.00001L152.513 3.00001L151.283 3.00001L150.053 3.00001L148.824 3.00001L147.594 3.00001L146.364 3.00001L145.134 3.00001L143.904 3.00001L142.674 3.00001L141.444 3.00001L140.214 3.00001L138.984 3.00001L137.754 3.00001L136.524 3.00001L135.294 3.00001L134.064 3.00001L132.834 3.00001L131.604 3.00001L130.374 3.00001L129.144 3.00001L127.914 3.00001L126.684 3.00001L125.455 3.00001L124.225 3.00001L122.995 3.00001L121.765 3.00001L120.535 3.00001L119.305 3.00001L118.075 3.00001L116.845 3.00001L115.615 3.00001L114.385 3.00001L113.155 3.00001L111.925 3.00001L110.695 3.00001L109.465 3.00001L108.235 3.00001L107.005 3.00001L105.775 3.00001L104.545 3.00001L103.316 3.00001L102.086 3.00001L100.856 3.00001L99.6257 3.00001L98.3957 3L97.1658 3L95.9358 3L94.7059 3L93.4759 3L92.246 3L91.016 3L89.7861 3L88.5561 3L87.3262 3L86.0963 3L84.8663 3L83.6364 3L82.4064 3L81.1765 3L79.9465 3L78.7166 3L77.4866 3L76.2567 3L75.0267 3L73.7968 3L72.5668 3L71.3369 3L70.1069 3L68.877 3L67.6471 3L66.4171 3L65.1872 3L63.9572 3L62.7273 3L61.4973 3L60.2674 3L59.0374 3L57.8075 3L56.5775 3L55.3476 3L54.1176 3L52.8877 3L51.6578 3L50.4278 3L49.1979 3L47.9679 3L46.738 3L45.508 3L44.2781 3L43.0481 3L41.8182 3L40.5882 3L39.3583 3L38.1283 3L36.8984 3L35.6685 3L34.4385 3L33.2086 3L31.9786 3L30.7487 3L29.5187 3L28.2888 3L27.0588 3L25.8289 3L24.5989 3L23.369 3L22.139 3L20.9091 3L19.6791 3L18.4492 3L17.2193 3L15.9893 3L14.7594 3L13.5294 3L12.2995 3L11.0695 3L9.83957 3L8.60963 3L7.37968 3L6.14973 3L4.91979 3L3.68984 3L2.45989 3L1.22995 3L6.43944e-07 3L6.08169e-07 6L1.22995 6L2.45989 6L3.68984 6L4.91979 6L6.14973 6L7.37968 6L8.60963 6L9.83957 6L11.0695 6L12.2995 6L13.5294 6L14.7594 6L15.9893 6L17.2193 6L18.4492 6L19.6791 6L20.9091 6L22.139 6L23.369 6L24.5989 6L25.8289 6L27.0588 6L28.2888 6L29.5187 6L30.7487 6L31.9786 6L33.2086 6L34.4385 6L35.6685 6L36.8984 6L38.1283 6L39.3583 6L40.5882 6L41.8182 6L43.0481 6L44.2781 6L45.508 6L46.738 6L47.9679 6L49.1979 6L50.4278 6L51.6578 6L52.8877 6L54.1176 6L55.3476 6L56.5775 6L57.8075 6L59.0374 6L60.2674 6L61.4973 6L62.7273 6L63.9572 6L65.1872 6L66.4171 6L67.6471 6L68.877 6L70.1069 6L71.3369 6L72.5668 6L73.7968 6L75.0267 6L76.2567 6L77.4866 6L78.7166 6L79.9465 6L81.1765 6L82.4064 6L83.6364 6L84.8663 6L86.0963 6L87.3262 6L88.5561 6L89.7861 6L91.016 6L92.246 6L93.4759 6L94.7059 6L95.9358 6L97.1658 6L98.3957 6L99.6257 6.00001L100.856 6.00001L102.086 6.00001L103.316 6.00001L104.545 6.00001L105.775 6.00001L107.005 6.00001L108.235 6.00001L109.465 6.00001L110.695 6.00001L111.925 6.00001L113.155 6.00001L114.385 6.00001L115.615 6.00001L116.845 6.00001L118.075 6.00001L119.305 6.00001L120.535 6.00001L121.765 6.00001L122.995 6.00001L124.225 6.00001L125.455 6.00001L126.684 6.00001L127.914 6.00001L129.144 6.00001L130.374 6.00001L131.604 6.00001L132.834 6.00001L134.064 6.00001L135.294 6.00001L136.524 6.00001L137.754 6.00001L138.984 6.00001L140.214 6.00001L141.444 6.00001L142.674 6.00001L143.904 6.00001L145.134 6.00001L146.364 6.00001L147.594 6.00001L148.824 6.00001L150.053 6.00001L151.283 6.00001L152.513 6.00001L153.743 6.00001L154.973 6.00001L156.203 6.00001L157.433 6.00001L158.663 6.00001L159.893 6.00001L161.123 6.00001L162.353 6.00001L163.583 6.00001L164.813 6.00001L166.043 6.00001L167.273 6.00001L168.503 6.00001L169.733 6.00001L170.963 6.00001L172.193 6.00001L173.422 6.00001L174.652 6.00001L175.882 6.00001L177.112 6.00001L178.342 6.00001L179.572 6.00001L180.802 6.00001L182.032 6.00001L183.262 6.00001L184.492 6.00001L185.722 6.00001L186.952 6.00001L188.182 6.00001L189.412 6.00001L190.642 6.00001L191.872 6.00001L193.102 6.00001L194.332 6.00001L195.561 6.00001L196.791 6.00001L198.021 6.00001L199.251 6.00001L200.481 6.00001L201.711 6.00001L202.941 6.00001L204.171 6.00001L205.401 6.00001L206.631 6.00001L207.861 6.00001L209.091 6.00001L210.321 6.00001L211.551 6.00001L212.781 6.00001L214.011 6.00001L215.241 6.00001L216.471 6.00001L216.471 9.00001L217.701 9.00001L218.93 9.00001L218.93 12L220.16 12L221.39 12L221.39 15L222.62 15L223.85 15L223.85 18L223.85 21L222.62 21L221.39 21L221.39 24L220.16 24L218.93 24L218.93 27L217.701 27L216.471 27L216.471 30L216.471 33L217.701 33L218.93 33L218.93 36L220.16 36L221.39 36L221.39 39L222.62 39L223.85 39L223.85 42L223.85 45L222.62 45L221.39 45L221.39 48L220.16 48L218.93 48L218.93 51L217.701 51L216.471 51L216.471 54L215.241 54L214.011 54L212.781 54L211.551 54L210.321 54L209.091 54L207.861 54L206.631 54L205.401 54L204.171 54L202.941 54L201.711 54L200.481 54L199.251 54L198.021 54L196.791 54L195.561 54L194.332 54L193.102 54L191.872 54L190.642 54L189.412 54L188.182 54L186.952 54L185.722 54L184.492 54L183.262 54L182.032 54L180.802 54L179.572 54L178.342 54L177.112 54L175.882 54L174.652 54L173.422 54L172.193 54L170.963 54L169.733 54L168.503 54L167.273 54L166.043 54L164.813 54L163.583 54L162.353 54L161.123 54L159.893 54L158.663 54L157.433 54L156.203 54L154.973 54L153.743 54L152.513 54L151.283 54L150.053 54L148.824 54L147.594 54L146.364 54L145.134 54L143.904 54L142.674 54L141.444 54L140.214 54L138.984 54L137.754 54L136.524 54L135.294 54L134.064 54L132.834 54L131.604 54L130.374 54L129.144 54L127.914 54L126.684 54L125.455 54L124.225 54L122.995 54L121.765 54L120.535 54L119.305 54L118.075 54L116.845 54L115.615 54L114.385 54L113.155 54L111.925 54L110.695 54L109.465 54L108.235 54L107.005 54L105.775 54L104.545 54L103.316 54L102.086 54L100.856 54L99.6257 54L98.3957 54L97.1658 54L95.9358 54L94.7059 54L93.4759 54L92.246 54L91.016 54L89.7861 54L88.5561 54L87.3262 54L86.0963 54L84.8663 54L83.6364 54L82.4064 54L81.1765 54L79.9465 54L78.7166 54L77.4866 54L76.2567 54L75.0267 54L73.7968 54L72.5668 54L71.3369 54L70.1069 54L68.877 54L67.6471 54L66.4171 54L65.1872 54L63.9572 54L62.7273 54L61.4973 54L60.2674 54L59.0374 54L57.8075 54L56.5775 54L55.3476 54L54.1176 54L52.8877 54L51.6578 54L50.4278 54L49.1979 54L47.9679 54L46.738 54L45.508 54L44.2781 54L43.0481 54L41.8182 54L40.5882 54L39.3583 54L38.1283 54L36.8984 54L35.6684 54L34.4385 54L33.2086 54L31.9786 54L30.7487 54L29.5187 54L28.2888 54L27.0588 54L25.8289 54L24.5989 54L23.369 54L22.139 54L20.9091 54L19.6791 54L18.4492 54L17.2193 54L15.9893 54L14.7594 54L13.5294 54L12.2995 54L11.0695 54L9.83957 54L8.60963 54L7.37968 54L6.14973 54L4.91979 54L3.68984 54L2.45989 54L1.22995 54L3.57746e-08 54L0 57L1.22995 57L2.45989 57L3.68984 57L4.91979 57L6.14973 57L7.37968 57L8.60963 57L9.83957 57L11.0695 57L12.2995 57L13.5294 57L14.7594 57L15.9893 57L17.2193 57L18.4492 57L19.6791 57L20.9091 57L22.139 57L23.369 57L24.5989 57L25.8289 57L27.0588 57L28.2888 57L29.5187 57L30.7487 57L31.9786 57L33.2086 57L34.4385 57L35.6684 57L36.8984 57L38.1283 57L39.3583 57L40.5882 57L41.8182 57L43.0481 57L44.2781 57L45.508 57L46.738 57L47.9679 57L49.1979 57L50.4278 57L51.6578 57L52.8877 57L54.1176 57L55.3476 57L56.5775 57L57.8075 57L59.0374 57L60.2674 57L61.4973 57L62.7273 57L63.9572 57L65.1872 57L66.4171 57L67.6471 57L68.877 57L70.1069 57L71.3369 57L72.5668 57L73.7968 57L75.0267 57L76.2567 57L77.4866 57L78.7166 57L79.9465 57L81.1765 57L82.4064 57L83.6364 57L84.8663 57L86.0963 57L87.3262 57L88.5561 57L89.7861 57L91.016 57L92.246 57L93.4759 57L94.7059 57L95.9358 57L97.1658 57L98.3957 57L99.6257 57L100.856 57L102.086 57L103.316 57L104.545 57L105.775 57L107.005 57L108.235 57L109.465 57L110.695 57L111.925 57L113.155 57L114.385 57L115.615 57L116.845 57L118.075 57L119.305 57L120.535 57L121.765 57L122.995 57L124.225 57L125.455 57L126.684 57L127.914 57L129.144 57L130.374 57L131.604 57L132.834 57L134.064 57L135.294 57L136.524 57L137.754 57L138.984 57L140.214 57L141.444 57L142.674 57L143.904 57L145.134 57L146.364 57L147.594 57L148.824 57L150.053 57L151.283 57L152.513 57L153.743 57L154.973 57L156.203 57L157.433 57L158.663 57L159.893 57L161.123 57L162.353 57L163.583 57L164.813 57L166.043 57L167.273 57L168.503 57L169.733 57L170.963 57L172.193 57L173.422 57L174.652 57L175.882 57L177.112 57L178.342 57L179.572 57L180.802 57L182.032 57L183.262 57L184.492 57L185.722 57L186.952 57L188.182 57L189.412 57L190.642 57L191.872 57L193.102 57L194.332 57L195.561 57L196.791 57L198.021 57L199.251 57L200.481 57L201.711 57L202.941 57L204.171 57L205.401 57L206.631 57L207.861 57L209.091 57L210.321 57L211.551 57L212.781 57L214.011 57L215.241 57L216.471 57L217.701 57L217.701 54L218.93 54L220.16 54L220.16 51L221.39 51L222.62 51L222.62 48L223.85 48L225.08 48L225.08 45L226.31 45L227.54 45L227.54 42L227.54 39L226.31 39L225.08 39L225.08 36L223.85 36L222.62 36L222.62 33L221.39 33L220.16 33L220.16 30L220.16 27L221.39 27L222.62 27L222.62 24L223.85 24L225.08 24L225.08 21L226.31 21L227.54 21L227.54 18L227.54 15L226.31 15L225.08 15L225.08 12L223.85 12L222.62 12L222.62 9.00001L221.39 9.00001L220.16 9.00001L220.16 6.00001L218.93 6.00001L217.701 6.00001L217.701 3.00001L216.471 3.00001L215.241 3.00001Z" fill="#B83941"/>
<path d="M216.471 48L216.471 51L217.701 51L218.931 51L218.931 48L217.701 48L216.471 48Z" fill="#FFD700"/>
<path d="M217.701 36L218.931 36L218.931 33L217.701 33L216.471 33L216.471 36L217.701 36Z" fill="#FFD700"/>
<path d="M216.471 24L216.471 27L217.701 27L218.931 27L218.931 24L217.701 24L216.471 24Z" fill="#FFD700"/>
<path d="M217.701 12L218.931 12L218.931 9L217.701 9L216.471 9L216.471 12L217.701 12Z" fill="#FFD700"/>
<path d="M217.7 54L217.7 57L218.93 57L220.16 57L220.16 54L218.93 54L217.7 54Z" fill="black"/>
<path d="M218.93 6L220.16 6L220.16 3L218.93 3L217.7 3L217.7 6L218.93 6Z" fill="black"/>
<path d="M218.931 45L218.931 48L220.161 48L221.391 48L221.391 45L220.161 45L218.931 45Z" fill="#FFD700"/>
<path d="M220.161 39L221.391 39L221.391 36L220.161 36L218.931 36L218.931 39L220.161 39Z" fill="#FFD700"/>
<path d="M218.931 21L218.931 24L220.161 24L221.391 24L221.391 21L220.161 21L218.931 21Z" fill="#FFD700"/>
<path d="M220.161 15L221.391 15L221.391 12L220.161 12L218.931 12L218.931 15L220.161 15Z" fill="#FFD700"/>
<path d="M220.16 51L220.16 54L221.39 54L222.62 54L222.62 51L221.39 51L220.16 51Z" fill="black"/>
<path d="M220.16 27L220.16 30L220.16 33L221.39 33L222.62 33L222.62 30L222.62 27L221.39 27L220.16 27Z" fill="black"/>
<path d="M221.39 9L222.62 9L222.62 6L221.39 6L220.16 6L220.16 9L221.39 9Z" fill="black"/>
<path d="M221.391 45L222.621 45L223.851 45L223.851 42L223.851 39L222.621 39L221.391 39L221.391 42L221.391 45Z" fill="#FFD700"/>
<path d="M221.391 21L222.621 21L223.851 21L223.851 18L223.851 15L222.621 15L221.391 15L221.391 18L221.391 21Z" fill="#FFD700"/>
<path d="M222.62 48L222.62 51L223.85 51L225.08 51L225.08 48L223.85 48L222.62 48Z" fill="black"/>
<path d="M223.85 36L225.08 36L225.08 33L223.85 33L222.62 33L222.62 36L223.85 36Z" fill="black"/>
<path d="M222.62 24L222.62 27L223.85 27L225.08 27L225.08 24L223.85 24L222.62 24Z" fill="black"/>
<path d="M223.85 12L225.08 12L225.08 9L223.85 9L222.62 9L222.62 12L223.85 12Z" fill="black"/>
<path d="M225.08 45L225.08 48L226.31 48L227.54 48L227.54 45L226.31 45L225.08 45Z" fill="black"/>
<path d="M226.31 39L227.54 39L227.54 36L226.31 36L225.08 36L225.08 39L226.31 39Z" fill="black"/>
<path d="M225.08 21L225.08 24L226.31 24L227.54 24L227.54 21L226.31 21L225.08 21Z" fill="black"/>
<path d="M226.31 15L227.54 15L227.54 12L226.31 12L225.08 12L225.08 15L226.31 15Z" fill="black"/>
<path d="M227.54 45L228.77 45L230 45L230 42L230 39L228.77 39L227.54 39L227.54 42L227.54 45Z" fill="black"/>
<path d="M227.54 21L228.77 21L230 21L230 18L230 15L228.77 15L227.54 15L227.54 18L227.54 21Z" fill="black"/>
<path d="M21.178 42L17.293 42L17.293 26.46L26.988 26.46L26.988 28.385L21.178 28.385L21.178 32.27L25.063 32.27L25.063 34.23L21.178 34.23L21.178 42ZM32.8333 42L28.9483 42L28.9483 30.345L32.8333 30.345L32.8333 32.27L34.7583 32.27L34.7583 30.345L36.7183 30.345L36.7183 34.23L32.8333 34.23L32.8333 42ZM42.9505 42L39.0655 42L39.0655 30.345L42.9505 30.345L42.9505 42ZM39.0655 28.385L39.0655 26.46L42.9505 26.46L42.9505 28.385L39.0655 28.385ZM56.5193 42L48.7493 42L48.7493 40.04L46.8243 40.04L46.8243 32.27L48.7493 32.27L48.7493 30.345L56.5193 30.345L56.5193 32.27L58.4793 32.27L58.4793 34.23L56.5193 34.23L56.5193 36.155L52.6343 36.155L52.6343 38.115L50.7093 38.115L50.7093 40.04L56.5193 40.04L56.5193 38.115L58.4793 38.115L58.4793 40.04L56.5193 40.04L56.5193 42ZM54.5943 32.27L50.7093 32.27L50.7093 36.155L52.6343 36.155L52.6343 34.23L54.5943 34.23L54.5943 32.27ZM65.8509 42L61.9659 42L61.9659 30.345L65.8509 30.345L65.8509 32.27L67.7759 32.27L67.7759 30.345L71.6609 30.345L71.6609 32.27L73.6209 32.27L73.6209 42L69.7359 42L69.7359 32.27L67.7759 32.27L67.7759 34.23L65.8509 34.23L65.8509 42ZM85.2876 30.345L85.2876 26.46L89.1726 26.46L89.1726 42L79.4426 42L79.4426 40.04L77.5176 40.04L77.5176 32.27L79.4426 32.27L79.4426 30.345L85.2876 30.345ZM85.2876 40.04L85.2876 32.27L81.4026 32.27L81.4026 40.04L85.2876 40.04ZM98.4944 40.04L98.4944 42L92.6494 42L92.6494 40.04L96.5694 40.04L96.5694 38.115L94.6094 38.115L94.6094 36.155L92.6494 36.155L92.6494 32.27L94.6094 32.27L94.6094 30.345L100.454 30.345L100.454 32.27L96.5694 32.27L96.5694 34.23L98.4944 34.23L98.4944 36.155L100.454 36.155L100.454 40.04L98.4944 40.04Z" fill="white"/>
</g>
<defs>
<filter id="filter0_d_559_4335" x="-4" y="0" width="238" height="68" filterUnits="userSpaceOnUse" color-interpolation-filters="sRGB">
<feFlood flood-opacity="0" result="BackgroundImageFix"/>
<feColorMatrix in="SourceAlpha" type="matrix" values="0 0 0 0 0 0 0 0 0 0 0 0 0 0 0 0 0 0 127 0" result="hardAlpha"/>
<feOffset dy="4"/>
<feGaussianBlur stdDeviation="2"/>
<feComposite in2="hardAlpha" operator="out"/>
<feColorMatrix type="matrix" values="0 0 0 0 0 0 0 0 0 0 0 0 0 0 0 0 0 0 0.25 0"/>
<feBlend mode="normal" in2="BackgroundImageFix" result="effect1_dropShadow_559_4335"/>
<feBlend mode="normal" in="SourceGraphic" in2="effect1_dropShadow_559_4335" result="shape"/>
</filter>
</defs>
</svg>
